<svg width="1440" height="1229" viewBox="0 0 1440 1229" fill="none" xmlns="http://www.w3.org/2000/svg">
<mask id="mask0_36_200" style="mask-type:alpha" maskUnits="userSpaceOnUse" x="0" y="0" width="1440" height="1229">
<rect width="1440" height="1229" fill="#D9D9D9"/>
</mask>
<g mask="url(#mask0_36_200)">
<g opacity="0.3">
<path d="M81.3412 56.8633L-9.81052 7.25657C-11.8722 6.1385 -12.6219 3.60815 -11.4349 1.60741C-10.2478 -0.334496 -7.5614 -1.04061 -5.43724 0.0774548L85.7145 49.6842C87.7762 50.8023 88.5259 53.3326 87.3389 55.3334C86.1519 57.2753 83.4654 57.9814 81.3412 56.8633Z" fill="white"/>
</g>
<g opacity="0.3">
<path d="M1105.42 363.907C1054.97 363.907 1014 325.315 1014 277.8C1014 230.284 1054.97 191.692 1105.42 191.692C1155.87 191.692 1196.84 230.284 1196.84 277.8C1196.84 325.315 1155.87 363.907 1105.42 363.907ZM1105.42 194.937C1056.94 194.937 1017.45 232.138 1017.45 277.8C1017.45 323.461 1056.94 360.662 1105.42 360.662C1153.9 360.662 1193.39 323.461 1193.39 277.8C1193.39 232.138 1153.9 194.937 1105.42 194.937Z" fill="white"/>
</g>
<g opacity="0.2">
<path d="M90.9612 448.757C36.4201 448.757 -8 406.977 -8 355.546C-8 304.115 36.3576 262.335 90.9612 262.335C145.565 262.335 189.922 304.115 189.922 355.546C189.922 406.977 145.565 448.757 90.9612 448.757ZM90.9612 265.924C38.4818 265.924 -4.25147 306.116 -4.25147 355.605C-4.25147 405.094 38.4818 445.285 90.9612 445.285C143.441 445.285 186.174 405.094 186.174 355.605C186.174 306.116 143.441 265.924 90.9612 265.924Z" fill="white"/>
</g>
<path opacity="0.6" d="M31.5938 202.848C92.2934 214.677 130.867 270.46 118.447 326.996C106.028 383.533 47.12 420.318 -13.5795 408.488C-74.2791 396.659 -112.852 340.876 -100.433 284.34C-88.0134 227.803 -29.1058 191.018 31.5938 202.848Z" stroke="#F7C1B7" stroke-width="10"/>
<g opacity="0.2">
<path d="M1228 658.866L1638.85 292.243C1648.32 283.874 1663.24 284.247 1672.16 293.039C1681.05 301.952 1680.65 316.006 1671.32 324.411L1260.47 691.034C1251 699.403 1236.08 699.031 1227.16 690.238C1218.27 681.325 1218.67 667.271 1228 658.866Z" fill="white"/>
</g>
<g opacity="0.4">
<path d="M-229.995 962.157L180.853 595.534C190.316 587.165 205.237 587.537 214.16 596.33C223.045 605.243 222.65 619.297 213.315 627.702L-197.533 994.325C-206.996 1002.69 -221.917 1002.32 -230.84 993.529C-239.725 984.616 -239.33 970.562 -229.995 962.157Z" fill="#F7C3BA"/>
</g>
<g opacity="0.4">
<path opacity="0.6" d="M329.005 340.505L739.853 -26.1179C749.316 -34.4867 764.237 -34.1145 773.16 -25.322C782.045 -16.4089 781.65 -2.3548 772.315 6.04979L361.467 372.673C352.004 381.042 337.083 380.67 328.16 371.877C319.275 362.964 319.67 348.91 329.005 340.505Z" fill="#FFEEEB"/>
</g>
<g opacity="0.4">
<path d="M482.199 946.223L836.008 630.499C844.157 623.293 857.007 623.613 864.691 631.185C872.343 638.861 872.003 650.963 863.964 658.201L510.155 973.925C502.005 981.132 489.156 980.811 481.472 973.24C473.82 965.564 474.161 953.461 482.199 946.223Z" fill="#FFEEEB"/>
</g>
<g opacity="0.3">
<path d="M1155.23 140.06L1029.03 71.4457C1026.15 69.8569 1025.15 66.385 1026.78 63.6193C1028.46 60.9124 1032.15 59.9709 1035.09 61.5009L1161.29 130.115C1164.16 131.704 1165.16 135.175 1163.54 137.941C1161.85 140.648 1158.16 141.59 1155.23 140.06Z" fill="white"/>
</g>
<rect opacity="0.25" width="1381.86" height="46.2796" transform="matrix(0.727938 -0.685643 0.414341 0.910122 964 1188.13)" fill="#FFE1DC"/>
</g>
</svg>
