<svg width="1920" height="1639" viewBox="0 0 1920 1639" fill="none" xmlns="http://www.w3.org/2000/svg">
<g clip-path="url(#clip0_298_26)">
<mask id="mask0_298_26" style="mask-type:alpha" maskUnits="userSpaceOnUse" x="0" y="0" width="1920" height="1639">
<path d="M1920 0H0V1638.67H1920V0Z" fill="#D9D9D9"/>
</mask>
<g mask="url(#mask0_298_26)">
<g opacity="0.3">
<path d="M108.455 75.8177L-13.0807 9.67543C-15.8296 8.18467 -16.8292 4.81087 -15.2465 2.14321C-13.6637 -0.445995 -10.0819 -1.38748 -7.24966 0.103273L114.286 66.2456C117.035 67.7364 118.035 71.1101 116.452 73.7779C114.869 76.3671 111.287 77.3085 108.455 75.8177Z" fill="white"/>
</g>
<g opacity="0.3">
<path d="M1473.89 485.209C1406.63 485.209 1352 433.753 1352 370.4C1352 307.045 1406.63 255.589 1473.89 255.589C1541.16 255.589 1595.79 307.045 1595.79 370.4C1595.79 433.753 1541.16 485.209 1473.89 485.209ZM1473.89 259.916C1409.25 259.916 1356.6 309.517 1356.6 370.4C1356.6 431.281 1409.25 480.883 1473.89 480.883C1538.53 480.883 1591.19 431.281 1591.19 370.4C1591.19 309.517 1538.53 259.916 1473.89 259.916Z" fill="white"/>
</g>
<g opacity="0.2">
<path d="M121.282 598.343C48.5603 598.343 -10.6665 542.636 -10.6665 474.062C-10.6665 405.487 48.477 349.78 121.282 349.78C194.087 349.78 253.23 405.487 253.23 474.062C253.23 542.636 194.087 598.343 121.282 598.343ZM121.282 354.566C51.3092 354.566 -5.66846 408.155 -5.66846 474.14C-5.66846 540.126 51.3092 593.714 121.282 593.714C191.255 593.714 248.232 540.126 248.232 474.14C248.232 408.155 191.255 354.566 121.282 354.566Z" fill="white"/>
</g>
<path opacity="0.6" d="M42.1252 270.464C123.058 286.236 174.489 360.613 157.929 435.994C141.371 511.377 62.8268 560.424 -18.1059 544.65C-99.0387 528.878 -150.469 454.501 -133.911 379.12C-117.351 303.737 -38.8076 254.69 42.1252 270.464Z" stroke="#F7C1B7" stroke-width="10"/>
<g opacity="0.2">
<path d="M1637.33 878.488L2185.13 389.657C2197.76 378.499 2217.65 378.996 2229.55 390.719C2241.4 402.603 2240.87 421.341 2228.43 432.548L1680.63 921.379C1668 932.537 1648.11 932.041 1636.21 920.317C1624.36 908.433 1624.89 889.695 1637.33 878.488Z" fill="white"/>
</g>
<g opacity="0.4">
<path d="M-306.66 1282.88L241.137 794.046C253.755 782.887 273.649 783.383 285.547 795.107C297.393 806.991 296.867 825.73 284.42 836.936L-263.377 1325.77C-275.995 1336.92 -295.889 1336.43 -307.787 1324.71C-319.633 1312.82 -319.107 1294.08 -306.66 1282.88Z" fill="#F7C3BA"/>
</g>
<g opacity="0.4">
<path opacity="0.6" d="M438.673 454.007L986.471 -34.8238C999.088 -45.9822 1018.98 -45.4859 1030.88 -33.7626C1042.73 -21.8785 1042.2 -3.13967 1029.75 8.06645L481.956 496.897C469.339 508.056 449.444 507.56 437.547 495.836C425.7 483.952 426.227 465.213 438.673 454.007Z" fill="#FFEEEB"/>
</g>
<g opacity="0.4">
<path d="M642.932 1261.63L1114.68 840.665C1125.54 831.057 1142.68 831.484 1152.92 841.58C1163.12 851.815 1162.67 867.951 1151.95 877.601L680.207 1298.57C669.34 1308.18 652.208 1307.75 641.963 1297.65C631.76 1287.42 632.215 1271.28 642.932 1261.63Z" fill="#FFEEEB"/>
</g>
<g opacity="0.3">
<path d="M1540.31 186.747L1372.04 95.261C1368.2 93.1426 1366.87 88.5134 1369.04 84.8258C1371.28 81.2166 1376.2 79.9613 1380.12 82.0013L1548.39 173.487C1552.21 175.605 1553.55 180.233 1551.39 183.921C1549.13 187.531 1544.21 188.787 1540.31 186.747Z" fill="white"/>
</g>
<path opacity="0.25" d="M2626.54 320.89L1285.33 1584.17L1310.9 1640.33L2652.11 377.05L2626.54 320.89Z" fill="#FFE1DC"/>
</g>
</g>
<defs>
<clipPath id="clip0_298_26">
<rect width="1920" height="1638.67" fill="white"/>
</clipPath>
</defs>
</svg>
