<svg width="375" height="1757" viewBox="0 0 375 1757" fill="none" xmlns="http://www.w3.org/2000/svg">
<mask id="mask0_121_128" style="mask-type:alpha" maskUnits="userSpaceOnUse" x="0" y="0" width="375" height="1757">
<path d="M375 0H0V1757H375V0Z" fill="#FCEEEB"/>
</mask>
<g mask="url(#mask0_121_128)">
<g opacity="0.2">
<path d="M265.919 901.235L389.717 783.949C392.568 781.271 397.064 781.391 399.753 784.203C402.43 787.055 402.311 791.551 399.498 794.24L275.7 911.526C272.849 914.203 268.353 914.084 265.664 911.271C262.987 908.42 263.106 903.924 265.919 901.235Z" fill="white"/>
</g>
<g opacity="0.2">
<path d="M16.919 1003.24L140.717 885.949C143.568 883.271 148.064 883.391 150.753 886.203C153.43 889.055 153.311 893.551 150.498 896.24L26.7005 1013.53C23.8491 1016.2 19.3531 1016.08 16.6644 1013.27C13.9871 1010.42 14.1062 1005.92 16.919 1003.24Z" fill="white"/>
</g>
<g opacity="0.2">
<path d="M96.9488 198.314L-9.57254 136.805C-12.0228 135.39 -12.8677 132.242 -11.4524 129.813C-10.0372 127.363 -6.88996 126.518 -4.46086 127.933L102.061 189.442C104.511 190.858 105.356 194.005 103.94 196.434C102.525 198.884 99.3779 199.729 96.9488 198.314Z" fill="white"/>
</g>
<g opacity="0.2">
<path d="M343.69 71.2137L199.464 -12.0516C196.169 -13.9527 195.007 -18.2194 196.93 -21.5357C198.831 -24.8308 203.097 -25.9925 206.414 -24.0704L350.639 59.195C353.934 61.096 355.096 65.3628 353.174 68.679C351.273 71.9742 347.006 73.1359 343.69 71.2137Z" fill="white"/>
</g>
<g opacity="0.2">
<path d="M-28.0261 672.903C-62.4814 672.903 -90.543 644.881 -90.543 610.386C-90.543 575.891 -62.5209 547.869 -28.0261 547.869C6.46866 547.869 34.4907 575.891 34.4907 610.386C34.4907 644.881 6.46866 672.903 -28.0261 672.903ZM-28.0261 550.277C-61.179 550.277 -88.1749 577.233 -88.1749 610.426C-88.1749 643.618 -61.179 670.575 -28.0261 670.575C5.12676 670.575 32.1227 643.618 32.1227 610.426C32.1227 577.233 5.12676 550.277 -28.0261 550.277Z" fill="white"/>
</g>
<path opacity="0.6" d="M-41.5102 490.039C-3.32312 497.941 21.2284 535.303 13.3272 573.49C5.42598 611.677 -31.9359 636.228 -70.123 628.327C-108.31 620.426 -132.862 583.064 -124.96 544.877C-117.059 506.69 -79.6973 482.138 -41.5102 490.039Z" stroke="#F7C1B7" stroke-width="6.31731"/>
<g opacity="0.4">
<path d="M-227.784 1101.49L31.7614 855.595C37.7394 849.982 47.1655 850.232 52.8025 856.129C58.4154 862.107 58.1659 871.533 52.2687 877.17L-207.277 1123.06C-213.255 1128.68 -222.681 1128.43 -228.318 1122.53C-233.931 1116.55 -233.681 1107.13 -227.784 1101.49Z" fill="#F7C3BA"/>
</g>
<rect opacity="0.25" width="898.679" height="30.7377" transform="matrix(0.707107 -0.707107 0.394102 0.919067 5.47949 1363.38)" fill="#FFE1DC"/>
</g>
</svg>
