<svg width="45" height="45" viewBox="0 0 45 45" fill="none" xmlns="http://www.w3.org/2000/svg">
<path d="M33.75 29.5313C32.9924 29.531 32.2426 29.6843 31.5459 29.9819C30.8492 30.2794 30.2201 30.7152 29.6965 31.2627L16.6887 23.9441C16.9406 22.9978 16.9406 22.0022 16.6887 21.056L29.6965 13.7373C30.6437 14.7194 31.9165 15.3223 33.2763 15.4333C34.6362 15.5443 35.9899 15.1557 37.0838 14.3402C38.1777 13.5247 38.9368 12.3384 39.2188 11.0034C39.5008 9.6685 39.2864 8.27653 38.6157 7.08831C37.9451 5.9001 36.8643 4.99716 35.5757 4.54866C34.2871 4.10017 32.8792 4.13688 31.6157 4.65193C30.3522 5.16697 29.3199 6.12501 28.7121 7.34656C28.1043 8.56812 27.9628 9.96937 28.314 11.2878L15.3061 18.6065C14.5291 17.7963 13.5275 17.2372 12.4301 17.001C11.3327 16.7647 10.1898 16.8623 9.14826 17.281C8.10675 17.6997 7.21434 18.4205 6.58584 19.3506C5.95733 20.2806 5.62148 21.3775 5.62148 22.5C5.62148 23.6225 5.95733 24.7194 6.58584 25.6495C7.21434 26.5795 8.10675 27.3003 9.14826 27.719C10.1898 28.1377 11.3327 28.2353 12.4301 27.9991C13.5275 27.7629 14.5291 27.2037 15.3061 26.3936L28.314 33.7122C28.0124 34.8477 28.0738 36.049 28.4898 37.1477C28.9057 38.2464 29.6552 39.1874 30.6331 39.8384C31.611 40.4895 32.7682 40.8181 33.9423 40.778C35.1164 40.7379 36.2485 40.3312 37.1797 39.615C38.111 38.8988 38.7946 37.909 39.1346 36.7845C39.4747 35.6599 39.4541 34.4572 39.0758 33.345C38.6975 32.2327 37.9805 31.2669 37.0253 30.5829C36.0701 29.8989 34.9248 29.5312 33.75 29.5313Z" fill="black"/>
</svg>
