<svg width="45" height="45" viewBox="0 0 45 45" fill="none" xmlns="http://www.w3.org/2000/svg">
<g clip-path="url(#clip0_29_73)">
<path d="M35.625 9.375C36.1223 9.375 36.5992 9.17746 36.9508 8.82582C37.3025 8.47419 37.5 7.99728 37.5 7.5C37.5 7.00272 37.3025 6.52581 36.9508 6.17417C36.5992 5.82254 36.1223 5.625 35.625 5.625H9.375C8.87772 5.625 8.40081 5.82254 8.04918 6.17417C7.69754 6.52581 7.5 7.00272 7.5 7.5C7.5 7.99728 7.69754 8.47419 8.04918 8.82582C8.40081 9.17746 8.87772 9.375 9.375 9.375H35.625ZM13.2188 23.8181C13.3929 23.9925 13.5997 24.1308 13.8273 24.2251C14.0549 24.3195 14.2989 24.368 14.5453 24.368C14.7917 24.368 15.0357 24.3195 15.2633 24.2251C15.4909 24.1308 15.6977 23.9925 15.8719 23.8181L20.625 19.0631V37.5C20.625 37.9973 20.8225 38.4742 21.1742 38.8258C21.5258 39.1775 22.0027 39.375 22.5 39.375C22.9973 39.375 23.4742 39.1775 23.8258 38.8258C24.1775 38.4742 24.375 37.9973 24.375 37.5V19.0631L29.13 23.8181C29.4818 24.1697 29.9589 24.3671 30.4563 24.3669C30.9537 24.3668 31.4306 24.169 31.7822 23.8172C32.1338 23.4654 32.3312 22.9883 32.331 22.4909C32.3308 21.9935 32.1331 21.5166 31.7813 21.165L23.8256 13.2113C23.474 12.8597 22.9972 12.6623 22.5 12.6623C22.0028 12.6623 21.526 12.8597 21.1744 13.2113L13.2188 21.165C13.0444 21.3391 12.9061 21.5459 12.8118 21.7735C12.7174 22.0012 12.6688 22.2452 12.6688 22.4916C12.6688 22.738 12.7174 22.982 12.8118 23.2096C12.9061 23.4372 13.0444 23.644 13.2188 23.8181Z" fill="black"/>
</g>
<defs>
<clipPath id="clip0_29_73">
<rect width="45" height="45" fill="white"/>
</clipPath>
</defs>
</svg>
