<svg width="165" height="39" viewBox="0 0 165 39" fill="none" xmlns="http://www.w3.org/2000/svg">
<path d="M40.46 11.37C40.46 11.37 39.92 11.51 39.93 11.66C39.94 11.81 39.93 15.18 39.93 15.18C39.93 15.18 39.85 15.25 40.16 15.25C40.7 15.19 41.24 15.29 41.71 15.53C42.18 15.77 42.55 16.15 42.77 16.59C42.88 17.13 42.92 17.69 42.87 18.24V34H50.75V8H46.08C44.53 9.51 42.6 10.66 40.46 11.37Z" fill="white"/>
<path d="M27.15 11.37C27.15 11.37 26.61 11.51 26.63 11.66C26.65 11.81 26.63 15.18 26.63 15.18C26.63 15.18 26.55 15.25 26.85 15.25C27.39 15.19 27.93 15.29 28.4 15.53C28.87 15.77 29.24 16.15 29.46 16.59C29.57 17.13 29.61 17.69 29.57 18.24V34H37.45V8H32.77C31.22 9.51 29.29 10.67 27.15 11.37Z" fill="white"/>
<path d="M13.8401 11.37C13.8401 11.37 13.3101 11.51 13.3201 11.66C13.3201 11.81 13.3201 15.18 13.3201 15.18C13.3201 15.18 13.2401 15.25 13.5501 15.25C14.0901 15.19 14.6301 15.29 15.1001 15.53C15.5701 15.77 15.9401 16.15 16.1601 16.59C16.2701 17.13 16.3001 17.69 16.2701 18.24V34H24.1501V8H19.4701C17.9101 9.51 15.9901 10.67 13.8401 11.37Z" fill="white"/>
<path d="M0.530004 11.37C0.530004 11.37 3.58745e-06 11.51 0.0100036 11.66C0.0200036 11.81 0.0100036 15.17 0.0100036 15.17C0.0100036 15.17 -0.0699964 15.24 0.240004 15.24C0.780004 15.18 1.32 15.28 1.79 15.52C2.26 15.76 2.63 16.13 2.85 16.58C2.97 17.12 3 17.68 2.96 18.23V33.99H10.84V8H6.16C4.61 9.51 2.68 10.67 0.530004 11.37Z" fill="white"/>
<path d="M68.492 9.264H71.248C71.222 10.252 71.196 11.604 71.066 13.138C71.43 16.388 73.016 26.762 82.09 30.792C81.388 31.338 80.66 32.196 80.322 32.846C74.212 29.96 71.378 24.24 70 19.586C68.7 24.474 65.944 29.726 60.068 32.976C59.652 32.352 58.872 31.572 58.066 31.052C68.7 25.54 68.414 13.424 68.492 9.264ZM97.2242 14.698H107.884C107.884 14.698 107.858 15.556 107.832 15.894C107.26 26.424 106.766 30.272 105.622 31.598C104.92 32.43 104.244 32.69 103.23 32.794C102.294 32.898 100.63 32.872 99.0962 32.794C99.0442 32.092 98.7062 31.026 98.2382 30.298C99.9542 30.454 101.54 30.454 102.19 30.454C102.762 30.454 103.074 30.376 103.386 30.064C104.27 29.232 104.816 25.67 105.258 17.168H97.1202C96.7302 22.524 94.9622 28.816 87.5782 33.184C87.1882 32.586 86.2782 31.676 85.7062 31.234C92.4662 27.36 94.1562 21.848 94.5462 17.168H86.4862V14.698H94.6762V14.048V9.238H97.2242V14.048V14.698ZM119.144 28.764L122.732 28.01L122.94 30.038C119.638 30.844 116.128 31.728 113.476 32.352L112.878 30.012C114.022 29.804 115.452 29.518 117.038 29.206V22.316H113.268V20.21H117.038V17.766H114.62V16.596C114.256 16.908 113.892 17.22 113.554 17.454C113.398 16.96 112.826 15.712 112.514 15.14C114.594 13.736 116.778 11.5 118.052 9.16L120.054 9.914C119.898 10.174 119.742 10.486 119.56 10.772C121.094 11.942 122.654 13.32 123.59 14.334L122.134 16.05C121.224 15.062 119.768 13.684 118.416 12.514C117.558 13.658 116.596 14.75 115.608 15.712H121.64V17.766H119.144V20.21H122.654V22.316H119.144V28.764ZM113.788 23.824L115.426 23.434C115.92 24.916 116.388 26.814 116.544 28.088L114.802 28.582C114.698 27.308 114.23 25.332 113.788 23.824ZM121.016 28.088L119.586 27.62C119.976 26.372 120.47 24.422 120.704 23.07L122.524 23.59C122.03 25.098 121.484 26.918 121.016 28.088ZM126.45 17.012V19.716H133.106V17.012H126.45ZM133.106 12.384H126.45V15.036H133.106V12.384ZM134.796 22.42L136.356 24.084C135.212 25.02 133.782 26.034 132.56 26.788C133.678 28.478 135.056 29.856 136.746 30.688C136.174 31.156 135.446 32.092 135.082 32.742C131.572 30.688 129.492 26.684 128.27 21.822H126.45V29.674L130.35 28.608C130.35 29.258 130.454 30.194 130.558 30.74C125.28 32.352 124.422 32.69 123.902 33.106C123.772 32.534 123.408 31.52 123.07 31.026C123.564 30.818 124.11 30.402 124.11 29.44V10.304H135.446V21.822H130.376C130.714 22.94 131.104 24.006 131.572 25.02C132.69 24.24 133.964 23.226 134.796 22.42ZM162.957 10.694V13.008H150.347V10.694H162.957ZM145.771 9.16L148.085 10.122C146.317 12.436 143.613 15.01 141.221 16.7C140.935 16.154 140.285 15.218 139.843 14.75C142.001 13.346 144.497 11.032 145.771 9.16ZM146.785 14.724L149.073 15.582C148.267 16.908 147.305 18.26 146.239 19.56V33.106H143.821V22.238C142.963 23.096 142.079 23.902 141.247 24.578C140.935 24.058 140.077 22.992 139.583 22.524C142.235 20.626 145.043 17.662 146.785 14.724ZM163.685 17.792V20.106H159.941V30.116C159.941 31.494 159.629 32.196 158.641 32.586C157.679 32.95 156.145 32.976 153.727 32.976C153.623 32.274 153.285 31.26 152.947 30.558C154.611 30.61 156.353 30.61 156.821 30.584C157.315 30.584 157.471 30.454 157.471 30.09V20.106H149.255V17.792H163.685Z" fill="white"/>
</svg>
