<svg width="167" height="167" viewBox="0 0 167 167" fill="none" xmlns="http://www.w3.org/2000/svg">
<path d="M83.5001 160.386C125.963 160.386 160.386 125.963 160.386 83.4999C160.386 41.037 125.963 6.61401 83.5001 6.61401C41.0372 6.61401 6.61426 41.037 6.61426 83.4999C6.61426 125.963 41.0372 160.386 83.5001 160.386Z" fill="#90A5F1"/>
<path d="M83.5 167C61.1972 167 40.2271 158.316 24.4557 142.544C8.68434 126.773 0 105.803 0 83.5C0 61.1972 8.68434 40.2271 24.4557 24.4557C40.2271 8.68434 61.1972 0 83.5 0C105.803 0 126.773 8.68434 142.544 24.4557C158.316 40.2271 167 61.1939 167 83.5C167 105.806 158.316 126.773 142.544 142.544C126.773 158.316 105.806 167 83.5 167Z" fill="#90A5F1"/>
<path d="M83.5001 160.386C125.963 160.386 160.386 125.963 160.386 83.4999C160.386 41.037 125.963 6.61401 83.5001 6.61401C41.0372 6.61401 6.61426 41.037 6.61426 83.4999C6.61426 125.963 41.0372 160.386 83.5001 160.386Z" fill="#FFECF0"/>
<path d="M83.5001 160.386C125.963 160.386 160.386 125.963 160.386 83.4999C160.386 41.037 125.963 6.61401 83.5001 6.61401C41.0372 6.61401 6.61426 41.037 6.61426 83.4999C6.61426 125.963 41.0372 160.386 83.5001 160.386Z" fill="#FFECF0"/>
<mask id="mask0_83_219" style="mask-type:luminance" maskUnits="userSpaceOnUse" x="6" y="6" width="155" height="155">
<path d="M83.5001 160.717C125.963 160.717 160.386 126.294 160.386 83.8307C160.386 41.3678 125.963 6.94482 83.5001 6.94482C41.0372 6.94482 6.61426 41.3678 6.61426 83.8307C6.61426 126.294 41.0372 160.717 83.5001 160.717Z" fill="white"/>
</mask>
<g mask="url(#mask0_83_219)">
<path d="M107.433 97.6079C100.651 103.012 92.3002 105.945 83.5001 105.945C74.7 105.945 66.3497 103.008 59.5669 97.6079C36.7449 102.502 19.4985 122.894 19.4985 147.121C27.6637 150.131 68.1024 160.713 75.6095 160.713H91.3908C98.8978 160.713 141.757 150.468 147.502 147.121C147.502 122.894 130.255 102.502 107.433 97.6079Z" fill="#9FADE0"/>
<path d="M113.059 67.4443C113.059 51.1206 99.8238 37.8857 83.5002 37.8857C67.1765 37.8857 53.9417 51.1206 53.9417 67.4443C53.9417 81.8862 64.2994 93.9074 77.9939 96.4869H89.0064C102.701 93.9074 113.059 81.8862 113.059 67.4443Z" fill="#9FADE0"/>
<path d="M89.0064 96.4901H77.9939C79.7764 96.8274 81.6184 97.0027 83.5002 97.0027C85.3819 97.0027 87.2206 96.8241 89.0064 96.4901Z" fill="#9FADE0"/>
</g>
</svg>
