<svg width="145" height="231" viewBox="0 0 145 231" fill="none" xmlns="http://www.w3.org/2000/svg">
<path d="M17.4109 217.511L60.0071 85.2452C61.2298 81.4521 65.3323 79.3475 69.1245 80.5704C72.9168 81.7934 75.021 85.8968 73.7983 89.6898L31.202 221.956C26.6808 235.993 12.9801 231.269 17.4083 217.511H17.4109Z" fill="#F0DFF4"/>
<path d="M127.246 90.4108C137.051 59.9556 120.489 27.3721 90.2541 17.6334C60.0188 7.89473 27.5594 24.6888 17.7541 55.1439C7.94878 85.5991 24.5106 118.183 54.7459 127.921C84.9812 137.66 117.441 120.866 127.246 90.4108Z" fill="#DB46EF"/>
<path d="M90.7638 16.6833C59.583 6.63826 26.1611 23.7755 16.1182 54.9655C6.07533 86.1528 23.209 119.579 54.3923 129.627C85.573 139.672 118.992 122.535 129.038 91.3447C139.081 60.1573 121.947 26.7309 90.7638 16.6833ZM86.9534 18.2501C103.115 22.5836 117.196 34.9427 119.794 50.451C124.217 76.8447 57.5202 67.185 24.212 41.461C24.212 41.461 46.5208 7.40618 86.9534 18.2475V18.2501ZM54.4414 119.204C34.4539 112.764 21.1254 95.1326 18.9152 75.221C62.592 110.325 99.2634 103.319 95.3599 113.056C90.5776 124.983 64.249 122.364 54.4414 119.204Z" fill="#B732CE"/>
<path d="M53.0299 127.318C41.5575 123.62 31.9256 116.862 24.7444 108.234C31.8739 117.976 42.0279 125.64 54.3922 129.624C85.5729 139.669 118.992 122.532 129.038 91.342C129.229 90.7447 129.41 90.1475 129.581 89.5476C118.509 120.639 84.6552 137.505 53.0299 127.315V127.318Z" fill="#DB46EF"/>
<path d="M22.829 40.543C20.2078 38.7822 16.6068 39.757 15.2704 42.6192C14.1381 45.0497 9.95555 59.0713 9.50316 63.5082C9.30153 65.4758 10.227 67.384 11.8969 68.4441C27.3839 78.2512 45.8695 86.9388 66.343 93.5346C86.8165 100.13 106.894 103.867 125.194 104.947C127.166 105.064 129.033 104.053 130.018 102.339C132.238 98.4705 137.026 84.6428 137.522 82.0081C138.109 78.9028 135.754 76.0121 132.598 75.9113C113.603 75.2985 93.3153 72.9482 74.8865 67.0117C56.4578 61.0752 38.6133 51.1413 22.8342 40.5482L22.829 40.543Z" fill="#EE9CFF"/>
<path d="M30.6099 45.5928C30.6099 45.5928 30.9614 45.7815 31.6206 46.1306C32.2824 46.477 33.2518 46.9812 34.4874 47.6276C35.7257 48.2637 37.2276 49.0394 38.9492 49.9262C40.6786 50.795 42.6329 51.7723 44.7629 52.8428C45.8254 53.378 46.9473 53.908 48.1028 54.4665C49.2583 55.0198 50.4552 55.5912 51.6857 56.1782C54.1492 57.3417 56.7704 58.5104 59.4847 59.7075C60.8341 60.3229 62.2378 60.871 63.6415 61.4631C64.342 61.763 65.0581 62.0371 65.7767 62.3138C66.4928 62.5982 67.2114 62.8826 67.9326 63.167C69.3777 63.7307 70.8563 64.2374 72.3272 64.7804C73.8084 65.2588 75.3233 65.7655 76.7941 66.2051L79.0845 66.867C79.8497 67.0945 80.6097 67.3091 81.3645 67.4927C82.8793 67.8728 84.3761 68.2839 85.9012 68.6097C87.4186 68.951 88.918 69.3078 90.4121 69.6181C91.9037 69.9413 93.3772 70.2541 94.8377 70.5282C95.5667 70.6704 96.2879 70.81 97.004 70.9496C97.7226 71.0815 98.4335 71.2108 99.1366 71.3401C100.54 71.609 101.918 71.8572 103.262 72.0821C104.604 72.32 105.915 72.5294 107.181 72.7363C108.445 72.9535 109.671 73.1551 110.847 73.3335C113.202 73.6955 115.363 74.0265 117.276 74.3187C119.194 74.5979 120.866 74.8435 122.244 75.0426C125.005 75.433 126.582 75.6554 126.582 75.6554C126.582 75.6554 126.184 75.6528 125.437 75.6451C124.69 75.6295 123.594 75.627 122.198 75.5701C120.804 75.5184 119.111 75.4563 117.172 75.3322C115.234 75.2184 113.044 75.0736 110.661 74.8513C108.277 74.647 105.695 74.3962 102.973 74.0472C101.611 73.8894 100.212 73.7059 98.7851 73.5042C97.3555 73.3258 95.9027 73.0802 94.4241 72.8371C92.9429 72.607 91.4436 72.3355 89.9261 72.0511C89.1687 71.9063 88.401 71.7822 87.6358 71.6193C86.8732 71.4538 86.1054 71.2858 85.3351 71.1203C83.7944 70.8048 82.2382 70.3963 80.6795 70.0188C79.8936 69.8352 79.1258 69.6258 78.3633 69.406L76.0652 68.7622C74.4935 68.2761 72.9941 67.7564 71.4664 67.2471C69.9696 66.6808 68.4652 66.1482 66.9994 65.5587C64.0628 64.3926 61.2322 63.1127 58.5179 61.838C55.7985 60.5685 53.2238 59.2395 50.799 57.9493C48.3691 56.672 46.1123 55.3896 44.0443 54.1847C39.9031 51.7827 36.5451 49.6289 34.2212 48.0853C33.0553 47.3199 32.1609 46.6839 31.5456 46.2573C30.9356 45.8255 30.6099 45.5954 30.6099 45.5954V45.5928Z" fill="white"/>
<path d="M25.2228 45.9313C21.3659 45.3625 14.1123 59.0273 17.6435 64.2631C21.1747 69.4989 38.6366 74.5667 42.2143 70.6883C46.278 66.2825 34.2601 47.2629 25.2228 45.9313Z" fill="#F3C0FF"/>
<path d="M135.516 82.82C136.025 80.0146 133.753 77.3593 130.762 77.2222C125.768 76.9921 120.675 76.6327 115.549 76.1208C104.385 87.6964 73.209 89.028 39.862 78.2849C31.2461 75.508 23.2221 72.1622 16.0125 68.4519C16.1262 68.5346 16.2348 68.6226 16.3588 68.6975C31.1685 77.8117 48.7985 85.9537 68.2819 92.2315C87.7654 98.5094 106.833 102.189 124.176 103.432C126.047 103.567 127.797 102.677 128.705 101.136C130.752 97.6639 135.082 85.2013 135.514 82.82H135.516Z" fill="#E46BF9"/>
<path d="M65.4563 17.8959C59.9553 18.9069 48.956 22.3638 40.3633 30.7747C31.7707 39.1856 43.1552 47.4104 57.1738 50.5493C76.4608 54.8698 108.022 47.1156 101.166 31.6357C96.4457 20.9805 78.0661 15.5766 65.4537 17.8933L65.4563 17.8959Z" fill="#E46BF9"/>
<path d="M88.6078 29.2465C86.5837 32.5845 79.2887 34.0427 68.5246 35.938C57.7605 37.8332 51.6573 39.9094 47.5626 36.7654C42.5347 32.9025 54.3767 22.4438 65.1408 20.5486C75.9049 18.6533 91.9089 23.8038 88.6052 29.2491L88.6078 29.2465Z" fill="#EE9CFF"/>
<path d="M31.6854 53.4681C31.22 54.9135 28.6712 55.3841 25.9931 54.5231C23.315 53.6595 21.521 51.7901 21.9863 50.3448C22.4516 48.8994 25.0004 48.4288 27.6785 49.2898C30.3566 50.1534 32.1507 52.0228 31.6854 53.4681Z" fill="white"/>
<path d="M81.3605 26.0093C81.5596 24.5044 78.4626 22.8532 74.443 22.321C70.4235 21.7889 67.0036 22.5774 66.8044 24.0822C66.6053 25.587 69.7023 27.2383 73.7219 27.7704C77.7414 28.3026 81.1613 27.5141 81.3605 26.0093Z" fill="white"/>
<path d="M63.6572 26.1931C64.1148 27.641 62.3182 29.5 59.6426 30.3481C56.9671 31.1936 54.4286 30.7075 53.9711 29.2596C53.5135 27.8116 55.3101 25.9526 57.9856 25.1045C60.6611 24.259 63.1997 24.7451 63.6572 26.1931Z" fill="white"/>
</svg>
