<svg width="145" height="145" viewBox="0 0 145 145" fill="none" xmlns="http://www.w3.org/2000/svg">
<path d="M72.3332 144.48C112.282 144.48 144.666 112.137 144.666 72.2399C144.666 32.3429 112.282 0 72.3332 0C32.3847 0 0 32.3429 0 72.2399C0 112.137 32.3847 144.48 72.3332 144.48Z" fill="#F5FCFC"/>
<path d="M74.6726 19.733C101.515 17.8092 125.754 30.6885 125.754 30.6885C112.306 12.5229 92.1413 0.0594269 68.5864 2.5112C37.7956 5.71534 13.8608 23.5344 9.98509 56.6185C9.59521 59.9448 12.592 60.4397 14.135 57.4633C23.3369 39.7102 35.9453 22.5082 74.6759 19.733H74.6726Z" fill="white"/>
<path d="M128.047 31.4871C135.524 127.779 55.1288 145.618 4.31519 86.4128C10.7317 119.751 37.4156 144.44 72.6669 144.44C112.617 144.44 145 112.099 145 72.2004C145 57.0971 138.025 41.9706 128.043 31.4871H128.047Z" fill="#DFEFEF"/>
<path d="M39.6491 73.0252C39.6491 73.0252 40.5743 50.7118 53.7047 40.0599C70.4367 26.4844 96.9156 32.4637 109.035 41.2149C109.035 41.2149 93.9651 15.5323 67.8264 20.9341C22.1176 30.3782 39.6491 73.0285 39.6491 73.0285V73.0252Z" fill="#DFEFEF"/>
<path d="M67.7208 79.1067C67.7208 79.1067 63.3594 67.3032 72.3333 60.7597C80.0517 55.1335 89.4584 58.6643 92.7824 62.6934C92.7824 62.6934 97.57 56.9319 89.6831 53.4439C81.7962 49.956 72.558 51.0813 66.3628 56.4831C60.1677 61.8849 59.5036 75.5132 67.7208 79.1067Z" fill="#DFEFEF"/>
<path d="M11.9974 37.7204C11.9974 37.7204 -11.8218 102.328 47.2686 124.938C106.359 147.552 131.097 86.1751 121.934 60.7928C112.772 35.4105 81.6245 18.7991 60.0951 28.4908C38.5656 38.1824 34.5941 62.1358 41.3146 77.7704C48.0318 93.405 69.4093 101.097 86.5113 92.1742C103.613 83.2515 95.0623 54.0249 80.4053 53.718C65.7484 53.4111 61.0136 65.2542 63.6106 72.791C66.2076 80.3278 71.7023 81.0967 73.0768 82.4826C74.4513 83.8685 71.2431 87.2509 63.1514 82.7895C55.0596 78.3281 43.4557 61.0997 62.5401 42.9473C81.6278 24.7949 113.691 49.9463 110.942 75.0976C108.193 100.249 96.8927 114.016 69.4093 116.784C41.9259 119.553 15.9689 94.0188 18.7146 62.6374C21.4636 31.2593 31.2371 10.9554 69.7166 5.41833C108.193 -0.118788 131.097 28.4908 137.206 51.2563C143.312 74.0218 142.704 106.634 115.217 127.552C87.7338 148.473 40.3994 146.625 16.2729 114.63C-7.85355 82.6344 11.9974 37.7171 11.9974 37.7171V37.7204Z" fill="#2F8DCC"/>
<path d="M48.4479 127.143C102.225 148.674 137.52 93.1214 125.734 61.2087C116.578 36.4138 82.936 21.1454 61.0332 30.5896C39.1304 40.0337 35.0598 65.7394 42.1371 80.8625C50.698 99.1667 71.3816 104.783 88.781 96.0912C106.177 87.3962 99.6713 54.0085 83.1475 53.86C68.2328 53.7247 61.628 66.4125 64.106 73.8141C66.4784 80.8988 71.5667 82.3705 71.4841 83.0965C71.3717 84.1095 67.5125 84.0963 64.443 82.5322C56.1432 78.3117 44.1031 62.3669 63.5179 44.6798C82.9327 26.9927 115.554 51.5006 112.759 76.0085C109.964 100.516 98.0357 110.947 70.0765 113.643C42.1173 116.342 18.8334 94.2631 21.6319 63.6836C24.4305 33.1073 36.507 13.2786 70.8232 8.10781C109.897 2.22091 133.267 30.5929 139.479 52.7743C145.691 74.9591 139.545 107.453 111.09 127.143C79.5427 148.974 48.4479 127.143 48.4479 127.143Z" fill="#57DDDA"/>
<path d="M131.368 71.1115C131.368 71.1115 131.695 71.5866 132.118 72.4974C132.329 72.9528 132.574 73.5104 132.805 74.1704C133.03 74.8304 133.297 75.5794 133.492 76.4176C133.72 77.2524 133.875 78.1698 134.031 79.1498C134.163 80.1299 134.255 81.1759 134.292 82.2583C134.292 83.3406 134.321 84.4692 134.176 85.6043C134.113 86.1719 134.077 86.7494 133.991 87.3202L133.661 89.0328C133.459 90.1812 133.079 91.2866 132.732 92.3756C132.643 92.6462 132.564 92.92 132.465 93.1873L132.124 93.9628C131.896 94.4743 131.668 94.9791 131.447 95.4774C131.232 95.9757 130.978 96.4476 130.697 96.8897C130.426 97.3352 130.162 97.7741 129.904 98.1998C129.412 99.061 128.797 99.7804 128.258 100.454C127.7 101.114 127.231 101.74 126.702 102.209C126.2 102.697 125.737 103.093 125.361 103.423C124.607 104.08 124.155 104.417 124.155 104.417C124.155 104.417 124.373 103.872 124.796 102.985C125.011 102.542 125.258 102.001 125.576 101.414C125.741 101.123 125.88 100.793 126.015 100.44C126.164 100.097 126.319 99.7342 126.481 99.358C126.808 98.609 127.208 97.8368 127.495 96.9524C127.66 96.5235 127.829 96.0846 128.001 95.6325C128.176 95.187 128.367 94.7382 128.496 94.2532C128.764 93.2929 129.167 92.3492 129.398 91.3361C129.636 90.3264 129.98 89.3265 130.138 88.2838L130.469 86.7395C130.551 86.2214 130.631 85.7033 130.71 85.1885C130.905 84.1656 130.971 83.1426 131.107 82.1494C131.196 81.1594 131.275 80.1893 131.331 79.2686C131.368 78.348 131.43 77.4669 131.427 76.6552C131.483 75.0218 131.444 73.6424 131.427 72.6624C131.391 71.6757 131.371 71.1082 131.371 71.1082L131.368 71.1115Z" fill="#FCEDED"/>
<path d="M50.3807 17.179C36.9661 23.673 25.8049 44.3234 28.5605 51.4774C30.1762 55.6715 39.4045 31.6982 61.119 24.3594C83.4282 16.8193 94.791 19.479 99.0665 17.8488C103.785 16.0504 79.9721 2.85111 50.3774 17.179H50.3807Z" fill="#A1EDFC"/>
<path d="M67.5324 44.5776C61.9683 47.5177 59.7314 60.5751 63.1478 61.1361C64.5455 61.3671 65.7746 53.7115 74.6295 49.7649C82.6717 46.178 85.9494 47.8147 87.0529 46.2473C88.4506 44.2641 79.3742 38.3145 67.5324 44.5743V44.5776Z" fill="#A1EDFC"/>
<path d="M28.468 45.8478C28.468 45.8478 28.5176 45.564 28.6398 45.0327C28.772 44.5047 28.957 43.726 29.2676 42.7558C29.5782 41.789 29.9681 40.6109 30.5132 39.2976C30.7941 38.6475 31.0782 37.9414 31.4087 37.2154C31.7523 36.4927 32.1157 35.7338 32.532 34.9616C33.3548 33.4074 34.303 31.7443 35.4529 30.0713C36.0344 29.2397 36.6159 28.3719 37.2965 27.5436C37.9574 26.7021 38.6347 25.8409 39.4046 25.0291C39.7812 24.6166 40.1612 24.2009 40.5445 23.7785C40.931 23.3627 41.3639 22.9865 41.7769 22.584C42.1965 22.188 42.6194 21.7854 43.0424 21.3861C43.4851 21.0066 43.951 20.6437 44.4103 20.2708C44.8728 19.9012 45.3354 19.5283 45.8013 19.1554L47.2881 18.1424L48.0381 17.6408L48.4148 17.39L48.6031 17.2646L48.6263 17.2481L48.7287 17.1854L48.775 17.159L48.8675 17.1062L50.3675 16.2681C50.8797 15.9942 51.3488 15.7104 51.9006 15.453L53.5857 14.6941C54.7058 14.1529 55.8292 13.7734 56.9361 13.384C58.0363 12.9616 59.1564 12.6581 60.2633 12.3578C61.3635 12.0311 62.4671 11.7968 63.5508 11.5757C64.6313 11.3315 65.7051 11.1599 66.7558 11.0081C67.8032 10.8366 68.8341 10.7244 69.8385 10.6287C71.8441 10.4208 73.744 10.3482 75.4951 10.3383C77.243 10.2921 78.8455 10.3713 80.2596 10.4637C81.6738 10.533 82.9029 10.6881 83.9107 10.8102C85.9262 11.0675 87.0594 11.3447 87.0594 11.3447C87.0594 11.3447 85.9129 11.4767 83.9073 11.7077C82.9095 11.8265 81.7035 11.9948 80.3257 12.1862C79.6352 12.2753 78.905 12.3908 78.1384 12.5228C77.3719 12.6416 76.5624 12.7571 75.7264 12.9121C74.8872 13.0507 74.0182 13.2058 73.1261 13.4038C72.2307 13.582 71.3056 13.747 70.3639 13.978C69.4222 14.1892 68.4508 14.3839 67.4794 14.6545C66.5014 14.9118 65.497 15.1329 64.5057 15.453C63.5079 15.7533 62.4836 16.0206 61.4792 16.3902C60.4681 16.7367 59.4406 17.0633 58.446 17.4824C57.9438 17.6804 57.4383 17.8784 56.9328 18.0797C56.4239 18.2777 55.9713 18.5219 55.4856 18.7331L54.045 19.393C53.5626 19.6174 53.0505 19.9375 52.5515 20.2048L51.0416 21.0264L50.9457 21.0792L50.8995 21.1056C50.8731 21.1188 51.0383 21.0264 50.959 21.0726L50.9391 21.0858L50.7706 21.198L50.4303 21.4224L49.753 21.8679L48.3917 22.7456C47.9588 23.069 47.5293 23.3924 47.0998 23.7125C46.6703 24.0359 46.244 24.356 45.8178 24.676C45.4114 25.0192 45.005 25.3624 44.6019 25.7056C43.7759 26.3689 43.0225 27.0948 42.2725 27.8043C40.7691 29.2166 39.3979 30.6916 38.1391 32.1337C36.8835 33.579 35.737 34.9946 34.7194 36.341C33.7215 37.7005 32.8129 38.9643 32.0364 40.1127C31.2798 41.2709 30.6124 42.2839 30.087 43.1386C29.5749 43.9966 29.152 44.6697 28.8876 45.1416C28.62 45.6135 28.4779 45.8643 28.4779 45.8643L28.468 45.8478Z" fill="#FCEDED"/>
<path d="M61.509 57.5953C61.509 57.5953 61.4132 57.097 61.4198 56.2159C61.4231 55.3349 61.5387 54.071 61.9385 52.5861C62.3449 51.1111 63.0652 49.4117 64.2282 47.7981C64.8031 46.9896 65.5003 46.2141 66.2834 45.5047C67.0565 44.7985 67.9817 44.1517 68.8672 43.6535C70.7902 42.5777 72.8189 41.9871 74.7518 41.7297C76.6814 41.4723 78.4755 41.5515 79.9755 41.7759C81.4756 42.0069 82.6849 42.3665 83.5076 42.68C84.3303 42.9869 84.7698 43.2443 84.7698 43.2443C84.7698 43.2443 84.2775 43.3004 83.4151 43.3994C82.5659 43.505 81.3699 43.6502 79.9788 43.8845C78.5878 44.1121 77.0052 44.4223 75.3895 44.881C73.787 45.3331 72.1118 45.9667 70.6679 46.7718C69.8716 47.2074 69.2009 47.6562 68.5236 48.1709C67.8561 48.6824 67.2416 49.2434 66.6667 49.8242C65.5234 50.989 64.5785 52.2594 63.8218 53.421C63.0586 54.5792 62.4936 55.6319 62.1037 56.3875C61.7171 57.1432 61.5057 57.6019 61.5057 57.6019L61.509 57.5953Z" fill="#FCEDED"/>
</svg>
