<svg width="143" height="126" viewBox="0 0 143 126" fill="none" xmlns="http://www.w3.org/2000/svg">
<path d="M141.445 71.7282C144.191 55.3101 140.648 41.1697 140.441 40.9035C136.396 30.4906 118.709 17.3561 95.3523 8.51096C71.9074 -0.363704 49.9093 -2.22739 40.0471 2.97909C39.8109 3.00867 27.8818 11.2621 19.1121 25.4024C10.3424 39.5427 1.42509 60.3686 0.243991 68.1192C0.214463 68.3854 0.243991 68.6812 0.243991 69.0066C-2.67924 82.7919 20.9723 103.559 54.6633 116.309C88.2361 129.029 119.535 129.177 126.622 117.048C126.917 116.812 127.183 116.575 127.39 116.279C131.612 109.682 138.699 88.1463 141.445 71.7282Z" fill="#873D26"/>
<path opacity="0.4" d="M141.445 71.7276C144.192 55.3094 140.648 41.1691 140.442 40.9029C137.577 33.4778 127.745 24.6622 113.867 17.03L83.5419 39.3646C83.5419 39.3646 59.6837 95.9554 81.7998 111.812C101.583 126.011 123.552 121.396 136.396 93.086C138.493 86.0158 140.323 78.4428 141.475 71.7276H141.445Z" fill="#A0523D"/>
<g style="mix-blend-mode:screen" opacity="0.35">
<path d="M112.89 45.5784C112.89 45.5784 91.1873 105.275 103.5 116.398C123.697 134.621 137.723 51.2581 138.992 45.6671C140.262 40.1056 112.89 45.5784 112.89 45.5784Z" fill="#A0523D"/>
</g>
<g style="mix-blend-mode:overlay" opacity="0.25">
<path d="M93.6383 85.2769C61.3056 91.3117 26.9355 90.4242 3.84497 82.0821C10.6954 92.5246 26.2859 104.062 46.4532 112.907C42.9099 108.026 41.2269 101.961 53.8351 98.3523C75.7446 92.1104 95.5871 104.92 118.855 93.915C132.939 87.2589 135.981 90.4538 133.943 100.748C136.955 91.8146 139.908 80.9283 141.443 71.6691C144.189 55.251 140.646 41.1106 140.439 40.8444C139.819 39.2765 138.904 37.6495 137.723 35.9929L137.251 36.1408C137.251 36.1408 143.51 75.9289 93.6383 85.2178V85.2769Z" fill="#F9AF9D"/>
</g>
<g style="mix-blend-mode:overlay" opacity="0.25">
<path d="M77.6359 68.1791C77.6359 68.1791 29.7126 67.5283 37.5374 72.084C45.3327 76.6396 59.1811 79.2133 73.502 77.7638C87.8229 76.2846 102.911 71.4036 77.6359 68.2087V68.1791Z" fill="#F9AF9D"/>
</g>
<path opacity="0.31" d="M70.3433 20.5512L79.4969 3.48229C68.7193 0.760721 58.8571 -0.333821 51.1504 0.257824C44.5953 2.83148 35.9142 7.89004 28.2666 17.8593C13.6504 36.851 0.864994 66.9658 1.8394 78.6212C6.56381 88.5608 20.117 99.95 38.5717 109.239C37.7154 107.316 37.1248 105.364 36.8296 103.441C33.6701 82.3781 70.3138 20.5512 70.3138 20.5512H70.3433Z" fill="#210E08"/>
<path opacity="0.4" d="M46.2767 26.6756C68.8358 2.86189 58.9736 4.01559 58.9736 4.01559C58.9736 4.01559 38.511 6.64841 23.4224 35.7278C12.2905 57.1749 5.4696 72.2618 3.04834 80.8407C5.52866 85.0413 9.48535 89.4491 14.6231 93.7977C17.2511 83.1185 27.2019 46.8507 46.2767 26.7052V26.6756Z" fill="#210E08"/>
<path d="M139.88 44.809C136.396 54.0387 110.766 52.885 82.6554 42.2354C54.5156 31.5858 34.555 15.4635 38.0097 6.23381C41.4645 -2.99584 67.1239 -1.84214 95.2342 8.80747C123.374 19.4571 143.335 35.5794 139.85 44.809H139.88Z" fill="#A0523D"/>
<path opacity="0.23" d="M46.0419 0.819377C41.849 1.76601 39.0439 3.57052 38.0399 6.20334C34.8805 14.5751 50.973 28.5675 74.9199 39.0396C84.162 39.2467 92.8431 35.8447 97.479 27.5913C103.296 17.2375 66.0321 5.99627 46.0419 0.789795V0.819377Z" fill="#210E08"/>
<g style="mix-blend-mode:screen" opacity="0.59">
<path d="M61.0701 32.1488C67.389 35.7578 74.6823 39.2189 82.6252 42.2067C110.765 52.8563 136.365 54.0101 139.85 44.7804C143.334 35.5507 123.344 19.4284 95.2335 8.77881C112.064 17.5647 135.922 31.7938 131.228 39.6922C124.466 50.9927 89.0917 45.165 61.0701 32.1488Z" fill="#A0523D"/>
</g>
<g style="mix-blend-mode:screen" opacity="0.4">
<path d="M60.3924 0.25803C48.4632 -0.747766 39.9297 1.17508 38.0105 6.23364C36.8884 9.22144 38.2171 12.8896 41.4357 16.8832C40.9927 15.5816 40.6384 14.28 40.3727 12.9488C38.7191 4.48829 50.1463 1.38215 60.3924 0.25803Z" fill="#A0523D"/>
</g>
<path opacity="0.65" d="M140.441 40.9044C140.087 40.017 139.644 39.0703 139.083 38.1533C138.964 37.9166 138.817 37.68 138.699 37.4729C138.699 40.3128 137.754 43.5077 134.329 45.7263C126.77 50.5778 109.555 49.4537 102.055 47.6492C94.555 45.8447 89.0333 44.0106 92.2814 45.2234C95.5294 46.4659 123.315 51.8203 123.522 56.5534C123.728 61.257 119.033 81.6096 116.553 91.4605C114.073 101.311 127.478 59.8371 130.224 56.5239C132.97 53.1811 130.874 63.9786 131.081 64.8069C131.258 65.6352 126.74 87.7331 126.74 87.7331C126.74 87.7331 134.565 67.558 136.75 59.1271C138.935 50.6962 138.876 48.7437 140.795 47.6492C141.09 47.4717 141.356 47.028 141.563 46.4363C141.061 43.0639 140.5 41.0228 140.411 40.934L140.441 40.9044Z" fill="#F9AF9D"/>
<path opacity="0.72" d="M45.5087 1.17403L45.7154 1.02612C43.5303 1.49944 41.611 2.15025 40.0461 3.00813C39.928 3.00813 36.8571 5.10847 32.7232 8.98374C24.0421 19.5742 17.2508 33.8624 17.0736 34.3949C16.8079 35.1048 21.7981 26.8218 26.8768 19.6925C31.9555 12.5336 36.3847 9.27956 38.7764 13.4802C41.1681 17.6809 52.1229 25.9639 52.1229 25.9639C52.1229 25.9639 39.4555 15.9356 39.6327 9.13165C39.8099 2.32774 45.5382 1.20362 45.5382 1.20362L45.5087 1.17403Z" fill="#F9AF9D"/>
<path opacity="0.69" d="M106.365 25.1369C106.365 25.1369 111.886 23.6578 115.193 25.9356C118.53 28.2135 121.896 35.3724 123.727 38.3602C125.557 41.348 125.292 41.7621 124.14 40.5493C122.989 39.3364 116.227 34.9878 114.189 35.4907C112.152 35.9936 110.764 38.0348 109.642 38.3602C108.52 38.7152 109.14 33.1833 108.963 30.6984C108.786 28.2135 108.49 26.054 109.288 27.8881C110.085 29.7222 111.473 34.8399 112.122 34.4553C112.772 34.0707 113.776 33.0354 116.463 34.4553C119.15 35.8457 119.386 32.2367 116.581 29.2488C113.746 26.261 110.941 24.5453 106.394 25.1369H106.365Z" fill="#A0523D"/>
<path opacity="0.69" d="M98.5107 26.2604C98.5107 26.2604 95.7941 29.8398 95.4103 30.5794C94.9969 31.3189 93.6681 32.591 94.9083 31.9106C96.1484 31.2302 99.2193 30.609 101.168 30.6977C103.117 30.7865 104.918 31.2302 102.704 30.254C100.489 29.2778 97.241 29.9877 98.4221 28.5086C99.6032 27.0295 99.1898 25.8462 98.5402 26.2604H98.5107Z" fill="#A0523D"/>
</svg>
