<svg width="145" height="135" viewBox="0 0 145 135" fill="none" xmlns="http://www.w3.org/2000/svg">
<path d="M80.3117 125.347C116.038 120.552 141.503 90.713 137.188 58.7001C132.874 26.6872 100.415 4.62298 64.6883 9.41824C28.9619 14.2135 3.49743 44.0524 7.81173 76.0653C12.126 108.078 44.5854 130.142 80.3117 125.347Z" fill="#9F5332"/>
<path d="M113.884 21.0913C119.072 28.1875 122.568 36.4649 123.793 45.5526C128.11 77.5679 102.645 107.408 66.9173 112.202C48.5123 114.674 30.9881 110.004 17.7166 100.527C30.8138 118.437 54.7192 128.784 80.3082 125.35C116.035 120.552 141.496 90.7164 137.184 58.7011C135.092 43.1811 126.371 30.0096 113.879 21.0913H113.884Z" fill="#81331A"/>
<path d="M66.7656 65.0939C85.3461 49.4184 93.4473 28.4929 84.86 18.3554C76.2728 8.21793 54.2489 12.7074 35.6684 28.3829C17.0879 44.0584 8.98673 64.9839 17.574 75.1214C26.1612 85.2588 48.1851 80.7694 66.7656 65.0939Z" fill="#B36E58"/>
<path d="M80.9135 23.8198C81.5145 28.2744 75.7205 32.7335 67.9676 33.7728C60.2194 34.812 53.4482 32.0422 52.8473 27.5876C52.2463 23.133 58.0403 18.6739 65.7932 17.6346C73.5414 16.5954 80.3125 19.3652 80.9135 23.8198Z" fill="white"/>
<path d="M42.6418 62.7011C49.4988 53.5571 50.7771 42.9476 45.497 39.0041C40.2169 35.0607 30.3779 39.2766 23.5209 48.4206C16.6639 57.5646 15.3856 68.1741 20.6657 72.1175C25.9458 76.061 35.7848 71.8451 42.6418 62.7011Z" fill="white"/>
</svg>
