<svg width="145" height="146" viewBox="0 0 145 146" fill="none" xmlns="http://www.w3.org/2000/svg">
<path d="M128.571 125.891C103.195 153.03 57.5163 151.142 26.5532 121.675C-4.41001 92.2025 -8.93495 46.3148 16.4413 19.1809C41.8229 -7.95831 87.496 -6.06986 118.459 23.3972C149.422 52.8642 153.953 98.7519 128.571 125.891Z" fill="#8E44A0"/>
<path d="M144.641 88.7917C143.924 89.6444 143.276 90.5337 142.507 91.355C117.13 118.494 71.452 116.606 40.4889 87.1387C21.2644 68.8402 12.2511 44.2119 14.2442 21.6709C-8.62114 49.0612 -3.5417 93.029 26.4851 121.607C57.4483 151.074 103.121 152.962 128.503 125.823C138.123 115.539 143.427 102.55 144.641 88.7917Z" fill="#5B2368"/>
<path d="M129.335 35.9101C126.165 31.5055 122.56 27.2944 118.454 23.3868C112.762 17.9725 106.569 13.5051 100.103 9.96365C85.9579 7.11268 66.723 6.71511 46.2797 16.5026C24.4344 26.9596 9.40533 45.7395 0.0781903 61.0196C-0.193829 75.1647 3.7243 89.8694 11.7018 103.157C30.9106 48.4806 78.2001 20.7607 129.335 35.9101Z" fill="#F2E6FC"/>
<path d="M27.683 71.8847C21.1597 62.0606 16.98 51.3368 15.0968 40.5449C9.013 47.3768 3.97018 54.465 0.0206611 60.9359C0.0206611 61.051 0.0206611 61.1661 0.01543 61.2864C-0.0839618 68.0974 0.78964 75.0339 2.61531 81.8762C2.67808 82.1012 2.7304 82.3209 2.78794 82.5458C3.20643 84.0576 3.68246 85.5589 4.18989 87.0551C4.34159 87.5049 4.50375 87.9496 4.66592 88.3995C5.1838 89.8328 5.72784 91.2609 6.32943 92.6838C6.49159 93.0604 6.67468 93.4318 6.84208 93.8085C8.17602 96.8216 9.69305 99.7929 11.4141 102.696C11.4926 102.827 11.5553 102.963 11.6338 103.089C15.7507 91.3655 21.2225 80.9712 27.683 71.8847Z" fill="#E5D2F9"/>
<path d="M140.806 57.9697C122.231 50.8868 95.9127 49.9033 77.8495 61.914C43.9517 84.455 29.791 123.778 29.8067 124.766C41.3989 135.799 58.8186 141.339 58.8186 141.339C72.8904 93.1335 117.491 71.1575 144.997 83.0217C144.651 71.6178 144.479 68.7825 140.806 57.9645V57.9697Z" fill="#F2E6FC"/>
<path d="M29.7336 124.693C38.6266 132.351 48.5292 137.938 58.756 141.286C62.6428 128.078 68.8626 116.92 76.3536 107.823C66.0378 104.977 55.926 99.9968 46.7767 92.804C35.3937 108.832 30.0894 123.145 29.7336 124.693Z" fill="#E5D2F9"/>
<path d="M101.808 31.8037C87.1349 31.8037 73.2044 35.3975 60.6758 42.1614C63.3332 47.9993 67.4763 53.8582 72.9376 59.0528C74.2401 60.2925 75.5741 61.4539 76.9342 62.5367C77.2376 62.3275 77.5462 62.1234 77.8549 61.9142C87.5953 55.438 99.7368 52.7388 111.774 52.7388C115.258 52.7388 118.731 52.9637 122.131 53.3927C121.838 46.8956 119.202 39.5929 114.51 32.6878C110.225 32.0967 105.988 31.8037 101.808 31.8037Z" fill="#B585C1"/>
<path d="M76.0292 9.17881C70.343 9.17881 65.3577 10.9574 61.8842 14.6768C55.9207 21.0535 55.8579 31.5786 60.6758 42.1612C73.2044 35.3973 87.1349 31.8035 101.808 31.8035C105.988 31.8035 110.225 32.0965 114.51 32.6876C112.276 29.3972 109.577 26.201 106.443 23.2192C96.8544 14.0961 85.4767 9.17358 76.0292 9.17358V9.17881Z" fill="#F7EFFD"/>
<path d="M111.774 52.7388C99.7369 52.7388 87.5954 55.438 77.855 61.9142C77.5464 62.1182 77.2377 62.3275 76.9343 62.5367C85.5814 69.4261 95.191 73.0984 103.357 73.0984C109.043 73.0984 114.028 71.3198 117.502 67.6005C120.907 63.9596 122.388 58.9743 122.137 53.3927C118.731 52.9689 115.258 52.7388 111.779 52.7388H111.774Z" fill="#F7EFFD"/>
<path d="M99.4334 28.7276C97.2834 31.6884 91.1054 31.1496 85.6284 27.5192C80.1567 23.8888 77.4626 18.5426 79.6126 15.5817C81.7626 12.6209 87.9406 13.1597 93.4176 16.7901C98.8894 20.4205 101.583 25.7668 99.4334 28.7276Z" fill="white"/>
<path d="M109.964 47.0471C107.489 48.7891 104.052 47.7376 102.29 44.6983C100.527 41.659 101.102 37.7775 103.576 36.0355C106.051 34.2936 109.488 35.345 111.25 38.3843C113.013 41.4236 112.438 45.3051 109.964 47.0471Z" fill="white"/>
</svg>
