<svg width="145" height="146" viewBox="0 0 145 146" fill="none" xmlns="http://www.w3.org/2000/svg">
<path d="M0.0401809 61.4038C0.577422 58.9087 10.6 55.6136 19.0525 53.5422C20.8135 44.5225 24.9801 33.2524 26.4366 32.6674C27.4275 32.2675 34.5549 41.4364 40.1064 50.0919C46.2847 49.31 59.9844 51.4112 60.3365 52.7065C60.8022 54.4078 54.7373 61.4397 48.6545 68.3581C50.7677 74.3215 54.3612 89.1792 53.0838 90.2238C51.9078 91.1849 40.1124 87.1377 32.0836 84.8574C24.6816 91.3341 18.1213 95.841 16.2231 94.7426C14.3487 93.6622 14.4562 85.2096 15.6202 74.8707C8.1764 69.4863 -0.670171 64.6392 0.0401809 61.4038Z" fill="url(#paint0_linear_40_288)"/>
<g style="mix-blend-mode:darken">
<path d="M45.5743 69.4526C46.549 65.5535 50.6914 60.9233 52.6409 60.9233C53.1283 62.6292 48.4986 65.3098 47.2801 68.4779C46.0617 71.6459 50.2253 79.0184 50.9355 81.15C52.1535 84.8054 52.3977 86.9986 51.4229 88.7045C50.4481 90.4103 36.0666 83.5869 33.1422 83.5869C30.2179 83.5869 25.5878 88.4608 26.3189 86.9986C27.05 85.5365 28.0283 82.8558 31.6837 81.6374C35.3391 80.4189 48.0107 87.486 48.4981 84.5617C48.9855 81.6374 44.5995 73.3517 45.5743 69.4526Z" fill="#FF6D73"/>
</g>
<path d="M20.714 54.1004C22.9072 51.9072 23.1186 38.9916 25.5722 38.5039C28.0258 38.0163 28.8424 41.1358 29.2442 44.3526C30.4617 54.0998 30.9531 61.6974 23.6423 63.6045C18.0373 65.0667 2.68104 61.655 4.6306 59.9491C6.58015 58.2432 18.3702 56.4442 20.714 54.1004Z" fill="#FFBDC5"/>
<path d="M21.6976 55.3181C23.6472 54.5871 23.4035 50.9316 24.622 49.4695C25.8402 49.4695 25.3746 54.1514 23.8909 56.0492C22.1763 58.2425 14.3868 59.4609 15.6053 57.9988C16.8238 56.5366 19.7481 56.0492 21.6976 55.3181Z" fill="white"/>
<path d="M78.9406 27.5312C80.1768 25.2982 90.724 25.0437 99.4144 25.5064C103.71 17.3819 110.959 7.7992 112.522 7.66062C113.586 7.56446 117.756 18.4033 120.566 28.2948C126.706 29.3338 139.212 35.3086 139.175 36.6505C139.128 38.4137 131.288 43.3902 123.464 48.253C123.761 54.5727 122.903 69.8346 121.378 70.465C119.974 71.0448 109.854 63.758 102.828 59.2524C93.869 63.3106 86.2853 65.7268 84.786 64.1262C83.3044 62.5497 85.8527 54.4896 89.9582 44.9296C84.3905 37.622 77.3246 30.4227 78.9406 27.5312Z" fill="#F8B20F"/>
<g style="mix-blend-mode:darken">
<path d="M120.199 48.4096C122.26 44.9593 127.565 41.7255 129.431 42.2896C129.404 44.0635 124.197 45.29 122.114 47.97C120.031 50.6501 121.883 58.9119 121.947 61.1578C122.055 65.0093 121.654 67.1793 120.227 68.5302C118.801 69.8811 107.008 59.1887 104.209 58.3426C101.41 57.4966 95.5677 60.8224 96.6905 59.6343C97.8134 58.4462 99.5254 56.1633 103.377 56.0545C107.229 55.9457 117.314 66.3767 118.626 63.7184C119.939 61.0602 118.138 51.8599 120.199 48.4096Z" fill="#F18B0B"/>
</g>
<path d="M100.843 26.5215C103.577 25.0566 107.516 12.7545 110.006 12.9976C112.496 13.2407 112.375 16.4631 111.829 19.6585C110.174 29.3411 108.447 36.7559 100.897 36.4664C95.1084 36.2444 81.3959 28.5358 83.7556 27.4669C86.1153 26.398 97.9216 28.087 100.843 26.5215Z" fill="#FFCF29"/>
<path d="M101.432 27.9719C103.51 27.8361 104.334 24.2665 105.924 23.2194C107.09 23.5719 105.29 27.9188 103.32 29.3062C101.044 30.9096 93.2356 29.8224 94.825 28.7753C96.4144 27.7282 99.3547 28.1077 101.432 27.9719Z" fill="white"/>
<path d="M65.9499 105.067C66.7821 102.654 77.1271 100.583 85.7669 99.5388C88.5953 90.7949 94.0816 80.1048 95.5977 79.6984C96.6293 79.42 102.607 89.3765 107.082 98.6346C113.31 98.5981 126.659 102.325 126.854 103.653C127.112 105.398 120.249 111.653 113.382 117.793C114.765 123.967 116.554 139.148 115.16 140.032C113.878 140.845 102.652 135.414 94.9541 132.189C86.8297 137.733 79.7769 141.422 78.0239 140.104C76.2924 138.807 77.4113 130.428 79.805 120.303C73.0596 114.066 64.8572 108.194 65.9499 105.067Z" fill="#2BE7BA"/>
<g style="mix-blend-mode:darken">
<path d="M110.193 118.511C111.627 114.756 116.294 110.655 118.23 110.889C118.509 112.641 113.592 114.748 112.003 117.747C110.414 120.746 113.665 128.565 114.114 130.766C114.886 134.541 114.866 136.747 113.694 138.324C112.522 139.901 99.0606 131.405 96.1574 131.054C93.2541 130.704 88.0736 134.989 88.9745 133.624C89.8754 132.26 91.1677 129.716 94.9428 128.944C98.7178 128.172 110.452 136.706 111.286 133.861C112.12 131.016 108.758 122.265 110.193 118.511Z" fill="#00D2A0"/>
</g>
<path d="M87.3497 100.292C89.7898 98.3773 91.5464 85.58 94.0407 85.3897C96.535 85.1994 96.9722 88.3942 96.9859 91.636C97.0274 101.459 96.6053 109.061 89.1188 110.078C83.379 110.859 68.5418 105.633 70.6816 104.173C72.8215 102.713 84.7421 102.338 87.3497 100.292Z" fill="#43F9CD"/>
<path d="M88.1803 101.619C90.2033 101.126 90.3991 97.4681 91.7839 96.1623C92.9934 96.3082 91.9704 100.901 90.2702 102.607C88.3052 104.579 80.4259 104.856 81.8107 103.55C83.1955 102.245 86.1572 102.111 88.1803 101.619Z" fill="white"/>
<defs>
<linearGradient id="paint0_linear_40_288" x1="19.9829" y1="45.5706" x2="54.3438" y2="84.318" gradientUnits="userSpaceOnUse">
<stop stop-color="#FFB1C2"/>
<stop offset="0.973958" stop-color="#FF8787"/>
</linearGradient>
</defs>
</svg>
