<svg width="145" height="142" viewBox="0 0 145 142" fill="none" xmlns="http://www.w3.org/2000/svg">
<path d="M145 70.9526C145 109.959 112.549 141.578 72.5204 141.578C32.4919 141.578 0.0373535 109.959 0.0373535 70.9526C0.0373535 31.9461 31.8775 0.146484 71.9093 0.146484C111.941 0.146484 145 31.9461 145 70.9526Z" fill="#FFCB82"/>
<path d="M68.1716 132.477C105.822 132.477 136.343 102.821 136.343 66.2385C136.343 29.656 105.822 0 68.1716 0C30.5215 0 0 29.656 0 66.2385C0 102.821 30.5215 132.477 68.1716 132.477Z" fill="#FAF391"/>
<path d="M68.2802 35.0851C70.256 35.0851 72.1469 35.432 73.9156 36.0441L83.7267 7.51289C78.8619 5.92801 73.6984 5.10156 68.2802 5.10156C62.8621 5.10156 57.926 5.92801 53.1936 7.41426L62.7738 35.9965C64.5052 35.415 66.3554 35.0851 68.2802 35.0851Z" fill="#E575F9"/>
<path d="M143.713 57.7357C140.685 42.1624 132.422 28.4018 120.761 18.2565L114.654 17.8008L135.427 56.093L143.717 57.7323L143.713 57.7357Z" fill="#E55E03"/>
<path d="M141.884 91.4571L133.461 78.5366L111.789 116.948L112.366 129.94C126.58 121.06 137.195 107.194 141.884 91.4571Z" fill="#E55E03"/>
<path d="M68.1476 66.2381L22.6263 17.0354C17.9448 21.0418 12.3502 27.0786 8.77541 33.4148C5.09541 39.9379 2.68848 46.8318 1.25586 53.7665L68.1476 66.2381L111.788 116.947C117.067 112.101 122.869 106.479 126.596 99.8675C130.205 93.4702 133.423 85.6002 134.873 78.7981L68.1476 66.2347V66.2381Z" fill="#FA6806"/>
<path d="M49.8224 138.048C56.9991 140.368 64.6578 141.582 72.6323 141.582C77.4529 141.582 82.1581 141.112 86.7174 140.238L89.1956 130.787L47.7278 129.94L49.8224 138.048Z" fill="#E55E03"/>
<path d="M0.68235 80.3697C2.94331 96.8919 10.9347 112.023 22.9355 122.457L21.7337 114.764L0.923383 77.1013L0.678955 80.3697H0.68235Z" fill="#E55E03"/>
<path d="M68.1479 66.2383L0.94043 77.1012C1.81969 83.6788 4.69172 91.0216 8.0492 97.4733C11.5085 104.119 16.8927 110.186 21.7507 114.764L68.1479 66.2383L135.542 56.0998C134.697 49.5086 132.154 41.9311 128.651 35.2005C125.259 28.6841 119.457 22.1575 114.654 17.8008L68.1479 66.2349V66.2383Z" fill="#EF6F8D"/>
<path d="M47.4224 4.33315L47.9248 5.77859L89.8204 3.42508L95.0518 3.8196C87.7224 1.35045 79.9482 0.146484 71.9025 0.146484C63.283 0.146484 55.0438 1.62933 47.4224 4.33315Z" fill="#E55E03"/>
<path d="M68.1614 66.2521L47.3341 129.358C53.8997 131.402 60.8896 132.518 68.1546 132.518C75.4195 132.518 82.8236 131.331 89.5556 129.171L68.1614 66.2555L89.8238 3.42485C83.0137 1.20738 75.7861 0.0510254 68.2089 0.0510254C60.6316 0.0510254 53.7164 1.20738 47.0964 3.28881L68.1614 66.2521Z" fill="#7AF2EB"/>
<path d="M28.4011 120.067C28.4011 120.067 30.6281 121.301 34.6951 123.008C36.7286 123.862 39.2306 124.801 42.1298 125.76C45.0357 126.702 48.3525 127.61 52.0053 128.385C55.6616 129.14 59.6607 129.702 63.8906 129.97C68.124 130.225 72.5916 130.083 77.144 129.525C81.6999 128.964 86.3101 127.814 90.832 126.226C95.3539 124.624 99.7536 122.457 103.882 119.842C104.384 119.512 104.941 119.189 105.406 118.866L106.971 117.812L108.434 116.768L109.891 115.666C111.805 114.166 113.649 112.594 115.377 110.928C118.819 107.585 121.888 103.963 124.38 100.116C126.872 96.2729 128.891 92.2903 130.433 88.3485C131.957 84.3999 133.067 80.5193 133.838 76.8734C134.585 73.2207 135.036 69.8095 135.284 66.7656C135.511 63.7216 135.583 61.045 135.552 58.8377C135.488 54.4232 134.758 51.8962 134.758 51.8962C134.758 51.8962 136.099 55.3619 136.53 58.7629C136.832 60.977 137.117 63.6876 137.171 66.8166C137.243 69.9455 137.134 73.4928 136.632 77.3394C136.146 81.1859 135.308 85.3386 133.902 89.5899C132.514 93.8446 130.63 98.2319 128.056 102.429C125.503 106.626 122.401 110.714 118.724 114.349C116.894 116.172 114.952 117.914 112.898 119.522L111.344 120.713L109.728 121.879L108.152 122.954C107.579 123.349 107.046 123.672 106.486 124.029C102.035 126.78 97.2754 129.059 92.3868 130.725C87.5051 132.416 82.4773 133.371 77.6091 133.837C72.7308 134.313 67.9882 134.14 63.5647 133.63C59.1345 133.133 55.0233 132.208 51.3196 131.123C47.609 130.059 44.3092 128.777 41.4576 127.518C38.5958 126.273 36.199 124.991 34.2606 123.889C32.3187 122.791 30.8623 121.815 29.8744 121.148C28.8899 120.471 28.3943 120.077 28.3943 120.077L28.4011 120.067Z" fill="#FFFCD9"/>
<path d="M80.3386 6.44495C88.1332 6.44495 96.2943 7.69993 103.485 9.5671C93.11 3.31941 80.7053 0 68.1716 0C33.5375 0 6.76589 21.6442 0.858887 55.6919C14.6249 26.6267 45.2497 6.44495 80.3386 6.44495Z" fill="#FFFCD9"/>
<path d="M68.1717 0C60.8355 0 53.4925 0.877466 46.8726 2.9623L49.9245 11.7506C59.4198 8.33593 69.6688 6.44495 80.3388 6.44495C83.075 6.44495 85.8486 6.64562 88.6188 6.9279L90.0005 3.44184C80.7258 0.146244 71.9162 0 68.1717 0Z" fill="#4EDED6"/>
<path d="M22.08 16.4949C17.4019 20.5013 12.1128 26.6231 8.54142 32.9559C5.00061 39.2308 2.66158 46.0158 1.22217 53.7498L1.77892 53.8654C7.92696 41.6829 17.0794 31.1601 28.2688 23.1371L22.08 16.4983V16.4949Z" fill="#FF822E"/>
<path d="M68.0186 54.1887L80.4233 18.2159C76.5192 16.944 72.3741 16.2808 68.0254 16.2808C63.6766 16.2808 59.7148 16.944 55.916 18.1377L67.9778 54.1887H68.0186Z" fill="#E3FFFD"/>
<path d="M56.7787 60.1881L31.3956 31.8745C28.3912 34.6804 25.8043 37.9896 23.6961 41.7953C21.6558 45.482 20.2436 49.3966 19.4458 53.3044L56.7652 60.2221L56.7855 60.1881H56.7787Z" fill="#FF8E12"/>
<path d="M68.3074 80.125L80.7121 113.992C76.8081 115.19 72.663 115.812 68.3142 115.812C63.9654 115.812 60.0036 115.19 56.2048 114.064L68.2667 80.1216H68.3074V80.125Z" fill="#E3FFFD"/>
<path d="M78.9432 72.7651L114.569 78.0129C113.754 82.0227 112.325 85.9679 110.25 89.7941C108.244 93.4978 105.735 96.8138 102.938 99.6197L78.9263 72.7991L78.9466 72.7651H78.9432Z" fill="#FF8E12"/>
<path d="M56.1675 72.9383L32.1084 99.7792C29.2228 96.885 26.731 93.5077 24.6974 89.6578C22.7284 85.9336 21.3535 82.0089 20.5693 78.1215L56.1505 72.9043L56.1675 72.9383Z" fill="#F49FEC"/>
<path d="M78.6649 60.7424L115.125 55.447C114.382 51.4134 113.004 47.4478 110.967 43.5978C108.998 39.8737 106.509 36.5406 103.715 33.7212L78.6479 60.7084L78.6649 60.7424Z" fill="#F49FEC"/>
</svg>
