<svg width="156" height="120" viewBox="0 0 156 120" fill="none" xmlns="http://www.w3.org/2000/svg">
<path d="M78.605 0.982178C63.4987 0.982178 17.8419 2.22562 3.98543 37.9094C-4.91 60.8143 3.74949 84.0189 4.5402 85.6386C21.7253 120.595 69.1357 119.9 77.9418 119.773C88.4952 119.62 133.03 119.875 150.298 86.5249C158.039 71.5717 158.064 48.6285 149.354 31.3031C134.28 1.32014 90.4783 0.982178 78.605 0.982178Z" fill="#D36D00"/>
<g style="mix-blend-mode:multiply" opacity="0.3">
<path d="M78.6051 0.988281C76.3287 0.988281 73.3508 1.02016 69.901 1.18596C64.347 14.5705 64.4043 28.6119 86.7481 31.373C131.563 36.908 137.219 110.201 72.9172 112.152C36.4045 113.262 13.7164 95.554 3.8772 83.9357C4.19603 84.8412 4.43834 85.4343 4.54037 85.6447C21.7254 120.601 69.1358 119.906 77.942 119.779C88.4953 119.626 133.03 119.881 150.298 86.531C158.039 71.5778 158.065 48.6346 149.354 31.3093C134.28 1.31987 90.4785 0.988281 78.6051 0.988281Z" fill="#D36D00"/>
</g>
<path d="M13.2637 32.4061C15.368 8.69138 48.5521 0 79.262 0C115.705 0 143.596 13.206 145.394 34.689C147.224 56.5736 115.054 69.0846 81.6405 69.0846C40.7343 69.0846 11.0637 57.2623 13.2637 32.3998V32.4061Z" fill="#F49C37"/>
<g style="mix-blend-mode:overlay" opacity="0.3">
<path d="M65.6928 6.55509C45.5872 8.34693 19.9531 18.6899 19.9658 29.9893C19.9786 43.0997 54.4826 57.817 84.9184 53.8379C103.054 51.4658 127.068 41.5055 127.004 30.4548C126.934 17.6377 94.5025 3.9853 65.6864 6.55509H65.6928Z" fill="#FFDDAC"/>
</g>
<path d="M51.096 52.9581C51.4531 50.5541 54.1759 49.0173 56.548 49.5848C58.7607 50.1141 60.5398 52.4479 59.9213 54.7754C59.3027 57.0965 56.6245 58.1933 54.4692 57.6322C52.467 57.1093 50.7771 55.107 51.096 52.9581Z" fill="#F8F1DC"/>
<path d="M22.7965 35.4863C19.0917 41.6589 39.1463 54.9478 44.8534 50.5351C50.5605 46.1225 25.9083 30.2957 22.7965 35.4863Z" fill="#F8F1DC"/>
</svg>
