<svg width="122" height="143" viewBox="0 0 122 143" fill="none" xmlns="http://www.w3.org/2000/svg">
<g clip-path="url(#clip0_40_218)">
<path d="M0.672631 84.5825C-6.08701 114.35 72.3697 157.798 105.789 136.576C119.061 128.147 137.632 15.0807 98.3261 1.15951C65.7298 -10.3887 4.45633 67.9134 0.672631 84.5825Z" fill="#FB8000"/>
<path d="M18.0566 56.0715C8.47175 68.5009 1.82419 79.5158 0.657006 84.6599C-6.10263 114.427 72.354 157.876 105.773 136.654C110.071 133.925 114.922 120.22 118.184 102.469C85.8926 115.857 24.3022 83.4193 18.0527 56.0715H18.0566Z" fill="#FEC900"/>
<path d="M121.821 53.8569C120.758 29.0136 114.357 6.83699 98.3222 1.15951C84.0608 -3.89187 64.3114 8.25539 46.2896 24.9129C58.6996 48.4577 100.51 61.8146 121.817 53.8569H121.821Z" fill="#EFE8DF"/>
<path d="M114.516 17.6855C114.516 17.6855 115.857 103.965 69.1037 118.81C22.3505 133.655 4.05036 82.9553 7.90749 70.4679L7.92681 70.3791C3.96147 76.5667 1.36814 81.6335 0.680199 84.6636C-6.07944 114.431 72.3772 157.879 105.797 136.658C116.634 129.778 130.992 53.1727 114.516 17.6894V17.6855Z" fill="#F96A00"/>
<path d="M118.234 102.341C110.203 105.669 100.336 106.191 89.9817 104.633C84.3893 111.026 77.019 116.046 68.4042 118.048C27.0579 127.649 4.05043 82.8548 7.9037 70.3675C7.91143 70.3404 0.541137 81.6297 0.0928137 85.9699C-2.03286 106.531 31.5953 133.067 65.2466 140.279C80.5824 143.564 99.211 145.071 107.845 135.123C110.751 131.772 115.397 118.095 118.23 102.345L118.234 102.341Z" fill="#FCAE00"/>
<path d="M114.357 17.2952C114.357 17.2952 114.404 35.8001 110.74 56.0558C114.794 55.7969 118.551 55.078 121.82 53.8567C121.329 39.7925 119.007 27.2163 114.357 17.2952Z" fill="#DBD2CA"/>
<path d="M48.62 28.7353C38.038 40.7241 34.0727 54.1893 37.7906 58.0348C38.3472 58.6107 39.0351 58.8774 39.8468 58.8774C44.2836 58.8774 52.2993 50.7998 61.7412 41.4971C56.4772 37.81 51.936 33.5161 48.62 28.7314V28.7353Z" fill="#FCA040"/>
<path d="M80.7603 10.2961C73.9079 10.2961 62.1742 15.3475 52.1449 25.0522C50.9004 26.258 49.7255 27.4909 48.6201 28.7393C51.94 33.5239 56.4774 37.8178 61.7413 41.5049C63.2409 40.0285 64.7752 38.5212 66.3366 37.0101C79.5351 24.2483 89.6881 16.0664 85.5798 11.8228C84.5942 10.8024 82.9169 10.3 80.7564 10.3L80.7603 10.2961Z" fill="#F3EEE7"/>
</g>
<defs>
<clipPath id="clip0_40_218">
<rect width="121.987" height="142.756" fill="white"/>
</clipPath>
</defs>
</svg>
