<svg width="41" height="44" viewBox="0 0 41 44" fill="none" xmlns="http://www.w3.org/2000/svg">
<g clip-path="url(#clip0_1_1353)">
<path d="M10.2561 41.9512H38.5488" stroke="#202020" stroke-width="2" stroke-linejoin="round"/>
<path d="M1.47559 43.9024V36.0976C1.47559 33.9415 2.97802 32.1951 5.13412 32.1951H9.03656L13.9146 38.0488H20.7439C20.7439 38.0488 21.3 41.9512 16.8414 41.9512H10.9878L7.21217 38.0488" stroke="#202020" stroke-width="2" stroke-linejoin="round"/>
<path d="M6.84142 29.2683C9.2902 29.2683 11.2317 27.3951 11.2317 25.0829V23.6878C11.2317 21.3756 9.2902 19.5024 6.84142 19.5024C4.39264 19.5024 2.45117 21.3756 2.45117 23.6878V25.0829C2.45117 27.3951 4.39264 29.2683 6.84142 29.2683Z" stroke="#202020" stroke-width="2" stroke-linejoin="round"/>
<path d="M18.7146 35.122L21.7195 27.3171H39.2805L34.5975 39.0244H23.9146" stroke="#202020" stroke-width="2" stroke-linejoin="round"/>
<path d="M20.0122 10.7317H31.7195" stroke="#202020" stroke-width="2" stroke-linejoin="round"/>
<path d="M20.0122 6.82925H31.7195" stroke="#202020" stroke-width="2" stroke-linejoin="round"/>
<path d="M20.0122 14.6342H26.8415" stroke="#202020" stroke-width="2" stroke-linejoin="round"/>
<path d="M26.3537 0.975616C19.0757 0.975616 13.183 5.34635 13.183 10.7317C13.183 12.9854 14.2269 15.0634 15.9635 16.7122C15.6903 18.5171 15.144 20.3805 14.5879 22.1268C14.3635 22.8293 14.8513 23.561 15.4366 23.3854C18.2562 22.5171 20.2659 21.2 21.661 19.8342C23.1244 20.2439 24.6952 20.4878 26.3537 20.4878C33.6318 20.4878 39.5244 16.1171 39.5244 10.7317C39.5244 5.34635 33.6318 0.975616 26.3537 0.975616Z" stroke="#202020" stroke-width="2" stroke-miterlimit="10"/>
</g>
<defs>
<clipPath id="clip0_1_1353">
<rect width="40" height="43.9024" fill="white" transform="translate(0.5)"/>
</clipPath>
</defs>
</svg>
