<svg width="188" height="47" viewBox="0 0 188 47" fill="none" xmlns="http://www.w3.org/2000/svg">
<g clip-path="url(#clip0_39_202)">
<path fill-rule="evenodd" clip-rule="evenodd" d="M49.2228 19.4016C45.6661 19.9054 42.3994 21.3403 39.1174 22.7141C37.5757 23.3705 35.9881 23.9201 34.4922 24.668C31.485 26.164 28.5083 27.7516 25.5469 29.3391C24.1731 30.0718 22.8603 30.9114 21.5475 31.7357C19.3341 33.1401 17.1054 34.5292 14.953 35.9946C13.8845 36.7273 12.9381 37.6432 11.9306 38.4675C11.6406 38.6965 11.3658 38.956 11.03 39.1239C10.4957 39.3987 9.62558 39.1087 9.33555 38.5439C8.63336 37.2311 7.91591 35.903 7.30531 34.5445C6.74051 33.3233 6.93895 32.2395 7.99223 31.2472C9.03025 30.2855 10.0683 29.4002 11.2742 28.6217C14.3272 26.6525 17.2733 24.5154 20.3721 22.592C21.6086 21.8288 22.845 20.9281 24.341 20.6076C24.6921 20.5313 25.0126 20.287 25.3027 20.0733C26.3712 19.2948 27.4092 18.501 28.7831 18.3636C28.9663 18.3484 29.1647 18.2873 29.3021 18.1805C32.4924 15.9365 36.2324 15.0817 39.8501 13.8757C42.3994 13.0209 44.9639 12.0745 47.3147 10.777C49.3144 9.66262 51.482 9.2352 53.5886 8.60934C54.825 8.24298 56.1226 7.98348 57.3285 7.52553C58.7329 6.99126 60.1525 6.51804 61.679 6.59437C62.656 6.64016 63.5108 6.24328 64.3809 5.87692C65.1747 5.54109 65.9837 5.38844 66.8385 5.35791C67.9224 5.31211 68.6856 5.69374 68.9909 6.74702C69.2809 7.7545 69.9679 8.53302 70.3495 9.50997C70.8532 10.7922 71.1585 11.9066 70.4716 13.2041C70.09 13.9368 70.609 14.5016 71.418 14.3795C71.9676 14.2879 72.5476 14.1963 73.0361 13.9368C75.2648 12.7309 77.814 12.2882 80.0427 11.1433C82.3019 9.98318 84.7748 9.64736 87.1256 8.80778C88.24 8.4109 89.2017 7.72397 90.3923 7.40341C91.9188 6.99126 93.4911 6.6249 94.9718 6.0601C96.9563 5.31211 99.0476 5.52582 101.078 5.23579C101.811 5.12894 102.268 5.63268 102.558 6.30434C103.276 8.01401 103.978 9.72368 104.619 11.4639C105.718 14.3795 105.81 14.4558 108.695 13.601C112.191 12.563 115.732 11.6929 119.228 10.6396C124.143 9.14361 129.119 7.7545 134.264 7.17444C134.63 7.12864 135.012 7.08285 135.363 6.96073C139.912 5.55635 144.598 4.68625 149.284 3.83142C154.352 2.91552 159.42 2.01489 164.488 1.11426C164.763 1.06846 165.053 1.0074 165.328 0.992138C169.358 0.931079 173.357 0.122037 177.402 0.488396C178.288 0.56472 179.051 0.259422 179.875 0.0457126C180.959 -0.229056 181.753 0.320481 181.86 1.43482C181.967 2.45757 182.028 3.49559 181.997 4.51834C181.982 5.1442 182.455 5.95324 181.845 6.36539C181.097 6.86914 180.425 7.63238 179.356 7.55606C178.898 7.52553 178.41 7.61712 177.952 7.57132C175.678 7.34235 173.495 7.99874 171.251 8.18192C170.884 8.21245 170.411 8.18192 170.274 8.57881C170.045 9.18941 169.617 9.18941 169.159 9.06729C167.602 8.65513 166.061 8.21245 164.641 9.44891C164.519 9.55577 164.259 9.61683 164.122 9.55577C162.305 8.77725 160.626 10.0442 158.856 9.90686C158.123 9.8458 158.856 10.7464 158.352 10.777C157.894 10.7922 157.436 10.548 156.978 10.5785C156.276 10.609 155.055 9.63209 155.116 11.4181C153.986 11.4944 152.994 12.1203 151.834 12.0745C150.612 12.0287 149.407 12.1813 148.277 12.7309C147.788 12.9751 147.193 13.0362 146.644 13.0514C145.682 13.082 144.797 13.2193 144.018 13.8757C143.407 14.3795 142.614 14.3947 141.866 14.3947C140.614 14.3947 139.423 14.7153 138.294 15.1122C136.08 15.8907 133.821 16.4097 131.501 16.7608C130.234 16.9593 129.013 17.5699 127.807 18.0736C126.753 18.501 125.715 18.8674 124.571 18.9895C123.731 19.0811 122.907 19.2795 122.098 19.539C120.052 20.2107 118.037 20.9129 115.915 21.3403C114.206 21.6914 112.603 22.531 110.939 23.1263C106.039 24.8665 101.017 26.3319 96.2846 28.5301C94.7581 29.2475 93.3079 30.1176 91.583 30.2703C90.7434 30.3466 90.4687 31.1862 89.7665 31.5067C86.7746 32.8348 83.8284 34.2697 80.8823 35.7046C78.8826 36.6663 76.8981 37.6585 74.9595 38.7271C71.9523 40.3757 68.9756 42.1006 65.9684 43.7492C64.3656 44.6346 63.6482 44.4209 62.8239 42.8333C62.2133 41.6732 61.7095 40.4673 61.16 39.2766C61.6027 39.185 62.1369 39.1392 62.1827 38.5591C62.2133 38.3302 62.0912 37.9791 61.908 37.8569C61.6637 37.7043 61.3737 37.9027 61.2974 38.1775C61.2058 38.5286 61.1905 38.9102 61.16 39.2766C60.2136 38.895 59.893 37.9943 59.4809 37.1853C59.0534 36.3457 59.0992 36.2847 60.2899 35.2466C61.9538 35.6435 63.1902 36.4526 63.4345 38.3149C63.465 38.5439 63.694 38.7576 63.8924 39.0629C65.3884 38.208 66.6248 36.7731 68.6856 37.1395C67.9376 38.1165 66.9454 38.4981 66.1669 39.1545C65.6021 39.6277 65.6326 40.4062 66.1822 40.8641C67.0523 41.5816 67.6171 41.3984 67.9529 40.3146C68.0903 39.8719 68.2429 39.4292 68.4108 39.0018C68.5177 38.7271 68.7161 38.4675 69.0062 38.5286C70.151 38.7576 70.9295 37.7348 71.9065 37.689C73.4788 37.6127 74.5626 36.7884 75.4632 35.6893C76.1654 34.8345 76.9745 34.6818 77.9667 34.7887C78.3178 34.8345 78.8215 35.2009 78.9894 34.7887C79.4474 33.598 81.3097 33.5064 81.0655 31.8884C81.5387 32.0868 81.4166 32.4226 81.5234 32.6669C81.6303 32.8958 81.7676 33.2164 81.9661 33.2927C82.2714 33.4149 82.5156 33.1096 82.5309 32.8348C82.5767 31.8426 83.2331 31.4152 83.9963 30.9572C85.1412 30.2703 86.4235 30.255 87.7057 30.1787C87.6141 29.6597 87.2935 29.736 87.0493 29.6749C86.8814 29.6292 86.6066 29.5834 86.5608 29.4765C86.4692 29.1559 86.7745 29.0338 87.0035 28.9422C87.2478 28.8354 87.5225 28.7285 87.7973 28.7133C88.24 28.7133 88.7437 29.1712 89.0948 28.7133C89.3543 28.3774 89.3391 27.8432 89.4917 27.4005C89.6138 27.0494 89.797 26.7136 89.9497 26.3777C90.0412 26.1793 90.2092 26.0877 90.3923 26.2098C91.5677 26.9731 91.8883 25.7366 92.3157 25.2329C93.079 24.3322 93.8117 23.5995 95.0481 23.4621C96.1167 23.34 97.0326 22.9584 97.4447 21.8135C97.5211 21.5998 97.8416 21.325 98.0553 21.325C99.2307 21.2945 99.8413 20.3481 100.635 19.7527C101.597 19.0353 102.375 18.6995 103.261 19.8138C103.49 20.0886 103.963 20.1344 104.268 19.8138C104.589 19.478 104.421 19.1116 104.161 18.8216C103.535 18.1652 103.581 17.4935 104.085 16.7913C104.36 16.425 104.65 16.0586 104.909 15.6923C104.955 15.6312 104.94 15.4633 104.894 15.4328C104.741 15.3412 104.558 15.2038 104.421 15.2343C103.871 15.3564 103.352 15.6159 103.001 16.0739C102.742 16.3945 102.421 16.6234 102.039 16.486C100.971 16.0586 100.253 16.6234 99.536 17.2798C99.3529 17.4477 99.017 17.6767 98.8338 17.6157C97.4142 17.173 96.1014 18.1499 94.6818 17.8752C93.8117 17.7072 93.0484 18.0125 92.4531 18.7758C91.6593 19.7833 90.606 20.2565 89.2627 20.1344C88.3316 20.0428 87.3699 20.0122 87.0188 21.2792C86.8661 21.8288 86.2097 22.1646 85.6755 22.1951C84.5459 22.2715 83.7979 22.9278 83.0041 23.569C82.3477 24.088 81.6455 24.5307 80.9586 24.9886C79.7985 24.4543 79.3558 25.7213 78.5162 25.9656C78.0125 26.1182 77.3866 25.7519 76.9897 26.3472C76.1044 27.66 74.5321 27.95 73.3109 28.7591C72.7613 29.1254 72.5934 28.4538 72.5018 27.9958C73.4177 26.9273 74.5321 26.1182 75.8906 25.6908C76.3639 25.5382 76.6539 25.1718 77.0355 24.9581C78.1499 24.3322 79.0963 23.3095 80.5159 23.2789C80.6838 23.2789 80.8823 23.1721 81.0044 23.05C81.4013 22.6836 81.386 22.1799 81.2792 21.7372C81.1876 21.325 80.7296 21.2792 80.348 21.3556C79.9969 21.4319 79.6153 21.5387 79.2947 21.7219C77.8446 22.5157 76.5012 23.4926 74.8068 23.7827C74.3794 23.859 73.952 24.1948 73.6162 24.5001C72.3339 25.6145 70.7006 26.0724 69.2657 26.8815C68.304 27.4157 67.1286 27.5379 66.5332 28.6675C66.3501 29.0186 65.7853 29.2323 65.3426 29.3696C62.656 30.2092 60.2288 31.6289 57.7101 32.8348C53.7565 34.7124 49.7724 36.5136 46.1393 39.0018C44.9944 39.7803 43.7122 40.3909 42.491 41.0931C40.2928 42.3601 38.2779 43.8408 36.4155 45.5505C35.5454 46.3595 34.4158 46.329 33.6984 45.4589C32.9504 44.543 32.0956 43.7187 31.6987 42.467C31.3476 41.3526 30.4775 40.4062 29.8516 39.3682C28.9052 37.7806 29.0884 36.3915 30.4317 35.1856C33.2099 32.7127 36.0492 30.3161 38.98 28.0416C39.7891 27.4157 40.7966 27.202 41.6209 26.5151C42.6742 25.6145 43.9564 25.0039 44.8418 23.859C45.6356 22.821 47.1163 22.5462 47.7574 21.3098C48.0016 20.8366 48.5512 20.8671 48.9633 20.6686C49.3297 20.4855 49.4823 20.1496 49.5434 19.768C49.7266 19.6001 49.9861 19.4322 49.6197 19.2185C49.5586 19.1879 49.3755 19.3864 49.2381 19.4627L49.2228 19.4016ZM45.5898 26.3167C45.1471 26.2709 44.6586 26.4235 44.2159 26.8662C43.819 27.2478 43.3458 27.6294 42.8268 27.7821C40.6744 28.4538 39.4533 30.3161 37.8199 31.6441C37.4536 31.9494 37.4993 32.7127 37.2093 33.1553C36.7972 33.7659 36.1408 33.0332 35.6676 33.2775C35.4538 33.3843 35.3012 33.6896 35.2096 33.9339C35.057 34.3307 34.7822 34.6513 34.4006 34.5139C33.0267 33.9949 32.6298 35.1703 31.9887 35.8725C31.7139 36.1778 32.1566 36.8495 32.6146 36.9105C33.103 36.9716 33.5763 36.9411 33.9121 36.5747C34.309 36.132 34.7517 35.8267 35.3623 35.8878C35.5149 35.903 35.8049 36.0252 35.7897 36.071C35.7286 36.6052 35.6676 37.1395 35.4996 37.6585C35.3775 38.0859 34.9196 38.0707 34.5532 38.1012C34.2784 38.1317 33.9884 38.1165 33.7136 38.1928C33.1488 38.3454 32.8435 38.895 32.9962 39.5056C33.0725 39.7651 33.1794 40.0551 33.3778 40.223C34.1716 40.9863 33.6831 41.3068 32.9657 41.5816C32.7367 41.6732 32.6909 41.8564 32.8283 42.0395C32.9351 42.1769 33.0878 42.3143 33.2404 42.3906C33.7442 42.6043 34.1105 42.2075 34.538 42.0701C35.1485 41.8716 35.0112 40.8489 35.5302 40.9252C36.0339 41.0015 36.4613 41.4442 37.0719 41.1236C37.6215 40.8336 38.1405 40.9405 38.5679 41.4595C38.7663 41.7037 39.1327 41.719 39.2701 41.4747C39.7128 40.7573 40.4455 40.2993 40.7966 39.4903C41.4377 38.0096 41.5293 37.8722 42.7047 38.2691C43.7122 38.6049 44.2464 38.208 44.9486 37.6738C45.9866 36.88 46.811 35.8115 48.0474 35.2924C49.2991 34.7734 50.215 33.8575 51.0546 32.8348C51.4668 32.331 51.94 31.8731 52.4285 31.4304C54.6419 29.446 57.3285 28.0263 59.3435 25.7977C59.5724 25.5382 59.9693 25.3702 60.3204 25.2634C60.7631 25.126 61.2974 25.2023 61.679 24.9733C62.0301 24.7596 61.4195 24.2712 61.8316 23.7979C62.5644 22.9584 63.5413 22.6836 64.503 22.363C65.2205 22.1188 65.6326 21.7982 65.6784 21.0045C65.7242 20.1802 66.2432 19.6154 66.8691 19.1879C67.7086 18.6231 68.3345 17.7683 69.4641 17.6004C70.0442 17.5088 70.2426 16.8219 70.0747 16.2418C69.9068 15.6923 69.4946 15.5396 69.0062 15.5244C68.365 15.4938 67.5865 15.2954 67.1286 15.7991C66.4874 16.5166 65.6173 16.4555 64.8846 16.7913C63.0528 17.6309 61.0073 17.9973 59.6182 19.768C59.0534 20.4855 57.9696 21.1571 56.8705 20.8823C55.2983 20.5007 54.5808 21.0961 54.2908 22.592C54.1687 23.2026 53.7107 23.1721 53.2222 22.821C53.0238 22.6683 52.5658 22.531 52.4742 22.6225C51.2988 23.859 49.406 24.0727 48.3374 25.4771C48.0169 25.9045 47.5437 26.3319 47.0552 26.4998C46.6736 26.6372 46.1546 26.3625 45.5745 26.2403L45.5898 26.3167ZM30.9202 39.2155C30.9965 39.3529 31.0423 39.5514 31.1491 39.5972C31.2713 39.6277 31.5155 39.5361 31.5613 39.4445C31.6834 39.185 31.5613 38.956 31.256 38.956C31.1491 38.956 31.0423 39.1392 30.9202 39.2308V39.2155Z" fill="#BFE9E2"/>
<path fill-rule="evenodd" clip-rule="evenodd" d="M72.4561 27.9805C72.5477 28.4384 72.7156 29.1101 73.2651 28.7437C74.4863 27.9194 76.0586 27.6446 76.944 26.3318C77.3561 25.7212 77.982 26.1029 78.4705 25.9502C79.31 25.6907 79.7375 24.439 80.9129 24.9733C81.5998 24.5 82.3172 24.0726 82.9584 23.5536C83.7674 22.9125 84.5001 22.2561 85.6297 22.1798C86.1487 22.134 86.8204 21.8134 86.973 21.2639C87.3241 19.9969 88.2858 20.0274 89.217 20.119C90.5603 20.2564 91.6136 19.7679 92.4074 18.7604C93.0027 17.9972 93.7659 17.7072 94.636 17.8598C96.0557 18.1193 97.3685 17.1576 98.7881 17.6003C98.9713 17.6614 99.3071 17.4324 99.4903 17.2645C100.208 16.6081 100.925 16.0585 101.994 16.4707C102.375 16.6233 102.696 16.3791 102.955 16.0585C103.322 15.6006 103.826 15.3564 104.375 15.219C104.512 15.1884 104.696 15.3258 104.848 15.4174C104.894 15.4479 104.909 15.6159 104.864 15.6769C104.604 16.0433 104.314 16.4096 104.039 16.776C103.535 17.4629 103.49 18.1346 104.116 18.8062C104.375 19.081 104.543 19.4626 104.222 19.7984C103.917 20.1343 103.444 20.0885 103.215 19.7984C102.33 18.6841 101.551 19.0199 100.589 19.7374C99.7956 20.3327 99.1697 21.2791 98.0096 21.3097C97.7959 21.3097 97.4753 21.5844 97.399 21.7982C96.9868 22.943 96.0709 23.3399 95.0024 23.4468C93.7812 23.5842 93.0332 24.3169 92.27 25.2175C91.8425 25.7212 91.5372 26.9577 90.3466 26.1945C90.1481 26.0723 89.9802 26.1639 89.9039 26.3624C89.7513 26.7135 89.5681 27.034 89.446 27.3851C89.2933 27.8125 89.3086 28.3621 89.0491 28.6979C88.7132 29.1406 88.1942 28.6674 87.7515 28.6979C87.4768 28.6979 87.2173 28.82 86.9578 28.9269C86.7288 29.0185 86.4235 29.1406 86.5151 29.4612C86.5456 29.568 86.8204 29.6138 87.0036 29.6596C87.2478 29.7207 87.5836 29.6443 87.66 30.1633C86.393 30.2244 85.1107 30.2397 83.9506 30.9419C83.1873 31.3998 82.5309 31.8272 82.4851 32.8194C82.4851 33.0942 82.2256 33.3995 81.9203 33.2774C81.7219 33.2011 81.5845 32.8805 81.4777 32.6515C81.3708 32.4073 81.4777 32.0715 81.0197 31.873C81.264 33.4911 79.4169 33.5827 78.9437 34.7733C78.7758 35.1855 78.272 34.8191 77.9209 34.7733C76.9287 34.6665 76.1197 34.8191 75.4175 35.674C74.5168 36.7731 73.4178 37.5821 71.8608 37.6737C70.8685 37.7195 70.09 38.7575 68.9604 38.5133C68.6551 38.4522 68.4567 38.727 68.3651 38.9865C68.1972 39.4139 68.0445 39.8566 67.9071 40.2993C67.5713 41.3831 67.0065 41.551 66.1364 40.8488C65.5869 40.4061 65.5563 39.6123 66.1211 39.1391C66.8996 38.4827 67.8919 38.1011 68.6399 37.1241C66.5791 36.7425 65.3426 38.1927 63.8467 39.0475C63.6482 38.7422 63.4192 38.5285 63.3887 38.2995C63.1445 36.4372 61.908 35.6282 60.2441 35.2313C61.4043 33.888 63.0682 33.2621 64.5183 32.3462C66.6096 31.0334 68.8078 29.8275 70.8533 28.4231C71.3417 28.0873 71.8455 27.9499 72.4256 27.9499L72.4561 27.9805Z" fill="#AFE4DB"/>
<path fill-rule="evenodd" clip-rule="evenodd" d="M45.5898 26.3167C46.1852 26.4389 46.7042 26.6984 47.0705 26.5762C47.559 26.4083 48.0322 25.9809 48.3528 25.5535C49.4213 24.1338 51.2989 23.9354 52.4896 22.6989C52.5812 22.6074 53.0391 22.7447 53.2375 22.8974C53.7108 23.2485 54.184 23.2943 54.3061 22.6684C54.5961 21.1725 55.3136 20.5771 56.8859 20.9587C57.9849 21.2335 59.0688 20.5619 59.6336 19.8444C61.0227 18.0889 63.0682 17.7073 64.9 16.8677C65.6479 16.5319 66.518 16.593 67.1439 15.8755C67.6019 15.3565 68.3804 15.5702 69.0215 15.6008C69.51 15.616 69.9221 15.7687 70.09 16.3182C70.258 16.8983 70.0595 17.5852 69.4794 17.6768C68.3498 17.8447 67.724 18.7148 66.8844 19.2643C66.2585 19.6918 65.7243 20.2566 65.6937 21.0809C65.6479 21.8594 65.2358 22.1952 64.5183 22.4394C63.5566 22.76 62.595 23.0348 61.847 23.8743C61.4348 24.3476 62.0302 24.836 61.6943 25.0497C61.328 25.2787 60.7784 25.2024 60.3357 25.3398C59.9846 25.4466 59.5878 25.6145 59.3588 25.8741C57.3438 28.1027 54.6572 29.5224 52.4438 31.5068C51.9553 31.9495 51.4821 32.4074 51.0699 32.9112C50.2304 33.9492 49.3297 34.8651 48.0627 35.3688C46.8263 35.8878 46.002 36.9564 44.964 37.7502C44.2618 38.2844 43.7275 38.6813 42.72 38.3455C41.5446 37.9486 41.453 38.086 40.8119 39.5667C40.4608 40.3757 39.7281 40.8337 39.2854 41.5511C39.1328 41.7954 38.7817 41.7801 38.5832 41.5359C38.1558 41.0169 37.6368 40.91 37.0872 41.2C36.4767 41.5206 36.0492 41.0779 35.5455 41.0016C35.0265 40.9253 35.1639 41.9328 34.5533 42.1465C34.1259 42.2839 33.7595 42.6807 33.2558 42.467C33.1031 42.406 32.9505 42.2533 32.8436 42.1159C32.7062 41.9328 32.752 41.7496 32.981 41.658C33.6984 41.3832 34.1869 41.0474 33.3931 40.2994C33.21 40.1162 33.0878 39.8262 33.0115 39.582C32.8436 38.9714 33.1489 38.4218 33.729 38.2692C34.0037 38.1929 34.2785 38.2081 34.5685 38.1776C34.9349 38.1318 35.3776 38.1623 35.515 37.7349C35.6676 37.2159 35.7287 36.6816 35.805 36.1474C35.805 36.1016 35.5302 35.9794 35.3776 35.9642C34.767 35.9031 34.3243 36.2084 33.9274 36.6511C33.5916 37.0175 33.1184 37.048 32.6299 36.9869C32.1719 36.9259 31.7293 36.2542 32.004 35.9489C32.6452 35.2315 33.0268 34.0713 34.4159 34.5903C34.7975 34.7277 35.0723 34.4072 35.2249 34.0103C35.3165 33.766 35.4692 33.4607 35.6829 33.3539C36.1714 33.1096 36.8125 33.8271 37.2246 33.2318C37.5299 32.7891 37.4689 32.0258 37.8352 31.7205C39.4686 30.3925 40.6745 28.5302 42.8421 27.8585C43.3459 27.7058 43.8343 27.3242 44.2312 26.9426C44.6739 26.4999 45.1471 26.3473 45.6051 26.3931L45.5898 26.3167Z" fill="#AFE4DB"/>
<path fill-rule="evenodd" clip-rule="evenodd" d="M61.1448 39.2765C61.1906 38.9101 61.1906 38.5285 61.2822 38.1774C61.3585 37.9026 61.6485 37.7042 61.8928 37.8568C62.0607 37.9637 62.1828 38.3301 62.1675 38.559C62.1217 39.1544 61.5875 39.1849 61.1448 39.2765Z" fill="#AFE4DB"/>
<path fill-rule="evenodd" clip-rule="evenodd" d="M30.9202 39.2156C31.027 39.124 31.1491 38.9409 31.256 38.9409C31.546 38.9409 31.6834 39.1698 31.5613 39.4293C31.5155 39.5209 31.2713 39.6125 31.1491 39.582C31.0423 39.5515 30.9965 39.3377 30.9202 39.2004V39.2156Z" fill="#AFE4DB"/>
</g>
<g clip-path="url(#clip1_39_202)">
<path d="M0.380005 11.55H3.35" stroke="#949494" stroke-width="0.75" stroke-linecap="round" stroke-linejoin="round"/>
<path d="M8.72 11.55H5.75" stroke="#949494" stroke-width="0.75" stroke-linecap="round" stroke-linejoin="round"/>
<path d="M4.55005 15.72V12.75" stroke="#949494" stroke-width="0.75" stroke-linecap="round" stroke-linejoin="round"/>
<path d="M4.55005 7.38V10.35" stroke="#949494" stroke-width="0.75" stroke-linecap="round" stroke-linejoin="round"/>
<path d="M15.54 11.72H18.51" stroke="#949494" stroke-width="0.75" stroke-linecap="round" stroke-linejoin="round"/>
<path d="M23.89 11.72H20.91" stroke="#949494" stroke-width="0.75" stroke-linecap="round" stroke-linejoin="round"/>
<path d="M19.7101 15.89V12.92" stroke="#949494" stroke-width="0.75" stroke-linecap="round" stroke-linejoin="round"/>
<path d="M19.7101 7.54001V10.51" stroke="#949494" stroke-width="0.75" stroke-linecap="round" stroke-linejoin="round"/>
<path d="M7.83997 19.42H10.81" stroke="#949494" stroke-width="0.75" stroke-linecap="round" stroke-linejoin="round"/>
<path d="M16.19 19.42H13.21" stroke="#949494" stroke-width="0.75" stroke-linecap="round" stroke-linejoin="round"/>
<path d="M12.01 23.59V20.62" stroke="#949494" stroke-width="0.75" stroke-linecap="round" stroke-linejoin="round"/>
<path d="M12.01 15.24V18.21" stroke="#949494" stroke-width="0.75" stroke-linecap="round" stroke-linejoin="round"/>
</g>
<g clip-path="url(#clip2_39_202)">
<path d="M163.38 29.55H166.35" stroke="#949494" stroke-width="0.75" stroke-linecap="round" stroke-linejoin="round"/>
<path d="M171.72 29.55H168.75" stroke="#949494" stroke-width="0.75" stroke-linecap="round" stroke-linejoin="round"/>
<path d="M167.55 33.72V30.75" stroke="#949494" stroke-width="0.75" stroke-linecap="round" stroke-linejoin="round"/>
<path d="M167.55 25.38V28.35" stroke="#949494" stroke-width="0.75" stroke-linecap="round" stroke-linejoin="round"/>
<path d="M178.54 29.72H181.51" stroke="#949494" stroke-width="0.75" stroke-linecap="round" stroke-linejoin="round"/>
<path d="M186.89 29.72H183.91" stroke="#949494" stroke-width="0.75" stroke-linecap="round" stroke-linejoin="round"/>
<path d="M182.71 33.89V30.92" stroke="#949494" stroke-width="0.75" stroke-linecap="round" stroke-linejoin="round"/>
<path d="M182.71 25.54V28.51" stroke="#949494" stroke-width="0.75" stroke-linecap="round" stroke-linejoin="round"/>
<path d="M170.84 37.42H173.81" stroke="#949494" stroke-width="0.75" stroke-linecap="round" stroke-linejoin="round"/>
<path d="M179.19 37.42H176.21" stroke="#949494" stroke-width="0.75" stroke-linecap="round" stroke-linejoin="round"/>
<path d="M175.01 41.59V38.62" stroke="#949494" stroke-width="0.75" stroke-linecap="round" stroke-linejoin="round"/>
<path d="M175.01 33.24V36.21" stroke="#949494" stroke-width="0.75" stroke-linecap="round" stroke-linejoin="round"/>
</g>
<defs>
<clipPath id="clip0_39_202">
<rect width="175.165" height="46.1001" fill="white" transform="translate(7)"/>
</clipPath>
<clipPath id="clip1_39_202">
<rect width="24.26" height="16.96" fill="white" transform="translate(0 7)"/>
</clipPath>
<clipPath id="clip2_39_202">
<rect width="24.26" height="16.96" fill="white" transform="translate(163 25)"/>
</clipPath>
</defs>
</svg>
