<svg width="98" height="98" viewBox="0 0 98 98" fill="none" xmlns="http://www.w3.org/2000/svg">
<g clip-path="url(#clip0_93_432)">
<path d="M80.9999 7.49989C74.5999 2.69989 65.6666 8.16656 61.9999 11.4999C57.6666 8.33326 47.2999 3.3 40.4999 8.5C28.8999 17.3 31.3332 27.5 33.9999 31.5L44.9999 43.4429L49.4999 39L55.4999 36.5L57.4999 41L51.4999 50.5L61.9999 61C68.3332 54.3333 82.7999 38.8 89.9999 30C94.4999 14.5 88.9999 13.4999 80.9999 7.49989Z" fill="#FFADAD"/>
<path d="M50.8117 50.0052L61.8536 61.5453L87.9781 33.7044C93.9281 26.4065 92.8366 15.6641 85.5387 9.71398C78.3848 3.8791 67.8843 4.79782 61.8536 11.7876C55.6558 4.66822 44.8645 3.9223 37.7451 10.1172C30.6257 16.3149 29.8798 27.1063 36.0776 34.2257C36.3166 34.5021 36.5643 34.7671 36.8235 35.0292L44.4152 42.9348" stroke="#1C2731" stroke-width="3" stroke-linecap="round" stroke-linejoin="round"/>
<path d="M36.0601 47.8509L43.8908 44.1386L50.8373 37.6096C52.237 36.2934 54.4057 36.2502 55.8572 37.5059C57.4268 38.8653 57.5909 41.2413 56.2258 42.8051L39.4325 62.0291" stroke="#1C2731" stroke-width="3" stroke-linecap="round" stroke-linejoin="round"/>
<path d="M39.6344 37.9609L29.658 44.487L18.5038 66.7379L5.875 73.8486" stroke="#1C2731" stroke-width="3" stroke-miterlimit="10" stroke-linecap="round"/>
<path d="M55.3475 55.2236L42.6697 72.616C39.2886 76.6019 35.0636 79.79 30.303 81.9529L14.2412 92.128" stroke="#1C2731" stroke-width="3" stroke-linecap="round" stroke-linejoin="round"/>
</g>
<defs>
<clipPath id="clip0_93_432">
<rect width="89.689" height="90" fill="white" transform="translate(4 4)"/>
</clipPath>
</defs>
</svg>
