<svg width="98" height="98" viewBox="0 0 98 98" fill="none" xmlns="http://www.w3.org/2000/svg">
<g clip-path="url(#clip0_93_433)">
<rect x="79.1919" y="47" width="6.92929" height="17" fill="#BEB8FF"/>
<rect x="9.89893" y="72" width="12.8687" height="4" fill="#BEB8FF"/>
<path d="M91.5194 38.8906H4.50112C2.84392 38.8906 1.50049 40.2478 1.50049 41.9219V93.4531C1.50049 95.1272 2.84392 96.4844 4.50112 96.4844H91.5194C93.1766 96.4844 94.5201 95.1272 94.5201 93.4531V41.9219C94.5201 40.2478 93.1766 38.8906 91.5194 38.8906Z" stroke="#1C2731" stroke-width="3" stroke-linecap="round" stroke-linejoin="round"/>
<path d="M9.00195 82.8438H16.5035V88.9062H9.00195V82.8438Z" stroke="#1C2731" stroke-width="3" stroke-linecap="round" stroke-linejoin="round"/>
<path d="M22.5049 82.8438H73.5156V88.9062H22.5049V82.8438Z" stroke="#1C2731" stroke-width="3" stroke-linecap="round" stroke-linejoin="round"/>
<path d="M79.5171 82.8438H87.0187V88.9062H79.5171V82.8438Z" stroke="#1C2731" stroke-width="3" stroke-linecap="round" stroke-linejoin="round"/>
<path d="M9.00195 70.7188H24.0051V76.7812H9.00195V70.7188Z" stroke="#1C2731" stroke-width="3" stroke-linecap="round" stroke-linejoin="round"/>
<path d="M70.5151 70.7188H87.0186V76.7812H70.5151V70.7188Z" stroke="#1C2731" stroke-width="3" stroke-linecap="round" stroke-linejoin="round"/>
<path d="M57.0122 70.7188H64.5138V76.7812H57.0122V70.7188Z" stroke="#1C2731" stroke-width="3" stroke-linecap="round" stroke-linejoin="round"/>
<path d="M43.5093 70.7188H51.0109V76.7812H43.5093V70.7188Z" stroke="#1C2731" stroke-width="3" stroke-linecap="round" stroke-linejoin="round"/>
<path d="M30.0063 70.7188H37.5079V76.7812H30.0063V70.7188Z" stroke="#1C2731" stroke-width="3" stroke-linecap="round" stroke-linejoin="round"/>
<path d="M9.00195 58.5938H18.0038V64.6562H9.00195V58.5938Z" stroke="#1C2731" stroke-width="3" stroke-linecap="round" stroke-linejoin="round"/>
<path d="M64.5137 58.5938H72.0153V64.6562H64.5137V58.5938Z" stroke="#1C2731" stroke-width="3" stroke-linecap="round" stroke-linejoin="round"/>
<path d="M51.0107 58.5938H58.5123V64.6562H51.0107V58.5938Z" stroke="#1C2731" stroke-width="3" stroke-linecap="round" stroke-linejoin="round"/>
<path d="M37.5083 58.5938H45.0099V64.6562H37.5083V58.5938Z" stroke="#1C2731" stroke-width="3" stroke-linecap="round" stroke-linejoin="round"/>
<path d="M24.0054 58.5938H31.5069V64.6562H24.0054V58.5938Z" stroke="#1C2731" stroke-width="3" stroke-linecap="round" stroke-linejoin="round"/>
<path d="M9.00195 46.4688H18.0038V52.5312H9.00195V46.4688Z" stroke="#1C2731" stroke-width="3" stroke-linecap="round" stroke-linejoin="round"/>
<path d="M24.0054 46.4688H31.5069V52.5312H24.0054V46.4688Z" stroke="#1C2731" stroke-width="3" stroke-linecap="round" stroke-linejoin="round"/>
<path d="M37.5083 46.4688H45.0099V52.5312H37.5083V46.4688Z" stroke="#1C2731" stroke-width="3" stroke-linecap="round" stroke-linejoin="round"/>
<path d="M51.0107 46.4688H58.5123V52.5312H51.0107V46.4688Z" stroke="#1C2731" stroke-width="3" stroke-linecap="round" stroke-linejoin="round"/>
<path d="M64.5137 46.4688H72.0153V52.5312H64.5137V46.4688Z" stroke="#1C2731" stroke-width="3" stroke-linecap="round" stroke-linejoin="round"/>
<path d="M78.0166 46.4688H87.0185V64.6562H78.0166V46.4688Z" stroke="#1C2731" stroke-width="3" stroke-linecap="round" stroke-linejoin="round"/>
<path d="M48.0103 38.8906V17.6719C48.0103 15.1559 50.0207 13.125 52.5112 13.125C55.0017 13.125 57.0121 15.1559 57.0121 17.6719V25.25C57.0121 27.7659 59.0226 29.7969 61.5131 29.7969C64.0036 29.7969 66.014 27.7659 66.014 25.25V11.6094" stroke="#1C2731" stroke-width="3" stroke-linecap="round" stroke-linejoin="round"/>
<path d="M66.0142 2.51562V5.54688" stroke="#1C2731" stroke-width="3" stroke-linecap="round" stroke-linejoin="round"/>
</g>
<defs>
<clipPath id="clip0_93_433">
<rect width="96.0202" height="97" fill="white" transform="translate(0 1)"/>
</clipPath>
</defs>
</svg>
