<svg width="98" height="98" viewBox="0 0 98 98" fill="none" xmlns="http://www.w3.org/2000/svg">
<g clip-path="url(#clip0_93_435)">
<path d="M39.1505 57.5L48.4998 42L59.0178 57.5C59.0178 57.5 77.1321 57.5 77.1321 59.5C77.1321 61.5 64.8611 72 64.8611 72L67.7828 89L48.4998 81L30.3855 89L33.3072 73.5C33.3072 73.5 20.4519 61.5 21.6205 59.5C22.7892 57.5 39.1505 57.5 39.1505 57.5Z" fill="#FFD970"/>
<path d="M65.5148 90.85C64.8471 90.85 64.211 90.6876 63.5714 90.3478L48.9947 82.5868L34.425 90.3448C31.7718 91.7461 28.718 89.981 28.718 87.6355C28.718 87.5303 28.7285 87.413 28.739 87.3077L30.6086 72.9072L19.6795 63.3961C18.9767 62.7947 18.5796 61.9889 18.5796 61.1319C18.5796 59.5291 20.0063 58.17 21.8934 57.9715L38.1711 56.3778L45.5649 42.1577C46.1693 40.997 47.5117 40.2483 48.9877 40.2483C50.4636 40.2483 51.806 40.997 52.4105 42.1547L59.8078 56.3748L76.0713 57.9685C77.976 58.17 79.3992 59.5261 79.3992 61.1289C79.3992 61.9858 79.0021 62.7917 78.2853 63.4021L67.3703 72.9012L69.2363 87.2747C69.2503 87.407 69.2609 87.5242 69.2609 87.6295C69.2609 89.4006 67.5776 90.844 65.5042 90.844L65.5148 90.85ZM48.9947 79.1828L65.3496 87.8911C65.4656 87.9512 65.5183 87.9602 65.5183 87.9602C65.7221 87.9602 65.8908 87.8159 65.8908 87.6385L63.8455 71.8608L75.8991 61.3694C75.9554 61.3213 76.0292 61.2431 76.0292 61.1349C76.0292 60.9695 75.8499 60.8612 75.6813 60.8432L57.513 59.0661L49.3321 43.3365C49.2372 43.153 48.7592 43.15 48.6608 43.3365L40.4834 59.0661L22.3011 60.8462C22.1465 60.8642 21.9672 60.9695 21.9672 61.1349C21.9672 61.2431 22.041 61.3213 22.0832 61.3604L34.1473 71.8638L32.1056 87.6024C32.1056 87.8159 32.2708 87.9602 32.4781 87.9602C32.4781 87.9602 32.5273 87.9542 32.6503 87.8881L48.9982 79.1828H48.9947Z" fill="#1C2731"/>
<path d="M91.2346 87.9573C90.6689 87.9573 90.1031 87.834 89.6041 87.5994L84.4769 85.26L79.3322 87.6085C78.8472 87.834 78.2849 87.9573 77.7192 87.9573C75.8567 87.9573 74.3385 86.6612 74.3385 85.0645C74.3385 84.827 74.3737 84.5804 74.444 84.3489L75.818 79.7933L72.1773 77.1381C71.4077 76.5908 70.9614 75.788 70.9614 74.943C70.9614 73.3493 72.476 72.0503 74.3421 72.0503H79.2127L81.3704 68.057C81.8026 67.0286 83.0748 66.2678 84.4769 66.2678C85.8791 66.2678 87.1512 67.0316 87.6361 68.1652L89.7411 72.0503H94.6153C96.4778 72.0503 97.9959 73.3463 97.9959 74.943C97.9959 75.788 97.5461 76.5908 96.7624 77.1501L93.1393 79.7933L94.5098 84.3399C94.5801 84.5774 94.6188 84.824 94.6188 85.0615C94.6188 86.6552 93.1042 87.9543 91.2382 87.9543L91.2346 87.9573ZM74.3385 74.946L79.6168 78.7679L77.7157 85.0645L84.4769 81.9794L91.2136 85.0525L89.337 78.7679L94.5836 74.943H87.5834L84.5226 69.2748L81.3774 74.946H74.3456H74.3385Z" fill="#1C2731"/>
<path d="M20.2732 87.9573C19.7074 87.9573 19.1417 87.834 18.6426 87.5994L13.5155 85.26L8.37074 87.6085C7.88579 87.834 7.32352 87.9573 6.75774 87.9573C4.89523 87.9573 3.37711 86.6612 3.37711 85.0645C3.37711 84.827 3.41225 84.5804 3.48254 84.3489L4.85658 79.7933L1.2159 77.1381C0.446299 76.5908 0 75.788 0 74.943C0 73.3493 1.51461 72.0503 3.38063 72.0503H8.25126L10.409 68.057C10.8412 67.0286 12.1133 66.2678 13.5155 66.2678C14.9176 66.2678 16.1898 67.0316 16.6747 68.1652L18.7797 72.0503H23.6538C25.5164 72.0503 27.0345 73.3463 27.0345 74.943C27.0345 75.788 26.5847 76.5908 25.801 77.1501L22.1779 79.7933L23.5484 84.3399C23.6187 84.5774 23.6574 84.824 23.6574 85.0615C23.6574 86.6552 22.1428 87.9543 20.2767 87.9543L20.2732 87.9573ZM3.37711 74.946L8.65539 78.7679L6.75422 85.0645L13.5155 81.9794L20.2486 85.0525L18.3721 78.7679L23.6187 74.943H16.6185L13.5576 69.2748L10.4125 74.946H3.38063H3.37711Z" fill="#1C2731"/>
<path d="M62.51 37.3586H59.1329V9.89273H38.8596V37.3586H35.479V7H62.51V37.3586Z" fill="#1C2731"/>
<path d="M8.44801 56.1522H5.06738V22.9009H30.4115V53.2625H27.0309V25.7936H8.44801V56.1522Z" fill="#1C2731"/>
<path d="M92.9217 56.1522H89.5446V25.7936H70.9582V53.2625H67.5811V22.9009H92.9217V56.1522Z" fill="#1C2731"/>
<path d="M8.44801 59.0452H5.06738V61.9379H8.44801V59.0452Z" fill="#1C2731"/>
<path d="M92.9251 59.0452H89.5444V61.9379H92.9251V59.0452Z" fill="#1C2731"/>
</g>
<defs>
<clipPath id="clip0_93_435">
<rect width="97.9925" height="83.85" fill="white" transform="translate(0 7)"/>
</clipPath>
</defs>
</svg>
