<svg width="98" height="98" viewBox="0 0 98 98" fill="none" xmlns="http://www.w3.org/2000/svg">
<g clip-path="url(#clip0_93_434)">
<rect x="45" y="25" width="7" height="6" fill="#88D4FF"/>
<rect x="58" y="42" width="7" height="7" fill="#88D4FF"/>
<rect x="31" y="35" width="9" height="7" fill="#88D4FF"/>
<path d="M59.377 74.7369H37.9619C34.7041 74.7369 32.052 72.0735 32.052 68.7965V61.6841C22.7446 55.9355 17 45.6825 17 34.6837C17 17.2161 31.1327 3 48.4979 3C65.863 3 79.9958 17.2161 79.9958 34.6837C79.9958 45.5078 74.3825 55.6798 65.2784 61.4625V68.7922C65.2784 72.0692 62.6264 74.7326 59.3728 74.7326L59.377 74.7369ZM48.4979 6.40914C33.001 6.40914 20.3891 19.0954 20.3891 34.6837C20.3891 44.7918 25.8287 54.2011 34.5854 59.2338C35.115 59.5364 35.4412 60.1031 35.4412 60.7125V68.7965C35.4412 70.1942 36.5723 71.3278 37.9619 71.3278H59.377C60.7666 71.3278 61.8935 70.19 61.8935 68.7965V60.508C61.8935 59.9029 62.2112 59.3446 62.7281 59.0378C71.2899 53.9624 76.6109 44.6299 76.6109 34.6837C76.6109 19.0912 63.999 6.40914 48.5021 6.40914H48.4979Z" fill="#1C2731"/>
<path d="M48.4981 95C41.3131 95 35.4668 89.1192 35.4668 81.8918C35.4668 80.9501 36.2251 80.1873 37.1614 80.1873C38.0976 80.1873 38.8559 80.9501 38.8559 81.8918C38.8559 87.2399 43.1813 91.5908 48.4981 91.5908C53.8148 91.5908 58.1402 87.2399 58.1402 81.8918C58.1402 80.9501 58.8985 80.1873 59.8348 80.1873C60.771 80.1873 61.5293 80.9501 61.5293 81.8918C61.5293 89.1192 55.6831 95 48.4981 95Z" fill="#1C2731"/>
<path d="M59.839 83.5965C58.9027 83.5965 58.1444 82.8337 58.1444 81.892V74.737H38.8559V81.892C38.8559 82.8337 38.0976 83.5965 37.1614 83.5965C36.2251 83.5965 35.4668 82.8337 35.4668 81.892V73.0325C35.4668 72.0907 36.2251 71.3279 37.1614 71.3279H59.839C60.7752 71.3279 61.5336 72.0907 61.5336 73.0325V81.892C61.5336 82.8337 60.7752 83.5965 59.839 83.5965Z" fill="#1C2731"/>
<path d="M59.839 83.5964H37.1614C36.2251 83.5964 35.4668 82.8336 35.4668 81.8918C35.4668 80.9501 36.2251 80.1873 37.1614 80.1873H59.839C60.7752 80.1873 61.5336 80.9501 61.5336 81.8918C61.5336 82.8336 60.7752 83.5964 59.839 83.5964Z" fill="#1C2731"/>
<path d="M48.5021 34.2364C45.0197 34.2364 42.1855 31.3855 42.1855 27.8826C42.1855 24.3797 45.0197 21.5288 48.5021 21.5288C51.9844 21.5288 54.8186 24.3797 54.8186 27.8826C54.8186 31.3855 51.9844 34.2364 48.5021 34.2364ZM48.5021 24.9337C46.888 24.9337 45.5747 26.2547 45.5747 27.8783C45.5747 29.5019 46.888 30.823 48.5021 30.823C50.1161 30.823 51.4294 29.5019 51.4294 27.8783C51.4294 26.2547 50.1161 24.9337 48.5021 24.9337Z" fill="#1C2731"/>
<path d="M35.4371 45.1456C31.9548 45.1456 29.1206 42.2947 29.1206 38.7918C29.1206 35.2889 31.9548 32.438 35.4371 32.438C38.9195 32.438 41.7579 35.2889 41.7579 38.7918C41.7579 42.2947 38.9237 45.1456 35.4371 45.1456ZM35.4371 35.8429C33.823 35.8429 32.5098 37.1639 32.5098 38.7875C32.5098 40.4111 33.823 41.7322 35.4371 41.7322C37.0512 41.7322 38.3687 40.4111 38.3687 38.7875C38.3687 37.1639 37.0554 35.8429 35.4371 35.8429Z" fill="#1C2731"/>
<path d="M60.9614 51.7167C57.479 51.7167 54.6406 48.8658 54.6406 45.3629C54.6406 41.86 57.4748 39.0049 60.9614 39.0049C64.448 39.0049 67.2779 41.8558 67.2779 45.3629C67.2779 48.8701 64.4437 51.7167 60.9614 51.7167ZM60.9614 42.414C59.3473 42.414 58.0298 43.7351 58.0298 45.3629C58.0298 46.9908 59.3431 48.3076 60.9614 48.3076C62.5797 48.3076 63.8888 46.9865 63.8888 45.3629C63.8888 43.7393 62.5755 42.414 60.9614 42.414Z" fill="#1C2731"/>
<path d="M42.1474 74.7369C41.2112 74.7369 40.4528 73.9741 40.4528 73.0323V46.2449L37.5128 43.2875C36.8519 42.6227 36.8519 41.5446 37.5128 40.8755C38.1736 40.2108 39.2497 40.2108 39.9106 40.8755L43.3506 44.3358C43.6683 44.6554 43.8462 45.0901 43.8462 45.5418V73.0366C43.8462 73.9783 43.0879 74.7411 42.1516 74.7411L42.1474 74.7369Z" fill="#1C2731"/>
<path d="M48.4978 74.737C47.5615 74.737 46.8032 73.9742 46.8032 73.0324V33.0346C46.8032 32.0929 47.5615 31.3301 48.4978 31.3301C49.434 31.3301 50.1924 32.0929 50.1924 33.0346V73.0324C50.1924 73.9742 49.434 74.737 48.4978 74.737Z" fill="#1C2731"/>
<path d="M54.8528 74.7369C53.9165 74.7369 53.1582 73.9741 53.1582 73.0323V51.5036C53.1582 51.0519 53.3361 50.6172 53.6539 50.2976L56.4923 47.4424C57.1532 46.7777 58.2292 46.7777 58.8901 47.4424C59.551 48.1072 59.551 49.1854 58.8901 49.8544L56.5473 52.211V73.0323C56.5473 73.9741 55.789 74.7369 54.8528 74.7369Z" fill="#1C2731"/>
</g>
<defs>
<clipPath id="clip0_93_434">
<rect width="63" height="92" fill="white" transform="translate(17 3)"/>
</clipPath>
</defs>
</svg>
