<svg width="229" height="42" viewBox="0 0 229 42" fill="none" xmlns="http://www.w3.org/2000/svg">
<g clip-path="url(#clip0_39_204)">
<path fill-rule="evenodd" clip-rule="evenodd" d="M228.608 6.83374C228.695 6.99266 228.782 7.15159 228.855 7.31052C229.073 7.7584 229.116 8.17739 228.535 8.37966C227.94 8.58193 227.315 8.76975 226.72 8.43745C225.979 8.01846 225.165 8.04736 224.381 7.97512C223.756 7.91733 223.161 7.94622 222.638 8.43745C222.014 9.01537 221.316 8.92868 220.764 8.29297C220.372 7.84509 219.878 7.74395 219.341 7.71506C218.005 7.64282 216.668 7.55613 215.332 7.46944C214.272 7.3972 213.211 7.33941 212.166 6.97822C210.626 6.45809 208.985 6.57367 207.387 6.57367C205.876 6.57367 204.366 6.77594 202.87 7.00711C202.114 7.12269 201.461 6.86263 200.764 6.7615C199.355 6.57367 197.917 6.27027 196.769 7.55613C196.566 7.7873 196.13 7.81619 195.796 7.88843C193.806 8.32187 191.773 8.48079 189.754 8.75531C186.718 9.17429 183.711 8.61083 180.676 9.04426C178.584 9.34767 176.405 8.85644 174.27 9.26098C174.096 9.28988 173.907 9.27543 173.733 9.26098C172.498 9.24653 171.612 10.1134 170.537 10.4891C169.448 10.8647 168.17 10.1279 167.124 10.7636C166.209 11.2981 165.25 11.2692 164.277 11.3993C161.633 11.746 159.033 12.3528 156.332 12.4251C154.574 12.4829 152.846 13.0897 151.103 13.4653C148.227 14.0866 145.336 14.5345 142.431 15.0401C140.645 15.358 138.8 15.6758 137.028 16.326C135.401 16.9184 133.702 17.6552 131.857 17.4674C131.596 17.4385 131.305 17.4818 131.058 17.5685C127.718 18.8544 124.072 18.8255 120.688 19.9235C119.017 20.4725 117.289 20.8626 115.56 21.2672C112.365 22.0185 109.111 22.5675 105.974 23.521C102.836 24.4746 99.5974 25.0381 96.5181 26.2372C94.8042 26.9018 92.8724 27.0319 91.173 27.7976C89.4009 28.6067 87.44 28.7801 85.6971 29.7625C84.5932 30.3982 83.1407 30.4271 81.877 30.8028C79.4949 31.5107 77.2581 32.6377 74.8324 33.1867C73.4961 33.4901 72.3341 34.1547 71.4336 35.1516C70.7654 35.874 70.0101 36.0618 69.0805 36.1629C67.875 36.2785 66.5532 36.293 65.7543 37.5066C64.2002 38.099 62.646 38.7347 61.0773 39.2692C60.5544 39.4571 60.0315 39.2259 59.6974 38.7058C59.131 37.8244 58.7097 36.8709 58.2449 35.9173C57.8528 35.0938 57.9254 34.1258 57.4025 33.4612C56.8941 32.8255 56.4584 32.1753 56.1098 31.4674C55.5578 30.3838 55.8338 29.5892 56.9958 29.1124C59.3488 28.1444 61.6147 26.9885 63.8516 25.8038C64.084 25.6738 64.3454 25.5726 64.5488 25.4137C64.7231 25.2548 64.8247 25.0092 64.97 24.7925C64.7231 24.7202 64.4326 24.5324 64.2437 24.6046C63.1544 24.9658 62.065 25.3559 61.0047 25.8038C58.4628 26.8874 55.9355 27.9999 53.2774 28.7656C52.8562 28.8812 52.4495 29.069 52.0573 29.3002C49.9657 30.5138 47.7289 31.3662 45.434 32.0742C42.7033 32.9266 40.2631 34.4436 37.6341 35.5128C35.9928 36.1774 34.4241 37.0298 32.6811 37.4633C32.7682 37.0443 32.7392 36.5386 33.1604 36.293C34.3514 35.585 35.4989 34.5737 36.7916 34.3281C38.3022 34.0391 38.5782 32.8255 39.4061 32.0308C39.6966 31.7563 39.4497 30.9762 39.9581 30.9473C40.6117 30.9184 40.0016 31.6841 40.3502 31.9153C40.5536 32.0453 40.9312 32.2187 41.0474 32.132C42.3547 31.0339 44.2865 30.8606 45.2451 29.2424C45.5647 28.7078 46.1893 28.8812 46.7122 28.8812C46.7993 29.1413 46.8865 29.1846 46.9446 29.0112C46.9446 28.9823 46.8138 28.9101 46.7412 28.8668C46.5669 28.2022 45.2742 28.39 45.5356 27.7254C45.8697 26.873 46.7122 27.3786 47.3658 27.5809C47.6127 27.6531 47.9322 27.7832 48.1356 27.6965C49.3412 27.1041 50.3143 27.7832 51.2004 28.39C51.3747 28.1733 51.4618 28.1155 51.4763 28.0432C51.5635 27.6098 51.6216 27.1764 51.7233 26.7429C51.8104 26.4106 51.8976 25.8327 52.0573 25.8038C53.1176 25.616 53.2484 24.3446 54.2942 24.099C55.2383 23.8822 56.1098 23.4488 56.531 22.3797C56.6472 22.0618 57.2427 21.874 57.6494 21.7584C58.0125 21.6428 58.274 21.9751 58.5354 22.2063C58.9857 22.6108 59.2472 22.3652 59.5377 21.9029C60.9756 19.5912 63.0236 17.9875 65.4348 16.745C66.7711 16.0515 67.8605 14.9679 68.79 13.7687C69.1967 13.2341 68.9789 12.6562 68.3398 12.5984C66.8147 12.4684 65.3041 12.3962 64.2147 11.0525C63.9678 10.7491 63.5901 10.9947 63.4013 11.3704C63.256 11.6593 63.1253 12.1217 62.6605 11.8616C62.4862 11.7605 62.3846 11.4282 62.3555 11.197C62.3119 10.8502 62.3846 10.4891 62.3555 10.1279C62.3119 9.28988 62.2538 9.17429 61.2516 9.59328C60.5544 9.89669 60.0606 9.34767 59.4505 9.50659C58.7243 9.69442 58.2159 10.1856 57.6349 10.5902C57.5768 10.6335 57.4461 10.6335 57.3735 10.5902C55.9064 9.92558 54.8461 11.0381 53.6115 11.4137C53.1322 11.5582 52.8271 11.7894 53.1903 12.3239C52.6674 13.3931 51.6216 13.9999 50.4451 13.8988C48.7456 13.7543 48.7311 13.7398 48.063 15.1846C47.9177 15.5169 47.7289 16.037 47.4093 15.8492C46.1602 15.1268 45.463 16.4127 44.4463 16.5861C43.4876 16.745 42.6452 17.6263 41.7592 18.1898C41.7156 18.2187 41.6865 18.3631 41.7156 18.4209C41.7882 18.5654 41.8899 18.7966 41.9916 18.811C42.4273 18.8688 42.9066 18.9555 43.2988 18.8255C44.9692 18.2765 46.8574 18.262 48.2663 16.9906C48.3389 16.9184 48.6585 16.9906 48.7311 17.0773C49.1523 17.5974 49.0071 18.262 49.0652 18.8688C49.1088 19.3167 48.5568 19.23 48.2954 19.4178C47.2496 20.2269 46.2328 20.9349 44.7658 20.9204C43.9379 20.9204 43.3424 21.5706 43.2407 22.5097C43.1971 22.9142 42.863 23.1743 42.4854 23.0154C41.7882 22.712 41.367 22.972 40.8296 23.4055C40.205 23.9111 39.6676 24.8791 38.5491 24.2723C38.4184 24.2001 37.9681 24.4313 37.9246 24.5902C37.6341 25.4571 36.9659 25.4282 36.2397 25.5726C35.0632 25.7894 34.0319 26.6129 32.7537 26.5984C32.5503 26.5984 32.3325 26.9018 32.1291 27.0752C31.6498 27.4798 28.7303 28.8523 28.1348 28.9534C27.6119 29.0546 27.0745 29.1268 26.5661 29.2713C26.3192 29.3291 26.0287 29.4447 25.8979 29.6325C25.5493 30.1093 24.9683 30.6727 25.0264 31.1351C25.1862 32.3198 23.908 31.6408 23.7047 32.3054C23.6175 32.6088 23.5594 33.1289 23.879 33.2011C24.4019 33.3167 24.9248 33.3601 25.4622 33.4323C25.3896 34.2847 26.1013 35.0649 25.7091 35.9896C25.4912 36.4808 25.9415 36.7842 26.232 37.0876C27.2052 38.1423 28.5996 38.1856 29.6454 37.2176C30.023 36.8709 30.3861 36.4663 30.8364 36.2063C31.1705 36.004 31.6208 36.2063 31.5336 36.6253C31.3157 37.6366 31.9403 37.5788 32.5794 37.5788C32.2453 38.2868 31.5046 38.4746 30.8945 38.7636C29.3984 39.4715 27.8733 40.1361 26.537 41.1475C26.0432 41.5231 25.4767 41.7976 24.8521 41.9132C23.7918 42.0866 23.4287 41.8554 22.8477 40.7574C21.5695 38.3446 20.5963 35.8162 19.7539 33.23C19.6232 32.8544 19.6667 32.5365 20.0008 32.3054C21.9617 31.005 23.9371 29.7047 25.9125 28.4189C26.203 28.2311 26.5951 28.1733 26.8711 27.971C27.975 27.1475 29.413 26.9741 30.4733 25.8905C31.3303 25.0236 32.8554 24.8502 33.9447 24.1423C34.9034 23.521 35.7313 22.6975 36.7626 22.1629C36.9514 22.0618 36.995 21.7006 37.0966 21.455C37.4307 21.3972 37.7648 21.3539 38.0989 21.2961C38.5346 21.2094 38.9849 21.036 38.8251 20.5303C38.7234 20.1836 38.2732 20.2558 37.9246 20.2703C37.329 20.2992 37.0095 20.6459 36.8207 21.1516C34.8743 20.9493 33.1313 21.7584 31.3738 22.3219C26.4789 23.9111 21.6857 25.746 17.0232 27.9565C14.554 29.1268 12.1138 30.3404 9.57191 31.3662C7.68367 32.132 5.9552 33.23 4.13959 34.1691C2.70162 34.906 1.8737 34.5737 1.3508 32.9844C0.900531 31.6552 0.450258 30.3116 0.0871349 28.9534C-0.174314 27.971 0.0871348 27.6531 1.03126 27.0319C2.42565 26.1217 4.00886 25.6015 5.44683 24.8214C8.16299 23.3621 11.1551 22.4808 13.697 20.6748C14.1182 20.3714 14.6411 20.1547 15.1495 20.0391C16.1227 19.8224 16.9796 19.4034 17.8221 18.8688C18.4757 18.4354 19.2455 18.0742 20.0153 17.9153C22.9348 17.3373 25.4622 15.7625 28.2364 14.8379C29.8342 14.3177 31.3738 13.6676 33.0442 13.2919C35.281 12.8007 37.4307 11.9049 39.653 11.3126C42.3982 10.5902 45.0127 9.46325 47.8451 9.00092C49.4283 8.74086 50.8372 7.81619 52.464 7.67171C52.6093 7.67171 52.8271 7.455 52.8417 7.32496C53.0305 5.56232 54.6573 5.69235 55.6886 5.43229C58.5354 4.75324 61.455 4.39204 64.3454 3.91526C65.275 3.77078 65.6381 3.94416 65.8996 4.88327C66.0448 5.43229 66.4515 5.80794 66.5968 6.27027C67.0035 7.52724 67.7733 8.62527 67.9331 9.99782C68.0783 11.2692 69.0805 11.8038 70.3152 11.4137C71.4917 11.0525 72.5956 10.4168 73.8883 10.5035C75.3117 9.50659 77.1564 9.69442 78.6089 8.7842C78.8994 8.61083 79.277 8.56748 79.6256 8.49524C83.0826 7.64282 86.525 6.77594 89.9819 5.96686C91.0132 5.72125 92.0444 5.49008 93.1193 5.3745C94.688 5.21557 96.2276 4.69545 97.7818 4.30536C98.3047 4.17533 98.8131 3.81413 99.3069 3.84302C101.936 3.9875 104.405 3.04839 106.991 2.88946C108.617 2.80278 110.201 2.9906 111.798 3.07729C112.597 3.12063 113.12 3.58296 113.382 4.3198C113.643 5.07109 114.021 5.82238 114.079 6.60257C114.18 7.96067 114.892 9.1165 115.11 10.4313C115.197 10.9369 115.531 11.2548 116.011 11.2548C117.26 11.2548 118.494 11.327 119.729 10.9803C121.951 10.359 124.159 9.75221 126.469 9.41991C128.371 9.1454 130.274 8.58193 132.191 8.23518C135.852 7.57058 139.526 6.90598 143.187 6.24137C145.38 5.83683 147.573 5.43229 149.752 4.96996C151.684 4.56542 153.659 4.62321 155.576 4.3487C157.407 4.08864 159.193 3.45293 161.067 3.22177C163.972 2.86057 166.891 2.54271 169.796 2.08038C172.178 1.69029 174.59 1.53136 176.986 1.54581C178.598 1.54581 180.211 1.50247 181.736 1.15572C184.467 0.534459 187.226 0.534459 189.986 0.346636C192.557 0.173262 195.157 0.158814 197.742 0.202157C201.49 0.259949 205.223 0.0721264 208.956 -0.0868003C210.655 -0.15904 212.354 -0.0579046 214.039 0.0287827C216.45 0.144366 218.862 0.274397 221.258 0.491115C223.016 0.650042 224.759 0.967895 226.313 1.92146C225.659 2.38379 225.18 2.91836 225.224 3.82858C225.253 4.56542 225.688 4.91217 226.226 5.21557C226.792 5.53343 227.097 5.96686 227.301 6.58812C227.562 7.36831 228.128 6.86263 228.593 6.7326L228.608 6.83374ZM102.197 18.8977C103.04 19.0278 103.781 18.8544 104.405 18.2331C104.71 17.9297 105.117 17.5107 105.553 17.6841C106.497 18.0597 107.063 17.9297 107.339 16.875C107.455 16.4416 107.906 16.2393 108.37 16.1237C109.14 15.9215 109.881 15.6758 110.607 15.4736C111.145 15.8203 110.898 16.5572 111.45 16.8172C111.551 16.9473 111.639 17.0917 111.769 17.1929C111.944 17.3229 112.103 17.2507 112.161 17.0484C112.161 17.005 112.06 16.9039 111.987 16.8895C111.827 16.8317 111.668 16.8172 111.493 16.7739C111.537 16.2538 111.551 15.7336 111.987 15.3146C112.713 14.5923 113.512 14.1155 114.587 14.2744C114.849 14.3177 115.139 14.1299 115.139 13.8265C115.154 13.2053 114.006 12.3673 113.469 12.6129C112.757 12.9307 112.074 13.3353 111.392 13.7109C109.867 13.0174 108.53 14.0288 107.136 14.2744C106.264 14.4333 105.509 14.7367 104.594 14.3322C103.664 13.9276 102.88 14.4333 102.226 15.1268C101.863 15.5169 101.936 16.1671 101.181 16.5427C100.716 15.8203 99.9315 15.2713 99.0309 15.6325C96.9248 16.4994 94.4992 16.5138 92.6981 18.1464C92.3204 18.4787 91.7685 18.7821 91.2165 18.551C90.316 18.1753 89.8948 18.4354 89.7495 19.3745C89.6769 19.8657 89.3428 20.1691 88.7909 19.938C88.021 19.6201 87.1786 19.2878 86.5395 19.938C85.944 20.5448 85.668 20.617 84.8837 20.1402C84.1284 19.6779 83.1116 20.2414 82.4144 20.7182C81.7753 21.1516 81.1798 21.3828 80.4536 21.2961C79.5966 21.2094 78.8703 21.4117 78.3474 22.1629C78.0424 22.5964 77.6212 22.5964 77.1709 22.3941C76.7061 22.1918 76.2994 22.3363 75.9363 22.6108C75.2972 23.0876 74.4548 23.2465 73.9754 23.9545C73.714 24.3446 73.3363 24.5757 72.857 24.5468C71.085 24.4168 69.7632 25.2837 68.6884 26.5262C68.18 27.1041 67.7007 27.4942 66.8873 27.422C66.3208 27.3642 65.8415 27.5665 65.6091 28.1588C65.3041 28.8957 64.6359 29.0401 64.0694 28.7512C62.7186 28.0721 61.7019 28.7512 60.598 29.3002C61.0918 30.4175 60.7093 31.1447 59.4505 31.4818C59.7846 32.2765 60.0751 33.0855 60.4382 33.8802C60.8304 34.7326 61.7309 34.7759 62.4572 34.9782C63.0091 35.1227 63.0382 34.4436 63.2706 34.0969C63.503 33.7646 63.8516 33.7357 64.2147 33.7068C64.5923 34.4292 65.4057 34.4436 66.0303 34.7182C67.0471 35.1516 67.6861 34.7615 68.2526 33.6201C68.6884 32.7388 68.7029 32.7099 69.7487 33.1144C70.1263 33.2589 70.3733 33.23 70.7073 33.0566C71.7241 32.5076 72.7699 32.0453 73.7721 31.5107C74.2514 31.2507 74.5855 31.9442 74.9486 31.6841C75.2682 31.4385 75.2246 30.8172 75.7911 30.745C76.6771 30.6294 76.4011 30.1671 76.1832 29.6325C76.0525 29.3291 76.3721 29.2424 76.6335 29.1557C77.4614 28.8812 77.8245 30.1237 78.4927 29.8203C79.1027 29.5458 79.5385 28.8957 80.0759 28.4478C80.1921 28.3466 80.41 28.3322 80.5843 28.3322C81.5139 28.3322 82.2837 27.8554 83.1116 27.5231C84.3462 27.0463 85.5228 26.3384 86.9317 26.4829C87.3965 26.5262 87.8177 26.295 88.0937 25.9194C89.0087 24.6769 90.4612 24.2723 91.7975 23.94C93.1483 23.5933 94.1796 23.3766 93.802 21.6573C93.7584 21.4694 94.0198 21.1805 94.1941 20.9927C94.3975 20.7615 94.7897 20.7759 94.8478 21.0071C95.1673 22.293 95.9081 21.9462 96.8522 21.7584C98.7259 21.4117 100.164 20.1402 101.936 19.6057C102.096 19.5623 102.125 19.1433 102.226 18.8977H102.197ZM53.6115 27.3208C53.5679 27.1619 53.5534 26.9307 53.4517 26.873C53.35 26.8152 53.1467 26.9452 53.0014 27.003C53.0595 27.1619 53.0595 27.3931 53.1612 27.4509C53.2629 27.5087 53.4662 27.3786 53.626 27.3208H53.6115Z" fill="#FFF7D4"/>
<path fill-rule="evenodd" clip-rule="evenodd" d="M228.608 6.83403C228.158 6.96406 227.577 7.46974 227.315 6.68955C227.112 6.0683 226.807 5.62041 226.24 5.31701C225.703 5.0136 225.267 4.6813 225.238 3.93001C225.195 3.01979 225.674 2.48522 226.327 2.02289C226.676 2.02289 227.025 1.99399 227.373 2.00844C227.983 2.02289 228.332 2.36964 228.463 2.94755C228.739 4.23341 228.797 5.53372 228.593 6.83403H228.608Z" fill="#FFF7D4"/>
<path fill-rule="evenodd" clip-rule="evenodd" d="M32.5649 37.6078C31.9258 37.6078 31.3012 37.6656 31.5191 36.6543C31.6062 36.2353 31.156 36.033 30.8219 36.2353C30.3861 36.4953 30.023 36.8999 29.6308 37.2466C28.585 38.2146 27.1907 38.1713 26.2175 37.1166C25.927 36.8132 25.4767 36.5098 25.6946 36.0186C26.1013 35.1083 25.375 34.3282 25.4477 33.4613C26.1449 33.4613 26.7549 33.3024 27.2342 32.6522C26.3046 32.3488 25.622 32.3777 25.4477 33.4613C24.9248 33.389 24.3873 33.3457 23.8644 33.2301C23.5304 33.1579 23.603 32.6378 23.6901 32.3343C23.8935 31.6553 25.1717 32.3344 25.0119 31.1641C24.9538 30.7017 25.5348 30.1383 25.8834 29.6615C26.0141 29.4737 26.3046 29.3581 26.5516 29.3003C27.0599 29.1703 27.5974 29.0836 28.1203 28.9824C28.7158 28.8813 31.6498 27.5088 32.1146 27.1042C32.318 26.9308 32.5213 26.613 32.7392 26.6274C34.0174 26.6419 35.0486 25.8184 36.2252 25.6016C36.9659 25.4716 37.6341 25.4861 37.9101 24.6192C37.9682 24.4458 38.4184 24.2291 38.5346 24.3013C39.653 24.8937 40.1905 23.9401 40.815 23.4345C41.3525 23.001 41.7882 22.741 42.4709 23.0444C42.8631 23.2033 43.1826 22.9432 43.2262 22.5387C43.3279 21.5996 43.9379 20.935 44.7513 20.9494C46.2183 20.9783 47.2351 20.2704 48.2809 19.4468C48.5278 19.259 49.0797 19.3457 49.0507 18.8978C48.9926 18.291 49.1378 17.6264 48.7166 17.1063C48.644 17.0051 48.3244 16.9474 48.2518 17.0196C46.8429 18.291 44.9546 18.3055 43.2843 18.8545C42.8921 18.9845 42.4128 18.8834 41.977 18.84C41.8608 18.84 41.7737 18.5944 41.7011 18.4499C41.672 18.3921 41.7011 18.2477 41.7446 18.2188C42.6307 17.6409 43.4731 16.774 44.4317 16.6151C45.434 16.4417 46.1457 15.1558 47.3948 15.8782C47.7144 16.066 47.9032 15.5459 48.0485 15.2136C48.7166 13.7688 48.7311 13.7688 50.4305 13.9277C51.6071 14.0289 52.6529 13.4221 53.1758 12.3529C52.8126 11.8184 53.1177 11.5872 53.597 11.4427C54.8316 11.0671 55.8919 9.95458 57.3589 10.6192C57.4316 10.6481 57.5623 10.6481 57.6204 10.6192C58.2014 10.2146 58.7097 9.70896 59.436 9.53559C60.0315 9.37666 60.5399 9.92568 61.2371 9.62228C62.2393 9.18884 62.3119 9.31887 62.341 10.1568C62.3555 10.5036 62.2829 10.8648 62.341 11.226C62.37 11.4572 62.4717 11.7895 62.646 11.8906C63.1108 12.1651 63.2415 11.7028 63.3868 11.3994C63.5756 11.0237 63.9533 10.7781 64.2002 11.0815C65.2895 12.4252 66.8001 12.4974 68.3253 12.6274C68.9643 12.6852 69.1967 13.2631 68.7755 13.7977C67.8459 14.9969 66.7566 16.0949 65.4203 16.774C63.0091 18.0165 60.9611 19.6347 59.5231 21.9319C59.2326 22.3942 58.9712 22.6254 58.5209 22.2353C58.245 22.0041 57.998 21.6718 57.6349 21.7874C57.2282 21.9174 56.6327 22.1052 56.5165 22.4087C56.0953 23.4633 55.2238 23.8968 54.2796 24.128C53.2338 24.3736 53.1031 25.645 52.0428 25.8328C51.883 25.8617 51.7814 26.4396 51.7087 26.7719C51.6071 27.2054 51.549 27.6388 51.4618 28.0722C51.4618 28.1445 51.3601 28.2167 51.1858 28.419C50.2853 27.8122 49.3266 27.1476 48.1211 27.7255C47.9323 27.8122 47.5982 27.6821 47.3513 27.6099C46.6976 27.4076 45.8407 26.9019 45.5211 27.7544C45.2597 28.419 46.5669 28.2312 46.7267 28.8958L46.6976 28.9247C46.1747 28.9247 45.5502 28.7657 45.2306 29.2858C44.272 30.904 42.3402 31.0918 41.0329 32.1754C40.9312 32.2621 40.5391 32.0887 40.3357 31.9587C39.9871 31.7275 40.5972 30.9618 39.9435 30.9907C39.4497 31.0196 39.6821 31.7998 39.3916 32.0743C38.5637 32.8689 38.2732 34.0825 36.7771 34.3715C35.4844 34.6171 34.3369 35.6285 33.1459 36.3364C32.7247 36.582 32.7537 37.0877 32.6666 37.5067L32.5504 37.6223L32.5649 37.6078Z" fill="#FFF7D4"/>
<path fill-rule="evenodd" clip-rule="evenodd" d="M102.197 18.898C102.11 19.1437 102.067 19.5626 101.907 19.606C100.135 20.1406 98.6969 21.412 96.8232 21.7587C95.8646 21.9321 95.1383 22.2933 94.8188 21.0074C94.7607 20.7763 94.3685 20.7474 94.1651 20.993C93.9908 21.1953 93.7294 21.4698 93.773 21.6576C94.1506 23.3769 93.1339 23.5936 91.7685 23.9403C90.4468 24.2726 88.9797 24.6772 88.0647 25.9197C87.7887 26.2954 87.3675 26.5265 86.9027 26.4832C85.4792 26.3387 84.3172 27.0322 83.0826 27.5234C82.2547 27.8413 81.4849 28.3325 80.5553 28.3325C80.381 28.3325 80.1631 28.347 80.0469 28.4481C79.5095 28.896 79.0737 29.5461 78.4637 29.8206C77.7955 30.124 77.4324 28.896 76.6045 29.156C76.3431 29.2427 76.0235 29.315 76.1542 29.6328C76.3721 30.1674 76.6481 30.6297 75.7621 30.7453C75.1956 30.8175 75.2537 31.4388 74.9196 31.6844C74.5565 31.9445 74.2224 31.2654 73.7431 31.511C72.7263 32.0456 71.6805 32.5224 70.6783 33.057C70.3297 33.2448 70.0828 33.2737 69.7197 33.1148C68.6739 32.7102 68.6594 32.7391 68.2236 33.6204C67.6571 34.7763 67.018 35.1519 66.0013 34.7185C65.3767 34.4584 64.5633 34.4295 64.1857 33.7071C64.3455 33.7071 64.5198 33.7071 64.6795 33.6782C64.7522 33.6782 64.8829 33.5915 64.8829 33.5626C64.8684 33.3459 64.7231 33.2592 64.5343 33.3748C64.4036 33.4471 64.3019 33.5915 64.1857 33.7071C63.8226 33.736 63.474 33.7794 63.2416 34.0972C63.0092 34.4295 62.9656 35.123 62.4282 34.9785C61.6874 34.7907 60.7869 34.7329 60.4092 33.8805C60.0606 33.1003 59.7556 32.2912 59.4215 31.4821C60.6803 31.145 61.0628 30.4178 60.569 29.3005C61.6729 28.7515 62.6896 28.0724 64.0404 28.7515C64.6069 29.0405 65.2896 28.896 65.5801 28.1591C65.8125 27.5668 66.2918 27.3789 66.8583 27.4223C67.6571 27.4945 68.151 27.1189 68.6594 26.5265C69.7487 25.284 71.056 24.4171 72.828 24.5472C73.3073 24.5761 73.685 24.3593 73.9464 23.9548C74.4258 23.2469 75.2682 23.0735 75.9073 22.6111C76.2849 22.3366 76.6771 22.1922 77.1419 22.3944C77.5922 22.5967 78.0134 22.5967 78.3184 22.1633C78.8413 21.412 79.5531 21.2097 80.4246 21.2964C81.1653 21.3686 81.7463 21.1519 82.3854 20.7185C83.0971 20.2417 84.1139 19.6782 84.8547 20.1406C85.639 20.6318 85.915 20.5451 86.5105 19.9383C87.1496 19.2881 88.0066 19.6204 88.7619 19.9383C89.3138 20.1695 89.6334 19.866 89.7205 19.3748C89.8658 18.4357 90.287 18.1756 91.1875 18.5513C91.7395 18.7825 92.3059 18.479 92.6691 18.1467C94.4702 16.5141 96.9104 16.4852 99.0019 15.6328C99.9025 15.2572 100.687 15.8206 101.152 16.543C101.892 16.1674 101.834 15.5172 102.197 15.1271C102.851 14.4336 103.635 13.9135 104.565 14.3325C105.48 14.737 106.235 14.4336 107.107 14.2747C108.501 14.0147 109.838 13.0177 111.363 13.7112C112.045 13.3356 112.728 12.9311 113.44 12.6132C113.992 12.3676 115.139 13.2056 115.11 13.8268C115.11 14.1302 114.805 14.3181 114.558 14.2747C113.469 14.1302 112.684 14.5926 111.958 15.315C111.522 15.734 111.508 16.2541 111.464 16.7742L111.421 16.832C110.854 16.5719 111.101 15.8351 110.578 15.4883C109.867 15.7051 109.111 15.9362 108.341 16.1385C107.877 16.2541 107.426 16.4708 107.31 16.8898C107.034 17.9445 106.468 18.0745 105.524 17.6989C105.073 17.5255 104.681 17.9445 104.376 18.2479C103.752 18.8691 103.011 19.0425 102.168 18.9125C102.096 18.6669 102.023 18.6091 101.965 18.7825C101.965 18.8114 102.096 18.8691 102.154 18.9125L102.197 18.898ZM62.036 33.5626C62.1086 33.8371 62.1958 33.8805 62.2393 33.6927C62.2393 33.6782 62.0941 33.606 62.0215 33.5626C62.0215 33.3026 62.0796 33.0281 62.0215 32.7969C61.9634 32.5802 61.8036 32.3779 61.6438 32.219C61.5857 32.1612 61.2662 32.2768 61.2371 32.3635C61.1645 32.5946 61.1064 32.8691 61.179 33.0859C61.3097 33.4326 61.7019 33.4904 62.036 33.5626ZM63.1399 29.7484C62.9946 29.6762 62.8203 29.5172 62.7187 29.5461C62.6025 29.5895 62.5589 29.8062 62.4863 29.9507C62.6315 30.0229 62.8058 30.1818 62.9075 30.1529C63.0237 30.1096 63.0673 29.8929 63.1399 29.7484Z" fill="#FFF7D4"/>
<path fill-rule="evenodd" clip-rule="evenodd" d="M53.597 27.321C53.4372 27.3643 53.2484 27.4944 53.1467 27.451C53.045 27.3932 53.0305 27.1621 52.9869 27.0031C53.1467 26.9598 53.3355 26.8298 53.4372 26.8731C53.5389 26.9309 53.5534 27.1621 53.597 27.321Z" fill="#FFF7D4"/>
<path fill-rule="evenodd" clip-rule="evenodd" d="M111.493 16.7597C111.653 16.803 111.827 16.8175 111.987 16.8753C112.06 16.9042 112.176 17.0053 112.161 17.0342C112.103 17.2365 111.944 17.3087 111.769 17.1787C111.639 17.092 111.551 16.9331 111.45 16.803L111.493 16.7452V16.7597Z" fill="#FFF7D4"/>
<path fill-rule="evenodd" clip-rule="evenodd" d="M46.7267 28.8814C46.7267 28.8814 46.93 28.997 46.93 29.0259C46.8719 29.2137 46.7848 29.1559 46.6976 28.8958L46.7267 28.8669V28.8814Z" fill="#FFF7D4"/>
<path fill-rule="evenodd" clip-rule="evenodd" d="M25.4622 33.4758C25.6365 32.3777 26.3191 32.3633 27.2487 32.6667C26.7694 33.3169 26.1594 33.4758 25.4622 33.4758Z" fill="#FFF7D4"/>
<path fill-rule="evenodd" clip-rule="evenodd" d="M62.0214 33.5626C61.6874 33.4903 61.2952 33.447 61.1645 33.0858C61.0918 32.8835 61.1354 32.5946 61.2226 32.3634C61.2516 32.2767 61.5857 32.1611 61.6293 32.2189C61.8036 32.3779 61.9488 32.5801 62.0069 32.7968C62.065 33.0425 62.0069 33.3025 62.0069 33.5626H62.0214Z" fill="#FFF7D4"/>
<path fill-rule="evenodd" clip-rule="evenodd" d="M63.1253 29.7484C63.0527 29.8929 63.0091 30.1241 62.8929 30.153C62.7912 30.1819 62.6169 30.0229 62.4717 29.9507C62.5443 29.8062 62.5879 29.5751 62.7041 29.5462C62.8058 29.5028 62.9801 29.6762 63.1253 29.7484Z" fill="#FFF7D4"/>
<path fill-rule="evenodd" clip-rule="evenodd" d="M64.1711 33.7069C64.2873 33.5913 64.3745 33.4468 64.5197 33.3746C64.7086 33.259 64.8538 33.3457 64.8683 33.5624C64.8683 33.6058 64.7376 33.6636 64.665 33.678C64.5052 33.7069 64.3309 33.6925 64.1711 33.7069Z" fill="#FFF7D4"/>
<path fill-rule="evenodd" clip-rule="evenodd" d="M62.0215 33.5769C62.0941 33.6202 62.2394 33.6925 62.2394 33.7069C62.1813 33.8948 62.1086 33.837 62.036 33.5769H62.0215Z" fill="#FFF7D4"/>
<path fill-rule="evenodd" clip-rule="evenodd" d="M102.197 18.8981C102.197 18.8981 101.994 18.797 102.009 18.7681C102.052 18.6092 102.139 18.6525 102.212 18.8981H102.197Z" fill="#FFF7D4"/>
</g>
<defs>
<clipPath id="clip0_39_204">
<rect width="229" height="42" fill="white"/>
</clipPath>
</defs>
</svg>
