<svg width="176" height="47" viewBox="0 0 176 47" fill="none" xmlns="http://www.w3.org/2000/svg">
<g clip-path="url(#clip0_39_203)">
<path fill-rule="evenodd" clip-rule="evenodd" d="M42.2228 19.4017C38.6661 19.9055 35.3994 21.3404 32.1174 22.7142C30.5757 23.3706 28.9881 23.9201 27.4922 24.6681C24.485 26.1641 21.5083 27.7516 18.5469 29.3392C17.1731 30.0719 15.8603 30.9115 14.5475 31.7358C12.3341 33.1401 10.1054 34.5293 7.95304 35.9947C6.8845 36.7274 5.93807 37.6433 4.93059 38.4676C4.64055 38.6966 4.36578 38.9561 4.02996 39.124C3.49568 39.3988 2.62558 39.1087 2.33555 38.5439C1.63336 37.2312 0.915909 35.9031 0.305312 34.5445C-0.259491 33.3233 -0.0610465 32.2395 0.992234 31.2473C2.03025 30.2856 3.06826 29.4002 4.27419 28.6217C7.32718 26.6526 10.2733 24.5155 13.3721 22.5921C14.6086 21.8288 15.845 20.9282 17.341 20.6076C17.6921 20.5313 18.0126 20.2871 18.3027 20.0734C19.3712 19.2949 20.4092 18.5011 21.7831 18.3637C21.9663 18.3484 22.1647 18.2874 22.3021 18.1805C25.4924 15.9366 29.2324 15.0817 32.8501 13.8758C35.3994 13.021 37.9639 12.0745 40.3147 10.777C42.3144 9.66268 44.482 9.23526 46.5886 8.6094C47.825 8.24304 49.1226 7.98354 50.3285 7.52559C51.7329 6.99132 53.1525 6.51811 54.679 6.59443C55.656 6.64022 56.5108 6.24334 57.3809 5.87698C58.1747 5.54115 58.9837 5.3885 59.8385 5.35797C60.9224 5.31218 61.6856 5.6938 61.9909 6.74708C62.2809 7.75456 62.9679 8.53308 63.3495 9.51003C63.8532 10.7923 64.1585 11.9066 63.4716 13.2041C63.09 13.9369 63.609 14.5017 64.418 14.3795C64.9676 14.288 65.5476 14.1964 66.0361 13.9369C68.2648 12.7309 70.814 12.2882 73.0427 11.1434C75.3019 9.98324 77.7748 9.64742 80.1256 8.80785C81.24 8.41096 82.2017 7.72403 83.3923 7.40347C84.9188 6.99132 86.4911 6.62496 87.9718 6.06016C89.9563 5.31218 92.0476 5.52588 94.0778 5.23585C94.8105 5.129 95.2684 5.63274 95.5585 6.3044C96.2759 8.01407 96.9781 9.72374 97.6193 11.4639C98.7183 14.3795 98.8099 14.4559 101.695 13.601C105.191 12.563 108.732 11.6929 112.228 10.6396C117.143 9.14367 122.119 7.75456 127.264 7.1745C127.63 7.1287 128.012 7.08291 128.363 6.96079C132.912 5.55641 137.598 4.68631 142.284 3.83148C147.352 2.91558 152.42 2.01495 157.488 1.11432C157.763 1.06852 158.053 1.00746 158.328 0.992199C162.358 0.93114 166.357 0.122098 170.402 0.488457C171.288 0.564781 172.051 0.259483 172.875 0.0457736C173.959 -0.228995 174.753 0.320542 174.86 1.43488C174.967 2.45763 175.028 3.49565 174.997 4.5184C174.982 5.14426 175.455 5.9533 174.845 6.36546C174.097 6.8692 173.425 7.63244 172.356 7.55612C171.898 7.52559 171.41 7.61718 170.952 7.57139C168.678 7.34241 166.495 7.9988 164.251 8.18198C163.884 8.21251 163.411 8.18198 163.274 8.57887C163.045 9.18947 162.617 9.18947 162.159 9.06735C160.602 8.6552 159.061 8.21251 157.641 9.44897C157.519 9.55583 157.259 9.61689 157.122 9.55583C155.305 8.77732 153.626 10.0443 151.856 9.90692C151.123 9.84586 151.856 10.7465 151.352 10.777C150.894 10.7923 150.436 10.548 149.978 10.5786C149.276 10.6091 148.055 9.63215 148.116 11.4181C146.986 11.4945 145.994 12.1203 144.834 12.0745C143.612 12.0287 142.407 12.1814 141.277 12.7309C140.788 12.9752 140.193 13.0362 139.644 13.0515C138.682 13.082 137.797 13.2194 137.018 13.8758C136.407 14.3795 135.614 14.3948 134.866 14.3948C133.614 14.3948 132.423 14.7154 131.294 15.1123C129.08 15.8908 126.821 16.4098 124.501 16.7609C123.234 16.9593 122.013 17.5699 120.807 18.0737C119.753 18.5011 118.715 18.8674 117.571 18.9896C116.731 19.0811 115.907 19.2796 115.098 19.5391C113.052 20.2108 111.037 20.9129 108.915 21.3404C107.206 21.6914 105.603 22.531 103.939 23.1264C99.0389 24.8666 94.0167 26.332 89.2846 28.5301C87.7581 29.2476 86.3079 30.1177 84.583 30.2703C83.7434 30.3467 83.4687 31.1862 82.7665 31.5068C79.7746 32.8349 76.8284 34.2698 73.8823 35.7047C71.8826 36.6663 69.8981 37.6586 67.9595 38.7271C64.9523 40.3757 61.9756 42.1007 58.9684 43.7493C57.3656 44.6346 56.6482 44.4209 55.8239 42.8334C55.2133 41.6732 54.7095 40.4673 54.16 39.2766C54.6027 39.1851 55.1369 39.1393 55.1827 38.5592C55.2133 38.3302 55.0912 37.9791 54.908 37.857C54.6637 37.7044 54.3737 37.9028 54.2974 38.1776C54.2058 38.5287 54.1905 38.9103 54.16 39.2766C53.2136 38.895 52.893 37.9944 52.4809 37.1854C52.0534 36.3458 52.0992 36.2847 53.2899 35.2467C54.9538 35.6436 56.1902 36.4526 56.4345 38.315C56.465 38.5439 56.694 38.7576 56.8924 39.0629C58.3884 38.2081 59.6248 36.7732 61.6856 37.1396C60.9376 38.1165 59.9454 38.4981 59.1669 39.1545C58.6021 39.6277 58.6326 40.4063 59.1822 40.8642C60.0523 41.5817 60.6171 41.3985 60.9529 40.3147C61.0903 39.872 61.2429 39.4293 61.4108 39.0019C61.5177 38.7271 61.7161 38.4676 62.0062 38.5287C63.151 38.7576 63.9295 37.7349 64.9065 37.6891C66.4788 37.6128 67.5626 36.7885 68.4632 35.6894C69.1654 34.8346 69.9745 34.6819 70.9667 34.7888C71.3178 34.8346 71.8215 35.2009 71.9894 34.7888C72.4474 33.5981 74.3097 33.5065 74.0655 31.8884C74.5387 32.0869 74.4166 32.4227 74.5234 32.6669C74.6303 32.8959 74.7676 33.2165 74.9661 33.2928C75.2714 33.4149 75.5156 33.1096 75.5309 32.8349C75.5767 31.8426 76.2331 31.4152 76.9963 30.9573C78.1412 30.2703 79.4235 30.2551 80.7057 30.1788C80.6141 29.6597 80.2935 29.7361 80.0493 29.675C79.8814 29.6292 79.6066 29.5834 79.5608 29.4766C79.4692 29.156 79.7745 29.0339 80.0035 28.9423C80.2478 28.8354 80.5225 28.7286 80.7973 28.7133C81.24 28.7133 81.7437 29.1713 82.0948 28.7133C82.3543 28.3775 82.3391 27.8432 82.4917 27.4005C82.6138 27.0494 82.797 26.7136 82.9497 26.3778C83.0412 26.1793 83.2092 26.0877 83.3923 26.2099C84.5677 26.9731 84.8883 25.7367 85.3157 25.2329C86.079 24.3323 86.8117 23.5996 88.0481 23.4622C89.1167 23.3401 90.0326 22.9584 90.4447 21.8136C90.5211 21.5999 90.8416 21.3251 91.0553 21.3251C92.2307 21.2946 92.8413 20.3481 93.6351 19.7528C94.5968 19.0353 95.3753 18.6995 96.2607 19.8139C96.4896 20.0886 96.9629 20.1344 97.2682 19.8139C97.5887 19.478 97.4208 19.1117 97.1613 18.8216C96.5354 18.1652 96.5812 17.4936 97.085 16.7914C97.3597 16.425 97.6498 16.0587 97.9093 15.6923C97.9551 15.6313 97.9398 15.4634 97.894 15.4328C97.7414 15.3412 97.5582 15.2039 97.4208 15.2344C96.8713 15.3565 96.3523 15.616 96.0012 16.074C95.7417 16.3945 95.4211 16.6235 95.0395 16.4861C93.9709 16.0587 93.2535 16.6235 92.536 17.2799C92.3529 17.4478 92.017 17.6768 91.8338 17.6157C90.4142 17.173 89.1014 18.15 87.6818 17.8752C86.8117 17.7073 86.0484 18.0126 85.4531 18.7758C84.6593 19.7833 83.606 20.2565 82.2627 20.1344C81.3316 20.0428 80.3699 20.0123 80.0188 21.2793C79.8661 21.8288 79.2097 22.1647 78.6755 22.1952C77.5459 22.2715 76.7979 22.9279 76.0041 23.569C75.3477 24.088 74.6455 24.5307 73.9586 24.9887C72.7985 24.4544 72.3558 25.7214 71.5162 25.9656C71.0125 26.1183 70.3866 25.7519 69.9897 26.3473C69.1044 27.66 67.5321 27.9501 66.3109 28.7591C65.7613 29.1255 65.5934 28.4538 65.5018 27.9959C66.4177 26.9273 67.5321 26.1183 68.8906 25.6909C69.3639 25.5382 69.6539 25.1719 70.0355 24.9581C71.1499 24.3323 72.0963 23.3095 73.5159 23.279C73.6838 23.279 73.8823 23.1721 74.0044 23.05C74.4013 22.6837 74.386 22.1799 74.2792 21.7372C74.1876 21.3251 73.7296 21.2793 73.348 21.3556C72.9969 21.4319 72.6153 21.5388 72.2947 21.722C70.8446 22.5158 69.5012 23.4927 67.8068 23.7827C67.3794 23.8591 66.952 24.1949 66.6162 24.5002C65.3339 25.6145 63.7006 26.0725 62.2657 26.8815C61.304 27.4158 60.1286 27.5379 59.5332 28.6675C59.3501 29.0186 58.7853 29.2323 58.3426 29.3697C55.656 30.2093 53.2288 31.6289 50.7101 32.8349C46.7565 34.7124 42.7724 36.5137 39.1393 39.0019C37.9944 39.7804 36.7122 40.391 35.491 41.0932C33.2928 42.3602 31.2779 43.8409 29.4155 45.5505C28.5454 46.3596 27.4158 46.3291 26.6984 45.459C25.9504 44.5431 25.0956 43.7187 24.6987 42.467C24.3476 41.3527 23.4775 40.4063 22.8516 39.3682C21.9052 37.7807 22.0884 36.3916 23.4317 35.1856C26.2099 32.7127 29.0492 30.3161 31.98 28.0417C32.7891 27.4158 33.7966 27.2021 34.6209 26.5152C35.6742 25.6145 36.9564 25.0039 37.8418 23.8591C38.6356 22.8211 40.1163 22.5463 40.7574 21.3098C41.0016 20.8366 41.5512 20.8671 41.9633 20.6687C42.3297 20.4855 42.4823 20.1497 42.5434 19.7681C42.7266 19.6002 42.9861 19.4322 42.6197 19.2185C42.5586 19.188 42.3755 19.3864 42.2381 19.4628L42.2228 19.4017ZM38.5898 26.3167C38.1471 26.2709 37.6586 26.4236 37.2159 26.8663C36.819 27.2479 36.3458 27.6295 35.8268 27.7822C33.6744 28.4538 32.4533 30.3161 30.8199 31.6442C30.4536 31.9495 30.4993 32.7127 30.2093 33.1554C29.7972 33.766 29.1408 33.0333 28.6676 33.2775C28.4538 33.3844 28.3012 33.6897 28.2096 33.9339C28.057 34.3308 27.7822 34.6514 27.4006 34.514C26.0267 33.995 25.6298 35.1704 24.9887 35.8726C24.7139 36.1779 25.1566 36.8495 25.6146 36.9106C26.103 36.9716 26.5763 36.9411 26.9121 36.5748C27.309 36.1321 27.7517 35.8268 28.3623 35.8878C28.5149 35.9031 28.8049 36.0252 28.7897 36.071C28.7286 36.6053 28.6676 37.1396 28.4996 37.6586C28.3775 38.086 27.9196 38.0707 27.5532 38.1012C27.2784 38.1318 26.9884 38.1165 26.7136 38.1928C26.1488 38.3455 25.8435 38.895 25.9962 39.5056C26.0725 39.7651 26.1794 40.0552 26.3778 40.2231C27.1716 40.9863 26.6831 41.3069 25.9657 41.5817C25.7367 41.6732 25.6909 41.8564 25.8283 42.0396C25.9351 42.177 26.0878 42.3144 26.2404 42.3907C26.7442 42.6044 27.1105 42.2075 27.538 42.0701C28.1485 41.8717 28.0112 40.8489 28.5302 40.9253C29.0339 41.0016 29.4613 41.4443 30.0719 41.1237C30.6215 40.8337 31.1405 40.9405 31.5679 41.4595C31.7663 41.7038 32.1327 41.719 32.2701 41.4748C32.7128 40.7574 33.4455 40.2994 33.7966 39.4904C34.4377 38.0097 34.5293 37.8723 35.7047 38.2692C36.7122 38.605 37.2464 38.2081 37.9486 37.6738C38.9866 36.8801 39.811 35.8115 41.0474 35.2925C42.2991 34.7735 43.215 33.8576 44.0546 32.8349C44.4668 32.3311 44.94 31.8732 45.4285 31.4305C47.6419 29.446 50.3285 28.0264 52.3435 25.7977C52.5724 25.5382 52.9693 25.3703 53.3204 25.2634C53.7631 25.1261 54.2974 25.2024 54.679 24.9734C55.0301 24.7597 54.4195 24.2712 54.8316 23.798C55.5644 22.9584 56.5413 22.6837 57.503 22.3631C58.2205 22.1189 58.6326 21.7983 58.6784 21.0045C58.7242 20.1802 59.2432 19.6154 59.8691 19.188C60.7086 18.6232 61.3345 17.7684 62.4641 17.6004C63.0442 17.5089 63.2426 16.8219 63.0747 16.2419C62.9068 15.6923 62.4946 15.5397 62.0062 15.5244C61.365 15.4939 60.5865 15.2954 60.1286 15.7992C59.4874 16.5166 58.6173 16.4556 57.8846 16.7914C56.0528 17.631 54.0073 17.9973 52.6182 19.7681C52.0534 20.4855 50.9696 21.1572 49.8705 20.8824C48.2983 20.5008 47.5808 21.0961 47.2908 22.5921C47.1687 23.2027 46.7107 23.1721 46.2222 22.8211C46.0238 22.6684 45.5658 22.531 45.4742 22.6226C44.2988 23.8591 42.406 24.0728 41.3374 25.4772C41.0169 25.9046 40.5437 26.332 40.0552 26.4999C39.6736 26.6373 39.1546 26.3625 38.5745 26.2404L38.5898 26.3167ZM23.9202 39.2156C23.9965 39.353 24.0423 39.5514 24.1491 39.5972C24.2713 39.6277 24.5155 39.5362 24.5613 39.4446C24.6834 39.1851 24.5613 38.9561 24.256 38.9561C24.1491 38.9561 24.0423 39.1393 23.9202 39.2309V39.2156Z" fill="#FFF7D5"/>
<path fill-rule="evenodd" clip-rule="evenodd" d="M65.4561 27.9804C65.5477 28.4384 65.7156 29.11 66.2651 28.7437C67.4863 27.9194 69.0586 27.6446 69.944 26.3318C70.3561 25.7212 70.982 26.1028 71.4705 25.9502C72.31 25.6907 72.7375 24.439 73.9129 24.9732C74.5998 24.5 75.3172 24.0726 75.9584 23.5536C76.7674 22.9125 77.5001 22.2561 78.6297 22.1797C79.1487 22.134 79.8204 21.8134 79.973 21.2639C80.3241 19.9969 81.2858 20.0274 82.217 20.119C83.5603 20.2564 84.6136 19.7679 85.4074 18.7604C86.0027 17.9972 86.7659 17.7071 87.636 17.8598C89.0557 18.1193 90.3685 17.1576 91.7881 17.6003C91.9713 17.6613 92.3071 17.4324 92.4903 17.2644C93.2077 16.608 93.9252 16.0585 94.9937 16.4707C95.3754 16.6233 95.6959 16.3791 95.9554 16.0585C96.3218 15.6006 96.8255 15.3563 97.3751 15.2189C97.5124 15.1884 97.6956 15.3258 97.8483 15.4174C97.8941 15.4479 97.9093 15.6158 97.8635 15.6769C97.604 16.0432 97.314 16.4096 97.0392 16.776C96.5355 17.4629 96.4897 18.1345 97.1156 18.8062C97.3751 19.081 97.543 19.4626 97.2224 19.7984C96.9171 20.1342 96.4439 20.0885 96.2149 19.7984C95.3296 18.6841 94.551 19.0199 93.5894 19.7374C92.7956 20.3327 92.1697 21.2791 91.0096 21.3096C90.7959 21.3096 90.4753 21.5844 90.399 21.7981C89.9868 22.943 89.0709 23.3399 88.0024 23.4467C86.7812 23.5841 86.0332 24.3168 85.27 25.2175C84.8425 25.7212 84.5372 26.9577 83.3466 26.1944C83.1481 26.0723 82.9802 26.1639 82.9039 26.3623C82.7513 26.7134 82.5681 27.034 82.446 27.3851C82.2933 27.8125 82.3086 28.362 82.0491 28.6979C81.7132 29.1406 81.1942 28.6673 80.7515 28.6979C80.4768 28.6979 80.2173 28.82 79.9578 28.9269C79.7288 29.0184 79.4235 29.1406 79.5151 29.4611C79.5456 29.568 79.8204 29.6138 80.0036 29.6596C80.2478 29.7206 80.5836 29.6443 80.66 30.1633C79.393 30.2244 78.1107 30.2396 76.9506 30.9418C76.1873 31.3998 75.5309 31.8272 75.4851 32.8194C75.4851 33.0942 75.2256 33.3995 74.9203 33.2774C74.7219 33.201 74.5845 32.8805 74.4777 32.6515C74.3708 32.4073 74.4777 32.0714 74.0197 31.873C74.264 33.4911 72.4169 33.5827 71.9437 34.7733C71.7758 35.1855 71.272 34.8191 70.9209 34.7733C69.9287 34.6665 69.1197 34.8191 68.4175 35.674C67.5168 36.773 66.4178 37.5821 64.8608 37.6737C63.8685 37.7194 63.09 38.7575 61.9604 38.5132C61.6551 38.4522 61.4567 38.7269 61.3651 38.9864C61.1972 39.4139 61.0445 39.8565 60.9071 40.2992C60.5713 41.383 60.0065 41.5509 59.1364 40.8488C58.5869 40.4061 58.5563 39.6123 59.1211 39.1391C59.8996 38.4827 60.8919 38.1011 61.6399 37.1241C59.5791 36.7425 58.3426 38.1927 56.8467 39.0475C56.6482 38.7422 56.4192 38.5285 56.3887 38.2995C56.1445 36.4372 54.908 35.6282 53.2441 35.2313C54.4043 33.888 56.0682 33.2621 57.5183 32.3462C59.6096 31.0334 61.8078 29.8275 63.8533 28.4231C64.3417 28.0873 64.8455 27.9499 65.4256 27.9499L65.4561 27.9804Z" fill="#FFF7D5"/>
<path fill-rule="evenodd" clip-rule="evenodd" d="M38.5898 26.3167C39.1852 26.4388 39.7042 26.6983 40.0705 26.5762C40.559 26.4083 41.0322 25.9809 41.3528 25.5535C42.4213 24.1338 44.2989 23.9354 45.4896 22.6989C45.5812 22.6073 46.0391 22.7447 46.2375 22.8974C46.7108 23.2485 47.184 23.2942 47.3061 22.6684C47.5961 21.1724 48.3136 20.5771 49.8859 20.9587C50.9849 21.2335 52.0688 20.5618 52.6336 19.8444C54.0227 18.0889 56.0682 17.7073 57.9 16.8677C58.6479 16.5319 59.518 16.5929 60.1439 15.8755C60.6019 15.3565 61.3804 15.5702 62.0215 15.6007C62.51 15.616 62.9221 15.7686 63.09 16.3182C63.258 16.8982 63.0595 17.5852 62.4794 17.6768C61.3498 17.8447 60.724 18.7148 59.8844 19.2643C59.2585 19.6917 58.7243 20.2565 58.6937 21.0808C58.6479 21.8593 58.2358 22.1952 57.5183 22.4394C56.5566 22.76 55.595 23.0347 54.847 23.8743C54.4348 24.3475 55.0302 24.836 54.6943 25.0497C54.328 25.2787 53.7784 25.2024 53.3357 25.3397C52.9846 25.4466 52.5878 25.6145 52.3588 25.874C50.3438 28.1027 47.6572 29.5223 45.4438 31.5068C44.9553 31.9495 44.4821 32.4074 44.0699 32.9112C43.2304 33.9492 42.3297 34.8651 41.0627 35.3688C39.8263 35.8878 39.002 36.9564 37.964 37.7501C37.2618 38.2844 36.7275 38.6813 35.72 38.3455C34.5446 37.9486 34.453 38.086 33.8119 39.5667C33.4608 40.3757 32.7281 40.8337 32.2854 41.5511C32.1328 41.7953 31.7817 41.7801 31.5832 41.5358C31.1558 41.0168 30.6368 40.91 30.0872 41.2C29.4767 41.5206 29.0492 41.0779 28.5455 41.0016C28.0265 40.9252 28.1639 41.9327 27.5533 42.1464C27.1259 42.2838 26.7595 42.6807 26.2558 42.467C26.1031 42.4059 25.9505 42.2533 25.8436 42.1159C25.7062 41.9327 25.752 41.7496 25.981 41.658C26.6984 41.3832 27.1869 41.0474 26.3931 40.2994C26.21 40.1162 26.0878 39.8262 26.0115 39.5819C25.8436 38.9713 26.1489 38.4218 26.729 38.2691C27.0037 38.1928 27.2785 38.2081 27.5685 38.1776C27.9349 38.1318 28.3776 38.1623 28.515 37.7349C28.6676 37.2159 28.7287 36.6816 28.805 36.1473C28.805 36.1015 28.5302 35.9794 28.3776 35.9641C27.767 35.9031 27.3243 36.2084 26.9274 36.6511C26.5916 37.0174 26.1184 37.048 25.6299 36.9869C25.1719 36.9258 24.7293 36.2542 25.004 35.9489C25.6452 35.2314 26.0268 34.0713 27.4159 34.5903C27.7975 34.7277 28.0723 34.4071 28.2249 34.0102C28.3165 33.766 28.4692 33.4607 28.6829 33.3538C29.1714 33.1096 29.8125 33.8271 30.2246 33.2317C30.5299 32.789 30.4689 32.0258 30.8352 31.7205C32.4686 30.3924 33.6745 28.5301 35.8421 27.8585C36.3459 27.7058 36.8343 27.3242 37.2312 26.9426C37.6739 26.4999 38.1471 26.3472 38.6051 26.393L38.5898 26.3167Z" fill="#FFF7D5"/>
<path fill-rule="evenodd" clip-rule="evenodd" d="M54.1448 39.2765C54.1906 38.9102 54.1906 38.5285 54.2822 38.1774C54.3585 37.9027 54.6485 37.7042 54.8928 37.8569C55.0607 37.9637 55.1828 38.3301 55.1675 38.5591C55.1217 39.1544 54.5875 39.1849 54.1448 39.2765Z" fill="#FFF7D5"/>
<path fill-rule="evenodd" clip-rule="evenodd" d="M23.9202 39.2157C24.027 39.1241 24.1491 38.9409 24.256 38.9409C24.546 38.9409 24.6834 39.1699 24.5613 39.4294C24.5155 39.521 24.2713 39.6126 24.1491 39.582C24.0423 39.5515 23.9965 39.3378 23.9202 39.2004V39.2157Z" fill="#FFF7D5"/>
</g>
<defs>
<clipPath id="clip0_39_203">
<rect width="175.165" height="46.1001" fill="white"/>
</clipPath>
</defs>
</svg>
