<svg width="852" height="660" viewBox="0 0 852 660" fill="none" xmlns="http://www.w3.org/2000/svg">
<g clip-path="url(#clip0_451_1346)">
<g filter="url(#filter0_d_451_1346)">
<path d="M827.088 98.2363H24V638.009H827.088V98.2363Z" fill="#E98C9E"/>
<path d="M425.544 89.1464C411.138 54.9587 373.674 45.3728 346.834 43.0752H43.3108V638.015H807.777V43.0752H504.254C477.415 45.3728 439.95 54.9587 425.544 89.1464Z" fill="white"/>
<path opacity="0.2" d="M807.777 638.009V43.0752H504.254C477.414 45.3728 439.95 54.9587 425.544 89.1464V638.009H807.777Z" fill="url(#paint0_linear_451_1346)"/>
<path d="M141.875 9.41542L137.261 0.477242C137.261 0.477242 130.772 -7.64899 94.8723 43.1633H127.457L141.875 9.41542Z" fill="#FF4F8E"/>
<path d="M82.8367 90.4037L43.3127 131.435V215.232C43.3127 215.232 57.1795 203.312 66.3334 193.5C143.761 103.5 187.148 32.207 187.148 32.207L137.261 0.477295C145.631 16.3355 104.783 64.9324 83.7956 89.1808C83.5517 89.4748 83.2243 89.8824 82.8333 90.4037H82.8367Z" fill="#FF73A6"/>
</g>
</g>
<defs>
<filter id="filter0_d_451_1346" x="20" y="-4" width="825.088" height="660.015" filterUnits="userSpaceOnUse" color-interpolation-filters="sRGB">
<feFlood flood-opacity="0" result="BackgroundImageFix"/>
<feColorMatrix in="SourceAlpha" type="matrix" values="0 0 0 0 0 0 0 0 0 0 0 0 0 0 0 0 0 0 127 0" result="hardAlpha"/>
<feOffset dx="7" dy="7"/>
<feGaussianBlur stdDeviation="5.5"/>
<feComposite in2="hardAlpha" operator="out"/>
<feColorMatrix type="matrix" values="0 0 0 0 0 0 0 0 0 0 0 0 0 0 0 0 0 0 0.25 0"/>
<feBlend mode="normal" in2="BackgroundImageFix" result="effect1_dropShadow_451_1346"/>
<feBlend mode="normal" in="SourceGraphic" in2="effect1_dropShadow_451_1346" result="shape"/>
</filter>
<linearGradient id="paint0_linear_451_1346" x1="423.964" y1="143.291" x2="806.076" y2="158.05" gradientUnits="userSpaceOnUse">
<stop stop-color="#C1C1C1"/>
<stop offset="1" stop-color="#EEEEEE" stop-opacity="0"/>
</linearGradient>
<clipPath id="clip0_451_1346">
<rect width="852" height="660" fill="white"/>
</clipPath>
</defs>
</svg>
