<svg width="320" height="569" viewBox="0 0 320 569" fill="none" xmlns="http://www.w3.org/2000/svg">
<g clip-path="url(#clip0_451_2306)">
<path d="M232.5 482L207 333L166.5 346L189 551H213L232.5 482Z" fill="white"/>
<path d="M216.508 98.0193C221.331 98.7773 235.161 101.163 242.146 104.782C246.219 106.892 249.674 111.091 252.751 114.368C257.083 118.983 261.312 123.695 265.614 128.332C266.194 128.948 266.781 129.565 267.331 130.204C267.442 117.928 267.747 100.107 267.747 100.107C267.747 100.107 268.49 102.114 272.533 103.496C274.933 104.321 278.5 104.923 283.762 104.752C283.762 104.752 289.491 104.328 293.229 102.671C295.028 101.884 296.365 100.806 296.395 99.3643C296.224 103.504 296.231 107.658 296.15 111.797C296.009 119.221 295.778 126.645 295.659 134.076C295.548 140.504 295.451 147.059 294.188 153.39C293.318 157.715 291.832 162.553 288.941 165.979C283.219 172.771 274.034 170.594 267.621 166.38C265.131 164.745 262.895 162.702 260.814 160.576C260.814 160.576 238.237 141.351 236.194 139.865C235.837 140.244 235.614 140.437 235.562 140.482C233.727 152.446 232.077 161.847 232.077 161.847C228.116 178.939 228.985 189.841 228.985 189.841C229.357 209.162 243.722 229.598 243.722 229.598C240.385 232.081 237.004 234.109 233.704 235.767C224.229 240.537 215.401 242.254 210.05 242.871C206.751 243.25 204.774 243.213 204.774 243.213C204.729 240.686 204.573 239.891 204.402 237.372C204.328 236.331 204.261 235.283 204.18 234.243C203.711 227.629 203.169 221.023 202.634 214.416C201.95 205.959 200.962 197.51 200.367 189.053C199.973 183.472 199.877 177.862 200.286 172.281C200.419 170.46 200.412 168.327 200.991 166.558C201.631 164.604 202.188 162.62 202.738 160.643C205.25 151.569 207.576 142.407 209.188 133.125C210.504 125.59 211.811 118.054 213.038 110.504C213.684 106.491 214.479 102.471 215.022 98.4354C214.948 98.2051 214.881 97.9821 214.806 97.7666C214.888 97.7815 215.497 97.8632 216.508 98.0193Z" fill="#6EA5DA"/>
<path d="M293.229 97.9375C296.113 97.7666 296.395 99.3643 296.395 99.3643C296.365 100.806 295.028 101.884 293.229 102.671V97.9375Z" fill="#6EA5DA"/>
<path d="M293.229 97.9375V102.671C289.491 104.328 283.762 104.752 283.762 104.752C278.5 104.923 274.933 104.321 272.533 103.504L272.265 97.9375L272.042 93.3227C272.042 93.3227 273.194 94.8164 276.241 95.8419C277.936 96.4067 280.21 96.8303 283.197 96.7634C283.197 96.7634 287.418 96.7634 290.383 95.6413C291.906 95.0616 293.103 94.1847 293.229 92.8619V97.9375Z" fill="white"/>
<path d="M290.078 92.3715C292.412 92.4458 293.229 92.8619 293.229 92.8619C293.103 94.1847 291.906 95.0616 290.383 95.6412L290.078 92.3715Z" fill="white"/>
<path d="M276.486 62.059C275.981 60.5728 274.941 57.9124 274.45 56.4187C274.25 55.8093 274.012 55.2445 273.729 54.6574C273.432 54.0406 272.8 53.788 272.042 53.7136C270.794 53.5947 269.211 53.9663 268.26 54.0109C267.918 54.0258 267.569 54.0332 267.22 54.0406C265.154 54.0555 263.073 53.8177 261.26 52.7253C259.952 51.9301 258.651 51.1796 257.938 49.7305C256.905 47.6497 259.097 47.9618 260.516 48.0807C262.099 48.2145 263.586 48.6529 265.168 48.8015C266.818 48.965 268.431 48.8981 270.081 48.8981C270.98 48.8981 271.901 48.9576 272.808 49.0468C273.492 49.1062 274.16 49.1805 274.822 49.2474C276.13 49.3737 277.646 49.3143 278.56 50.4513C280.432 52.7922 281.228 56.166 282.81 58.7447C282.81 58.7447 284.78 61.9773 285.426 66.3172C285.426 66.3172 288.495 81.8115 289.239 84.5017C289.268 84.5017 289.409 84.6726 289.707 88.4106L290.078 92.3715L290.383 95.6338C287.418 96.7634 283.197 96.7634 283.197 96.7634C280.209 96.8303 277.936 96.4067 276.241 95.8419V88.9456C273.075 85.9731 272.035 79.3963 272.035 79.3963C270.296 79.6787 268.661 80.3104 267.911 77.806C267.599 76.7582 267.71 76.5501 268.327 75.9482C266.714 75.8144 264.366 72.3663 264.715 71.1253C264.797 70.828 264.923 70.5531 265.087 70.3004C264.381 69.2451 262.946 68.3385 262.174 67.2907C261.653 66.5996 261.431 65.849 261.884 64.9498C262.322 64.0804 263.355 63.0548 264.396 62.1705C265.094 61.576 265.8 61.0558 266.335 60.6768C267.978 59.525 269.538 59.5993 271.106 60.0897C272.845 60.6174 274.591 61.6429 276.479 62.059H276.486Z" fill="#FFF4EE"/>
<path d="M276.241 92.3938V95.842C273.194 94.8164 272.043 93.3227 272.043 93.3227C272.043 93.3227 271.983 92.208 276.241 92.3938Z" fill="white"/>
<path d="M228.123 41.8607C229.78 41.9722 231.705 42.1208 233.801 42.3066C248.983 43.6145 273.358 46.5053 273.358 46.5053L272.808 49.0468C271.901 48.9576 270.98 48.8908 270.081 48.8982C268.431 48.8982 266.818 48.9651 265.168 48.8016C263.586 48.6529 262.099 48.2145 260.516 48.0807C259.097 47.9618 256.905 47.6497 257.938 49.7305L242.696 47.9916L242.265 52.547L241.581 59.8L264.403 62.1705C263.363 63.0549 262.33 64.0804 261.891 64.9499C261.438 65.8491 261.661 66.5996 262.181 67.2907C260.94 66.9786 245.357 65.5369 233.868 64.4966C233.444 64.4594 233.028 64.4222 232.619 64.3851C227.767 63.9466 223.813 63.5974 222.29 63.4636C221.851 63.4264 221.613 63.4041 221.613 63.4041C221.613 61.9922 222.312 52.8888 222.78 46.9214C223.018 43.8969 223.196 41.6749 223.196 41.6749C224.266 41.6526 225.976 41.7195 228.123 41.8607ZM238.98 61.6504L240.66 46.0445L225.515 44.6475L224.586 60.0823L238.98 61.6504Z" fill="white"/>
<path d="M272.265 97.9376L272.533 103.496C268.49 102.114 267.747 100.108 267.747 100.108C267.747 100.108 267.873 97.5661 272.265 97.9376Z" fill="#6EA5DA"/>
<path d="M272.042 53.7137L271.114 60.0823C269.546 59.5993 267.985 59.525 266.343 60.6768L267.019 55.5492L267.22 54.0406C267.569 54.0406 267.918 54.0258 268.26 54.0109C269.211 53.9663 270.794 53.5948 272.042 53.7137Z" fill="white"/>
<path d="M267.219 54.0407L267.019 55.5492L266.781 55.5195L242.272 52.547L242.703 47.9916L257.945 49.7305C258.659 51.1796 259.959 51.9302 261.267 52.7253C263.08 53.8177 265.161 54.0555 267.227 54.0407H267.219Z" fill="white"/>
<path d="M267.019 55.5493L266.343 60.6769C265.808 61.0559 265.102 61.5761 264.403 62.1706L241.581 59.8L242.265 52.547L266.774 55.5195L267.011 55.5493H267.019Z" fill="white"/>
<path d="M265.458 336.052C265.458 336.052 253.174 343.558 228.272 346.152C227.194 346.263 226.087 346.367 224.958 346.456L210.095 243.213L210.05 242.871C215.401 242.254 224.229 240.538 233.704 235.767C233.704 235.767 262.3 326.763 265.458 336.052Z" fill="#DF98B2"/>
<path d="M240.66 46.0445L238.98 61.6504C238.512 58.9082 234.804 54.4791 234.804 54.4791C236.105 53.8177 236.506 51.7741 236.506 51.7741C236.602 48.6158 233.162 47.7761 233.162 47.7761C229.728 47.0255 229.171 50.7486 229.171 50.7486C228.8 52.6064 230.286 54.2636 230.286 54.2636C226.54 56.0769 224.586 60.0823 224.586 60.0823L225.515 44.6475L240.66 46.0445Z" fill="#71C2EA"/>
<path d="M238.98 61.6503L224.586 60.0823C224.586 60.0823 226.54 56.0768 230.286 54.2636C230.286 54.2636 228.8 52.6064 229.171 50.7486C229.171 50.7486 229.728 47.0255 233.162 47.776C233.162 47.776 236.602 48.6158 236.506 51.7741C236.506 51.7741 236.105 53.8177 234.804 54.4791C234.804 54.4791 238.512 58.9082 238.98 61.6503Z" fill="white"/>
<path d="M237.858 551.123C237.895 553.516 237.903 555.091 237.903 555.091C236.64 556.354 234.224 556.979 232.627 557.685C230.561 558.599 228.48 559.468 226.384 560.293C219.941 564.009 213.751 565.621 213.751 565.621C193.805 570.57 182.658 565.621 182.658 565.621C182.376 564.514 182.235 563.221 182.22 561.906C182.22 561.906 192.245 565.74 207.085 563.511C207.085 563.511 214.858 562.277 220.922 558.435C220.922 558.435 231.244 551.621 237.851 551.123H237.858Z" fill="#CBE9F4"/>
<path d="M235.792 523.419C236.201 523.419 236.417 523.753 236.417 523.753C236.417 525.492 237.182 532.797 237.182 532.797C237.613 538.029 237.791 546.263 237.858 551.123C231.252 551.621 220.93 558.435 220.93 558.435C214.866 562.277 207.093 563.511 207.093 563.511C192.252 565.74 182.227 561.906 182.227 561.906C182.212 560.233 182.406 558.517 182.762 557.105C183.743 553.218 186.575 549.703 189.503 547.073C192.49 544.397 196.273 542.495 199.141 539.73C202.612 536.386 209.671 523.753 209.671 523.753C209.902 523.627 210.229 523.515 210.608 523.426C212.815 522.854 216.976 522.765 216.976 522.765C224.534 522.638 231.965 530.441 231.965 530.441C233.719 524.444 235.072 523.404 235.8 523.419H235.792Z" fill="#906F6F"/>
<path d="M202.106 405.275C201.712 404.287 201.363 403.677 201.363 403.677C198.019 398.104 196.904 386.585 196.904 386.585C196.347 379.526 191.702 350.001 191.702 350.001V349.941C210.266 350.543 224.957 346.456 224.957 346.456C226.087 346.367 227.194 346.263 228.272 346.151L228.302 346.456C228.302 346.456 229.602 383.056 230.345 389.372C231.571 399.791 233.533 410.098 234.633 420.547C235.778 431.389 236.595 442.268 236.967 453.163C237.212 460.2 237.264 467.238 237.033 474.275C237.033 474.275 236.342 488.878 235.934 502.336C223.315 504.209 211.626 502.336 211.626 502.336C210.541 486.15 207.873 461.456 207.873 461.456C206.015 447.522 202.114 405.275 202.114 405.275H202.106Z" fill="#FFF4EE"/>
<path d="M235.926 502.336C235.636 511.67 235.48 520.446 235.785 523.419C235.057 523.404 233.704 524.444 231.95 530.441C231.95 530.441 224.519 522.638 216.961 522.765C216.961 522.765 212.8 522.854 210.593 523.426C211.774 520.981 211.945 515.148 211.945 515.148C212.198 513.186 212.012 508.348 211.611 502.336C211.611 502.336 223.3 504.209 235.919 502.336H235.926Z" fill="white"/>
<path d="M231.809 80.6449C231.869 81.1502 231.95 81.6333 232.047 82.1089C232.523 85.2895 233.362 92.2675 231.787 93.9767C231.787 93.9767 226.815 95.8345 214.554 97.0458C212.384 90.9744 210.281 90.7589 210.281 90.7589C209.76 90.9596 209.24 91.1454 208.735 91.3163C208.542 88.6633 209.315 80.5186 209.315 80.5186C213.498 78.2297 217.764 74.5363 220.558 68.5615C220.558 68.5615 228.577 71.8165 232.619 64.3851C233.028 64.4223 233.444 64.4594 233.868 64.4966C233.868 64.4966 236.045 88.4032 237.962 92.862C237.962 92.862 233.444 88.8639 232.047 82.1089C231.935 81.3955 231.846 80.8753 231.809 80.6449Z" fill="#564E39"/>
<path d="M215.052 33.5302C214.316 26.4036 212.636 21.0233 212.636 21.0233C212.867 24.6795 212.785 28.9525 212.584 32.854C212.265 39.2523 211.641 44.6475 211.641 44.6475C197.803 44.1124 179.069 45.1751 179.069 45.1751C178.14 43.4882 177.917 37.9667 177.939 32.5716C177.977 26.4704 178.326 20.5328 178.326 20.5328C176.713 24.033 176.007 28.5661 175.755 32.8317C175.339 39.7279 176.096 45.9183 176.096 45.9183C173.295 46.4087 167.305 49.463 164.823 50.7709C164.191 51.1128 163.783 51.3283 163.716 51.3728C162.401 50.4291 160.439 49.5299 158.395 50.3771C158.395 50.3771 155.727 51.4472 155.437 55.4601C155.467 34.9942 161.241 19.9086 161.241 19.9086C170.025 -2.50433 190.714 1.33024 190.714 1.33024C190.714 1.33024 214.97 -5.77412 228.733 18.675C228.733 18.675 234.537 29.4058 233.801 42.3066C231.705 42.1208 229.78 41.9722 228.123 41.8607C225.976 41.7195 224.266 41.6527 223.196 41.675C223.196 41.675 223.018 43.8969 222.78 46.9215C221.896 46.3121 215.111 45.3014 215.111 45.3014C215.572 41.2439 215.438 37.1567 215.052 33.5302Z" fill="#564E39"/>
<path d="M210.095 243.213L224.957 346.456C224.957 346.456 210.266 350.544 191.702 349.942C187.407 349.8 182.904 349.414 178.326 348.663C177.033 348.455 175.732 348.218 174.424 347.943C174.239 337.353 178.326 235.053 178.326 235.053L178.341 234.793C185.809 235.202 194.638 235.202 204.179 234.243C204.261 235.284 204.328 236.331 204.402 237.372C204.573 239.891 204.729 240.686 204.774 243.213C204.774 243.213 206.751 243.25 210.05 242.871L210.095 243.213Z" fill="#DF98B2"/>
<path d="M232.619 64.385C228.577 71.8163 220.558 68.5614 220.558 68.5614C220.558 68.5614 221.539 66.3914 222.29 63.4635C223.813 63.5973 227.767 63.9465 232.619 64.385Z" fill="#FFF4EE"/>
<path d="M222.78 46.9214C222.312 52.8888 221.613 61.9922 221.613 63.4041C221.613 63.4041 221.851 63.4264 222.29 63.4636C221.539 66.3915 220.558 68.5615 220.558 68.5615C217.764 74.5363 213.498 78.2297 209.315 80.5185C202.582 84.197 196.035 84.2267 196.035 84.2267C189.837 84.3085 184.992 82.8519 181.246 80.786C172.864 76.1786 170.025 68.5615 170.025 68.5615C168.524 65.3437 166.295 56.7308 165.321 52.7922C165.321 52.7848 165.321 52.7848 165.321 52.7848C165.016 51.5437 164.831 50.7709 164.831 50.7709C167.313 49.463 173.302 46.4087 176.104 45.9182C176.104 45.9182 175.346 39.7279 175.762 32.8316C176.438 32.6236 177.167 32.5269 177.947 32.5715C177.925 37.9667 178.148 43.4882 179.076 45.1751C179.076 45.1751 197.811 44.1124 211.648 44.6475C211.648 44.6475 212.272 39.2523 212.592 32.8539C213.372 32.9208 214.197 33.1289 215.059 33.5302C215.445 37.1567 215.579 41.2439 215.118 45.3014C215.118 45.3014 221.903 46.3121 222.788 46.9214H222.78ZM218.953 58.6184C218.953 57.2138 216.345 56.0768 213.127 56.0768C209.909 56.0768 207.308 57.2138 207.308 58.6184C207.308 60.0229 209.916 61.1524 213.127 61.1524C216.337 61.1524 218.953 60.0155 218.953 58.6184ZM209.285 51.2613C209.285 49.7453 208.4 48.5192 207.308 48.5192C206.216 48.5192 205.331 49.7453 205.331 51.2613C205.331 52.7773 206.216 53.9961 207.308 53.9961C208.4 53.9961 209.285 52.7699 209.285 51.2613ZM184.769 51.2613C184.769 49.7453 183.885 48.5192 182.792 48.5192C181.7 48.5192 180.808 49.7453 180.808 51.2613C180.808 52.7773 181.7 53.9961 182.792 53.9961C183.885 53.9961 184.769 52.7699 184.769 51.2613ZM183.773 58.6184C183.773 57.2138 181.172 56.0768 177.954 56.0768C174.737 56.0768 172.136 57.2138 172.136 58.6184C172.136 60.0229 174.737 61.1524 177.954 61.1524C181.172 61.1524 183.773 60.0155 183.773 58.6184Z" fill="#FFF4EE"/>
<path d="M213.127 56.0768C216.345 56.0768 218.953 57.2138 218.953 58.6184C218.953 60.0229 216.345 61.1524 213.127 61.1524C209.909 61.1524 207.308 60.0154 207.308 58.6184C207.308 57.2213 209.916 56.0768 213.127 56.0768Z" fill="#FFD6C0"/>
<path d="M214.806 97.7667C214.881 97.9822 214.948 98.2051 215.022 98.4355C215.022 98.4355 213.677 99.8772 211.878 101.794C208.727 105.139 204.18 109.947 202.938 111.069C202.938 111.069 200.181 107.308 197.313 103.504C194.489 99.7508 191.554 95.9534 191.048 95.6339L191.242 93.6497C195.79 94.1179 201.683 93.7686 208.735 91.3163C209.24 91.1453 209.76 90.9596 210.281 90.7589C210.281 90.7589 212.384 90.9744 214.554 97.0458C214.643 97.2762 214.725 97.5214 214.806 97.7667Z" fill="white"/>
<path d="M176.156 101.371C176.215 107.836 176.981 118.218 180.905 124.244C182.532 126.756 184.709 128.51 187.615 128.904C188.93 129.082 190.409 128.874 191.673 128.54C192.512 128.317 193.307 127.997 194.065 127.596C197.12 126.021 199.49 123.226 201.385 120.388C203.63 117.029 205.331 113.35 207.204 109.783C208.601 107.108 209.946 104.135 211.878 101.794C213.677 99.8771 215.022 98.4354 215.022 98.4354C214.479 102.471 213.684 106.491 213.038 110.504C211.812 118.054 210.504 125.589 209.188 133.125C207.576 142.407 205.25 151.569 202.738 160.643C202.188 162.62 201.631 164.604 200.991 166.558C200.412 168.327 200.419 170.46 200.286 172.281C199.877 177.862 199.973 183.472 200.367 189.053C200.962 197.51 201.95 205.959 202.634 214.416C203.169 221.023 203.711 227.629 204.18 234.243C194.638 235.202 185.809 235.202 178.341 234.793C164.177 234.013 154.902 231.754 154.902 231.754C157.035 220.042 160.669 200.483 162.846 190.71C162.846 190.71 166.77 172.734 167.892 166.96C168.034 166.254 168.13 165.726 168.167 165.444V142.28C168.167 142.28 167.677 110.697 176.282 95.6338C176.282 95.6338 176.119 97.9524 176.156 101.371Z" fill="#D1D1D1"/>
<path d="M215.052 33.5302C214.19 33.1289 213.365 32.9208 212.584 32.8539C212.785 28.9525 212.867 24.6795 212.636 21.0233C212.636 21.0233 214.316 26.4035 215.052 33.5302Z" fill="#FFF4EE"/>
<path d="M202.938 111.069C204.18 109.947 208.727 105.139 211.878 101.794C209.946 104.135 208.601 107.108 207.204 109.783C205.331 113.35 203.63 117.029 201.385 120.388C199.49 123.226 197.12 126.021 194.065 127.596C194.103 122.023 192.445 109.597 192.445 109.597C195.232 107.479 197.313 103.504 197.313 103.504C200.181 107.308 202.938 111.069 202.938 111.069Z" fill="white"/>
<path d="M207.308 48.5192C208.4 48.5192 209.285 49.7454 209.285 51.2614C209.285 52.7774 208.4 53.9961 207.308 53.9961C206.216 53.9961 205.331 52.77 205.331 51.2614C205.331 49.7528 206.216 48.5192 207.308 48.5192Z" fill="#272525"/>
<path d="M209.314 80.5184C209.314 80.5184 208.542 88.6632 208.735 91.3162C201.683 93.7685 195.789 94.1178 191.241 93.6496C186.129 93.122 182.71 91.554 181.246 90.7514C181.313 88.6335 181.246 80.786 181.246 80.786C184.992 82.8519 189.837 84.3084 196.035 84.2267C196.035 84.2267 202.582 84.1969 209.314 80.5184Z" fill="#FFF4EE"/>
<path d="M197.313 103.504C197.313 103.504 195.232 107.479 192.445 109.597C192.445 109.597 194.103 122.023 194.065 127.596C193.307 127.997 192.512 128.317 191.673 128.54C190.409 128.874 188.93 129.082 187.615 128.904C184.709 128.51 182.532 126.756 180.905 124.245C181.246 119.399 186.686 109.211 186.686 109.211C185.103 107.264 183.773 102.389 183.773 102.389C189.413 95.1583 191.048 95.6339 191.048 95.6339C191.554 95.9534 194.489 99.7508 197.313 103.504Z" fill="#414F5B"/>
<path d="M191.241 93.6497L191.048 95.6339C191.048 95.6339 189.413 95.1583 183.773 102.389C182.443 104.098 180.882 106.246 179.069 108.929C179.069 108.929 176.713 105.718 176.156 101.371C176.119 97.9524 176.282 95.6339 176.282 95.6339C176.527 95.0096 176.765 94.4597 176.996 93.9767C179.032 89.6442 180.429 90.261 180.429 90.261C180.429 90.261 180.704 90.4542 181.246 90.7515C182.71 91.5541 186.129 93.1221 191.241 93.6497Z" fill="white"/>
<path d="M183.773 102.389C183.773 102.389 185.103 107.264 186.686 109.211C186.686 109.211 181.246 119.399 180.905 124.244C176.981 118.218 176.215 107.836 176.156 101.371C176.713 105.718 179.069 108.929 179.069 108.929C180.882 106.246 182.443 104.098 183.773 102.389Z" fill="white"/>
<path d="M182.792 48.5192C183.885 48.5192 184.769 49.7454 184.769 51.2614C184.769 52.7774 183.885 53.9961 182.792 53.9961C181.7 53.9961 180.808 52.77 180.808 51.2614C180.808 49.7528 181.7 48.5192 182.792 48.5192Z" fill="#272525"/>
<path d="M177.954 56.0768C181.172 56.0768 183.773 57.2138 183.773 58.6184C183.773 60.0229 181.172 61.1524 177.954 61.1524C174.737 61.1524 172.136 60.0154 172.136 58.6184C172.136 57.2213 174.737 56.0768 177.954 56.0768Z" fill="#FFD6C0"/>
<path d="M181.246 80.786C181.246 80.786 181.313 88.6335 181.246 90.744C180.704 90.4541 180.429 90.2609 180.429 90.2609C180.429 90.2609 179.032 89.6441 176.996 93.9766C171.08 94.965 157.89 92.8619 157.89 92.8619C158.507 90.3873 158.759 81.3433 158.759 81.3433C155.289 92.364 151.075 92.3937 151.075 92.3937C153.587 86.1365 155.17 60.0823 155.4 56.0471C155.378 57.7637 155.772 59.9634 156.901 62.765C156.901 62.765 159.933 71.8164 170.025 68.5614C170.025 68.5614 172.864 76.1785 181.246 80.786Z" fill="#564E39"/>
<path d="M150.964 528.695C151.172 528.375 154.642 523.084 161.732 523.411C161.732 523.411 171.363 524.006 174.083 529.698L175.547 528.264L176.097 527.721C176.097 527.721 178.697 542.703 179.314 547.786C179.314 547.786 179.678 551.74 179.537 555.217C174.187 560.798 158.142 561.653 158.142 561.653C144.684 562.262 140.775 557.937 140.56 557.685C140.382 555.782 140.456 552.119 142.418 547.043C142.418 547.043 147.278 536.282 149.106 531.311C151.001 526.153 152.071 523.575 152.13 523.419C151.848 525.477 151.454 527.61 150.971 528.695H150.964Z" fill="#906F6F"/>
<path d="M179.53 555.217C179.448 557.142 179.218 558.918 178.69 559.795C178.69 559.795 175.591 564.878 157.013 565.368C157.013 565.368 142.403 565.993 140.79 559.178C140.79 559.178 140.634 558.665 140.545 557.684C140.76 557.937 144.669 562.262 158.127 561.653C158.127 561.653 174.172 560.798 179.522 555.217H179.53Z" fill="#CBE9F4"/>
<path d="M178.341 234.793L178.326 235.053C178.326 235.053 174.239 337.353 174.424 347.943C174.424 347.943 156.582 350.677 138.984 345.371C137.669 344.978 136.346 344.532 135.038 344.041C135.038 344.041 135.157 342.978 135.373 341.061C137.052 325.998 144.781 258.232 149.544 240.835C150.77 241.035 151.989 241.177 153.186 241.243C153.186 241.243 153.869 237.416 154.902 231.754C154.902 231.754 164.177 234.013 178.341 234.793Z" fill="#DF98B2"/>
<path d="M178.326 20.5328C178.326 20.5328 177.977 26.4704 177.939 32.5715C177.159 32.527 176.431 32.6236 175.755 32.8316C176.007 28.5661 176.713 24.0329 178.326 20.5328Z" fill="#FFF4EE"/>
<path d="M175.547 404.198C175.532 405.335 174.781 461.962 174.417 475.576C174.417 475.576 174.105 490.699 174.083 503.168C165.626 505.123 151.023 503.168 151.023 503.168C149.567 491.969 147.672 478.734 147.672 478.734C142.284 441.763 145.442 399.219 145.442 399.219C145.814 396.246 145.442 389.187 145.442 389.187C145.256 381.941 138.984 345.371 138.984 345.371C156.582 350.677 174.424 347.943 174.424 347.943C175.732 348.218 177.033 348.455 178.326 348.663C178.058 359.223 177.442 369.776 177.285 380.343C177.204 385.397 177.233 390.457 176.736 395.488C176.475 398.104 176.371 401.389 175.547 404.183V404.198Z" fill="#FFF4EE"/>
<path d="M175.138 95.6487C175.866 95.6338 176.282 95.6338 176.282 95.6338C167.677 110.697 168.167 142.28 168.167 142.28V165.444C168.13 165.726 168.033 166.254 167.892 166.96L165.938 166.558C165.938 166.558 155.162 139.553 152.19 132.374C152.19 132.374 152.19 128.778 162.965 123.085C162.965 123.085 157.147 112.837 156.901 109.597C160.855 101.928 173.993 96.154 175.138 95.6487Z" fill="#6EA5DA"/>
<path d="M174.417 518.306L175.547 528.264L174.083 529.698C171.363 524.006 161.732 523.411 161.732 523.411C154.642 523.084 151.172 528.375 150.964 528.695C151.447 527.61 151.841 525.477 152.123 523.419C152.487 520.788 152.68 518.306 152.68 518.306C152.755 517.05 151.974 510.548 151.016 503.168C151.016 503.168 165.618 505.123 174.075 503.168C174.075 509.953 174.142 515.95 174.41 518.306H174.417Z" fill="white"/>
<path d="M144.105 143.365C144.298 135.808 144.513 129.773 144.513 129.773V103.504L142.566 102.738C143.956 101.445 145.361 100.368 146.988 99.3643C152.145 96.1912 170.374 95.7156 175.138 95.6487C173.993 96.154 160.855 101.928 156.901 109.597C157.147 112.837 162.965 123.085 162.965 123.085C152.19 128.778 152.19 132.374 152.19 132.374C155.162 139.553 165.938 166.558 165.938 166.558L167.892 166.96C166.77 172.734 162.846 190.71 162.846 190.71C160.669 200.483 157.035 220.042 154.902 231.754C153.869 237.416 153.186 241.243 153.186 241.243C151.989 241.177 150.771 241.035 149.544 240.835C145.398 240.173 141.206 238.851 137.483 237.409C136.101 236.866 134.786 236.309 133.56 235.767C128.529 233.522 125.066 231.456 125.066 231.456C125.757 229.316 129.368 221.862 132.437 215.694C133.017 214.528 133.574 213.406 134.095 212.373C135.744 209.066 136.956 206.688 136.956 206.688C144.268 190.956 144.015 170.334 144.015 170.334C143.666 165.095 143.867 152.996 144.105 143.365Z" fill="#6EA5DA"/>
<path d="M165.321 52.7922C166.295 56.7309 168.524 65.3438 170.025 68.5615C159.933 71.8165 156.901 62.7651 156.901 62.7651C155.772 59.9635 155.378 57.7638 155.4 56.0472C155.4 55.9803 155.4 55.9134 155.4 55.8614C155.4 55.8019 155.4 55.7573 155.4 55.7128C155.4 55.6682 155.4 55.631 155.4 55.6087C155.408 55.5493 155.408 55.5195 155.408 55.5195V55.4601C155.697 51.4472 158.365 50.3771 158.365 50.3771C160.409 49.5299 162.371 50.4291 163.686 51.3729C164.615 52.0342 165.217 52.7031 165.284 52.7848C165.284 52.7848 165.284 52.7848 165.284 52.7922H165.321Z" fill="#FFF4EE"/>
<path d="M103.849 146.442C104.079 146.271 104.302 146.085 104.525 145.892C105.417 145.119 106.235 144.235 107.045 143.417C114.543 135.822 120.956 127.559 127.696 119.317C132.222 113.796 136.844 108.282 141.972 103.31C142.172 103.117 142.366 102.924 142.566 102.738L144.513 103.504V129.773C144.513 129.773 144.298 135.808 144.105 143.365C143.949 144.22 136.584 154.029 136.584 154.029C128.945 163.995 121.171 171.106 116.066 175.275C114.929 176.204 113.926 176.985 113.079 177.616C111.266 178.991 110.203 179.682 110.203 179.682C109.861 179.831 109.452 179.935 108.999 179.994C108.196 180.098 107.238 180.084 106.197 179.994C101.36 179.556 94.8348 177.334 94.8348 177.334C95.0652 172.667 95.4888 168.015 95.9867 163.378C96.492 158.696 96.4326 152.907 99.5166 149.058C100.371 147.98 102.259 146.055 103.849 146.442Z" fill="#6EA5DA"/>
<path d="M149.544 240.835C144.781 258.231 137.052 325.998 135.373 341.061C127.533 340.69 115.91 337.167 115.91 337.167C116.846 329.684 127.6 281.343 133.567 254.798C133.857 253.52 134.132 252.294 134.392 251.127C136.235 242.945 137.453 237.572 137.491 237.409C141.214 238.85 145.405 240.173 149.552 240.835H149.544Z" fill="#DF98B2"/>
<path d="M99.2417 146.613C98.766 146.858 98.2904 147.163 97.8223 147.542C97.8223 147.542 96.7521 147.765 95.251 148.768C95.251 148.768 95.251 148.775 95.2362 148.783C93.7648 149.756 91.8921 151.48 90.2126 154.46C86.6232 158.822 81.8523 165.288 78.367 172.466C75.7661 171.627 44.3167 161.602 44.3167 161.602C44.6436 159.625 45.149 157.529 45.7583 155.397C48.3593 146.323 52.9073 136.714 54.2301 134.017C54.4604 133.534 54.5942 133.274 54.5942 133.274C54.5942 133.274 89.2391 145.26 92.5832 145.907C92.5832 145.907 98.1641 147.066 99.2417 146.613Z" fill="#6EA5DA"/>
<path d="M93.2891 146.843C93.787 147.765 120.778 144.413 117.218 154.326C117.218 154.326 95.9792 173.202 95.4739 177.542L85.449 174.8L78.3744 172.466C79.8012 168.758 90.9631 150.982 93.2965 146.843H93.2891Z" fill="#6EA5DA"/>
<path d="M47.9059 131.289L54.23 134.017C52.9072 136.714 48.3592 146.323 45.7583 155.397L39.9172 153.056C40.1253 151.421 40.5192 149.674 41.0171 147.913C42.6371 142.184 45.4016 136.261 46.8878 133.273C47.5046 132.025 47.9059 131.289 47.9059 131.289Z" fill="white"/>
<path d="M28.7925 127.247L28.7702 127.239C27.8785 127.158 26.6226 127.076 25.7308 127.343C25.3592 128.443 24.6087 129.573 23.65 130.346C22.7806 131.029 21.7476 131.431 20.6552 131.252C20.0681 131.156 18.8048 130.769 18.5521 130.145C18.1583 129.142 19.3324 128.607 19.8824 127.886C20.6998 126.831 21.116 125.433 21.9111 124.393C22.1861 124.036 22.513 123.717 22.9143 123.479C24.4601 122.558 26.7712 121.339 28.4581 120.856C30.3531 120.306 33.556 121.985 35.3321 123.145C35.3321 123.145 43.3579 128.532 44.9334 132.53L46.8878 133.274C45.4016 136.261 42.6371 142.184 41.0171 147.913L39.9172 147.482C33.9127 149.34 25.8571 147.727 25.8571 147.727C23.6277 147.237 20.41 145.312 20.41 145.312C20.41 145.312 24.304 145.505 26.5631 144.97C26.8827 144.896 27.1725 144.807 27.4103 144.695C27.4103 144.695 29.8849 143.328 30.3828 141.069C30.3828 141.069 30.4869 138.981 29.4836 138.892C29.9444 138.453 30.368 137.918 30.7024 137.264C30.7024 137.264 31.1185 136.031 29.9444 134.886C30.2565 134.648 30.5389 134.381 30.7915 134.069C31.3192 133.415 31.5941 132.218 31.1928 131.379C30.9402 130.836 30.6726 130.658 30.3308 130.628C31.5644 128.733 29.06 127.38 28.8 127.247H28.7925Z" fill="#FFF4EE"/>
<path d="M31.1854 131.379C31.5867 132.218 31.3118 133.415 30.7841 134.069C30.5315 134.381 30.2491 134.648 29.937 134.879C27.2022 136.982 22.4313 136.395 19.2953 136.09C18.4258 136.001 17.6975 135.897 17.1179 135.659C16.2336 135.295 15.6762 134.626 15.4533 133.236C15.0148 130.539 16.3228 130.628 18.5522 130.145C18.8048 130.769 20.0681 131.156 20.6552 131.252C21.7476 131.431 22.7806 131.029 23.6501 130.346C24.735 131.171 27.8636 130.888 29.2013 130.732C29.6546 130.68 30.0187 130.591 30.3234 130.628C30.6652 130.658 30.9328 130.836 31.1854 131.379Z" fill="#FFF4EE"/>
<path d="M29.4836 138.892C27.819 140.467 25.6714 140.735 25.6714 140.735C21.5321 141.337 19.4736 141.017 18.4704 140.638C17.7347 140.363 17.5638 140.051 17.5638 140.051C16.018 137.866 17.1179 135.659 17.1179 135.659C17.6975 135.897 18.4258 136.001 19.2953 136.09C22.4313 136.395 27.2022 136.982 29.9369 134.879C31.1111 136.031 30.6949 137.264 30.6949 137.264C30.3605 137.918 29.9369 138.453 29.4762 138.892H29.4836Z" fill="#FFF4EE"/>
<path d="M28.7925 127.247C29.0526 127.38 31.557 128.733 30.3234 130.621C30.0187 130.591 29.6545 130.68 29.2012 130.732C27.8636 130.888 24.735 131.17 23.65 130.346C24.6087 129.573 25.3592 128.443 25.7308 127.343C26.6226 127.076 27.8785 127.158 28.7702 127.239C28.7702 127.239 28.7702 127.239 28.7925 127.247Z" fill="#FFF4EE"/>
<path d="M29.4836 138.892C30.4869 138.981 30.3828 141.069 30.3828 141.069C29.8849 143.328 27.4103 144.695 27.4103 144.695C27.1725 144.807 26.8827 144.896 26.5631 144.97C24.304 145.505 20.41 145.312 20.41 145.312C18.0542 144.881 18.4704 140.645 18.4704 140.645C19.4736 141.017 21.5321 141.337 25.6713 140.735C25.6713 140.735 27.819 140.467 29.4836 138.892Z" fill="#FFF4EE"/>
<path d="M21.9111 124.393C21.116 125.434 20.6998 126.831 19.8824 127.886C19.3325 128.607 18.1583 129.142 18.5522 130.145C15.275 130.019 16.137 126.429 16.137 126.429C16.568 123.761 21.9111 124.393 21.9111 124.393Z" fill="#FFF4EE"/>
<path d="M278.835 62.2077C278.025 62.3043 277.244 62.23 276.486 62.0591C274.599 61.6429 272.852 60.6174 271.113 60.0898C269.545 59.5993 267.985 59.525 266.343 60.6768C265.807 61.0558 265.101 61.576 264.403 62.1705C263.363 63.0549 262.33 64.0804 261.891 64.9499C261.438 65.8491 261.661 66.5996 262.181 67.2907C262.954 68.3386 264.388 69.2452 265.094 70.3004" stroke="#272525" stroke-width="0.743134" stroke-linecap="round" stroke-linejoin="round"/>
<path d="M277.534 67.7812C275.714 67.9447 273.893 67.1495 272.147 66.6219C270.118 66.0051 269.464 66.3172 267.836 67.7292C266.885 68.5615 265.726 69.26 265.094 70.3004C264.931 70.5531 264.804 70.8281 264.723 71.1253C264.373 72.3663 266.722 75.8145 268.334 75.9482" stroke="#272525" stroke-width="0.743134" stroke-linecap="round" stroke-linejoin="round"/>
<path d="M277.906 74.0979C275.877 73.8824 273.291 72.2921 271.641 73.0278C270.623 73.4811 269.62 74.685 268.847 75.4504C268.646 75.651 268.475 75.8071 268.334 75.9483C267.717 76.5502 267.606 76.7583 267.918 77.8061C268.669 80.3105 270.303 79.6788 272.042 79.3964C272.384 79.337 272.733 79.2924 273.075 79.2924C275.639 79.2775 278.062 80.7341 280.692 80.7861" stroke="#272525" stroke-width="0.743134" stroke-linecap="round" stroke-linejoin="round"/>
<path d="M275.647 79.6788C275.647 79.6788 276.605 83.4836 279.303 84.2267" stroke="#272525" stroke-width="0.743134" stroke-linecap="round" stroke-linejoin="round"/>
<path d="M272.042 79.3964C272.042 79.3964 273.083 85.9731 276.249 88.9382C276.509 89.1983 276.784 89.4138 277.073 89.607" stroke="#272525" stroke-width="0.743134" stroke-linecap="round" stroke-linejoin="round"/>
<path d="M276.486 62.059C275.981 60.5728 274.941 57.9124 274.45 56.4187C274.25 55.8093 274.012 55.2445 273.729 54.6574C273.432 54.0406 272.8 53.788 272.042 53.7136C270.794 53.5947 269.211 53.9663 268.26 54.0109C267.918 54.0258 267.569 54.0332 267.22 54.0406C265.154 54.0555 263.073 53.8177 261.26 52.7253C259.952 51.9301 258.651 51.1796 257.938 49.7305C256.905 47.6497 259.097 47.9618 260.516 48.0807C262.099 48.2145 263.586 48.6529 265.168 48.8015C266.818 48.965 268.431 48.8981 270.081 48.8981C270.98 48.8981 271.901 48.9576 272.808 49.0468C273.492 49.1062 274.16 49.1805 274.822 49.2474C276.13 49.3737 277.646 49.3143 278.56 50.4513C280.432 52.7922 281.228 56.166 282.81 58.7447C282.81 58.7447 284.78 61.9773 285.426 66.3172C285.426 66.3172 288.495 81.8115 289.239 84.5017C289.268 84.5017 289.409 84.6726 289.707 88.4106L290.078 92.3715L290.383 95.6338" stroke="#272525" stroke-width="0.743134" stroke-linecap="round" stroke-linejoin="round"/>
<path d="M272.533 103.496L272.265 97.9376L272.042 93.3227C272.042 93.3227 273.194 94.8164 276.241 95.842C277.936 96.4067 280.21 96.8303 283.197 96.7634C283.197 96.7634 287.418 96.7634 290.383 95.6413C291.906 95.0617 293.103 94.1848 293.229 92.862C293.229 92.862 292.412 92.4458 290.078 92.3715" stroke="#272525" stroke-width="0.743134" stroke-linecap="round" stroke-linejoin="round"/>
<path d="M272.265 97.9376C267.873 97.5661 267.747 100.108 267.747 100.108C267.747 100.108 268.49 102.114 272.533 103.496C274.933 104.321 278.5 104.923 283.762 104.752C283.762 104.752 289.491 104.329 293.229 102.671C295.028 101.884 296.365 100.806 296.395 99.3644C296.395 99.3644 296.112 97.7667 293.229 97.9376" stroke="#272525" stroke-width="0.743134" stroke-linecap="round" stroke-linejoin="round"/>
<path d="M276.241 88.9457V92.3938V95.842" stroke="#272525" stroke-width="0.743134" stroke-linecap="round" stroke-linejoin="round"/>
<path d="M272.042 93.3227C272.042 93.3227 271.983 92.208 276.241 92.3938" stroke="#272525" stroke-width="0.743134" stroke-linecap="round" stroke-linejoin="round"/>
<path d="M293.229 92.8619V97.9375V102.671" stroke="#272525" stroke-width="0.743134" stroke-linecap="round" stroke-linejoin="round"/>
<path d="M267.747 100.107C267.747 100.107 267.442 117.928 267.331 130.204C267.279 135.548 267.257 139.843 267.316 141.166" stroke="#272525" stroke-width="0.743134" stroke-linecap="round" stroke-linejoin="round"/>
<path d="M296.395 99.3644C296.224 103.504 296.231 107.658 296.15 111.797C296.008 119.221 295.778 126.645 295.659 134.076C295.548 140.504 295.451 147.059 294.188 153.39C293.318 157.715 291.832 162.553 288.941 165.979C283.219 172.771 274.034 170.594 267.621 166.38C265.131 164.745 262.894 162.702 260.814 160.576C260.814 160.576 238.237 141.351 236.194 139.865" stroke="#272525" stroke-width="0.743134" stroke-linecap="round" stroke-linejoin="round"/>
<path d="M271.114 60.0823L272.042 53.7137" stroke="#272525" stroke-width="0.743134" stroke-linecap="round" stroke-linejoin="round"/>
<path d="M272.808 49.0468L273.358 46.5053C273.358 46.5053 248.983 43.6145 233.801 42.3066C231.705 42.1208 229.78 41.9722 228.123 41.8607C225.976 41.7195 224.266 41.6526 223.196 41.6749C223.196 41.6749 223.018 43.8969 222.78 46.9214C222.312 52.8888 221.613 61.9922 221.613 63.4041C221.613 63.4041 221.851 63.4264 222.29 63.4636C223.813 63.5974 227.767 63.9466 232.619 64.3851C233.028 64.4222 233.444 64.4594 233.868 64.4966C245.357 65.5369 260.94 66.9786 262.181 67.2907" stroke="#272525" stroke-width="0.743134" stroke-linecap="round" stroke-linejoin="round"/>
<path d="M224.586 60.0823L238.98 61.6504L240.66 46.0445L225.515 44.6475L224.586 60.0823Z" stroke="#272525" stroke-width="0.743134" stroke-linecap="round" stroke-linejoin="round"/>
<path d="M224.586 60.0823C224.586 60.0823 226.54 56.0768 230.286 54.2636C230.286 54.2636 228.8 52.6064 229.171 50.7486C229.171 50.7486 229.728 47.0255 233.162 47.776C233.162 47.776 236.602 48.6158 236.506 51.7741C236.506 51.7741 236.105 53.8177 234.804 54.4791C234.804 54.4791 238.512 58.9082 238.98 61.6503" stroke="#272525" stroke-width="0.743134" stroke-linecap="round" stroke-linejoin="round"/>
<path d="M257.938 49.7305L242.696 47.9916L242.265 52.547L241.581 59.8L264.403 62.1706" stroke="#272525" stroke-width="0.743134" stroke-linecap="round" stroke-linejoin="round"/>
<path d="M242.272 52.547L266.781 55.5195" stroke="#272525" stroke-width="0.743134" stroke-linecap="round" stroke-linejoin="round"/>
<path d="M267.22 54.0406L267.019 55.5492L266.343 60.6768" stroke="#272525" stroke-width="0.743134" stroke-linecap="round" stroke-linejoin="round"/>
<path d="M163.716 51.3728C163.783 51.3282 164.191 51.1127 164.823 50.7709C167.305 49.463 173.295 46.4087 176.096 45.9182C176.096 45.9182 175.338 39.7279 175.755 32.8316C176.007 28.5661 176.713 24.0329 178.326 20.5328C178.326 20.5328 177.977 26.4704 177.939 32.5715C177.917 37.9667 178.14 43.4882 179.069 45.1751C179.069 45.1751 197.803 44.1124 211.64 44.6475C211.64 44.6475 212.265 39.2523 212.584 32.8539C212.785 28.9525 212.867 24.6795 212.636 21.0232C212.636 21.0232 214.316 26.4035 215.051 33.5302C215.438 37.1567 215.572 41.2439 215.111 45.3014C215.111 45.3014 221.896 46.3121 222.78 46.9214" stroke="#272525" stroke-width="0.743134" stroke-linecap="round" stroke-linejoin="round"/>
<path d="M170.025 37.9964C170.025 37.9964 172.098 33.9166 175.755 32.8316C176.431 32.6236 177.159 32.5269 177.94 32.5715C179.782 32.6904 181.908 33.6119 184.271 35.9528" stroke="#272525" stroke-width="0.743134" stroke-linecap="round" stroke-linejoin="round"/>
<path d="M205.079 36.629C205.079 36.629 208.111 32.4526 212.584 32.8539C213.365 32.9208 214.19 33.1289 215.052 33.5301C216.508 34.199 218.069 35.4028 219.696 37.3721" stroke="#272525" stroke-width="0.743134" stroke-linecap="round" stroke-linejoin="round"/>
<path d="M194.549 53.8474C193.88 55.2668 193.382 57.9941 194.43 59.2946" stroke="#272525" stroke-width="0.743134" stroke-linecap="round" stroke-linejoin="round"/>
<path d="M184.769 65.0242C184.769 65.0242 195.173 72.9831 207.308 65.0242" stroke="#272525" stroke-width="0.743134" stroke-linecap="round" stroke-linejoin="round"/>
<path d="M155.4 56.0471C155.378 57.7637 155.772 59.9634 156.901 62.765C156.901 62.765 159.933 71.8164 170.025 68.5614" stroke="#272525" stroke-width="0.743134" stroke-linecap="round" stroke-linejoin="round"/>
<path d="M155.415 55.7128C155.415 55.7648 155.415 55.8094 155.415 55.8615" stroke="#272525" stroke-width="0.743134" stroke-linecap="round" stroke-linejoin="round"/>
<path d="M165.314 52.7848C165.247 52.7031 164.645 52.0342 163.716 51.3729C162.401 50.4291 160.439 49.5299 158.395 50.3771C158.395 50.3771 155.727 51.4472 155.437 55.4601C155.43 55.5047 155.43 55.5567 155.43 55.6087" stroke="#272525" stroke-width="0.743134" stroke-linecap="round" stroke-linejoin="round"/>
<path d="M164.823 50.7709C164.823 50.7709 165.009 51.5437 165.314 52.7848C165.314 52.7848 165.314 52.7848 165.314 52.7922C166.287 56.7308 168.516 65.3437 170.018 68.5615C170.018 68.5615 172.856 76.1786 181.239 80.786C184.984 82.8519 189.83 84.3085 196.027 84.2267C196.027 84.2267 202.574 84.197 209.307 80.5185C213.491 78.2297 217.757 74.5363 220.551 68.5615C220.551 68.5615 221.532 66.3915 222.282 63.4636" stroke="#272525" stroke-width="0.743134" stroke-linecap="round" stroke-linejoin="round"/>
<path d="M220.558 68.5615C220.558 68.5615 228.577 71.8164 232.619 64.3851" stroke="#272525" stroke-width="0.743134" stroke-linecap="round" stroke-linejoin="round"/>
<path d="M176.149 101.341C176.149 101.341 176.149 101.363 176.149 101.371M176.149 101.371C176.706 105.718 179.062 108.928 179.062 108.928C180.875 106.246 182.435 104.098 183.766 102.389C189.406 95.1582 191.041 95.6338 191.041 95.6338C191.546 95.9534 194.482 99.7508 197.306 103.504C200.174 107.308 202.931 111.069 202.931 111.069C204.172 109.947 208.72 105.138 211.871 101.794M176.149 101.371C176.111 97.9524 176.275 95.6338 176.275 95.6338C176.52 95.0096 176.758 94.4597 176.988 93.9766C179.024 89.6441 180.422 90.2609 180.422 90.2609C180.422 90.2609 180.697 90.4542 181.239 90.7514C182.703 91.554 186.121 93.122 191.234 93.6496C195.782 94.1178 201.675 93.7685 208.728 91.3162C209.233 91.1453 209.753 90.9595 210.273 90.7588C210.273 90.7588 212.376 90.9744 214.546 97.0458C214.635 97.2761 214.717 97.5214 214.799 97.7666C214.873 97.9821 214.94 98.2051 215.014 98.4354C215.014 98.4354 213.669 99.8771 211.871 101.794M176.149 101.371C176.208 107.836 176.973 118.218 180.897 124.244C182.525 126.756 184.702 128.51 187.608 128.904C188.923 129.082 190.402 128.874 191.665 128.54C192.505 128.317 193.3 127.997 194.058 127.596C197.112 126.021 199.483 123.226 201.378 120.388C203.622 117.029 205.324 113.35 207.197 109.783C208.594 107.108 209.939 104.135 211.871 101.794" stroke="#272525" stroke-width="0.743134" stroke-linecap="round" stroke-linejoin="round"/>
<path d="M209.315 80.5185C209.315 80.5185 208.542 88.6632 208.735 91.3162" stroke="#272525" stroke-width="0.743134" stroke-linecap="round" stroke-linejoin="round"/>
<path d="M181.246 80.7861C181.246 80.7861 181.313 88.6336 181.246 90.7441" stroke="#272525" stroke-width="0.743134" stroke-linecap="round" stroke-linejoin="round"/>
<path d="M183.773 102.389C183.773 102.389 185.103 107.264 186.686 109.211C186.686 109.211 181.246 119.399 180.905 124.245" stroke="#272525" stroke-width="0.743134" stroke-linecap="round" stroke-linejoin="round"/>
<path d="M197.313 103.504C197.313 103.504 195.232 107.479 192.445 109.597C192.445 109.597 194.103 122.023 194.065 127.596" stroke="#272525" stroke-width="0.743134" stroke-linecap="round" stroke-linejoin="round"/>
<path d="M233.801 42.3066C234.536 29.4058 228.733 18.675 228.733 18.675C214.97 -5.77412 190.714 1.33024 190.714 1.33024C190.714 1.33024 170.025 -2.50433 161.234 19.9086C161.234 19.9086 155.46 34.9942 155.43 55.4601V55.5195C155.43 55.5195 155.43 55.5493 155.422 55.6087C155.422 55.631 155.422 55.6682 155.422 55.7128C155.422 55.7573 155.422 55.8019 155.422 55.8614C155.422 55.9134 155.422 55.9803 155.422 56.0472C155.192 60.0824 153.609 86.1366 151.097 92.3938C151.097 92.3938 155.311 92.3641 158.781 81.3434C158.781 81.3434 158.529 90.3874 157.912 92.862C157.912 92.862 171.103 94.9651 177.018 93.9767" stroke="#272525" stroke-width="0.743134" stroke-linecap="round" stroke-linejoin="round"/>
<path d="M222.29 18.1771C222.29 18.1771 228.748 31.7318 228.123 41.8607" stroke="#272525" stroke-width="0.743134" stroke-linecap="round" stroke-linejoin="round"/>
<path d="M172.136 16.8171C172.136 16.8171 163.337 28.8261 163.708 48.5192" stroke="#272525" stroke-width="0.743134" stroke-linecap="round" stroke-linejoin="round"/>
<path d="M231.787 80.5185C231.787 80.5185 231.787 80.5557 231.787 80.5779C231.787 80.5928 231.787 80.6151 231.802 80.6448C231.839 80.8752 231.928 81.3954 232.04 82.1088C232.515 85.2894 233.355 92.2674 231.779 93.9766C231.779 93.9766 226.808 95.8345 214.546 97.0458" stroke="#272525" stroke-width="0.743134" stroke-linecap="round" stroke-linejoin="round"/>
<path d="M233.868 64.4965C233.868 64.4965 236.045 88.4031 237.962 92.8619C237.962 92.8619 233.444 88.8639 232.047 82.1088C231.95 81.6332 231.869 81.1501 231.809 80.6448" stroke="#272525" stroke-width="0.743134" stroke-linecap="round" stroke-linejoin="round"/>
<path d="M176.282 95.6338C176.282 95.6338 175.866 95.6338 175.138 95.6487C170.374 95.7155 152.145 96.1911 146.988 99.3643C145.36 100.368 143.956 101.445 142.566 102.738C142.366 102.924 142.172 103.117 141.972 103.31C136.844 108.282 132.222 113.796 127.696 119.317C120.956 127.559 114.543 135.822 107.044 143.417C106.234 144.235 105.417 145.119 104.525 145.892C104.302 146.085 104.079 146.271 103.849 146.442C103.656 146.598 103.463 146.732 103.269 146.865C103.269 146.865 103.054 146.62 99.2416 146.62" stroke="#272525" stroke-width="0.743134" stroke-linecap="round" stroke-linejoin="round"/>
<path d="M144.513 103.504V129.773C144.513 129.773 144.298 135.808 144.105 143.365C143.867 152.996 143.666 165.094 144.015 170.334C144.015 170.334 144.268 190.956 136.956 206.688C136.956 206.688 135.744 209.066 134.095 212.373C133.574 213.406 133.017 214.528 132.437 215.694C129.368 221.862 125.757 229.316 125.066 231.456C125.066 231.456 128.529 233.522 133.56 235.766C134.786 236.309 136.101 236.866 137.483 237.409C141.206 238.85 145.398 240.173 149.544 240.835C150.771 241.035 151.989 241.176 153.186 241.243C153.186 241.243 153.869 237.416 154.902 231.754C157.035 220.042 160.669 200.483 162.846 190.71C162.846 190.71 166.77 172.734 167.892 166.96C168.034 166.254 168.13 165.726 168.167 165.444V142.28C168.167 142.28 167.677 110.697 176.282 95.6338" stroke="#272525" stroke-width="0.743134" stroke-linecap="round" stroke-linejoin="round"/>
<path d="M165.938 166.558C165.938 166.558 155.162 139.553 152.19 132.374C152.19 132.374 152.19 128.778 162.965 123.085C162.965 123.085 157.147 112.837 156.901 109.597C160.855 101.928 173.993 96.154 175.138 95.6487C175.153 95.6487 175.16 95.6487 175.168 95.6338" stroke="#272525" stroke-width="0.743134" stroke-linecap="round" stroke-linejoin="round"/>
<path d="M215.022 98.4355C214.479 102.471 213.684 106.491 213.038 110.504C211.811 118.054 210.504 125.59 209.188 133.125C207.576 142.407 205.25 151.57 202.738 160.643C202.188 162.62 201.631 164.604 200.991 166.559C200.412 168.327 200.419 170.46 200.286 172.281C199.877 177.862 199.973 183.472 200.367 189.053C200.962 197.51 201.95 205.959 202.634 214.416C203.169 221.023 203.711 227.629 204.18 234.243C204.261 235.284 204.328 236.331 204.402 237.372C204.573 239.891 204.729 240.686 204.774 243.213C204.774 243.213 206.751 243.25 210.05 242.871C215.401 242.254 224.229 240.537 233.704 235.767C237.004 234.109 240.385 232.081 243.722 229.599C243.722 229.599 229.357 209.162 228.985 189.841C228.985 189.841 228.116 178.939 232.077 161.847C232.077 161.847 233.727 152.446 235.562 140.482C236.825 132.218 238.178 122.736 239.137 114.287" stroke="#272525" stroke-width="0.743134" stroke-linecap="round" stroke-linejoin="round"/>
<path d="M235.555 140.489C235.607 140.437 235.83 140.244 236.186 139.865C237.992 137.941 243.253 131.267 246.969 115.55" stroke="#272525" stroke-width="0.743134" stroke-linecap="round" stroke-linejoin="round"/>
<path d="M214.799 97.7666C214.881 97.7815 215.49 97.8632 216.501 98.0193C221.324 98.7773 235.153 101.163 242.139 104.782C246.211 106.892 249.667 111.091 252.743 114.368C257.076 118.983 261.304 123.695 265.607 128.332C266.187 128.948 266.774 129.565 267.324 130.204" stroke="#272525" stroke-width="0.743134" stroke-linecap="round" stroke-linejoin="round"/>
<path d="M216.508 98.0193C216.508 98.0193 224.4 107.279 227.833 113.32C227.833 113.32 226.169 120.358 216.969 128.443C216.969 128.443 225.515 137.212 227.284 140.489C227.284 140.489 214.368 160.205 203.31 169.122" stroke="#272525" stroke-width="0.743134" stroke-linecap="round" stroke-linejoin="round"/>
<path d="M154.902 231.754C154.902 231.754 164.177 234.013 178.341 234.793C185.809 235.202 194.638 235.202 204.18 234.243" stroke="#272525" stroke-width="0.743134" stroke-linecap="round" stroke-linejoin="round"/>
<path d="M233.704 235.767C233.704 235.767 262.3 326.763 265.458 336.052C265.458 336.052 253.174 343.558 228.272 346.152C227.194 346.263 226.087 346.367 224.957 346.456C224.957 346.456 210.266 350.544 191.702 349.942C187.407 349.8 182.904 349.414 178.326 348.663C177.033 348.455 175.732 348.218 174.424 347.943C174.424 347.943 156.582 350.677 138.984 345.371C137.669 344.978 136.346 344.532 135.038 344.041C135.038 344.041 135.157 342.978 135.373 341.061C137.052 325.998 144.781 258.232 149.544 240.835" stroke="#272525" stroke-width="0.743134" stroke-linecap="round" stroke-linejoin="round"/>
<path d="M178.326 235.053C178.326 235.053 174.239 337.353 174.424 347.942" stroke="#272525" stroke-width="0.743134" stroke-linecap="round" stroke-linejoin="round"/>
<path d="M210.095 243.213L224.958 346.456" stroke="#272525" stroke-width="0.743134" stroke-linecap="round" stroke-linejoin="round"/>
<path d="M137.483 237.401C137.446 237.572 136.227 242.945 134.384 251.127C134.124 252.294 133.849 253.52 133.559 254.798C127.592 281.343 116.839 329.684 115.903 337.167C115.903 337.167 127.525 340.69 135.365 341.061" stroke="#272525" stroke-width="0.743134" stroke-linecap="round" stroke-linejoin="round"/>
<path d="M152.123 523.419C151.841 525.477 151.447 527.61 150.964 528.695" stroke="#272525" stroke-width="0.743134" stroke-linecap="round" stroke-linejoin="round"/>
<path d="M138.984 345.371C138.984 345.371 145.256 381.941 145.442 389.187C145.442 389.187 145.814 396.246 145.442 399.219C145.442 399.219 142.284 441.763 147.672 478.734C147.672 478.734 149.567 491.969 151.023 503.168C151.982 510.548 152.762 517.05 152.688 518.306C152.688 518.306 152.495 520.788 152.13 523.411" stroke="#272525" stroke-width="0.743134" stroke-linecap="round" stroke-linejoin="round"/>
<path d="M175.547 404.198C175.264 405.149 174.9 406.048 174.417 406.836" stroke="#272525" stroke-width="0.743134" stroke-linecap="round" stroke-linejoin="round"/>
<path d="M178.326 348.663C178.058 359.223 177.442 369.776 177.285 380.343C177.204 385.396 177.233 390.457 176.736 395.488C176.475 398.104 176.371 401.389 175.547 404.183" stroke="#272525" stroke-width="0.743134" stroke-linecap="round" stroke-linejoin="round"/>
<path d="M191.702 350.001C191.702 350.001 196.347 379.526 196.904 386.586C196.904 386.586 198.019 398.104 201.363 403.678C201.363 403.678 201.712 404.287 202.106 405.275C202.299 405.721 202.493 406.249 202.663 406.836" stroke="#272525" stroke-width="0.743134" stroke-linecap="round" stroke-linejoin="round"/>
<path d="M228.302 346.456C228.302 346.456 229.602 383.056 230.345 389.372C231.571 399.791 233.533 410.098 234.633 420.547C235.778 431.389 236.595 442.268 236.967 453.163C237.212 460.2 237.264 467.238 237.033 474.275C237.033 474.275 236.342 488.878 235.934 502.336C235.644 511.67 235.488 520.446 235.792 523.419" stroke="#272525" stroke-width="0.743134" stroke-linecap="round" stroke-linejoin="round"/>
<path d="M202.106 405.275C202.106 405.275 206.008 447.522 207.865 461.456C207.865 461.456 210.533 486.151 211.618 502.336C212.02 508.348 212.205 513.186 211.953 515.148C211.953 515.148 211.782 520.981 210.6 523.426" stroke="#272525" stroke-width="0.743134" stroke-linecap="round" stroke-linejoin="round"/>
<path d="M175.547 404.183V404.198C175.532 405.335 174.781 461.962 174.417 475.576C174.417 475.576 174.105 490.699 174.083 503.168C174.083 509.953 174.15 515.95 174.417 518.306L175.547 528.264" stroke="#272525" stroke-width="0.743134" stroke-linecap="round" stroke-linejoin="round"/>
<path d="M210.6 523.426C210.221 523.515 209.894 523.627 209.664 523.753C209.664 523.753 202.604 536.386 199.134 539.73C196.265 542.495 192.483 544.397 189.495 547.073C186.567 549.703 183.736 553.218 182.755 557.105C182.398 558.517 182.205 560.233 182.22 561.906C182.235 563.221 182.376 564.514 182.658 565.621C182.658 565.621 193.805 570.57 213.751 565.621C213.751 565.621 219.941 564.009 226.384 560.293C228.48 559.468 230.561 558.599 232.627 557.685C234.224 556.979 236.64 556.354 237.903 555.091C237.903 555.091 237.903 553.516 237.858 551.123C237.791 546.263 237.613 538.029 237.182 532.797C237.182 532.797 236.417 525.492 236.417 523.753C236.417 523.753 236.201 523.426 235.792 523.419C235.064 523.404 233.712 524.444 231.958 530.441C231.958 530.441 224.527 522.638 216.969 522.765C216.969 522.765 212.807 522.854 210.6 523.426Z" stroke="#272525" stroke-width="0.743134" stroke-linecap="round" stroke-linejoin="round"/>
<path d="M211.618 502.336C211.618 502.336 223.308 504.209 235.926 502.336" stroke="#272525" stroke-width="0.743134" stroke-linecap="round" stroke-linejoin="round"/>
<path d="M200.375 541.098C200.375 541.098 210.154 539.359 218.7 545.928" stroke="#272525" stroke-width="0.743134" stroke-linecap="round" stroke-linejoin="round"/>
<path d="M182.227 561.906C182.227 561.906 192.252 565.74 207.093 563.511C207.093 563.511 214.866 562.277 220.93 558.435C220.93 558.435 231.252 551.621 237.858 551.123" stroke="#272525" stroke-width="0.743134" stroke-linecap="round" stroke-linejoin="round"/>
<path d="M152.13 523.411C152.071 523.575 151.001 526.153 149.106 531.311C147.278 536.282 142.418 547.043 142.418 547.043C140.456 552.119 140.382 555.782 140.56 557.685C140.649 558.666 140.805 559.178 140.805 559.178C142.418 565.993 157.028 565.369 157.028 565.369C175.606 564.878 178.705 559.795 178.705 559.795C179.233 558.918 179.463 557.142 179.545 555.217C179.686 551.74 179.322 547.786 179.322 547.786C178.705 542.703 176.104 527.721 176.104 527.721L175.554 528.264L174.09 529.698C171.37 524.006 161.739 523.411 161.739 523.411C154.65 523.084 151.179 528.375 150.971 528.695V528.71" stroke="#272525" stroke-width="0.743134" stroke-linecap="round" stroke-linejoin="round"/>
<path d="M149.344 541.469C149.344 541.469 158.388 537.256 168.167 542.458" stroke="#272525" stroke-width="0.743134" stroke-linecap="round" stroke-linejoin="round"/>
<path d="M140.545 557.67C140.545 557.67 140.545 557.677 140.545 557.685C140.76 557.937 144.669 562.262 158.127 561.653C158.127 561.653 174.172 560.798 179.522 555.217" stroke="#272525" stroke-width="0.743134" stroke-linecap="round" stroke-linejoin="round"/>
<path d="M151.023 503.168C151.023 503.168 165.626 505.123 174.083 503.168" stroke="#272525" stroke-width="0.743134" stroke-linecap="round" stroke-linejoin="round"/>
<path d="M28.7702 127.239C27.8785 127.158 26.6226 127.076 25.7308 127.343C25.3592 128.443 24.6087 129.573 23.65 130.346C22.7806 131.029 21.7476 131.431 20.6552 131.252C20.0681 131.156 18.8048 130.769 18.5521 130.145C18.1583 129.142 19.3324 128.607 19.8824 127.886C20.6998 126.831 21.116 125.433 21.9111 124.393C22.1861 124.036 22.513 123.717 22.9143 123.479C24.4601 122.558 26.7712 121.339 28.4581 120.856C30.3531 120.306 33.556 121.985 35.3321 123.145C35.3321 123.145 43.3579 128.532 44.9334 132.53L46.8878 133.274" stroke="#272525" stroke-width="0.743134" stroke-linecap="round" stroke-linejoin="round"/>
<path d="M29.8261 127.291C29.7071 127.321 29.313 127.284 28.7925 127.247" stroke="#272525" stroke-width="0.743134" stroke-linecap="round" stroke-linejoin="round"/>
<path d="M18.5522 130.145C16.3228 130.628 15.0148 130.539 15.4533 133.236C15.6762 134.626 16.2336 135.295 17.1179 135.659C17.6975 135.897 18.4258 136.001 19.2953 136.09C22.4313 136.395 27.2022 136.982 29.937 134.879C30.2491 134.648 30.5315 134.381 30.7841 134.069C31.3118 133.415 31.5867 132.218 31.1854 131.379C30.9328 130.836 30.6652 130.658 30.3234 130.628C30.0187 130.591 29.6546 130.68 29.2013 130.732C27.8636 130.888 24.735 131.171 23.6501 130.346C23.6426 130.346 23.6426 130.346 23.6352 130.346" stroke="#272525" stroke-width="0.743134" stroke-linecap="round" stroke-linejoin="round"/>
<path d="M28.7703 127.239C28.7703 127.239 28.7703 127.239 28.7926 127.247C29.0527 127.38 31.557 128.733 30.3234 130.621" stroke="#272525" stroke-width="0.743134" stroke-linecap="round" stroke-linejoin="round"/>
<path d="M21.9111 124.393C21.9111 124.393 16.568 123.762 16.137 126.429C16.137 126.429 15.275 130.019 18.5522 130.145" stroke="#272525" stroke-width="0.743134" stroke-linecap="round" stroke-linejoin="round"/>
<path d="M17.1179 135.659C17.1179 135.659 16.018 137.866 17.5638 140.051C17.5638 140.051 17.7347 140.363 18.4704 140.638C19.4736 141.017 21.5321 141.337 25.6714 140.735C25.6714 140.735 27.819 140.467 29.4836 138.892C29.9444 138.453 30.368 137.918 30.7024 137.264C30.7024 137.264 31.1185 136.031 29.9444 134.886" stroke="#272525" stroke-width="0.743134" stroke-linecap="round" stroke-linejoin="round"/>
<path d="M18.4704 140.645C18.4704 140.645 18.0542 144.881 20.41 145.312C20.41 145.312 24.304 145.505 26.5631 144.97C26.8827 144.896 27.1725 144.807 27.4103 144.695C27.4103 144.695 29.8849 143.328 30.3828 141.069C30.3828 141.069 30.4869 138.981 29.4836 138.892" stroke="#272525" stroke-width="0.743134" stroke-linecap="round" stroke-linejoin="round"/>
<path d="M20.41 145.312C20.41 145.312 23.6278 147.237 25.8572 147.728C25.8572 147.728 33.9128 149.34 39.9173 147.482L41.0171 147.913" stroke="#272525" stroke-width="0.743134" stroke-linecap="round" stroke-linejoin="round"/>
<path d="M26.5632 144.97L26.2957 146.843" stroke="#272525" stroke-width="0.743134" stroke-linecap="round" stroke-linejoin="round"/>
<path d="M99.2417 146.613C98.1641 147.066 92.5832 145.907 92.5832 145.907C89.2391 145.26 54.5942 133.274 54.5942 133.274C54.5942 133.274 54.4604 133.534 54.2301 134.017C52.9073 136.714 48.3593 146.323 45.7583 155.397C45.149 157.529 44.6436 159.625 44.3167 161.602C44.3167 161.602 92.2339 176.494 94.8349 177.334" stroke="#272525" stroke-width="0.743134" stroke-linecap="round" stroke-linejoin="round"/>
<path d="M45.7583 155.397L39.9172 153.056C40.1253 151.421 40.5192 149.674 41.0171 147.913C42.6371 142.184 45.4016 136.261 46.8878 133.274C47.5046 132.025 47.9059 131.289 47.9059 131.289L54.23 134.017" stroke="#272525" stroke-width="0.743134" stroke-linecap="round" stroke-linejoin="round"/>
<path d="M94.8348 177.334C94.8348 177.334 101.36 179.556 106.197 179.994C107.238 180.083 108.196 180.098 108.999 179.994C109.452 179.935 109.861 179.831 110.203 179.682C110.203 179.682 111.266 178.991 113.079 177.616C113.926 176.985 114.929 176.204 116.066 175.275C121.171 171.106 128.945 163.995 136.584 154.029C136.584 154.029 143.949 144.22 144.105 143.365C144.105 143.365 144.105 143.35 144.105 143.343" stroke="#272525" stroke-width="0.743134" stroke-linecap="round" stroke-linejoin="round"/>
</g>
<defs>
<clipPath id="clip0_451_2306">
<rect width="281.767" height="568.193" fill="white" transform="translate(15)"/>
</clipPath>
</defs>
</svg>
