<svg width="320" height="559" viewBox="0 0 320 559" fill="none" xmlns="http://www.w3.org/2000/svg">
<g clip-path="url(#clip0_451_2305)">
<path d="M155.159 275.59H159.572L162.453 272.872C165.753 265.555 163.534 232.102 163.534 232.102C162.696 239.344 161.498 247.691 159.782 255.937C159.782 255.937 157.587 265.705 155.159 275.59Z" fill="#D8D8D8"/>
<path d="M137.379 125.681C137.379 125.681 148.45 146.02 156.272 166.451C155.51 164.436 155.661 159.694 155.661 159.694C155.661 152.167 151.34 127.772 151.34 127.772C151.013 125.756 150.636 123.641 150.226 121.525C150.033 120.529 149.832 119.534 149.631 118.547C149.631 118.547 149.782 124.243 149.481 128.776V128.826C149.296 131.569 148.953 133.877 148.308 134.228L142.32 128.826L135.888 123.022C136.416 123.9 136.91 124.786 137.379 125.681Z" fill="#D8D8D8"/>
<path d="M155.159 275.59C154.639 277.706 154.103 279.83 153.584 281.863C154.941 284.965 156.281 288.068 157.621 291.179C157.621 289.088 158.735 275.59 158.735 275.59H155.159Z" fill="#ADADAD"/>
<path d="M151.256 387.932C151.842 389.254 152.345 390.592 152.688 391.938C153.76 396.061 151.331 400.31 152.772 404.282C154.505 409.066 159.086 412.06 160.854 416.919C162.721 422.07 162.554 427.724 163.86 433.001C166.532 443.731 170.627 453.516 175.065 463.644C182.686 481.039 190.483 498.961 194.327 517.494C198.364 517.853 202.442 517.494 206.412 516.658C216.638 514.533 226.084 509.34 231.938 505.585C235.732 503.151 238.018 501.328 238.018 501.328C223.111 466.955 209.645 445.655 202.861 415.464C202.007 411.658 201.262 407.786 200.357 404.014C199.402 400.067 198.238 396.195 197.049 392.264C196.12 389.178 195.625 385.967 194.436 382.965C186.011 361.622 178.131 340.07 169.304 318.853C166.733 312.681 164.153 306.509 161.532 300.345C160.242 297.293 158.936 294.232 157.621 291.179C156.281 288.068 154.941 284.965 153.584 281.863C152.043 287.834 150.578 293.036 149.673 295.035C149.673 295.035 109.684 291.355 87.2815 282.632C89.1742 286.471 91.1757 290.242 93.2527 293.956C104.776 314.588 118.729 333.706 130.462 354.229C130.956 355.09 131.45 355.96 131.936 356.83C136.332 364.699 141.927 371.816 146.566 379.527C148.132 382.128 149.899 384.947 151.214 387.857C151.214 387.882 151.239 387.907 151.256 387.932Z" fill="#8190C6"/>
<path d="M14.1534 488.549C13.4499 489.603 11.5991 492.254 11.0631 493.383C12.8302 495.189 14.8401 496.879 16.9924 498.434C25.5346 504.665 36.3213 508.988 43.2975 511.38C47.5853 512.852 50.4243 513.588 50.4243 513.588C54.7038 507.617 59.4272 497.088 62.7268 490.406C77.1816 461.185 90.9329 431.554 107.23 403.287C116.467 387.263 124.072 371.616 130.462 354.229C118.729 333.706 104.776 314.588 93.2527 293.956C91.5862 306.325 89.6935 318.669 87.5579 330.971C85.9667 340.162 84.275 349.361 82.0808 358.444C81.2182 362.015 80.364 365.653 79.0994 369.115C77.1732 374.384 74.2421 376.893 70.8922 381.15C68.9409 383.642 69.4517 386.452 68.8739 389.329C68.2123 392.632 66.8472 394.556 64.8875 397.324C60.5829 403.437 55.3403 408.899 51.5382 415.363C46.2537 424.329 41.321 433.57 37.3011 443.162C30.6767 458.969 23.5749 474.415 14.1534 488.549Z" fill="#8190C6"/>
<path d="M140.118 94.6623C139.925 94.7208 139.69 94.7626 139.406 94.7877C139.406 94.7877 137.63 106.12 136.675 111.464L140.118 114.391L142.32 128.826L148.308 134.228C148.953 133.877 149.296 131.569 149.48 128.826V128.775C149.48 127.003 143.727 114.249 143.727 114.249L144.297 110.611C143.04 105.35 140.118 94.6623 140.118 94.6623Z" fill="#76BEC9"/>
<path d="M163.533 232.102C163.533 232.102 165.753 265.555 162.453 272.872L159.572 275.59H158.735C158.735 275.59 157.621 289.088 157.621 291.179C158.936 294.232 160.242 297.293 161.532 300.345H161.54C161.54 300.345 164.153 297.418 166.607 290.217L165.292 289.808C168.927 272.872 164.195 225.788 164.195 225.788C164.002 227.762 163.785 229.877 163.533 232.102Z" fill="#76BEC9"/>
<path d="M165.234 212.139C165.116 214.372 164.815 219.331 164.195 225.788C164.195 225.788 168.927 272.872 165.292 289.808L166.607 290.217C168.851 283.627 170.962 273.449 170.794 258.655C170.794 258.655 168.709 221.966 166.414 209.17C166.414 209.17 166.331 209.095 166.172 212.164L165.234 212.139Z" fill="#76BEC9"/>
<path d="M269.206 79.6003L266.727 83.6731C269.583 84.0411 271.232 83.6731 271.232 83.6731C271.232 83.6731 272.505 82.0841 269.206 79.6003Z" fill="#76BEC9"/>
<path d="M243.596 68.8119C243.629 69.3555 244.123 70.1165 244.869 70.9779L246.703 67.4738C244.015 66.7629 243.596 68.8119 243.596 68.8119Z" fill="#76BEC9"/>
<path d="M163.332 125.121C163.332 125.121 162.964 177.424 162.386 185.712C162.956 188.196 163.374 190.546 163.617 192.728C163.617 192.728 165.292 204.152 165.292 210.843C165.292 210.843 165.275 211.295 165.233 212.139L166.171 212.164C166.331 209.095 166.414 209.17 166.414 209.17C167.386 197.186 167.804 168.057 167.804 168.057C167.863 161.408 167.52 153.957 167.093 147.3C166.398 136.654 165.451 128.048 165.451 128.048C165.359 126.986 165.25 125.94 165.125 124.912L163.332 125.121Z" fill="#76BEC9"/>
<path d="M165.451 128.048C165.451 128.048 166.398 136.654 167.093 147.3C167.553 146.28 167.989 145.184 168.391 144.038C169.119 144.164 214.887 152.176 220.431 152.719C220.431 152.719 228.521 155.228 238.713 138.92C238.713 138.92 270.68 84.8021 271.232 83.6731C271.232 83.6731 269.583 84.0411 266.727 83.6731C263.645 83.2801 259.148 82.0339 253.788 78.5632C253.788 78.5632 247.607 74.1057 244.869 70.9695C244.123 70.1081 243.629 69.3471 243.596 68.8035C243.596 68.8035 222.659 108.804 218.338 114.659C218.338 114.659 217.659 115.863 216.805 117.795C215.758 117.243 211.37 115.997 210.097 115.604C208.129 114.985 206.228 114.265 204.268 113.655C197.501 111.547 190.76 109.356 184.11 107.174C182.854 106.764 181.614 106.387 180.4 105.852C179.236 105.325 178.675 104.531 177.678 103.828C176.447 102.95 176.02 103.519 174.789 103.377C173.935 103.276 173.014 102.54 172.277 102.013C168.064 99.0362 163.743 96.3182 158.735 94.863C158.207 94.7125 157.654 94.5703 157.093 94.4448C157.093 94.4448 163.064 107.383 165.125 124.903C165.25 125.932 165.359 126.977 165.451 128.04V128.048Z" fill="#76BEC9"/>
<path d="M143.727 92.2621C143.727 92.2621 156.08 107.282 157.621 111.74L152.47 118.547C152.47 118.547 162.352 123.448 163.332 125.121L165.125 124.912C163.064 107.391 157.093 94.4532 157.093 94.4532C152.83 93.4664 147.822 93.0733 143.727 92.2621Z" fill="#76BEC9"/>
<path d="M152.47 118.547L150.226 121.525C150.636 123.641 151.013 125.756 151.34 127.772C151.34 127.772 155.661 152.167 155.661 159.694C155.661 159.694 155.511 164.436 156.273 166.451C158.819 173.092 161.021 179.749 162.386 185.712C162.964 177.424 163.333 125.121 163.333 125.121C162.353 123.448 152.47 118.547 152.47 118.547Z" fill="#76BEC9"/>
<path d="M145.193 96.1342C145.628 98.0912 145.838 100.098 145.896 102.005C145.896 102.005 147.873 109.883 149.631 118.547C149.832 119.534 150.033 120.529 150.226 121.525L152.47 118.547L157.621 111.74C156.08 107.282 143.727 92.2621 143.727 92.2621C144.531 94.1856 145.193 96.1342 145.193 96.1342Z" fill="#76BEC9"/>
<path d="M73.0192 204.06C73.8232 201.635 75.3558 199.185 76.344 197.136C78.5801 192.461 80.8077 187.777 83.0271 183.094C86.9883 174.748 90.9328 166.385 94.8773 158.03C97.8085 147.935 88.8056 119.718 88.8056 119.718C85.2463 111.246 75.6154 113.203 75.6154 113.203L73.5803 113.647C72.8601 114.558 72.165 115.495 71.5118 116.448C69.6694 119.141 68.0781 122.01 66.8052 125.012C65.3229 128.5 64.9125 132.246 63.4804 135.725C62.6429 137.741 61.37 138.46 59.9714 139.949C57.191 142.918 59.5778 148.354 58.1876 152.075C57.8777 152.903 57.5595 153.714 57.2413 154.542C56.5545 156.332 55.9013 158.122 55.2564 159.92C53.5396 164.687 51.9233 169.462 50.0725 174.179C45.324 186.297 40.1652 198.215 38.7749 211.253C38.2138 216.563 38.1385 221.874 38.1385 227.293V248.201C38.1385 256.238 37.1168 268.139 37.5104 276.117C38.5321 276.544 39.5454 276.92 40.5504 277.246C54.0924 281.729 66.4534 278.266 70.7581 276.736C71.8049 276.368 72.3744 276.117 72.3744 276.117C72.3744 274.796 72.3576 273.474 72.3241 272.145C72.0813 262.862 71.0847 253.428 70.465 244.22C70.1048 238.96 69.8368 233.683 69.8452 228.405C69.8536 224.048 69.4265 218.863 71.2689 214.799C71.8384 213.544 72.902 212.557 73.103 211.194C73.3291 209.664 72.4749 208.426 72.4749 207.013C72.4749 206.051 72.6843 205.056 73.0192 204.06Z" fill="#76BEC9"/>
<path d="M118.98 102.524C112.632 96.4102 106.895 91.9694 104.76 90.3636C104.19 89.9455 103.88 89.7197 103.88 89.7197C103.88 89.7197 99.5923 95.8917 98.5371 97.5643C98.5371 97.5643 113.829 118.991 115.086 121.6C115.086 121.6 132.698 121.232 135.311 122.068C130.813 114.784 124.65 107.985 118.98 102.524Z" fill="#76BEC9"/>
<path d="M135.31 122.068C132.698 121.232 115.085 121.6 115.085 121.6C113.829 118.991 98.537 97.5643 98.537 97.5643C98.537 97.5643 80.6402 106.446 77.4997 109.373C76.0843 110.694 74.7862 112.133 73.5803 113.647L75.6154 113.203C75.6154 113.203 85.2463 111.246 88.8055 119.718C88.8055 119.718 97.8084 147.935 94.8772 158.03C90.9327 166.385 86.9882 174.748 83.027 183.094C83.1024 183.345 84.5009 188.045 86.3015 194.56C87.1557 200.297 86.7119 211.194 86.7119 211.194C86.0838 228.13 73.3123 271.618 73.3123 271.618C73.2872 271.785 73.2872 271.952 73.2872 272.12C73.3458 273.575 74.3591 274.754 74.3591 274.754C76.7878 277.74 81.4358 280.357 87.2814 282.632C109.684 291.355 149.673 295.035 149.673 295.035C150.578 293.036 152.043 287.834 153.584 281.863C154.103 279.83 154.639 277.706 155.159 275.59C157.587 265.705 159.781 255.937 159.781 255.937C161.498 247.691 162.696 239.344 163.533 232.102C163.785 229.877 164.002 227.762 164.195 225.788C164.815 219.332 165.116 214.372 165.233 212.139C165.275 211.295 165.292 210.843 165.292 210.843C165.292 204.152 163.617 192.728 163.617 192.728C163.374 190.546 162.955 188.196 162.386 185.72C161.021 179.749 158.818 173.092 156.272 166.451C148.45 146.02 137.379 125.681 137.379 125.681C136.91 124.786 136.416 123.9 135.888 123.022H135.88C135.696 122.696 135.503 122.378 135.31 122.068Z" fill="#76BEC9"/>
<path d="M206.412 516.658C206.412 516.658 210.348 523.984 211.336 527.287C215.566 526.668 225.733 527.53 225.733 527.53C226.729 520.421 232.441 514.09 234.786 511.757C233.638 510.477 231.938 505.585 231.938 505.585C226.084 509.34 216.638 514.533 206.412 516.658Z" fill="white"/>
<path d="M74.401 552.878C74.401 552.878 56.7052 556.382 43.0209 551.507C43.0209 551.507 35.626 548.437 26.4138 540.768C26.4138 540.768 18.1814 533.242 13.5753 530.181C13.5753 530.181 3.38325 523.549 2.19404 521.424C1.55756 522.88 0.962958 524.285 0.4186 525.623C0.4186 526.459 2.84728 527.973 3.802 528.792C5.24245 530.022 7.10163 530.825 8.65934 531.987C12.7378 535.04 16.3976 538.285 19.9652 541.889C26.129 548.12 32.6111 554.292 41.3208 556.767C47.1664 558.431 53.4223 558.741 59.4605 558.507C62.0399 558.406 64.6277 558.54 67.1987 558.406C68.8485 558.314 72.2403 558.39 73.396 557.043C74.2251 556.081 74.4764 554.543 74.4094 552.878H74.401Z" fill="white"/>
<path d="M14.6892 500.073C9.94072 505.459 5.46861 513.998 2.19408 521.425C3.3833 523.549 13.5753 530.181 13.5753 530.181C18.1814 533.242 26.4138 540.768 26.4138 540.768C35.626 548.437 43.0209 551.507 43.0209 551.507C56.7052 556.382 74.401 552.878 74.401 552.878H74.4094C74.2922 550.16 73.3123 547.083 72.5167 545.502C70.5738 541.672 65.7667 539.832 62.1823 537.841C60.298 536.796 57.7604 536.344 56.7052 534.638C55.9682 533.451 55.9766 533.442 54.6367 532.932C53.6987 532.573 52.7775 532.104 51.9986 531.427C50.7173 530.315 49.7877 528.826 48.9754 527.287C48.4896 526.35 48.0457 525.397 47.5935 524.494C46.7644 522.838 46.0107 521.215 45.3575 519.476C44.788 517.945 44.5284 515.922 43.7244 514.567C43.7244 514.567 43.314 514.374 42.2923 514.199C40.5671 513.914 37.1 513.689 30.8775 514.567C30.8775 514.567 21.0791 504.422 15.7946 500.776C15.401 500.5 15.0242 500.266 14.6892 500.073Z" fill="#916F6F"/>
<path d="M16.9923 498.434L15.7947 500.776C21.0792 504.422 30.8776 514.567 30.8776 514.567C37.1 513.689 40.5672 513.914 42.2924 514.199C42.1249 513.404 43.2974 511.38 43.2974 511.38C36.3212 508.989 25.5345 504.665 16.9923 498.434Z" fill="white"/>
<path d="M229.644 551.992C227.784 552.92 223.053 556.182 220.925 554.877C221.528 556.123 222.257 557.419 223.028 557.829C224.56 558.657 227.148 557.185 228.664 556.433C230.498 555.529 232.332 554.576 234.158 553.664C237.926 551.783 241.82 550.16 245.832 549.056C253.914 546.84 262.196 546.062 269.909 542.207C276.358 538.987 282.773 535.567 288.635 531.343C290.168 530.239 291.658 529.077 293.082 527.847C294.858 526.309 294.874 526.191 294.062 524.051C293.752 523.223 293.434 522.395 293.091 521.583C293.091 521.583 275.705 535.751 258.67 541.187C258.67 541.187 248.202 544.398 242.624 546.204C238.102 547.676 233.881 549.884 229.644 551.992Z" fill="white"/>
<path d="M266.157 515.144C263.72 515.453 261.2 515.445 258.603 515.186C256.602 514.985 254.517 514.776 252.398 514.525C248.972 514.115 245.489 513.588 242.164 512.794C239.936 512.267 237.784 511.615 235.782 510.803C235.782 510.803 235.397 511.138 234.786 511.757C232.441 514.09 226.729 520.421 225.733 527.53C225.733 527.53 215.566 526.668 211.336 527.287C210.901 527.354 210.532 527.429 210.239 527.53C209.913 527.638 214.46 540.451 214.762 541.237C216.261 545.151 217.911 549.023 219.895 552.728C220.163 553.229 220.515 554.041 220.926 554.877C223.053 556.182 227.784 552.92 229.644 551.992C233.881 549.884 238.102 547.676 242.624 546.204C248.202 544.398 258.67 541.187 258.67 541.187C275.705 535.751 293.091 521.583 293.091 521.583C292.278 519.643 291.282 517.803 289.757 516.298C286.525 513.12 282.94 512.727 278.703 513.572C276.835 513.94 275.596 514.617 273.678 514.358C271.869 514.115 271.082 514.123 269.273 514.575C268.243 514.826 267.213 515.018 266.157 515.144Z" fill="#906F6F"/>
<path d="M40.5505 277.246L41.346 286.947C42.9372 287.667 44.6373 288.185 46.3876 288.536C54.4776 290.184 63.6396 288.352 68.2876 287.14C70.2054 286.646 71.3611 286.253 71.3611 286.253L70.7581 276.736C66.4535 278.266 54.0924 281.729 40.5505 277.246Z" fill="white"/>
<path d="M266.668 74.7831L265.63 77.0161C268.687 78.028 270.261 77.8691 270.261 77.8691C270.261 77.8691 271.584 77.5095 266.668 74.7831Z" fill="white"/>
<path d="M248.487 64.07C248.143 64.6972 249.224 66.0604 250.614 67.457L251.887 65.5252C248.838 63.4929 248.487 64.07 248.487 64.07Z" fill="white"/>
<path d="M270.261 77.8691C270.261 77.8691 268.687 78.028 265.63 77.0161C263.151 76.2048 259.7 74.6242 255.32 71.5717C255.32 71.5717 252.641 69.4893 250.614 67.4654C249.224 66.0604 248.143 64.6972 248.487 64.0699L246.703 67.4737L244.869 70.9779C247.607 74.1141 253.788 78.5716 253.788 78.5716C259.148 82.0423 263.645 83.2884 266.727 83.6815L269.206 79.6003L270.261 77.8691Z" fill="white"/>
<path d="M136.265 113.621C136.265 113.621 121.785 104.547 118.98 102.524C124.65 107.985 130.813 114.784 135.311 122.068C135.503 122.378 135.696 122.695 135.88 123.013H135.889L142.32 128.826L140.118 114.391L136.676 111.464C136.508 112.392 136.366 113.145 136.265 113.621Z" fill="white"/>
<path d="M143.727 114.249C143.727 114.249 149.481 127.003 149.481 128.776C149.782 124.243 149.631 118.547 149.631 118.547C147.873 109.883 145.896 102.005 145.896 102.005C146.097 108.06 144.849 113.203 144.849 113.203C144.799 112.768 144.59 111.84 144.297 110.611L143.727 114.249Z" fill="white"/>
<path d="M141.885 88.8416C141.516 90.9992 141.123 93.2322 140.938 94.219C140.938 94.219 140.771 94.4867 140.118 94.6623C140.118 94.6623 143.041 105.35 144.297 110.611C144.59 111.84 144.799 112.768 144.849 113.203C144.849 113.203 146.097 108.06 145.896 102.005C145.838 100.098 145.628 98.0912 145.193 96.1342C145.193 96.1342 144.531 94.1856 143.727 92.2621C143.124 90.832 142.438 89.4186 141.885 88.8416Z" fill="white"/>
<path d="M107.506 83.6732C107.506 83.6732 105.488 89.3434 104.759 90.3637C106.895 91.9694 112.632 96.4102 118.98 102.524C121.785 104.548 136.265 113.622 136.265 113.622C136.366 113.145 136.508 112.392 136.676 111.464C137.63 106.12 139.406 94.7878 139.406 94.7878C138.485 94.8798 137.027 94.7878 134.766 94.2191C134.766 94.2191 117.489 89.7281 110.68 84.8022C110.68 84.8022 110.764 83.8404 110.831 82.5441C110.831 82.5441 108.838 82.3016 107.506 83.6732Z" fill="white"/>
<path d="M118.561 20.9664C119.164 21.7358 129.775 35.4764 127.43 42.9865C127.43 42.9865 140.938 33.0595 130.361 17.3786C130.361 17.3786 144.288 27.8325 139.372 38.4955C139.372 38.4955 143.015 36.2793 145.636 32.2901C148.526 27.9245 150.201 21.4347 144.564 13.4145C144.564 13.4145 157.378 25.2232 154.128 32.3319C154.128 32.3319 157.972 32.2817 160.167 29.4801C160.167 30.6007 160.033 31.5708 159.874 32.3235C160.192 32.1144 168.29 26.5864 164.387 16.5423C164.387 16.5423 160.409 8.27952 151.717 6.08838C151.717 6.08838 124.608 -10.2197 101.887 12.4611C101.887 12.4611 87.0301 18.6331 90.8992 40.695C90.8992 40.695 93.8304 56.3675 105.655 68.3937C105.655 68.3937 110.044 73.5119 109.943 77.0746C109.943 77.0746 110.253 76.8823 110.68 76.4976C111.627 75.6445 113.142 73.8548 113.209 71.0783C112.305 70.7856 111.484 70.3925 110.831 69.9576C106.401 66.9636 97.4399 53.0892 107.23 50.8311C109.164 50.3879 111.024 51.6256 112.456 53.0641C112.456 53.0641 112.461 53.0669 112.473 53.0724C112.95 53.2732 118.276 55.5898 119.583 58.935C120.202 54.4273 119.038 45.3867 118.996 45.0438C128.2 38.2948 119.03 21.8111 118.561 20.9664Z" fill="#364551"/>
<path d="M159.715 66.3029C159.715 66.3029 148.961 67.5574 146.315 68.1177C146.315 68.1177 149.104 76.4808 155.242 75.0842C155.242 75.0842 157.897 75.2431 159.715 66.3029Z" fill="#FFC1C1"/>
<path d="M274.205 60.2731C273.259 61.7701 274.264 63.3758 274.264 63.3758C274.942 63.9362 277.547 64.3041 279.205 64.4881C280.026 64.5885 280.612 64.6303 280.612 64.6303C283.56 64.3125 287.605 59.4033 287.605 59.4033C288.861 57.3126 285.997 54.996 285.997 54.996C285.662 55.5479 285.193 56.1166 284.565 56.6184C284.565 56.6184 280.168 59.6124 278.703 60.3484C278.703 60.3484 276.307 60.708 274.205 60.2731Z" fill="#FFF4EE"/>
<path d="M272.606 58.3579C272.48 58.7259 272.355 59.1023 272.221 59.4702C272.765 59.8717 273.469 60.1226 274.206 60.2731C276.308 60.708 278.703 60.3484 278.703 60.3484C280.168 59.6124 284.565 56.6184 284.565 56.6184C285.193 56.1166 285.662 55.5479 285.997 54.996C286.86 53.6077 286.952 52.2947 286.952 52.2947C286.441 52.5038 285.922 52.6794 285.403 52.8132C283.585 53.2815 281.768 53.2648 279.959 53.6495C278.309 54.0008 276.71 55.1716 275.244 56.033C274.03 56.7439 273.041 57.0617 272.606 58.3579Z" fill="#FFF4EE"/>
<path d="M277.396 46.6496C276.626 47.3939 275.947 48.0797 275.562 48.548C276.349 48.4058 277.103 48.18 277.84 47.8789C279.733 47.1012 282.262 47.2182 284.666 47.3102C289.481 44.3079 285.193 40.8957 285.193 40.8957C284.037 40.0594 274.264 38.7464 274.264 38.7464C273.938 39.3318 273.678 39.934 273.569 40.5863C273.385 41.7404 273.636 43.045 273.259 44.1406L274.206 44.5588C274.206 44.5588 275.319 45.8718 277.396 46.6496Z" fill="#FFF4EE"/>
<path d="M267.606 72.7342C274.524 72.8596 279.205 64.4881 279.205 64.4881C277.547 64.3041 274.942 63.9361 274.264 63.3758C274.264 63.3758 273.259 61.7701 274.206 60.2731C273.469 60.1226 272.765 59.8717 272.221 59.4702C272.355 59.1023 272.48 58.7259 272.606 58.3579C273.041 57.0617 274.03 56.7439 275.244 56.033C276.71 55.1716 278.309 54.0007 279.959 53.6495C281.768 53.2648 283.585 53.2815 285.403 52.8132C285.922 52.6794 286.441 52.5037 286.952 52.2947C288.208 51.7762 289.372 51.0151 290.143 49.9112C290.545 49.3341 290.93 48.364 290.503 47.6949C289.992 46.8837 289.029 47.2015 288.225 47.2768C287.136 47.3855 285.922 47.3521 284.666 47.3102C282.262 47.2182 279.733 47.1012 277.84 47.8789C277.103 48.18 276.349 48.4058 275.562 48.5564C275.947 48.0797 276.626 47.3939 277.396 46.6496C275.319 45.8718 274.206 44.5588 274.206 44.5588L273.259 44.1406C273.636 43.045 273.385 41.7404 273.569 40.5863C273.678 39.934 273.938 39.3318 274.264 38.7464C274.8 37.8014 275.512 36.9149 276.081 35.9866C277.053 34.4059 278.117 32.934 279.306 31.4956C281.969 28.2674 285.654 26.2268 288.124 22.8146C288.995 21.6103 293.601 13.7406 289.481 13.8159C288.049 13.8494 286.5 16.1659 285.511 17.0692C284.222 18.24 282.857 19.4276 281.525 20.5148C280.051 21.7191 278.585 22.8063 277.028 23.9687C275.478 25.1229 274.348 26.6533 273.15 28.1503C270.278 31.7297 267.606 35.468 264.734 39.0475C262.02 42.4178 259.927 45.554 258.319 49.6017C256.652 53.7749 254.584 59.9386 252.85 64.07L251.887 65.5251L250.614 67.457C252.641 69.4893 255.32 71.5717 255.32 71.5717C259.7 74.6242 263.151 76.2049 265.63 77.0161L266.668 74.7831L267.606 72.7425V72.7342Z" fill="#FFF4EE"/>
<path d="M46.371 288.62C46.371 293.68 46.3626 298.664 47.3592 303.398C47.803 305.497 48.6154 307.404 48.607 309.67C48.607 311.844 48.6657 314.429 48.1883 316.494C47.6523 318.836 45.5168 320.484 44.9473 322.884C44.2354 325.878 46.907 325.476 48.5651 324.13C49.8716 323.076 51.6554 321.671 52.719 320.182C51.8732 321.78 48.2218 327.935 50.0391 329.424C51.0441 330.252 52.8698 328.721 54.5866 326.731C53.8161 327.843 51.9234 331.715 53.523 332.635C55.6167 333.839 58.1542 329.574 59.3602 328.378C61.0938 326.656 62.6766 324.916 64.1338 322.951C65.6496 320.91 65.8925 319.053 66.3615 316.636C66.8304 314.236 67.4837 311.769 67.9108 309.31C68.1285 312.38 69.6778 316.126 68.1118 318.836C66.6629 321.337 65.457 324.021 64.9378 326.814C64.787 327.609 64.5693 329.223 65.5994 329.641C66.7634 330.11 67.8689 328.32 68.43 327.509C69.8705 325.426 71.7213 323.578 73.0026 321.378C74.5017 318.811 73.5889 315.75 73.7312 312.873C73.8317 310.824 73.614 308.809 73.5889 306.743C73.5637 304.535 73.7312 302.361 73.1952 300.195C72.6006 297.803 71.3528 295.695 70.6242 293.362C69.9626 291.229 68.7901 289.306 68.2877 287.148C63.6397 288.352 54.4777 290.184 46.3877 288.536L46.371 288.62Z" fill="#FFF4EE"/>
<path d="M141.885 88.8415C142.328 86.1988 142.756 83.6731 142.756 83.6731C141.173 83.5728 139.674 83.3888 138.376 83.1881C134.188 82.5441 129.993 81.2478 126.19 79.3661C122.447 77.5095 121.015 74.2562 118.536 71.1117C117.028 71.8142 114.985 71.6469 113.21 71.0782C113.143 73.8548 111.627 75.6445 110.68 76.4976C110.99 77.8524 110.932 80.5871 110.831 82.5441C110.764 83.8404 110.68 84.8021 110.68 84.8021C117.489 89.728 134.766 94.219 134.766 94.219C137.027 94.7961 138.485 94.8797 139.406 94.7877C139.69 94.7626 139.925 94.7208 140.118 94.6623C140.771 94.4867 140.938 94.219 140.938 94.219C141.123 93.2322 141.516 90.9992 141.885 88.8415Z" fill="#FFF4EE"/>
<path d="M159.714 66.3029C157.897 75.2431 155.242 75.0842 155.242 75.0842C149.104 76.4809 146.315 68.1177 146.315 68.1177C148.961 67.5574 159.714 66.3029 159.714 66.3029ZM112.473 53.0725C112.473 53.0725 112.473 53.0641 112.456 53.0641C111.024 51.6256 109.165 50.3879 107.23 50.8311C97.4399 53.0892 106.401 66.9636 110.831 69.9576C111.484 70.3925 112.305 70.7856 113.21 71.0783C114.985 71.647 117.028 71.8142 118.536 71.1117C121.015 74.2563 122.447 77.5095 126.19 79.3661C129.992 81.2478 134.188 82.5441 138.376 83.1881C139.674 83.3888 141.173 83.5728 142.756 83.6731C148.015 84.016 154.154 83.439 156.8 79.4247C159.706 75.0257 160.736 69.598 161.105 64.4129C161.264 62.0712 161.188 60.5073 162.202 58.4332C163.265 56.2672 164.078 54.7618 162.269 52.6459C160.217 50.2624 158.852 47.8706 158.349 44.7093C157.788 41.2135 158.215 37.4501 159.363 34.1049C159.363 34.1049 159.639 33.4525 159.874 32.3235C160.033 31.5708 160.158 30.6007 160.167 29.4801C157.972 32.2817 154.128 32.3319 154.128 32.3319C157.378 25.2232 144.565 13.4145 144.565 13.4145C150.201 21.4347 148.526 27.9245 145.636 32.2901C143.015 36.2793 139.372 38.4955 139.372 38.4955C144.288 27.8325 130.361 17.3786 130.361 17.3786C140.938 33.0595 127.43 42.9865 127.43 42.9865C129.775 35.4764 119.164 21.7358 118.561 20.9664C119.03 21.8111 128.2 38.2948 118.996 45.0355C119.038 45.3867 120.202 54.4273 119.583 58.935C118.276 55.5898 112.95 53.2732 112.473 53.0725ZM135.964 58.8179C135.721 57.3209 138.535 55.6232 142.245 55.0294C145.955 54.4356 149.154 55.1632 149.397 56.6602C149.64 58.1572 146.826 59.8549 143.116 60.4487C139.406 61.0509 136.207 60.3149 135.964 58.8179ZM140.997 49.6937C140.762 48.1633 141.365 46.8085 142.337 46.6579C143.308 46.5158 144.28 47.6364 144.514 49.1669C144.74 50.6973 144.137 52.0521 143.166 52.2027C142.194 52.3449 141.223 51.2242 140.997 49.6937Z" fill="#FFF4EE"/>
<path d="M142.245 55.0294C138.535 55.6232 135.721 57.3209 135.964 58.8179C136.207 60.3149 139.406 61.0509 143.116 60.4487C146.826 59.855 149.64 58.1572 149.397 56.6602C149.154 55.1632 145.955 54.4357 142.245 55.0294Z" fill="#FFD6C0"/>
<path d="M142.337 46.6579C141.365 46.8084 140.762 48.1633 140.997 49.6937C141.223 51.2242 142.194 52.3448 143.166 52.2027C144.137 52.0521 144.74 50.6973 144.514 49.1669C144.28 47.6364 143.308 46.5157 142.337 46.6579Z" fill="#272525"/>
<path d="M118.536 71.1117C121.015 74.2562 122.447 77.5095 126.19 79.3661C129.992 81.2478 134.188 82.5441 138.376 83.1881C139.674 83.3888 141.173 83.5728 142.756 83.6731C148.015 84.016 154.154 83.439 156.8 79.4247C159.706 75.0257 160.736 69.598 161.105 64.4128C161.264 62.0712 161.188 60.5073 162.202 58.4332C163.265 56.2672 164.078 54.7618 162.269 52.6459C160.217 50.2624 158.852 47.8706 158.349 44.7093C157.788 41.2135 158.215 37.4501 159.363 34.1049C159.363 34.1049 159.639 33.4525 159.874 32.3235C160.033 31.5708 160.158 30.6007 160.167 29.48" stroke="#272525" stroke-linecap="round" stroke-linejoin="round"/>
<path d="M159.715 66.3029C159.715 66.3029 148.961 67.5574 146.315 68.1177C146.315 68.1177 149.104 76.4808 155.242 75.0842C155.242 75.0842 157.897 75.2431 159.715 66.3029Z" stroke="#272525" stroke-linecap="round" stroke-linejoin="round"/>
<path d="M112.456 53.0641C111.024 51.6256 109.165 50.3879 107.23 50.8311C97.4399 53.0892 106.401 66.9636 110.831 69.9576C111.484 70.3925 112.305 70.7856 113.21 71.0783C114.985 71.647 117.028 71.8142 118.536 71.1117" stroke="#272525" stroke-linecap="round" stroke-linejoin="round"/>
<path d="M115.085 56.4762C115.085 56.4762 114.047 54.6614 112.473 53.0724" stroke="#272525" stroke-linecap="round" stroke-linejoin="round"/>
<path d="M112.439 53.0557C112.439 53.0557 112.439 53.0557 112.456 53.0557C112.456 53.0557 112.461 53.0585 112.473 53.0641C112.95 53.2648 118.276 55.5814 119.583 58.9266" stroke="#272525" stroke-linecap="round" stroke-linejoin="round"/>
<path d="M118.536 20.9329C118.536 20.9329 118.536 20.9329 118.561 20.9664C119.164 21.7358 129.775 35.4764 127.43 42.9865C127.43 42.9865 140.938 33.0595 130.361 17.3786C130.361 17.3786 144.288 27.8325 139.372 38.4955C139.372 38.4955 143.015 36.2793 145.636 32.29C148.526 27.9245 150.201 21.4347 144.565 13.4145C144.347 13.0967 144.112 12.7789 143.869 12.4611" stroke="#272525" stroke-linecap="round" stroke-linejoin="round"/>
<path d="M118.997 45.0355C128.2 38.2948 119.03 21.811 118.561 20.9664" stroke="#272525" stroke-linecap="round" stroke-linejoin="round"/>
<path d="M110.061 16.1241C109.324 19.2603 112.439 26.369 112.439 26.369C118.586 39.3318 114.248 47.1681 114.248 47.1681C116.199 46.6747 117.765 45.9471 118.997 45.0439" stroke="#272525" stroke-linecap="round" stroke-linejoin="round"/>
<path d="M118.997 45.0355C119.038 45.3867 120.203 54.4273 119.583 58.935" stroke="#272525" stroke-linecap="round" stroke-linejoin="round"/>
<path d="M151.717 33.2686C151.717 33.2686 149.112 30.8349 145.636 32.2901C144.338 32.8253 142.923 33.9125 141.466 35.8779" stroke="#272525" stroke-linecap="round" stroke-linejoin="round"/>
<path d="M144.565 13.4145C144.565 13.4145 157.378 25.2232 154.128 32.3319C154.128 32.3319 157.972 32.2817 160.167 29.4801C161.339 27.9914 162.034 25.7334 161.456 22.2961C161.456 22.2961 159.363 13.2974 151.717 10.6881" stroke="#272525" stroke-linecap="round" stroke-linejoin="round"/>
<path d="M159.865 32.3319C160.183 32.1144 168.282 26.5864 164.379 16.5423C164.379 16.5423 160.401 8.27952 151.708 6.08838C151.708 6.08838 124.599 -10.2197 101.879 12.4611C101.879 12.4611 87.0218 18.6331 90.8909 40.695C90.8909 40.695 93.822 56.3675 105.647 68.3937C105.647 68.3937 110.036 73.5119 109.935 77.0746C109.935 77.0746 110.245 76.8823 110.672 76.4976C111.618 75.6445 113.134 73.8548 113.201 71.0783" stroke="#272525" stroke-linecap="round" stroke-linejoin="round"/>
<path d="M142.756 83.6732C142.756 83.6732 142.328 86.1988 141.885 88.8416C141.516 90.9993 141.123 93.2322 140.938 94.2191C140.938 94.2191 140.771 94.4867 140.118 94.6623C139.925 94.7209 139.69 94.7627 139.406 94.7878C138.485 94.8797 137.027 94.7878 134.766 94.2191C134.766 94.2191 117.489 89.7281 110.68 84.8022C110.161 84.4258 109.709 84.0495 109.324 83.6732" stroke="#272525" stroke-linecap="round" stroke-linejoin="round"/>
<path d="M110.68 84.8021C110.68 84.8021 110.764 83.8404 110.831 82.5441C110.932 80.5871 110.99 77.8524 110.68 76.4976" stroke="#272525" stroke-linecap="round" stroke-linejoin="round"/>
<path d="M162.386 185.72C162.955 188.196 163.374 190.546 163.617 192.728C163.617 192.728 165.292 204.152 165.292 210.843C165.292 210.843 165.275 211.295 165.233 212.139C165.116 214.372 164.815 219.332 164.195 225.788C164.002 227.762 163.785 229.877 163.533 232.102C162.696 239.344 161.498 247.691 159.781 255.937C159.781 255.937 157.587 265.705 155.159 275.59C154.639 277.706 154.103 279.83 153.584 281.863C152.043 287.834 150.578 293.036 149.673 295.035C149.673 295.035 109.684 291.355 87.2814 282.632C81.4358 280.357 76.7878 277.74 74.3591 274.754C74.3591 274.754 73.3458 273.575 73.2872 272.12C73.2872 271.952 73.2872 271.785 73.3123 271.618C73.3123 271.618 86.0838 228.13 86.7119 211.194C86.7119 211.194 87.1557 200.297 86.3015 194.56" stroke="#272525" stroke-linecap="round" stroke-linejoin="round"/>
<path d="M135.888 123.022C136.416 123.9 136.91 124.786 137.379 125.681C137.379 125.681 148.45 146.02 156.272 166.451C158.818 173.092 161.021 179.749 162.386 185.712" stroke="#272525" stroke-linecap="round" stroke-linejoin="round"/>
<path d="M135.311 122.068C132.698 121.232 115.086 121.6 115.086 121.6C113.829 118.991 98.5372 97.5643 98.5372 97.5643C99.5924 95.8917 103.88 89.7197 103.88 89.7197C103.88 89.7197 104.19 89.9455 104.76 90.3636C106.895 91.9694 112.632 96.4102 118.98 102.524C124.65 107.985 130.813 114.784 135.311 122.068ZM135.311 122.068C135.503 122.378 135.696 122.695 135.88 123.013" stroke="#272525" stroke-linecap="round" stroke-linejoin="round"/>
<path d="M110.831 82.5441C110.831 82.5441 108.838 82.3016 107.507 83.6732C107.507 83.6732 105.488 89.3434 104.76 90.3637" stroke="#272525" stroke-linecap="round" stroke-linejoin="round"/>
<path d="M139.406 94.7877C139.406 94.7877 137.63 106.12 136.676 111.464C136.508 112.392 136.366 113.145 136.265 113.621C136.265 113.621 121.785 104.547 118.98 102.524C118.963 102.507 118.955 102.499 118.938 102.49" stroke="#272525" stroke-linecap="round" stroke-linejoin="round"/>
<path d="M140.118 94.6623C140.118 94.6623 143.041 105.35 144.297 110.611C144.59 111.84 144.799 112.768 144.849 113.203C144.849 113.203 146.097 108.06 145.896 102.005C145.838 100.098 145.628 98.0912 145.193 96.1342C145.193 96.1342 144.531 94.1856 143.727 92.2621C143.124 90.832 142.438 89.4186 141.885 88.8416" stroke="#272525" stroke-linecap="round" stroke-linejoin="round"/>
<path d="M143.727 92.2621C143.727 92.2621 156.08 107.282 157.621 111.74L152.47 118.547L150.226 121.525" stroke="#272525" stroke-linecap="round" stroke-linejoin="round"/>
<path d="M145.896 102.005C145.896 102.005 147.873 109.883 149.631 118.547C149.832 119.534 150.033 120.529 150.226 121.525C150.636 123.641 151.013 125.756 151.34 127.772C151.34 127.772 155.661 152.167 155.661 159.694C155.661 159.694 155.51 164.436 156.272 166.451" stroke="#272525" stroke-linecap="round" stroke-linejoin="round"/>
<path d="M160.828 194.535C160.828 194.535 135.143 153.84 115.186 138.084C115.186 138.084 114.206 135.207 123.284 121.525" stroke="#272525" stroke-linecap="round" stroke-linejoin="round"/>
<path d="M149.48 128.826C149.296 131.569 148.953 133.877 148.308 134.228L142.32 128.826L135.888 123.022H135.88" stroke="#272525" stroke-linecap="round" stroke-linejoin="round"/>
<path d="M149.631 118.547C149.631 118.547 149.782 124.243 149.481 128.776" stroke="#272525" stroke-linecap="round" stroke-linejoin="round"/>
<path d="M136.676 111.464L140.118 114.391L142.32 128.826" stroke="#272525" stroke-linecap="round" stroke-linejoin="round"/>
<path d="M144.297 110.611L143.727 114.249C143.727 114.249 149.48 127.003 149.48 128.775V128.826" stroke="#272525" stroke-linecap="round" stroke-linejoin="round"/>
<path d="M152.47 118.547C152.47 118.547 162.353 123.448 163.333 125.121C163.333 125.121 162.964 177.424 162.386 185.712" stroke="#272525" stroke-linecap="round" stroke-linejoin="round"/>
<path d="M143.727 92.2621C147.822 93.0733 152.831 93.4664 157.093 94.4532C157.654 94.5787 158.207 94.7208 158.735 94.8714C163.743 96.3266 168.064 99.0446 172.277 102.022C173.014 102.549 173.935 103.285 174.789 103.385C176.02 103.527 176.447 102.959 177.678 103.837C178.675 104.539 179.236 105.334 180.4 105.861C181.615 106.396 182.854 106.772 184.11 107.182C190.76 109.365 197.501 111.556 204.268 113.663C206.228 114.274 208.129 114.993 210.097 115.612C211.37 116.005 215.758 117.251 216.805 117.803" stroke="#272525" stroke-linecap="round" stroke-linejoin="round"/>
<path d="M157.093 94.4532C157.093 94.4532 163.064 107.391 165.125 124.912C165.25 125.94 165.359 126.986 165.451 128.048C165.451 128.048 166.398 136.654 167.093 147.3C167.52 153.957 167.863 161.408 167.804 168.057C167.804 168.057 167.386 197.186 166.414 209.17C166.414 209.17 166.331 209.095 166.171 212.164C166.121 213.143 166.063 214.431 165.996 216.145C165.996 216.145 166.649 227.502 167.093 233.566" stroke="#272525" stroke-linecap="round" stroke-linejoin="round"/>
<path d="M174.504 106.889C174.504 106.889 173.516 129.62 168.391 144.038C167.989 145.184 167.553 146.28 167.093 147.3" stroke="#272525" stroke-linecap="round" stroke-linejoin="round"/>
<path d="M271.232 83.6731C271.232 83.6731 269.583 84.0411 266.727 83.6731C263.645 83.2801 259.148 82.0339 253.788 78.5632C253.788 78.5632 247.607 74.1057 244.869 70.9695C244.123 70.1081 243.629 69.3471 243.596 68.8035C243.596 68.8035 222.659 108.804 218.338 114.659C218.338 114.659 217.659 115.863 216.805 117.795C215.465 120.814 213.706 125.589 213.447 130.272" stroke="#272525" stroke-linecap="round" stroke-linejoin="round"/>
<path d="M168.382 144.038C169.111 144.164 214.879 152.176 220.423 152.719C220.423 152.719 228.513 155.228 238.705 138.92C238.705 138.92 270.671 84.8022 271.224 83.6731C271.224 83.6731 272.497 82.0841 269.197 79.6003" stroke="#272525" stroke-linecap="round" stroke-linejoin="round"/>
<path d="M250.614 67.4654C252.641 69.4893 255.32 71.5717 255.32 71.5717C259.7 74.6242 263.151 76.2049 265.63 77.0161C268.687 78.028 270.261 77.8691 270.261 77.8691L269.206 79.6003L266.727 83.6731" stroke="#272525" stroke-linecap="round" stroke-linejoin="round"/>
<path d="M244.869 70.9779L246.703 67.4737L248.487 64.0699C248.143 64.6972 249.224 66.0604 250.614 67.457" stroke="#272525" stroke-linecap="round" stroke-linejoin="round"/>
<path d="M243.596 68.8119C243.596 68.8119 244.015 66.7629 246.703 67.4738" stroke="#272525" stroke-linecap="round" stroke-linejoin="round"/>
<path d="M268.125 46.0223C269.499 47.7117 270.646 48.6233 272.84 48.7404C273.77 48.7905 274.683 48.7236 275.562 48.5564C276.349 48.4058 277.103 48.18 277.84 47.879C279.733 47.1012 282.262 47.2183 284.666 47.3103C285.922 47.3521 287.136 47.3855 288.225 47.2768C289.029 47.2015 289.992 46.8837 290.503 47.695C290.93 48.364 290.545 49.3341 290.143 49.9112C289.372 51.0151 288.208 51.7762 286.952 52.2947C286.441 52.5038 285.922 52.6794 285.403 52.8132C283.585 53.2815 281.768 53.2648 279.959 53.6495C278.309 54.0008 276.71 55.1716 275.244 56.033C274.03 56.7439 273.041 57.0617 272.606 58.358C272.48 58.7259 272.355 59.1023 272.221 59.4703C271.902 60.3567 271.576 61.2349 271.274 62.1214C270.797 63.4929 270.253 64.7558 269.357 65.8764C268.821 66.5622 266.668 68.0425 266.668 68.7115" stroke="#272525" stroke-linecap="round" stroke-linejoin="round"/>
<path d="M273.259 44.1406C273.636 43.045 273.385 41.7404 273.569 40.5863C273.678 39.934 273.938 39.3318 274.264 38.7464C274.8 37.8014 275.512 36.9149 276.081 35.9866C277.053 34.4059 278.117 32.934 279.306 31.4956C281.969 28.2674 285.654 26.2268 288.124 22.8146C288.995 21.6103 293.601 13.7406 289.481 13.8159C288.049 13.8494 286.5 16.1659 285.511 17.0692C284.222 18.24 282.857 19.4276 281.525 20.5148C280.051 21.7191 278.585 22.8063 277.028 23.9687C275.478 25.1229 274.348 26.6533 273.15 28.1503C270.278 31.7297 267.606 35.468 264.734 39.0475C262.02 42.4178 259.927 45.554 258.319 49.6017C256.652 53.7749 254.584 59.9386 252.85 64.07L251.887 65.5251L250.614 67.457" stroke="#272525" stroke-linecap="round" stroke-linejoin="round"/>
<path d="M274.264 38.7464C274.264 38.7464 284.037 40.0594 285.193 40.8957C285.193 40.8957 289.481 44.3079 284.666 47.3102" stroke="#272525" stroke-linecap="round" stroke-linejoin="round"/>
<path d="M277.396 46.6495C276.626 47.3939 275.947 48.0796 275.562 48.548" stroke="#272525" stroke-linecap="round" stroke-linejoin="round"/>
<path d="M281.843 42.5851C281.843 42.5851 279.331 44.7846 277.405 46.6496" stroke="#272525" stroke-linecap="round" stroke-linejoin="round"/>
<path d="M274.205 44.5588C274.205 44.5588 275.319 45.8718 277.396 46.6496H277.405" stroke="#272525" stroke-linecap="round" stroke-linejoin="round"/>
<path d="M286.952 52.2947C286.952 52.2947 286.86 53.6077 285.997 54.996C285.662 55.5479 285.193 56.1166 284.565 56.6184C284.565 56.6184 280.168 59.6124 278.703 60.3484C278.703 60.3484 276.308 60.708 274.206 60.2731C273.469 60.1226 272.765 59.8717 272.221 59.4702" stroke="#272525" stroke-linecap="round" stroke-linejoin="round"/>
<path d="M285.997 54.996C285.997 54.996 288.861 57.3126 287.605 59.4033C287.605 59.4033 283.56 64.3125 280.612 64.6303C280.612 64.6303 280.026 64.5885 279.205 64.4881C277.547 64.3041 274.942 63.9362 274.264 63.3758C274.264 63.3758 273.259 61.7701 274.205 60.2731" stroke="#272525" stroke-linecap="round" stroke-linejoin="round"/>
<path d="M279.205 64.4882C279.205 64.4882 274.524 72.8597 267.606 72.7342C267.305 72.7342 266.987 72.7175 266.668 72.6757" stroke="#272525" stroke-linecap="round" stroke-linejoin="round"/>
<path d="M267.606 72.7426L266.668 74.7832L265.63 77.0161" stroke="#272525" stroke-linecap="round" stroke-linejoin="round"/>
<path d="M270.261 77.8691C270.261 77.8691 271.584 77.5095 266.668 74.7831" stroke="#272525" stroke-linecap="round" stroke-linejoin="round"/>
<path d="M248.487 64.07C248.487 64.07 248.838 63.4929 251.887 65.5252" stroke="#272525" stroke-linecap="round" stroke-linejoin="round"/>
<path d="M164.195 225.788C164.195 225.788 168.927 272.872 165.292 289.808" stroke="#272525" stroke-linecap="round" stroke-linejoin="round"/>
<path d="M163.534 232.102C163.534 232.102 165.753 265.555 162.453 272.872L159.572 275.59H155.159" stroke="#272525" stroke-linecap="round" stroke-linejoin="round"/>
<path d="M158.735 275.59C158.735 275.59 157.621 289.088 157.621 291.179" stroke="#272525" stroke-linecap="round" stroke-linejoin="round"/>
<path d="M153.584 281.863C154.941 284.965 156.281 288.068 157.621 291.179C158.936 294.232 160.242 297.293 161.532 300.345C164.153 306.509 166.733 312.681 169.304 318.853C178.131 340.07 186.011 361.622 194.436 382.965C195.625 385.967 196.12 389.178 197.049 392.264C198.238 396.195 199.402 400.067 200.357 404.014C201.262 407.786 202.007 411.658 202.861 415.464C209.645 445.655 223.111 466.955 238.018 501.328C238.018 501.328 235.732 503.151 231.938 505.585C226.084 509.34 216.638 514.533 206.412 516.658C202.442 517.485 198.364 517.853 194.327 517.494" stroke="#272525" stroke-linecap="round" stroke-linejoin="round"/>
<path d="M161.54 300.345C161.54 300.345 164.153 297.418 166.607 290.217C168.851 283.627 170.962 273.449 170.794 258.655C170.794 258.655 168.709 221.966 166.414 209.17" stroke="#272525" stroke-linecap="round" stroke-linejoin="round"/>
<path d="M151.214 387.857C149.899 384.947 148.132 382.128 146.566 379.527C141.927 371.816 136.332 364.699 131.935 356.83C131.45 355.96 130.956 355.09 130.462 354.229C118.729 333.706 104.776 314.588 93.2526 293.956C91.1757 290.242 89.1741 286.471 87.2814 282.632" stroke="#272525" stroke-linecap="round" stroke-linejoin="round"/>
<path d="M194.327 517.494C190.483 498.961 182.687 481.039 175.065 463.644C170.627 453.516 166.532 443.731 163.86 433.001C162.554 427.724 162.721 422.07 160.854 416.919C159.087 412.06 154.506 409.066 152.772 404.282C151.332 400.31 153.76 396.061 152.688 391.938C152.345 390.592 151.842 389.254 151.256 387.932" stroke="#272525" stroke-linecap="round" stroke-linejoin="round"/>
<path d="M158.735 402.71C158.735 402.71 152.998 391.353 151.256 387.932C151.239 387.907 151.222 387.882 151.214 387.857" stroke="#272525" stroke-linecap="round" stroke-linejoin="round"/>
<path d="M130.462 354.229C124.072 371.616 116.467 387.263 107.23 403.287C90.9329 431.554 77.1816 461.185 62.7268 490.406C59.4272 497.088 54.7038 507.617 50.4243 513.588C50.4243 513.588 47.5853 512.852 43.2975 511.38C36.3213 508.989 25.5346 504.665 16.9924 498.434C14.8401 496.879 12.8302 495.189 11.0631 493.383" stroke="#272525" stroke-linecap="round" stroke-linejoin="round"/>
<path d="M11.063 493.383C11.599 492.254 13.4498 489.603 14.1533 488.549C23.5749 474.415 30.6767 458.969 37.3011 443.162C41.321 433.57 46.2537 424.329 51.5381 415.363C55.3403 408.899 60.5829 403.437 64.8875 397.324C66.8472 394.556 68.2122 392.632 68.8738 389.329C69.4517 386.452 68.9408 383.642 70.8921 381.15C74.242 376.893 77.1732 374.384 79.0994 369.115C80.364 365.653 81.2182 362.015 82.0808 358.444C84.275 349.361 85.9667 340.162 87.5579 330.971C89.6934 318.669 91.5861 306.325 93.2527 293.956" stroke="#272525" stroke-linecap="round" stroke-linejoin="round"/>
<path d="M70.7581 276.736L71.3611 286.253C71.3611 286.253 70.2054 286.646 68.2876 287.14C63.6396 288.352 54.4776 290.184 46.3876 288.536C44.6373 288.185 42.9372 287.667 41.346 286.947L40.5505 277.246" stroke="#272525" stroke-linecap="round" stroke-linejoin="round"/>
<path d="M52.7356 320.149C52.9366 319.873 53.1125 319.589 53.2464 319.313C54.1342 317.523 54.2682 314.905 54.6032 312.873C54.846 311.368 54.9214 309.118 55.583 307.855" stroke="#272525" stroke-linecap="round" stroke-linejoin="round"/>
<path d="M46.3709 288.62C46.3709 293.68 46.3626 298.664 47.3591 303.398C47.803 305.497 48.6154 307.404 48.607 309.67C48.607 311.844 48.6656 314.429 48.1883 316.494C47.6523 318.836 45.5167 320.484 44.9472 322.884C44.2354 325.878 46.9069 325.476 48.5651 324.13C49.8716 323.076 51.6554 321.671 52.719 320.182" stroke="#272525" stroke-linecap="round" stroke-linejoin="round"/>
<path d="M68.2876 306.601C68.2039 307.504 68.0698 308.407 67.9107 309.31C67.4836 311.769 66.8304 314.236 66.3614 316.636C65.8924 319.053 65.6495 320.91 64.1337 322.951C62.6765 324.916 61.0937 326.656 59.3601 328.378C58.1542 329.574 55.6166 333.839 53.5229 332.635C51.9234 331.715 53.816 327.843 54.5865 326.731" stroke="#272525" stroke-linecap="round" stroke-linejoin="round"/>
<path d="M68.2877 287.148C68.7901 289.306 69.9626 291.229 70.6242 293.362C71.3528 295.695 72.6006 297.803 73.1952 300.195C73.7312 302.361 73.5637 304.535 73.5889 306.743C73.614 308.809 73.8317 310.824 73.7312 312.873C73.5889 315.75 74.5017 318.811 73.0026 321.378C71.7213 323.578 69.8705 325.426 68.43 327.509C67.8689 328.32 66.7634 330.11 65.5994 329.641C64.5693 329.223 64.787 327.609 64.9378 326.814C65.457 324.021 66.6629 321.337 68.1118 318.836C69.6778 316.126 68.1285 312.38 67.9108 309.31" stroke="#272525" stroke-linecap="round" stroke-linejoin="round"/>
<path d="M62.2827 307.579C60.8339 311.97 60.6664 317.03 58.556 321.136C58.1205 321.989 56.4204 324.615 54.5863 326.731C52.8695 328.721 51.0438 330.252 50.0389 329.424C48.2215 327.935 51.8729 321.78 52.7188 320.182C52.7188 320.174 52.7188 320.157 52.7355 320.149" stroke="#272525" stroke-linecap="round" stroke-linejoin="round"/>
<path d="M72.3745 276.117C72.3745 276.117 71.805 276.368 70.7582 276.736C66.4536 278.266 54.0925 281.729 40.5505 277.246C39.5456 276.92 38.5322 276.544 37.5105 276.117" stroke="#272525" stroke-linecap="round" stroke-linejoin="round"/>
<path d="M75.6154 113.203C75.6154 113.203 85.2463 111.246 88.8056 119.718C88.8056 119.718 97.8085 147.935 94.8773 158.03C90.9328 166.385 86.9883 174.748 83.0271 183.094C80.8077 187.777 78.5801 192.461 76.344 197.136C75.3558 199.185 73.8232 201.635 73.0192 204.06C72.6843 205.056 72.4749 206.051 72.4749 207.013C72.4749 208.426 73.3291 209.664 73.103 211.194C72.902 212.557 71.8384 213.544 71.2689 214.799C69.4265 218.863 69.8536 224.048 69.8452 228.405C69.8452 233.683 70.1048 238.96 70.465 244.22C71.0847 253.428 72.0813 262.862 72.3241 272.145C72.3576 273.474 72.3744 274.796 72.3744 276.117" stroke="#272525" stroke-linecap="round" stroke-linejoin="round"/>
<path d="M98.5371 97.5643C98.5371 97.5643 80.6403 106.446 77.4998 109.373C76.0845 110.694 74.7863 112.133 73.5804 113.647C72.8602 114.558 72.1651 115.495 71.5119 116.448C69.6694 119.141 68.0782 122.01 66.8052 125.012C65.3229 128.5 64.9125 132.246 63.4805 135.725C62.643 137.741 61.37 138.46 59.9714 139.949C57.191 142.918 59.5779 148.354 58.1876 152.075C57.8778 152.903 57.5595 153.714 57.2413 154.542C56.5546 156.332 55.9013 158.122 55.2565 159.92C53.5397 164.687 51.9233 169.462 50.0725 174.179C45.3241 186.297 40.1652 198.215 38.775 211.253C38.2139 216.563 38.1385 221.874 38.1385 227.293V248.201C38.1385 256.238 37.1168 268.139 37.5104 276.117" stroke="#272525" stroke-linecap="round" stroke-linejoin="round"/>
<path d="M66.4702 218.37L73.0193 204.06" stroke="#272525" stroke-linecap="round" stroke-linejoin="round"/>
<path d="M83.027 183.086C83.1024 183.345 84.501 188.045 86.3015 194.56C89.7687 207.105 94.7098 226.382 94.5255 233.566" stroke="#272525" stroke-linecap="round" stroke-linejoin="round"/>
<path d="M211.336 527.287C210.901 527.354 210.532 527.429 210.239 527.53C209.913 527.638 214.46 540.451 214.762 541.237C216.261 545.151 217.911 549.023 219.895 552.728C220.163 553.229 220.515 554.041 220.925 554.877C221.528 556.123 222.257 557.419 223.027 557.829C224.56 558.657 227.148 557.185 228.664 556.433C230.498 555.529 232.332 554.576 234.158 553.664C237.926 551.783 241.82 550.16 245.832 549.056C253.914 546.84 262.196 546.062 269.909 542.207C276.358 538.987 282.773 535.567 288.635 531.343C290.168 530.239 291.658 529.077 293.082 527.847C294.858 526.309 294.874 526.192 294.062 524.051C293.752 523.223 293.434 522.395 293.091 521.583C292.278 519.643 291.282 517.803 289.757 516.298C286.525 513.12 282.94 512.727 278.703 513.572C276.835 513.94 275.596 514.617 273.678 514.358C271.869 514.115 271.082 514.123 269.273 514.575C268.243 514.826 267.213 515.018 266.157 515.144C263.72 515.453 261.2 515.445 258.603 515.186C256.602 514.985 254.516 514.776 252.398 514.525C248.972 514.115 245.489 513.588 242.164 512.794C239.936 512.267 237.784 511.615 235.782 510.803C235.782 510.803 235.397 511.138 234.786 511.757C232.441 514.09 226.729 520.421 225.733 527.53C225.733 527.53 215.566 526.668 211.336 527.287Z" stroke="#272525" stroke-linecap="round" stroke-linejoin="round"/>
<path d="M293.091 521.583C293.091 521.583 275.705 535.751 258.67 541.187C258.67 541.187 248.202 544.398 242.624 546.204C238.102 547.676 233.881 549.884 229.644 551.992C227.784 552.92 223.053 556.182 220.926 554.877" stroke="#272525" stroke-linecap="round" stroke-linejoin="round"/>
<path d="M231.938 505.585C231.938 505.585 233.638 510.477 234.786 511.757" stroke="#272525" stroke-linecap="round" stroke-linejoin="round"/>
<path d="M206.412 516.658C206.412 516.658 210.348 523.984 211.336 527.287" stroke="#272525" stroke-linecap="round" stroke-linejoin="round"/>
<path d="M0.4186 525.623C0.4186 526.459 2.84728 527.973 3.802 528.792C5.24245 530.022 7.10163 530.825 8.65934 531.987C12.7378 535.04 16.3976 538.285 19.9652 541.889C26.129 548.12 32.6111 554.292 41.3208 556.767C47.1664 558.431 53.4223 558.741 59.4605 558.507C62.0399 558.406 64.6277 558.54 67.1987 558.406C68.8485 558.314 72.2403 558.39 73.396 557.043C74.2251 556.081 74.4764 554.543 74.4094 552.878C74.2921 550.16 73.3123 547.083 72.5167 545.502C70.5737 541.672 65.7667 539.832 62.1823 537.841C60.298 536.796 57.7604 536.344 56.7052 534.638C55.9682 533.451 55.9766 533.442 54.6366 532.932C53.6987 532.573 52.7774 532.104 51.9986 531.427C50.7173 530.315 49.7877 528.826 48.9753 527.287C48.4896 526.35 48.0457 525.397 47.5935 524.494C46.7644 522.838 46.0107 521.215 45.3574 519.476C44.7879 517.945 44.5283 515.922 43.7243 514.567C43.7243 514.567 43.314 514.374 42.2923 514.199C40.5671 513.914 37.0999 513.689 30.8775 514.567C30.8775 514.567 21.0791 504.422 15.7946 500.776C15.401 500.5 15.0241 500.266 14.6892 500.073" stroke="#272525" stroke-linecap="round" stroke-linejoin="round"/>
<path d="M14.6892 500.073C9.94073 505.459 5.46862 513.998 2.19409 521.425C1.55761 522.88 0.963013 524.285 0.418655 525.623" stroke="#272525" stroke-linecap="round" stroke-linejoin="round"/>
<path d="M74.4011 552.878C74.4011 552.878 56.7053 556.382 43.021 551.507C43.021 551.507 35.6261 548.437 26.4139 540.768C26.4139 540.768 18.1815 533.242 13.5754 530.181C13.5754 530.181 3.38338 523.549 2.19417 521.424" stroke="#272525" stroke-linecap="round" stroke-linejoin="round"/>
<path d="M43.2974 511.38C43.2974 511.38 42.1249 513.404 42.2924 514.199" stroke="#272525" stroke-linecap="round" stroke-linejoin="round"/>
<path d="M16.9922 498.434L15.7946 500.776" stroke="#272525" stroke-linecap="round" stroke-linejoin="round"/>
<path d="M266.157 515.144C266.157 515.144 264.256 519.25 264.256 525.623" stroke="#272525" stroke-linecap="round" stroke-linejoin="round"/>
<path d="M252.398 514.525C252.398 514.525 250.58 520.647 251.133 525.623" stroke="#272525" stroke-linecap="round" stroke-linejoin="round"/>
<path d="M242.164 512.794C242.164 512.794 239.132 520.086 240.246 525.623" stroke="#272525" stroke-linecap="round" stroke-linejoin="round"/>
<path d="M45.3574 519.476C45.3574 519.476 38.6995 518.949 34.2274 521.425" stroke="#272525" stroke-linecap="round" stroke-linejoin="round"/>
<path d="M48.9839 527.287H48.9755C48.7243 527.312 43.8921 527.814 38.2977 529.319" stroke="#272525" stroke-linecap="round" stroke-linejoin="round"/>
<path d="M56.7053 534.638C56.7053 534.638 48.1129 536.286 45.3576 537.758" stroke="#272525" stroke-linecap="round" stroke-linejoin="round"/>
</g>
<defs>
<clipPath id="clip0_451_2305">
<rect width="295" height="559" fill="white" transform="matrix(-1 0 0 1 295 0)"/>
</clipPath>
</defs>
</svg>
