<svg width="320" height="559" viewBox="0 0 320 559" fill="none" xmlns="http://www.w3.org/2000/svg">
<g clip-path="url(#clip0_451_2305)">
<path d="M172.059 13.8432C175.857 18.4916 178.22 24.6696 179.206 27.5929C179.8 27.4569 180.387 27.4569 180.948 27.7034C181.364 27.1085 181.721 26.5052 182.035 25.9018C185.18 19.8512 183.981 13.5542 183.981 13.5542C182.426 3.6456 159.907 1.09621 159.907 1.09621C159.907 1.09621 138.662 -3.15278 124.64 9.73016C121.674 12.458 118.309 14.2426 115.87 17.5568C113.338 20.9985 111.417 25.0095 110.89 29.284C109.82 37.867 112.709 49.5262 119.754 55.1859C121.037 53.4523 122.991 52.373 125.49 52.9339C129.314 53.7837 133.138 59.1629 133.138 59.1629C132.569 56.3331 133.138 41.742 133.138 41.742C143.191 35.2241 150.703 18.942 150.703 18.942C149.429 24.6016 148.859 34.2383 148.859 34.2383C159.482 30.5502 163.875 17.0979 163.875 17.0979C168.685 23.7518 165.855 33.2441 165.855 33.2441C176.622 27.8648 172.059 13.8432 172.059 13.8432Z" fill="#7A6347"/>
<path d="M146.871 116.439C147.075 117.068 147.262 117.714 147.44 118.368C148.842 123.212 149.939 128.133 151.026 133.061C152.76 140.879 154.426 148.74 155.148 156.72C155.887 164.895 155.624 173.112 154.952 181.287C154.579 185.927 154.052 190.55 153.482 195.173C152.709 201.504 151.749 207.801 150.466 214.047C149.871 216.919 149.216 219.783 148.434 222.605C148.434 222.605 142.197 249.39 137.668 268.256C141.05 267.55 161.708 268.213 161.708 268.213C166.918 268.74 167.342 269.488 167.342 269.488C167.47 269.148 167.597 268.783 167.742 268.426C168.609 266.293 170.036 264.423 170.767 262.265C171.804 259.214 171.099 255.73 170.946 252.577C170.682 246.875 170.657 241.071 170.946 235.394C171.082 232.811 171.031 230.236 170.946 227.661C170.92 226.828 170.903 225.995 170.895 225.162C170.861 223.837 170.852 222.511 170.852 221.177C170.861 212.738 170.852 204.291 170.852 195.844C170.852 190.227 170.852 184.602 170.852 178.984V177.922C171.056 163.476 168.439 134.684 168.439 134.684C168.439 135.22 168.439 135.755 168.405 136.282C168.405 136.282 166.365 138.237 158.479 128.481C157.374 127.104 156.151 125.507 154.808 123.646C154.808 123.646 151.927 119.405 148.817 114.782C145.545 109.921 142.01 104.644 141.305 103.463C143.387 107.126 145.341 111.434 146.871 116.439Z" fill="#D8D8D8"/>
<path d="M162.031 67.9413C162.031 67.9413 164.436 78.5638 170.954 76.7282C170.954 76.7282 175.773 75.5895 176.622 64.967C176.622 64.967 164.011 67.236 162.031 67.9413Z" fill="#FFC1C1"/>
<path d="M158.139 98.2537C158.139 98.2537 154.986 102.97 152.318 107.576L159.193 115.776C159.193 115.776 158.335 123.96 158.479 128.472C166.365 138.237 168.405 136.282 168.405 136.282C168.43 135.755 168.439 135.22 168.439 134.685C168.422 125.456 165.006 115.675 165.006 115.675V109.938C164.793 104.729 158.139 98.2537 158.139 98.2537Z" fill="#76BEC9"/>
<path d="M204.98 250.767C215.577 243.476 218.713 232.165 219.614 227.024C219.911 225.332 219.962 224.304 219.962 224.304C219.962 224.304 195.454 207.597 185.256 196.83C185.256 196.83 173.716 185.783 170.852 178.984C170.852 184.602 170.852 190.227 170.852 195.844C170.852 204.291 170.861 212.738 170.852 221.177C170.852 222.511 170.861 223.837 170.895 225.162C177.081 234.085 202.669 252.212 202.669 252.212C203.476 251.753 204.241 251.268 204.971 250.767H204.98Z" fill="#76BEC9"/>
<path d="M99.2905 188.851C109.701 172.738 126.195 146.267 126.195 146.267C130.308 132.951 120.391 118.649 120.391 118.649C110.899 108.026 101.84 113.125 101.84 113.125L100.064 113.202C97.6589 117.977 91.8293 130.045 85.9742 145.987C85.9742 145.987 69.2586 186.777 68.1284 190.312C68.1284 190.312 51.8378 241.3 50.1382 248.523C50.1382 248.523 50.7246 249.484 52.2712 250.758C55.5344 253.452 63.0721 257.548 78.4705 257.03C79.4307 257.004 80.425 256.953 81.4448 256.885C83.4333 248.719 85.4728 240.569 87.5548 232.428C89.0759 226.471 90.6226 220.523 92.2627 214.599C93.4184 210.418 94.3277 205.073 96.7836 201.47C97.3275 200.671 97.9308 199.915 98.4407 199.099C99.8004 196.898 99.2905 191.391 99.2905 188.851Z" fill="#76BEC9"/>
<path d="M126.34 86.501C126.34 86.501 123.136 89.2713 119.983 92.0841C128.498 98.0327 133.563 122.048 133.563 122.048L143.761 120.348L146.871 116.439C145.341 111.434 143.387 107.126 141.305 103.463C134.532 91.5743 126.34 86.501 126.34 86.501Z" fill="#76BEC9"/>
<path d="M94.9566 277.561C115.819 285.269 133.138 286.203 133.138 286.203C133.605 284.895 135.433 277.536 137.667 268.256C142.197 249.39 148.434 222.605 148.434 222.605C149.216 219.783 149.871 216.919 150.465 214.047C151.749 207.801 152.709 201.504 153.482 195.173C154.052 190.55 154.578 185.927 154.952 181.287C155.624 173.112 155.887 164.895 155.148 156.72C154.425 148.74 152.76 140.88 151.026 133.061C149.939 128.133 148.842 123.212 147.44 118.368C147.262 117.714 147.075 117.068 146.871 116.439L143.761 120.348L133.563 122.048C133.563 122.048 128.498 98.0327 119.983 92.0841C118.352 93.5458 116.728 95.0159 115.573 96.1291C115.573 96.1291 102.639 107.414 101.22 110.958C101.22 110.958 100.803 111.74 100.064 113.202L101.84 113.125C101.84 113.125 110.899 108.026 120.391 118.649C120.391 118.649 130.308 132.951 126.195 146.267C126.195 146.267 109.701 172.738 99.2906 188.851C99.2906 191.391 99.8005 196.898 98.4408 199.099C97.9309 199.915 97.3275 200.671 96.7837 201.47C94.3278 205.073 93.4185 210.418 92.2628 214.599C90.6227 220.523 89.076 226.471 87.5549 232.428C85.4729 240.569 83.4334 248.719 81.4448 256.885C80.4251 256.953 79.4308 257.004 78.4705 257.03L76.346 263.964C76.346 263.964 75.0713 264.177 73.0233 264.287C73.0233 264.287 72.9129 265.341 72.7429 266.947C80.1956 271.451 87.7843 274.901 94.9566 277.561Z" fill="#76BEC9"/>
<path d="M152.318 107.576C150.703 110.38 149.259 113.142 148.817 114.782C151.927 119.405 154.808 123.646 154.808 123.646C156.151 125.507 157.374 127.104 158.479 128.472C158.335 123.96 159.193 115.776 159.193 115.776L152.318 107.576Z" fill="white"/>
<path d="M158.139 98.2536C158.139 98.2536 164.793 104.729 165.005 109.938C166.365 99.4603 162.329 89.8831 162.218 89.6282C162.108 90.529 162.031 91.1748 162.031 91.1748C162.031 92.4495 158.139 98.2536 158.139 98.2536Z" fill="white"/>
<path d="M130.589 81.6826C130.589 81.6826 127.759 84.3764 126.34 86.5009C126.34 86.5009 134.532 91.5742 141.305 103.463C142.01 104.644 145.545 109.921 148.817 114.782C149.259 113.142 150.703 110.38 152.318 107.576C154.986 102.97 158.139 98.2536 158.139 98.2536C156.788 97.1234 130.589 81.6826 130.589 81.6826Z" fill="white"/>
<path d="M53.7753 260.004C60.3528 264.245 68.5363 264.525 73.0233 264.287C75.0713 264.177 76.346 263.964 76.346 263.964L78.4705 257.03C63.0721 257.548 55.5344 253.452 52.2712 250.767L50.1382 257.03C51.2599 258.186 52.4921 259.171 53.7753 260.004Z" fill="white"/>
<path d="M204.98 250.767L209.9 255.237C211.863 253.869 213.58 252.347 215.084 250.758C220.71 244.835 223.395 237.935 224.491 234.366C224.95 232.862 225.129 231.952 225.129 231.952L219.613 227.023C218.713 232.165 215.577 243.476 204.98 250.767Z" fill="white"/>
<path d="M40.0935 503.82C43.8411 504.16 46.1781 504.032 46.1781 504.032C46.1016 503.378 48.2261 498.789 48.9399 496.953C55.2029 480.748 61.8569 464.61 68.2049 448.438C72.6663 437.06 77.6376 426.191 84.2151 415.934C89.0929 408.311 94.4126 401.334 99.9363 394.128C105.732 386.548 108.876 377.438 113.397 369.203C116.354 363.824 118.657 357.96 121.258 352.386C125.396 343.488 129.535 334.591 133.665 325.685C132.025 323.331 130.3 321.011 128.481 318.742C122.456 311.204 116.082 303.879 109.344 296.962C105.757 293.563 102.962 290.282 100.837 287.41C93.3504 307.406 85.8977 327.41 78.5554 347.457C76.6434 352.666 74.4254 357.884 72.8617 363.212C69.9554 373.146 64.8991 380.828 59.4859 389.581C56.1632 394.961 52.3901 400.076 48.9994 405.456C44.0961 413.248 40.1785 421.721 35.7001 429.828C29.7685 440.586 25.4515 452.144 20.6842 463.471C17.166 471.825 11.6168 483.085 7.93718 491.285C10.4866 493.367 13.1295 495.109 15.7808 496.562C24.9586 501.619 34.2469 503.284 40.0935 503.82Z" fill="#B9A2A2"/>
<path d="M94.9566 277.561C95.0586 277.799 96.6987 281.827 100.837 287.41C102.962 290.282 105.758 293.563 109.344 296.962C116.083 303.879 122.456 311.204 128.481 318.742C130.3 321.011 132.025 323.331 133.665 325.685C141.679 337.14 147.916 349.454 155.165 361.547C157.442 365.337 159.992 369.084 162.252 372.883C163.765 375.424 166.161 378.279 166.697 381.262C167.317 384.729 164.717 388.06 166.34 391.51C167.461 393.873 169.866 395.122 170.954 397.629C171.761 399.49 171.923 401.36 172.246 403.34C173.155 409.033 175.441 414.2 177.328 419.605C181.177 430.618 185.435 441.572 190.984 451.846C197.204 463.386 204.3 474.672 211.54 485.617C214.965 490.801 217.982 496.316 221.024 501.712C223.14 505.477 222.63 507.414 224.908 510.967C227.015 510.423 229.276 509.556 231.604 508.477C240.017 504.593 249.288 497.922 255.033 493.495C258.449 490.86 260.625 489.008 260.625 489.008C247.13 468.689 237.111 449.178 226.964 426.972C223.37 419.12 220.31 411.013 216.707 403.187C211.268 391.383 210.512 378.593 206.569 366.365C203.782 357.748 198.258 350.066 194.808 341.661C192.284 335.526 189.905 329.322 187.525 323.127C180.676 305.298 173.979 287.402 167.342 269.488C167.342 269.488 166.918 268.74 161.708 268.213C161.708 268.213 141.05 267.55 137.667 268.256C135.433 277.535 133.605 284.895 133.138 286.203C133.138 286.203 115.819 285.269 94.9566 277.561Z" fill="#B9A2A2"/>
<path d="M1.3854 520.306C0.425124 523.331 0.42512 525.558 0.42512 525.558C2.12472 529.807 15.8659 534.769 15.8659 534.769C19.5456 537.174 22.2394 540.293 22.2394 540.293C28.8933 546.947 40.2976 551.765 40.2976 551.765C51.413 555.87 71.4937 552.709 71.4937 552.709C72.0461 551.408 72.301 549.87 72.301 548.264C72.301 548.264 52.9766 551.001 44.1897 548.264C44.1897 548.264 32.7174 544.678 24.6444 536.044C24.6444 536.044 19.5456 530.945 16.2908 529.246C16.2908 529.246 2.89804 523.552 1.3854 520.306Z" fill="white"/>
<path d="M2.69407 517.06C2.12471 518.198 1.69983 519.295 1.3854 520.306C2.89804 523.552 16.2908 529.246 16.2908 529.246C19.5456 530.945 24.6444 536.044 24.6444 536.044C32.7174 544.678 44.1897 548.264 44.1897 548.264C52.9766 551.001 72.301 548.264 72.301 548.264C72.301 544.746 71.0518 540.939 68.8169 538.823C64.2875 534.523 56.8007 534.727 53.4185 528.94C49.5774 522.371 43.0935 516.788 40.2976 509.556C39.8472 509.258 39.3884 509.012 38.9125 508.825C31.9441 505.927 22.8088 513.38 22.8088 513.38C21.1092 512.25 19.69 509.131 19.69 509.131C17.2851 503.369 15.3391 501.313 14.3363 500.591C13.8604 500.251 13.597 500.208 13.597 500.208C11.1921 501.202 2.69407 517.06 2.69407 517.06Z" fill="#906F6F"/>
<path d="M22.8089 513.38C22.8089 513.38 31.9442 505.927 38.9125 508.825C38.4622 507.414 40.0003 504.015 40.0938 503.82C34.2471 503.284 24.9589 501.619 15.781 496.563L14.3364 500.591C15.3391 501.313 17.2852 503.369 19.6901 509.131C19.6901 509.131 21.1093 512.25 22.8089 513.38Z" fill="white"/>
<path d="M317.672 507.797C317.672 507.797 304.517 523.578 283.697 530.52C283.697 530.52 273.355 534.481 267.687 539.154C267.687 539.154 255.152 547.839 249.807 547.109C250.665 548.553 251.54 550.491 251.54 550.491C254.659 552.046 260.625 548.647 260.625 548.647C262.911 547.516 273.635 541.568 273.635 541.568C276.473 539.579 290.92 532.645 290.92 532.645C314.995 522.303 319.575 512.037 319.575 512.037C318.853 510.44 318.25 509.029 317.672 507.797Z" fill="white"/>
<path d="M237.451 518.283C236.975 518.827 236.958 519.329 236.958 519.329C238.513 520.748 241.207 528.107 241.207 528.107C244.037 537.455 249.135 546.097 249.135 546.097C249.348 546.369 249.569 546.718 249.807 547.108C255.152 547.839 267.687 539.154 267.687 539.154C273.355 534.48 283.697 530.52 283.697 530.52C304.517 523.578 317.672 507.797 317.672 507.797C315.683 503.514 314.043 501.253 309.225 500.174C305.613 499.367 302.205 500.395 298.594 500.769C294.404 501.202 290.274 502.103 286.076 502.622C281.598 503.174 277.145 503.344 272.649 502.902C269.573 502.596 265.392 502.01 262.588 500.777C262.103 501.032 261.644 501.338 261.211 501.678C256.197 505.57 254.515 514.085 254.515 514.085C253.665 519.048 251.26 518.759 251.26 518.759C241.606 515.768 238.462 517.119 237.451 518.283Z" fill="#906F6F"/>
<path d="M231.604 508.477C231.604 508.477 236.227 514.485 237.451 518.283C238.462 517.119 241.606 515.768 251.26 518.759C251.26 518.759 253.665 519.048 254.515 514.085C254.515 514.085 256.197 505.57 261.211 501.678C257.293 499.469 255.033 493.495 255.033 493.495C249.288 497.922 240.017 504.593 231.604 508.477Z" fill="white"/>
<path d="M49.1866 300.089C50.1554 300.574 54.5233 300.964 55.9425 300.939C58.101 300.896 59.6561 299.877 61.0073 298.228C64.0836 294.506 66.9899 290.393 69.6837 286.339C70.2871 285.447 70.8225 282.804 70.8225 282.804C71.1879 281.113 72.2331 271.655 72.743 266.947C72.913 265.341 73.0234 264.287 73.0234 264.287C68.5365 264.525 60.353 264.245 53.7755 260.004C52.5688 261.644 50.0959 264.967 49.1866 266.794C47.9034 269.343 46.7307 271.969 45.5665 274.587C44.4957 277.009 44.1473 278.657 42.2098 280.535C40.3827 282.303 38.3857 284.257 36.2612 285.609C34.1622 286.943 31.9442 287.002 29.7772 287.937C28.4855 288.489 24.3215 291.124 27.1938 291.863C29.1824 292.382 32.2756 291.931 34.2811 291.727C36.4821 291.498 38.1137 290.656 40.0853 289.492C42.1673 288.268 45.1586 285.473 47.589 285.209C44.8526 287.147 43.6289 291.413 40.7566 293.248C37.8418 295.118 35.0375 296.571 33.1424 299.664C32.777 300.259 31.6383 301.993 32.1821 302.741C32.8195 303.616 34.6041 302.571 35.2669 302.171C35.4879 302.044 35.7003 301.908 35.9213 301.789C38.2667 301.874 41.4534 301.304 43.7649 301.1C45.8299 300.922 47.538 301.126 49.1866 300.089Z" fill="#FFF4EE"/>
<path d="M244.462 269.488C244.462 271.451 244.385 274.349 244.921 276.932C245.396 279.261 246.365 281.326 248.32 282.201C251.489 283.62 250.266 279.448 250.266 277.706C250.266 275.335 250.147 273.185 250.444 270.933C250.461 270.797 250.614 269.14 250.648 268.961C250.181 267.618 249.943 266.225 249.875 264.78C249.747 262.027 249.671 260.982 247.75 258.976C246.518 257.693 244.768 255.628 243.892 254.761L241.453 255.466C241.997 256.129 242.507 256.826 242.975 257.591C244.929 260.786 244.853 264.891 246.612 268.213C246.068 269.089 245.311 269.318 244.513 269.191L244.462 269.488Z" fill="#FFF4EE"/>
<path d="M240.807 279.261C241.487 280.654 242.516 281.921 243.79 280.544C244.317 279.975 244.92 277.672 244.92 276.932C244.385 274.349 244.462 271.451 244.462 269.488L244.513 269.191C245.311 269.318 246.068 269.089 246.612 268.213C244.852 264.891 244.929 260.786 242.974 257.591C242.507 256.826 241.997 256.129 241.453 255.466L243.892 254.761C244.767 255.628 246.518 257.693 247.75 258.976C249.671 260.982 249.747 262.027 249.875 264.78C249.943 266.225 250.181 267.618 250.648 268.961C250.878 269.624 251.166 270.278 251.515 270.907C252.161 272.08 254.26 275.122 256.078 274.451C257.684 273.856 256.18 269.369 255.934 268.069C255.517 265.842 255.228 263.454 255.118 261.134C254.999 258.84 255.313 256.529 253.988 254.617C252.832 252.942 250.988 251.855 249.56 250.47C247.895 248.863 246.493 246.79 244.75 245.269C243.127 243.858 241.028 243.654 239.082 242.966C236.847 242.184 234.604 241.3 232.42 240.204C230.338 239.159 227.313 237.901 225.91 235.921L224.491 234.366C223.395 237.935 220.71 244.835 215.084 250.758L215.993 251.362C216.24 253.903 219.163 256.597 221.092 258.016C226.063 261.704 233.372 263.013 234.723 270.168C235.054 271.952 235.199 274.026 236.066 275.726C236.694 276.949 239.235 279.363 240.807 279.261Z" fill="#FFF4EE"/>
<path d="M131.855 73.0741C131.855 73.0741 131.719 79.4136 130.589 81.6826C130.589 81.6826 156.788 97.1234 158.139 98.2537C158.139 98.2537 162.031 92.4495 162.031 91.1748C162.031 91.1748 162.108 90.529 162.218 89.6282C162.431 87.9711 162.796 85.4727 163.161 84.4614C159.584 84.5804 154.944 84.164 149.565 82.3879C149.565 82.3879 139.511 79.1332 135.832 72.0544C134.642 72.8702 133.265 73.1421 131.855 73.0741Z" fill="#FFF4EE"/>
<path d="M158.445 52.73C157.391 52.8489 156.389 51.6847 156.219 50.1296C156.049 48.5829 156.762 47.2318 157.825 47.1128C158.887 46.9938 159.881 48.158 160.051 49.7047C160.23 51.2598 159.507 52.611 158.445 52.73ZM154.978 55.2624C158.369 54.4805 161.385 55.0414 161.717 56.5116C162.057 57.9817 159.592 59.8003 156.21 60.5821C152.819 61.3554 149.803 60.803 149.463 59.3329C149.131 57.8627 151.596 56.0357 154.978 55.2624ZM119.754 55.1859C118.853 56.3926 118.275 57.9137 118.063 59.4179C117.502 63.3439 119.584 66.9556 122.66 69.3605C122.66 69.3605 127.402 72.8787 131.855 73.0741C133.266 73.1421 134.642 72.8702 135.832 72.0544C139.512 79.1332 149.565 82.3879 149.565 82.3879C154.944 84.164 159.584 84.5804 163.161 84.4614C168.158 84.2999 171.099 83.1017 171.099 83.1017C179.172 80.1274 182.035 65.3919 182.035 65.3919C183.208 61.2874 182.035 48.9653 182.035 48.9653C182.18 44.6739 182.103 33.669 182.061 28.5702C181.713 28.1453 181.339 27.8649 180.948 27.7034C180.582 28.2388 180.183 28.7657 179.732 29.2755C179.732 29.2755 179.563 28.6382 179.206 27.5929C178.22 24.6696 175.857 18.4916 172.059 13.8432C172.059 13.8432 176.622 27.8649 165.855 33.2441C165.855 33.2441 168.685 23.7518 163.875 17.0979C163.875 17.0979 159.482 30.5502 148.859 34.2384C148.859 34.2384 149.429 24.6016 150.703 18.942C150.703 18.942 143.191 35.2241 133.138 41.7421C133.138 41.7421 132.569 56.3331 133.138 59.1629C133.138 59.1629 129.314 53.7837 125.49 52.9339C122.991 52.373 121.037 53.4523 119.754 55.1859ZM170.954 76.7283C164.436 78.5638 162.031 67.9413 162.031 67.9413C164.011 67.236 176.622 64.967 176.622 64.967C175.772 75.5895 170.954 76.7283 170.954 76.7283ZM175.806 47.2403C175.738 45.7191 176.359 44.4614 177.175 44.4274C177.999 44.3849 178.721 45.5832 178.789 47.1043C178.857 48.6169 178.245 49.8831 177.421 49.9171C176.605 49.9511 175.874 48.7529 175.806 47.2403Z" fill="#FFF4EE"/>
<path d="M154.978 55.2623C151.596 56.0356 149.131 57.8627 149.463 59.3328C149.803 60.803 152.819 61.3554 156.21 60.5821C159.592 59.8002 162.057 57.9817 161.717 56.5115C161.385 55.0414 158.369 54.4805 154.978 55.2623Z" fill="#FFD6C0"/>
<path d="M157.825 47.1128C156.762 47.2318 156.048 48.5829 156.218 50.1296C156.388 51.6847 157.391 52.8489 158.445 52.73C159.507 52.611 160.229 51.2598 160.051 49.7047C159.881 48.1581 158.887 46.9938 157.825 47.1128Z" fill="#272525"/>
<path d="M177.175 44.4274C176.359 44.4614 175.739 45.7191 175.806 47.2403C175.874 48.7529 176.605 49.9511 177.421 49.9171C178.245 49.8831 178.857 48.6169 178.789 47.1043C178.721 45.5832 177.999 44.3849 177.175 44.4274Z" fill="#272525"/>
<path d="M170.674 12.2795C171.158 12.7724 171.617 13.2993 172.059 13.8432C175.857 18.4916 178.22 24.6696 179.206 27.5929C179.562 28.6382 179.732 29.2755 179.732 29.2755C180.183 28.7656 180.582 28.2388 180.948 27.7034C181.364 27.1085 181.721 26.5052 182.035 25.9018C185.18 19.8512 183.981 13.5542 183.981 13.5542C182.426 3.6456 159.907 1.09621 159.907 1.09621C159.907 1.09621 138.662 -3.15278 124.64 9.73016C121.674 12.458 118.309 14.2426 115.87 17.5568C113.338 20.9985 111.417 25.0095 110.89 29.284C109.82 37.867 112.709 49.5262 119.754 55.1859" stroke="#272525" stroke-width="0.849798" stroke-linecap="round" stroke-linejoin="round"/>
<path d="M172.059 13.8432C172.059 13.8432 176.622 27.8649 165.855 33.2441C165.855 33.2441 168.685 23.7518 163.875 17.0979C163.875 17.0979 159.482 30.5502 148.859 34.2384C148.859 34.2384 149.429 24.6016 150.703 18.942C150.703 18.942 143.191 35.2241 133.138 41.7421C133.138 41.7421 132.569 56.3331 133.138 59.1629C133.138 59.1629 129.314 53.7837 125.49 52.9339C122.991 52.373 121.037 53.4523 119.754 55.1859C118.853 56.3926 118.275 57.9137 118.063 59.4179C117.502 63.3439 119.584 66.9556 122.66 69.3605C122.66 69.3605 127.402 72.8787 131.855 73.0741C133.266 73.1421 134.642 72.8702 135.832 72.0544" stroke="#272525" stroke-width="0.849798" stroke-linecap="round" stroke-linejoin="round"/>
<path d="M164.581 30.1253C164.581 30.1253 158.352 27.8648 154.527 35.3686" stroke="#272525" stroke-width="0.849798" stroke-linecap="round" stroke-linejoin="round"/>
<path d="M177.472 54.3445C177.472 56.1716 177.472 57.8032 176.622 59.4433" stroke="#272525" stroke-width="0.849798" stroke-linecap="round" stroke-linejoin="round"/>
<path d="M182.035 25.9019C182.035 25.9019 182.035 26.9301 182.061 28.5702C182.103 33.669 182.18 44.6739 182.035 48.9654C182.035 48.9654 183.208 61.2874 182.035 65.392C182.035 65.392 179.172 80.1275 171.099 83.1018C171.099 83.1018 168.158 84.3 163.161 84.4614C159.584 84.5804 154.944 84.164 149.565 82.3879C149.565 82.3879 139.512 79.1332 135.832 72.0544" stroke="#272525" stroke-width="0.849798" stroke-linecap="round" stroke-linejoin="round"/>
<path d="M176.622 64.967C176.622 64.967 164.011 67.236 162.031 67.9413C162.031 67.9413 164.436 78.5638 170.954 76.7282C170.954 76.7282 175.773 75.5895 176.622 64.967Z" stroke="#272525" stroke-width="0.849798" stroke-linecap="round" stroke-linejoin="round"/>
<path d="M174.634 30.9751C174.634 30.9751 176.903 28.1453 179.205 27.5929C179.8 27.4569 180.387 27.4569 180.948 27.7034C181.338 27.8648 181.712 28.1453 182.061 28.5702" stroke="#272525" stroke-width="0.849798" stroke-linecap="round" stroke-linejoin="round"/>
<path d="M162.218 89.6197C162.431 87.9711 162.796 85.4727 163.161 84.4614" stroke="#272525" stroke-width="0.849798" stroke-linecap="round" stroke-linejoin="round"/>
<path d="M131.855 73.0741C131.855 73.0741 131.719 79.4136 130.589 81.6826C130.589 81.6826 156.788 97.1234 158.139 98.2536C158.139 98.2536 162.031 92.4495 162.031 91.1748C162.031 91.1748 162.108 90.529 162.218 89.6282" stroke="#272525" stroke-width="0.849798" stroke-linecap="round" stroke-linejoin="round"/>
<path d="M52.2713 250.767C55.5345 253.452 63.0722 257.548 78.4706 257.03C79.4308 257.004 80.4251 256.953 81.4449 256.885C83.4334 248.719 85.4729 240.569 87.5549 232.428C89.0761 226.471 90.6227 220.523 92.2628 214.599C93.4185 210.418 94.3278 205.073 96.7837 201.47C97.3276 200.671 97.9309 199.915 98.4408 199.099C99.8005 196.898 99.2906 191.391 99.2906 188.851" stroke="#272525" stroke-width="0.849798" stroke-linecap="round" stroke-linejoin="round"/>
<path d="M130.589 81.6826C130.589 81.6826 127.759 84.3764 126.34 86.5009C126.34 86.5009 123.136 89.2713 119.983 92.0841C118.352 93.5457 116.728 95.0159 115.573 96.1291C115.573 96.1291 102.639 107.414 101.22 110.958C101.22 110.958 100.803 111.74 100.064 113.202C97.659 117.977 91.8293 130.045 85.9742 145.987C85.9742 145.987 69.2587 186.777 68.1285 190.312C68.1285 190.312 51.8378 241.3 50.1382 248.523C50.1382 248.523 50.7246 249.484 52.2712 250.758" stroke="#272525" stroke-width="0.849798" stroke-linecap="round" stroke-linejoin="round"/>
<path d="M101.84 113.125C101.84 113.125 110.899 108.026 120.391 118.649C120.391 118.649 130.308 132.951 126.195 146.267C126.195 146.267 109.701 172.738 99.2905 188.851C97.9988 190.848 96.8091 192.675 95.7468 194.281C95.7468 194.281 92.917 198.955 86.3991 198.674" stroke="#272525" stroke-width="0.849798" stroke-linecap="round" stroke-linejoin="round"/>
<path d="M126.34 86.501C126.34 86.501 134.532 91.5743 141.305 103.463C143.387 107.126 145.341 111.434 146.871 116.439C147.075 117.068 147.262 117.714 147.44 118.368C148.842 123.212 149.939 128.133 151.026 133.061C152.76 140.88 154.425 148.74 155.148 156.72C155.887 164.895 155.624 173.112 154.952 181.287C154.578 185.927 154.052 190.55 153.482 195.173C152.709 201.504 151.749 207.801 150.465 214.047C149.871 216.919 149.216 219.783 148.434 222.605C148.434 222.605 142.197 249.39 137.667 268.256C135.433 277.536 133.605 284.895 133.138 286.204C133.138 286.204 115.819 285.269 94.9566 277.561C87.7843 274.901 80.1956 271.451 72.7429 266.947" stroke="#272525" stroke-width="0.849798" stroke-linecap="round" stroke-linejoin="round"/>
<path d="M78.4705 257.03L76.346 263.964C76.346 263.964 75.0713 264.177 73.0233 264.287C68.5363 264.525 60.3528 264.245 53.7753 260.004C52.4921 259.171 51.2599 258.186 50.1382 257.03L52.2712 250.767" stroke="#272525" stroke-width="0.849798" stroke-linecap="round" stroke-linejoin="round"/>
<path d="M54.812 287.053C49.9002 290.13 46.9854 295.772 41.8186 298.56C39.8556 299.622 37.8585 300.65 35.921 301.789C35.7 301.908 35.4876 302.044 35.2667 302.171C34.6038 302.571 32.8192 303.616 32.1819 302.741C31.638 301.993 32.7768 300.259 33.1422 299.664C35.0372 296.571 37.8415 295.118 40.7563 293.248C43.6287 291.413 44.8524 287.147 47.5887 285.209" stroke="#272525" stroke-width="0.849798" stroke-linecap="round" stroke-linejoin="round"/>
<path d="M62.4602 288.608C60.6331 290.554 57.4719 292.798 55.2709 294.693C53.4099 296.291 51.6848 298.118 49.7472 299.69C49.5603 299.843 49.3733 299.979 49.1864 300.089C47.5378 301.126 45.8297 300.922 43.7646 301.1C41.4532 301.304 38.2664 301.874 35.921 301.789" stroke="#272525" stroke-width="0.849798" stroke-linecap="round" stroke-linejoin="round"/>
<path d="M47.5889 285.209C45.1584 285.473 42.1671 288.268 40.0851 289.492C38.1136 290.656 36.482 291.498 34.281 291.727C32.2755 291.931 29.1822 292.382 27.1937 291.863C24.3214 291.124 28.4854 288.489 29.7771 287.937C31.9441 287.002 34.162 286.943 36.261 285.609C38.3855 284.257 40.3826 282.303 42.2096 280.535C44.1472 278.657 44.4956 277.009 45.5663 274.587C46.7306 271.969 47.9033 269.343 49.1865 266.794C50.0958 264.967 52.5687 261.644 53.7754 260.004" stroke="#272525" stroke-width="0.849798" stroke-linecap="round" stroke-linejoin="round"/>
<path d="M73.0234 264.287C73.0234 264.287 72.913 265.341 72.743 266.947C72.2331 271.655 71.1879 281.113 70.8225 282.804C70.8225 282.804 70.2871 285.447 69.6837 286.339C66.9899 290.393 64.0836 294.506 61.0073 298.228C59.6561 299.877 58.101 300.896 55.9425 300.939C54.5233 300.964 50.1554 300.574 49.1866 300.089" stroke="#272525" stroke-width="0.849798" stroke-linecap="round" stroke-linejoin="round"/>
<path d="M146.879 215.526C146.879 215.526 151.834 178.347 140.999 149.242C140.999 149.242 136.393 136.495 135.832 130.334L143.761 120.348L146.871 116.439" stroke="#272525" stroke-width="0.849798" stroke-linecap="round" stroke-linejoin="round"/>
<path d="M143.76 120.348L133.563 122.048C133.563 122.048 128.498 98.0327 119.983 92.0841" stroke="#272525" stroke-width="0.849798" stroke-linecap="round" stroke-linejoin="round"/>
<path d="M158.479 128.481C166.365 138.237 168.405 136.282 168.405 136.282C168.43 135.755 168.439 135.22 168.439 134.685C168.422 125.456 165.006 115.675 165.006 115.675V109.938C164.793 104.729 158.139 98.2537 158.139 98.2537" stroke="#272525" stroke-width="0.849798" stroke-linecap="round" stroke-linejoin="round"/>
<path d="M141.305 103.463C142.01 104.644 145.545 109.921 148.817 114.782C151.927 119.405 154.808 123.646 154.808 123.646C156.151 125.507 157.374 127.104 158.479 128.472" stroke="#272525" stroke-width="0.849798" stroke-linecap="round" stroke-linejoin="round"/>
<path d="M158.139 98.2537C158.139 98.2537 154.986 102.97 152.318 107.576C150.703 110.38 149.259 113.142 148.817 114.782" stroke="#272525" stroke-width="0.849798" stroke-linecap="round" stroke-linejoin="round"/>
<path d="M162.218 89.6197C162.329 89.8831 166.365 99.4603 165.005 109.938" stroke="#272525" stroke-width="0.849798" stroke-linecap="round" stroke-linejoin="round"/>
<path d="M152.318 107.576L159.193 115.776C159.193 115.776 158.335 123.96 158.479 128.472" stroke="#272525" stroke-width="0.849798" stroke-linecap="round" stroke-linejoin="round"/>
<path d="M168.439 134.684C168.439 134.684 171.056 163.476 170.852 177.922V178.984C170.852 184.602 170.852 190.227 170.852 195.844C170.852 204.291 170.861 212.738 170.852 221.177C170.852 222.511 170.861 223.837 170.895 225.162C170.895 225.995 170.92 226.828 170.946 227.661C171.022 230.236 171.073 232.811 170.946 235.394C170.657 241.071 170.682 246.875 170.946 252.577C171.099 255.73 171.804 259.214 170.767 262.265C170.036 264.423 168.609 266.293 167.742 268.426C167.597 268.783 167.47 269.148 167.342 269.488C167.342 269.488 166.918 268.74 161.708 268.213C161.708 268.213 141.05 267.55 137.668 268.256" stroke="#272525" stroke-width="0.849798" stroke-linecap="round" stroke-linejoin="round"/>
<path d="M167.342 269.488C173.979 287.402 180.676 305.298 187.525 323.127C189.905 329.322 192.284 335.526 194.808 341.661C198.258 350.066 203.782 357.748 206.569 366.365C210.512 378.594 211.268 391.383 216.707 403.187C220.31 411.013 223.37 419.12 226.964 426.973C237.111 449.178 247.13 468.689 260.625 489.008C260.625 489.008 258.449 490.86 255.033 493.495C249.288 497.922 240.017 504.593 231.604 508.477C229.276 509.556 227.015 510.423 224.908 510.967" stroke="#272525" stroke-width="0.849798" stroke-linecap="round" stroke-linejoin="round"/>
<path d="M94.9566 277.553C95.0586 277.799 96.6987 281.827 100.837 287.41C102.962 290.283 105.758 293.563 109.344 296.962C116.083 303.879 122.456 311.205 128.481 318.742C130.3 321.011 132.025 323.331 133.665 325.685C141.678 337.14 147.916 349.454 155.165 361.547C157.442 365.337 159.992 369.084 162.252 372.883C163.765 375.424 166.161 378.279 166.697 381.262C167.317 384.729 164.717 388.06 166.34 391.51C167.461 393.873 169.866 395.122 170.954 397.629C171.761 399.49 171.923 401.36 172.246 403.34C173.155 409.033 175.441 414.2 177.328 419.605C181.177 430.618 185.435 441.572 190.984 451.846C197.204 463.386 204.3 474.672 211.54 485.617C214.965 490.801 217.982 496.316 221.024 501.712C223.14 505.477 222.63 507.414 224.908 510.967" stroke="#272525" stroke-width="0.849798" stroke-linecap="round" stroke-linejoin="round"/>
<path d="M262.588 500.777C265.392 502.01 269.573 502.596 272.649 502.902C277.145 503.344 281.598 503.174 286.076 502.622C290.274 502.103 294.404 501.202 298.594 500.769C302.205 500.395 305.613 499.367 309.225 500.174C314.043 501.253 315.683 503.514 317.672 507.797C318.25 509.029 318.853 510.44 319.575 512.037C319.575 512.037 314.995 522.303 290.92 532.645C290.92 532.645 276.473 539.579 273.635 541.568C273.635 541.568 262.911 547.516 260.625 548.647C260.625 548.647 254.659 552.046 251.54 550.491C251.54 550.491 250.665 548.553 249.807 547.108C249.569 546.718 249.348 546.369 249.135 546.097C249.135 546.097 244.037 537.455 241.207 528.107C241.207 528.107 238.513 520.748 236.958 519.329C236.958 519.329 236.975 518.827 237.451 518.283C238.462 517.119 241.606 515.768 251.26 518.759C251.26 518.759 253.665 519.048 254.515 514.085C254.515 514.085 256.197 505.57 261.211 501.678C261.644 501.338 262.103 501.032 262.588 500.777Z" stroke="#272525" stroke-width="0.849798" stroke-linecap="round" stroke-linejoin="round"/>
<path d="M255.033 493.495C255.033 493.495 257.293 499.469 261.211 501.678" stroke="#272525" stroke-width="0.849798" stroke-linecap="round" stroke-linejoin="round"/>
<path d="M231.604 508.477C231.604 508.477 236.227 514.485 237.451 518.283" stroke="#272525" stroke-width="0.849798" stroke-linecap="round" stroke-linejoin="round"/>
<path d="M317.672 507.797C317.672 507.797 304.517 523.578 283.697 530.52C283.697 530.52 273.355 534.481 267.687 539.154C267.687 539.154 255.152 547.839 249.807 547.109" stroke="#272525" stroke-width="0.849798" stroke-linecap="round" stroke-linejoin="round"/>
<path d="M237.026 249.093C238.063 251.676 239.847 253.452 241.453 255.466C241.997 256.129 242.507 256.826 242.974 257.591C244.929 260.786 244.852 264.891 246.612 268.213C246.068 269.089 245.311 269.318 244.513 269.19C243.178 268.978 241.717 267.763 240.892 266.888C239.201 265.077 238.989 262.766 237.825 260.828C235.216 256.461 228.383 255.279 225.129 251.43" stroke="#272525" stroke-width="0.849798" stroke-linecap="round" stroke-linejoin="round"/>
<path d="M243.892 254.761C244.767 255.628 246.518 257.693 247.75 258.976C249.671 260.982 249.747 262.027 249.875 264.78C249.943 266.225 250.181 267.618 250.648 268.961C250.878 269.624 251.166 270.278 251.515 270.907C252.161 272.08 254.26 275.122 256.078 274.451C257.684 273.856 256.18 269.369 255.934 268.069C255.517 265.842 255.228 263.454 255.118 261.134C254.999 258.84 255.313 256.529 253.988 254.617C252.832 252.942 250.988 251.855 249.56 250.47C247.895 248.863 246.493 246.79 244.75 245.269C243.127 243.858 241.028 243.654 239.082 242.966C236.847 242.184 234.604 241.3 232.42 240.204C230.338 239.159 227.313 237.901 225.91 235.921L224.491 234.366" stroke="#272525" stroke-width="0.849798" stroke-linecap="round" stroke-linejoin="round"/>
<path d="M244.462 269.488C244.462 271.451 244.385 274.349 244.921 276.932C245.396 279.261 246.365 281.326 248.32 282.201C251.489 283.62 250.266 279.448 250.266 277.705C250.266 275.335 250.147 273.185 250.444 270.933C250.461 270.797 250.614 269.14 250.648 268.961" stroke="#272525" stroke-width="0.849798" stroke-linecap="round" stroke-linejoin="round"/>
<path d="M233.559 259.715C234.323 261.619 235.955 263.055 237.272 264.636C238.768 266.429 239.363 268.315 239.363 270.618C239.363 272.921 239.261 275.139 240.068 277.425C240.221 277.875 240.476 278.589 240.807 279.261C241.487 280.654 242.515 281.921 243.79 280.544C244.317 279.974 244.92 277.672 244.92 276.932" stroke="#272525" stroke-width="0.849798" stroke-linecap="round" stroke-linejoin="round"/>
<path d="M240.808 279.261C239.235 279.363 236.695 276.949 236.066 275.725C235.199 274.026 235.054 271.952 234.723 270.168C233.372 263.012 226.064 261.704 221.092 258.016C219.163 256.596 216.24 253.903 215.994 251.362L215.084 250.758" stroke="#272525" stroke-width="0.849798" stroke-linecap="round" stroke-linejoin="round"/>
<path d="M219.605 227.015L225.12 231.952C225.12 231.952 224.942 232.862 224.483 234.366C223.387 237.935 220.701 244.835 215.076 250.758C213.571 252.348 211.855 253.869 209.892 255.237L204.971 250.767" stroke="#272525" stroke-width="0.849798" stroke-linecap="round" stroke-linejoin="round"/>
<path d="M170.895 225.154C170.895 225.154 170.895 225.154 170.903 225.154C177.09 234.077 202.677 252.203 202.677 252.203C203.484 251.744 204.249 251.26 204.98 250.758C215.577 243.467 218.713 232.156 219.614 227.015C219.911 225.324 219.962 224.296 219.962 224.296C219.962 224.296 195.454 207.589 185.256 196.822C185.256 196.822 173.716 185.774 170.852 178.976" stroke="#272525" stroke-width="0.849798" stroke-linecap="round" stroke-linejoin="round"/>
<path d="M133.665 325.685C129.535 334.591 125.396 343.488 121.258 352.386C118.657 357.96 116.354 363.824 113.397 369.203C108.876 377.438 105.732 386.548 99.9363 394.128C94.4126 401.334 89.0929 408.311 84.2151 415.934C77.6376 426.191 72.6663 437.06 68.2049 448.438C61.8569 464.61 55.2029 480.748 48.9399 496.953C48.2261 498.789 46.1016 503.378 46.1781 504.032C46.1781 504.032 43.8411 504.16 40.0935 503.82C34.2469 503.284 24.9586 501.619 15.7808 496.562C13.1295 495.109 10.4866 493.367 7.93718 491.285" stroke="#272525" stroke-width="0.849798" stroke-linecap="round" stroke-linejoin="round"/>
<path d="M100.837 287.41C93.3504 307.406 85.8977 327.41 78.5555 347.457C76.6434 352.666 74.4254 357.884 72.8618 363.212C69.9555 373.146 64.8992 380.828 59.486 389.581C56.1633 394.961 52.3902 400.076 48.9995 405.456C44.0961 413.248 40.1786 421.721 35.7001 429.828C29.7686 440.586 25.4516 452.144 20.6842 463.471C17.166 471.825 11.6169 483.085 7.93723 491.285" stroke="#272525" stroke-width="0.849798" stroke-linecap="round" stroke-linejoin="round"/>
<path d="M40.2976 509.556C43.0934 516.788 49.5774 522.371 53.4185 528.94C56.8007 534.727 64.2874 534.523 68.8168 538.823C71.0518 540.939 72.3095 544.746 72.301 548.264C72.301 549.87 72.0461 551.408 71.4937 552.709C71.4937 552.709 51.4129 555.87 40.2976 551.765C40.2976 551.765 28.8933 546.947 22.2394 540.293C22.2394 540.293 19.5455 537.174 15.8659 534.769C15.8659 534.769 2.12467 529.807 0.42507 525.558C0.42507 525.558 0.425074 523.331 1.38535 520.306C1.69977 519.295 2.12465 518.198 2.69402 517.06C2.69402 517.06 11.192 501.202 13.5969 500.208C13.5969 500.208 13.8604 500.251 14.3363 500.591C15.339 501.313 17.2851 503.369 19.69 509.131C19.69 509.131 21.1092 512.25 22.8088 513.38C22.8088 513.38 31.9441 505.927 38.9124 508.825C39.3883 509.012 39.8472 509.258 40.2976 509.556Z" stroke="#272525" stroke-width="0.849798" stroke-linecap="round" stroke-linejoin="round"/>
<path d="M72.301 548.264C72.301 548.264 52.9766 551.001 44.1897 548.264C44.1897 548.264 32.7174 544.678 24.6444 536.044C24.6444 536.044 19.5456 530.945 16.2908 529.246C16.2908 529.246 2.89804 523.552 1.3854 520.306" stroke="#272525" stroke-width="0.849798" stroke-linecap="round" stroke-linejoin="round"/>
<path d="M40.0938 503.811C40.0003 504.015 38.4622 507.414 38.9125 508.817" stroke="#272525" stroke-width="0.849798" stroke-linecap="round" stroke-linejoin="round"/>
<path d="M15.781 496.571L14.3363 500.591" stroke="#272525" stroke-width="0.849798" stroke-linecap="round" stroke-linejoin="round"/>
</g>
<defs>
<clipPath id="clip0_451_2305">
<rect width="320" height="554.298" fill="white" transform="matrix(-1 0 0 1 320 0)"/>
</clipPath>
</defs>
</svg>
