<svg width="320" height="569" viewBox="0 0 320 569" fill="none" xmlns="http://www.w3.org/2000/svg">
<g clip-path="url(#clip0_451_2306)">
<path d="M290.696 519.855C290.696 519.855 297.708 527.399 301.895 533.134C300.739 536.239 286.35 549.144 286.35 549.144C276.867 557.695 264.512 562.665 264.512 562.665C261.761 563.672 257.882 564.204 253.714 564.437C254.171 556.035 243.457 548.025 243.457 548.025C246.021 547.419 248.744 547.037 250.721 545.153C253.173 542.813 254.842 539.959 256.39 536.948C257.229 535.306 258.171 533.814 258.88 532.127C259.449 530.775 259.98 528.947 260.857 527.781C260.857 527.781 261.136 527.735 261.649 527.688C263.785 527.502 269.976 527.343 276.867 530.728C276.867 530.728 278.891 532.593 280.905 529.646C280.905 529.646 287.46 522.317 290.052 520.284C290.313 520.088 290.528 519.939 290.696 519.855Z" fill="#906F6F"/>
<path d="M66.6032 525.665C68.1418 526.299 72.0768 528.546 74.0537 535.502C74.0537 535.502 74.9862 540.37 81.355 539.279C81.355 539.279 89.7846 536.519 93.5704 537.321C93.701 537.349 93.8315 537.377 93.9527 537.414C93.9527 537.414 92.8244 555.784 86.7633 564.278C81.1312 559.588 66.4354 556.063 66.4354 556.063C61.3067 554.506 48.4106 546.123 48.4106 546.123C44.9511 543.978 41.8087 542.16 38.9646 540.622C39.6173 529.525 30.535 525.665 30.535 525.665C34.4421 525.534 38.4518 525.954 42.2376 526.504C46.4617 527.11 50.7231 527.492 55.0871 527.315C58.8077 527.157 66.109 525.441 65.9691 525.45C65.9691 525.45 66.2022 525.506 66.6032 525.665Z" fill="#906F6F"/>
<path d="M135.094 101.491C134.823 101.631 132.828 102.666 130.469 104.027C132.744 100.25 134.245 86.6457 134.301 86.1701C135.411 87.0933 136.586 87.9232 137.844 88.5572C139.737 89.5177 141.397 89.8627 143.057 89.8441L143.57 94.1707C143.57 94.1707 143.225 94.9074 142.749 95.9611C142.749 95.9611 139.085 98.3109 135.122 101.472C135.122 101.472 135.112 101.472 135.094 101.491Z" fill="#604C42"/>
<path d="M170.211 48.3302C169.278 48.5726 168.327 48.7312 167.395 48.8244C162.154 49.3466 157.277 47.752 157.277 47.752C154.834 46.8382 152.764 45.1784 151.16 43.1549C148.475 39.7887 146.815 35.7977 145.668 31.6762C145.64 31.5829 145.621 31.499 145.593 31.4057C148.186 31.3964 151.589 32.7672 155.757 37.2524L158.191 36.1707C159.571 39.1733 161.138 41.4485 162.676 43.1643C162.751 43.2482 162.825 43.3228 162.891 43.3974C166.677 47.5469 170.211 48.3302 170.211 48.3302Z" fill="#604C42"/>
<path d="M227.353 110.349C231.549 114.62 235.754 118.9 239.382 123.702C245.368 131.628 250.721 141.494 250.916 151.677L247.494 154.166C246.646 149.243 246.068 144.608 244.081 139.899C242.17 135.349 240.081 130.686 237.237 126.621C233.815 121.735 229.982 116.382 225.6 112.056L227.353 110.349Z" fill="#604C42"/>
<path d="M218.429 167.846L218.634 170.177C215.762 170.811 212.685 171.389 209.804 171.725C209.589 154.287 210.363 135.517 210.363 135.517C211.268 128.766 210.811 123.693 209.925 120.019L212.069 119.534C214.466 128.971 219.511 151.248 218.438 167.846H218.429Z" fill="#604C42"/>
<path d="M158.191 36.1707L155.757 37.2524C151.589 32.7672 148.186 31.3965 145.593 31.4058C144.26 26.4637 143.523 21.2884 139.719 17.4746C139.43 17.1855 135.616 13.6421 135.019 14.183C135 14.1923 121.265 26.5383 120.211 36.6743C119.81 40.572 120.696 44.7402 120.677 48.7592C120.677 49.8035 120.677 50.8666 120.705 51.9389C120.36 51.7338 119.027 50.8479 117.833 48.8244H117.824C115.586 47.7987 114.43 44.9547 113.609 42.8193C111.558 37.4389 111.334 31.4617 113.525 26.0907C116.22 19.5074 119.904 12.2248 126.356 9.31544C126.356 9.31544 133.163 0.615436 152.559 0.46624C159.972 0.400967 167.096 1.07235 173.978 4.13087C188.394 10.5277 193.14 24.1884 196.096 38.6791C197.252 44.3672 197.775 50.1952 198.884 55.9113C201.393 68.8261 205.346 81.6103 212.414 92.7814C216.573 99.346 221.963 104.838 227.353 110.349L225.6 112.056C224.593 111.058 223.548 110.116 222.476 109.249C222.476 109.249 247.494 145.643 240.193 163.426L236.463 165.356C236.463 165.356 241.592 146.091 225.432 119.991C225.749 120.849 236.836 150.595 230.243 167.1C230.243 167.1 224.947 168.778 218.634 170.177L218.429 167.846C219.501 151.248 214.457 128.971 212.06 119.534L209.915 120.019C209.114 116.746 207.967 114.573 207.127 113.314C206.475 112.335 205.999 111.897 205.999 111.897C202.269 107.85 180.216 99.2994 180.216 99.2994C180.216 98.7119 180.197 98.3762 180.197 98.3762C178.957 95.5788 172.169 90.6646 172.169 90.6646C171.423 89.4617 170.723 88.8277 170.621 88.7437C170.267 85.4148 169.754 79.8106 170.024 77.1997C170.36 76.8267 170.658 76.4444 170.919 76.0714C172.971 76.9945 175.591 77.4794 177.82 77.0412C179.908 76.6216 182.109 75.3441 183.732 74.0013C186.818 71.437 189.494 67.4926 189.336 63.3338C189.252 61.3196 188.543 59.2309 187.032 57.8322C185.82 56.7132 183.097 55.4916 181.391 55.818C179.899 56.0978 178.043 56.8531 176.98 58.0093C173.941 61.273 168.877 65.1148 168.877 65.1148C168.933 60.8068 167.395 48.8244 167.395 48.8244C168.327 48.7312 169.278 48.5727 170.211 48.3302C170.211 48.3302 166.677 47.547 162.891 43.3974C162.825 43.3228 162.751 43.2482 162.676 43.1643C161.138 41.4486 159.571 39.1733 158.191 36.1707Z" fill="#604C42"/>
<path d="M256.511 442.842C258.581 449.015 260.614 455.225 262.731 461.417C253.089 471.049 235.288 475.637 235.288 475.637C229.581 465.939 223.623 456.419 217.72 446.805C212.62 438.487 208.321 429.638 201.859 422.225C196.721 416.332 190.399 411.819 187.424 404.294C182.081 390.763 180.384 375.75 177.54 361.512C185.68 362.323 203.892 362.985 219.576 355.208C219.054 363.255 218.746 371.396 219.25 379.443C219.595 384.973 220.378 388.833 223.819 393.281C229.339 400.433 235.465 407.082 241.051 414.178C247.988 422.99 252.94 432.193 256.511 442.842Z" fill="#FFF4EE"/>
<path d="M147.095 362.481C144.857 368.123 142.749 373.83 140.912 379.611C137.788 389.458 137.621 398.708 136.586 408.919C134.189 432.557 127.074 455.431 118.29 477.428C104.48 467.805 88.2367 466.359 88.2367 466.359C89.0946 463.002 89.9245 459.636 90.7357 456.288C93.4492 445.08 95.2955 433.667 97.4869 422.384C98.6338 416.472 99.874 410.588 101.133 404.667C103.604 393.001 102.075 381.056 105.767 369.568C107.166 363.973 109.516 351.329 109.516 351.329C114.029 353.129 121.507 355.74 125.387 355.115C125.387 355.115 131.96 360.952 147.104 362.481H147.095Z" fill="#FFF4EE"/>
<path d="M173.222 98.0871C172.094 101.313 169.847 107.654 167.395 114.07C167.395 114.07 165.306 120.411 163.003 129.222C160.373 139.275 157.454 152.506 156.988 163.183C156.988 163.183 156.14 180.649 156.522 197.741C156.718 206.32 157.231 214.796 158.312 220.941C157.799 222.358 157.277 223.766 156.736 225.184C154.228 231.776 151.757 238.443 149.193 245.055C145.509 246.118 131.457 243.852 125.377 242.798C123.633 242.49 122.542 242.285 122.542 242.285C122.636 242.136 122.692 241.549 122.701 241.045C122.72 240.15 122.776 239.199 122.841 238.248C122.943 236.541 123.065 234.807 122.999 233.277C122.897 230.797 121.47 228.746 121.451 226.275C121.386 221.09 123.969 215.859 124.827 210.767C125.741 205.368 125.918 199.83 125.648 194.403C125.396 189.283 124.137 184.873 123.316 179.809C121.647 171.156 120.911 154.12 120.873 153.327C124.053 138.258 128.314 126.369 128.454 125.968H128.464C131.998 115.161 140.129 101.892 140.381 101.481C140.269 101.77 140.176 102.031 140.101 102.255C140.101 102.255 138.506 108.941 137.658 118.238V118.266C137.331 121.875 137.117 125.884 137.154 130.043V130.08C137.182 134.099 137.453 138.258 138.087 142.352C138.087 142.352 142.395 137.652 147.393 132.029C150.638 128.365 154.163 124.327 156.988 120.923C158.928 118.583 160.531 116.55 161.473 115.161C161.473 115.161 170.127 104.176 173.222 98.0871Z" fill="#D8D8D8"/>
<path d="M240.268 341.128C240.268 341.128 239.848 346.154 222.336 351.329C220.107 340.606 209.85 292.079 199.397 256.785C203.603 255.116 207.435 253.372 210.848 251.675C210.848 251.675 235.838 322.711 240.268 341.128Z" fill="#ADADAD"/>
<path d="M149.193 245.055C148.913 245.782 148.633 246.509 148.344 247.237C146.097 252.953 143.635 258.604 141.406 264.273C140.092 267.63 137.742 272.87 135.597 275.584C136.175 276.265 136.828 276.889 137.546 277.458C137.406 277.757 134.655 283.65 134.357 284.871C134.357 284.871 134.786 285.216 135.597 285.748C134.823 286.624 134.133 288.48 133.266 290.103C132.24 292.033 131.382 294.15 130.468 296.164C128.464 300.621 126.813 305.442 125.069 310.011C123.531 314.03 124.678 318.907 125.069 323.047C125.303 325.453 126.822 327.057 128.762 328.204L125.377 355.115C121.498 355.74 114.02 353.129 109.506 351.329C107.268 350.443 105.758 349.753 105.758 349.753C107.856 339.729 123.009 268.628 123.009 268.628C125.107 259.769 125.377 242.798 125.377 242.798C131.457 243.852 145.509 246.118 149.193 245.055Z" fill="#ADADAD"/>
<path d="M146.955 339.048C148.307 339.785 149.454 339.654 148.848 337.034C147.934 333.136 144.95 330.385 143.682 326.786C142.404 323.196 142.451 318.636 142.675 314.739C143.449 317.275 146.013 320.725 147.067 323.205C148.064 325.555 149.416 326.684 151.757 327.56C153.202 328.101 156.941 330.311 157.781 328.287C158.611 326.301 155.123 324.101 153.79 323.01C152.205 321.723 151.384 319.149 150.675 317.303C149.883 315.251 149.183 312.902 149.696 310.701C150.349 307.866 151.757 305.274 152.083 302.337C152.466 298.886 152.391 295.39 152.391 291.949C153.743 292.107 155.142 292.191 156.578 292.173L159.198 284.592C161.511 284.834 163.003 284.871 163.003 284.871C166.229 279.528 169.278 273.644 172.132 267.555C172.132 267.555 174.948 350.685 173.223 360.943C162.62 362.985 153.967 363.181 147.095 362.481C131.951 360.952 125.377 355.115 125.377 355.115L128.762 328.203C129.825 328.828 131.009 329.322 132.175 329.742C133.462 334.041 138.339 337.407 141.658 340.186C142.693 341.053 144.288 342.89 145.705 342.787C147.831 342.629 146.843 340.484 146.945 339.057H146.955V339.048Z" fill="#ADADAD"/>
<path d="M222.336 351.329C222.625 352.728 222.784 353.483 222.784 353.483C221.73 354.098 220.658 354.677 219.576 355.208C203.892 362.985 185.68 362.323 177.54 361.512C174.817 361.232 173.222 360.943 173.222 360.943C174.948 350.686 172.131 267.555 172.131 267.555C172.654 266.446 173.167 265.327 173.67 264.198C183.256 262.427 191.919 259.732 199.397 256.776C209.85 292.079 220.107 340.605 222.336 351.329Z" fill="#ADADAD"/>
<path d="M140.39 111.394C143.271 106.069 147.393 100.204 147.393 100.204C147.626 100.241 147.878 100.26 148.148 100.269C148.232 100.558 150.032 105.985 152.232 111.394C152.232 111.394 148.81 115.776 146.787 118.266C146.787 118.266 148.148 126.985 147.393 132.029C142.395 137.652 138.087 142.352 138.087 142.352C137.453 138.258 137.182 134.099 137.154 130.08V130.043C137.154 127.805 141.5 118.266 141.5 118.266C140.744 116.597 140.409 111.655 140.39 111.403V111.394Z" fill="#F2A97F"/>
<path d="M142.749 95.9611C142.022 97.5557 140.987 99.8868 140.39 101.472H140.381C140.129 101.892 131.998 115.161 128.464 125.959C121.946 113.911 123.316 112.513 123.316 112.513C124.715 111.431 130.469 105.519 130.469 105.519C131.914 104.111 133.527 102.74 135.094 101.491C135.112 101.491 135.122 101.472 135.122 101.472C139.085 98.311 142.749 95.9611 142.749 95.9611Z" fill="#F2A97F"/>
<path d="M130.469 104.027C132.828 102.666 134.823 101.631 135.094 101.491C133.527 102.74 131.914 104.111 130.469 105.519C130.469 105.519 124.715 111.431 123.316 112.513C123.316 112.513 121.946 113.911 128.464 125.959H128.454C128.221 126.136 123.522 129.623 119.018 133.624L119.12 127.432C118.346 116.401 122.235 109.948 122.235 109.948C123.363 108.344 127.251 105.883 130.469 104.027Z" fill="#F2A97F"/>
<path d="M120.873 153.327C119.447 160.059 118.244 167.426 117.722 174.681C117.722 174.681 116.127 205.975 117.722 217.733L116.062 217.77C113.936 205.63 112.91 187.269 112.91 187.269C112.751 179.343 111.819 141.27 111.819 141.27C113.311 138.995 116.127 136.207 119.018 133.624C123.522 129.623 128.221 126.136 128.454 125.968C128.314 126.369 124.053 138.258 120.873 153.327Z" fill="#F2A97F"/>
<path d="M122.999 233.277C123.065 234.807 122.943 236.541 122.841 238.248C121.433 235.916 117.731 224.876 117.731 224.876C117.115 223.039 116.565 220.568 116.071 217.77L117.731 217.733C116.136 205.975 117.731 174.681 117.731 174.681C118.253 167.426 119.456 160.059 120.883 153.327C120.92 154.12 121.657 171.156 123.326 179.809C124.146 184.873 125.405 189.283 125.657 194.403C125.927 199.83 125.75 205.368 124.836 210.767C123.978 215.859 121.395 221.09 121.461 226.275C121.479 228.746 122.906 230.797 123.009 233.277H122.999Z" fill="#F2A97F"/>
<path d="M172.747 156.003C171.637 164.47 170.369 172.918 168.961 181.339C166.639 195.223 163.049 207.923 158.312 220.941C157.231 214.796 156.718 206.32 156.522 197.741L158.75 197.685C158.75 197.685 160.513 167.137 169.595 143.667C169.549 144.151 168.859 152.357 172.747 156.003Z" fill="#F2A97F"/>
<path d="M211.752 197.685C211.752 197.685 218.121 223.328 229.619 240.262C229.619 240.262 222.746 245.735 210.848 251.675C207.435 253.372 203.603 255.116 199.397 256.776C191.919 259.732 183.256 262.427 173.67 264.198C187.023 234.602 195.527 201.564 195.527 201.564C197.653 190.999 210.354 135.517 210.354 135.517C210.354 135.517 209.58 154.287 209.794 171.725C209.934 182.439 210.447 192.659 211.752 197.685Z" fill="#F2A97F"/>
<path d="M172.747 156.003C172.915 154.819 173.073 153.644 173.222 152.46C171.992 146.865 173.222 142.818 173.222 142.818C185.354 110.498 204.6 113.296 204.6 113.296L207.127 113.314C207.966 114.573 209.113 116.746 209.915 120.019C210.801 123.693 211.258 128.766 210.354 135.517C210.354 135.517 197.653 190.999 195.527 201.564C195.527 201.564 187.023 234.602 173.67 264.198C173.167 265.327 172.654 266.446 172.131 267.555C169.278 273.644 166.229 279.528 163.003 284.871C163.003 284.871 161.511 284.834 159.198 284.592C153.696 284.032 143.523 282.354 137.546 277.468C136.828 276.889 136.175 276.265 135.597 275.584C137.742 272.87 140.092 267.63 141.406 264.273C143.635 258.604 146.097 252.953 148.344 247.237C148.633 246.509 148.913 245.782 149.193 245.055C151.757 238.443 154.228 231.776 156.736 225.184C157.277 223.766 157.799 222.358 158.312 220.95C163.049 207.923 166.639 195.223 168.961 181.339C170.369 172.918 171.637 164.47 172.747 156.003Z" fill="#F2A97F"/>
<path d="M204.6 113.296C204.6 113.296 185.354 110.498 173.222 142.818C173.222 142.818 171.992 146.865 173.222 152.46C173.073 153.644 172.915 154.819 172.747 156.003C168.859 152.357 169.549 144.151 169.595 143.667V143.648C170.695 140.813 171.898 138.081 173.222 135.517C173.222 135.517 168.933 128.458 163.003 129.232C163.515 127.451 180.197 120.756 180.197 120.756C180.468 114.536 180.281 102.684 180.216 99.2993C180.216 99.2993 202.269 107.85 205.999 111.897C205.999 111.897 206.475 112.335 207.127 113.314L204.6 113.296Z" fill="#F2A97F"/>
<path d="M173.222 135.517C171.898 138.081 170.695 140.813 169.595 143.648V143.667C160.513 167.137 158.75 197.685 158.75 197.685L156.522 197.741C156.14 180.648 156.988 163.183 156.988 163.183C157.454 152.506 160.373 139.275 163.003 129.232C168.933 128.458 173.222 135.517 173.222 135.517Z" fill="#F2A97F"/>
<path d="M172.169 90.6646C172.169 90.6646 178.957 95.5788 180.197 98.3762C180.197 98.3762 180.197 98.7119 180.216 99.2993C180.281 102.684 180.468 114.536 180.197 120.756C180.197 120.756 163.515 127.451 163.003 129.222C165.306 120.411 167.395 114.07 167.395 114.07C169.847 107.654 172.094 101.313 173.222 98.0871C173.707 96.6977 173.987 95.8865 173.987 95.8865C173.689 93.5833 172.905 91.8489 172.169 90.6646Z" fill="#F2A97F"/>
<path d="M148.848 337.034C149.454 339.654 148.307 339.785 146.955 339.048H146.945C146.843 340.484 147.831 342.629 145.705 342.787C144.288 342.89 142.693 341.053 141.658 340.186C138.339 337.407 133.462 334.041 132.175 329.742C131.009 329.322 129.825 328.828 128.762 328.203C126.823 327.057 125.303 325.453 125.069 323.047C124.678 318.907 123.531 314.03 125.069 310.011C126.813 305.442 128.464 300.621 130.469 296.164C131.382 294.149 132.24 292.033 133.266 290.103C134.133 288.48 134.823 286.624 135.597 285.748C138.133 287.426 144.362 291.035 152.391 291.949C152.391 295.39 152.466 298.886 152.083 302.337C151.757 305.274 150.349 307.866 149.696 310.701C149.183 312.902 149.883 315.251 150.675 317.303C151.384 319.149 152.205 321.723 153.79 323.01C155.123 324.101 158.611 326.301 157.781 328.287C156.941 330.311 153.202 328.101 151.757 327.56C149.416 326.684 148.064 325.555 147.067 323.205C146.013 320.725 143.449 317.275 142.675 314.739C142.451 318.636 142.404 323.196 143.682 326.786C144.95 330.385 147.934 333.136 148.848 337.034Z" fill="#FFF4EE"/>
<path d="M148.148 100.269C147.878 100.26 147.626 100.241 147.393 100.204C144.689 99.8495 143.989 97.7515 143.989 97.7515L143.57 94.1708L143.057 89.8441C144.773 89.8161 146.507 89.3965 148.493 88.8463C156.018 86.7669 165.828 81.974 170.024 77.1997C169.754 79.8106 170.267 85.4148 170.621 88.7438C170.789 90.3196 170.919 91.3827 170.919 91.3827C165.828 98.0592 148.81 100.241 148.81 100.241C148.577 100.26 148.363 100.269 148.148 100.269Z" fill="#FFF4EE"/>
<path d="M147.887 56.7039C149.09 56.7878 150.172 55.3704 150.312 53.5334C150.451 51.6965 149.594 50.1299 148.391 50.046C147.188 49.9527 146.097 51.3701 145.957 53.2071C145.817 55.044 146.684 56.6106 147.887 56.7039ZM145.593 31.4058C145.621 31.499 145.64 31.583 145.668 31.6762C146.815 35.7977 148.475 39.7887 151.16 43.155C152.764 45.1784 154.834 46.8383 157.277 47.7521C157.277 47.7521 162.154 49.3466 167.394 48.8244C167.394 48.8244 168.933 60.8067 168.877 65.1148C168.877 65.1148 173.94 61.273 176.98 58.0093C178.043 56.853 179.899 56.0977 181.391 55.818C183.097 55.4916 185.82 56.7132 187.032 57.8321C188.543 59.2309 189.252 61.3196 189.336 63.3338C189.494 67.4926 186.818 71.437 183.731 74.0013C182.109 75.344 179.908 76.6215 177.82 77.0412C175.591 77.4794 172.971 76.9945 170.919 76.0714C170.658 76.4444 170.36 76.8267 170.024 77.1997C165.828 81.9739 156.018 86.7669 148.493 88.8463C146.507 89.3965 144.773 89.8161 143.057 89.844C141.397 89.8627 139.737 89.5177 137.844 88.5572C136.585 87.9231 135.411 87.0932 134.301 86.1701C132.865 84.9858 131.531 83.6431 130.273 82.3842C124.053 76.1646 121.89 69.1617 121.153 60.7135C120.901 57.8508 120.761 54.8669 120.705 51.9389C120.687 50.8666 120.677 49.8035 120.677 48.7592C120.696 44.7402 119.81 40.572 120.211 36.6743C121.265 26.5383 135 14.1923 135.019 14.183C135.616 13.6421 139.43 17.1855 139.719 17.4746C143.523 21.2884 144.26 26.4637 145.593 31.4058ZM151.953 58.7833C148.493 58.5595 145.603 59.492 145.509 60.872C145.425 62.2521 148.158 63.5576 151.626 63.7907C155.095 64.0145 157.986 63.082 158.07 61.7019C158.163 60.3219 155.422 59.0164 151.953 58.7833ZM128.734 52.0881C128.762 50.2977 128.016 48.8338 127.084 48.8244C126.151 48.8244 125.386 50.2604 125.358 52.0601C125.34 53.8505 126.086 55.3145 127.018 55.3238C127.951 55.3331 128.715 53.8878 128.734 52.0881Z" fill="#FFF4EE"/>
<path d="M84.4414 566.796C79.0331 569.053 59.6842 557.984 59.134 557.667C60.3183 558.022 61.372 558.311 62.2205 558.497C66.9202 560.493 71.8437 561.649 76.7112 563.318C77.2614 563.505 83.9286 566.768 84.4414 566.796Z" fill="white"/>
<path d="M20.7627 537.386C34.554 542.571 46.6856 550.73 59.7495 557.35C60.5608 557.761 61.3907 558.143 62.2206 558.497C61.3721 558.311 60.3184 558.022 59.1341 557.667C52.6907 555.728 42.5174 551.867 42.5174 551.867C21.8444 543.167 15.4756 536.015 15.4756 536.015C15.6434 535.12 20.511 537.283 20.772 537.386H20.7627Z" fill="white"/>
<path d="M86.7633 564.278C86.0639 565.267 85.3086 566.115 84.4694 566.787C84.4694 566.787 84.4508 566.787 84.4414 566.787C83.9286 566.759 77.2614 563.495 76.7112 563.309C71.8437 561.639 66.9202 560.483 62.2205 558.488C61.3906 558.133 60.5607 557.751 59.7495 557.341C46.6855 550.72 34.554 542.561 20.7626 537.376C20.5016 537.274 15.634 535.111 15.4662 536.006C15.5128 534.794 16.2961 533.423 17.2286 532.164C17.2286 532.164 23.8958 532.472 38.9646 540.612C41.8086 542.151 44.9511 543.969 48.4106 546.114C48.4106 546.114 61.3067 554.497 66.4353 556.054C66.4353 556.054 81.1311 559.579 86.7633 564.269V564.278Z" fill="white"/>
<path d="M30.5351 525.665C30.5351 525.665 39.6174 529.525 38.9647 540.622C23.8958 532.481 17.2286 532.173 17.2286 532.173C17.928 531.213 18.7113 530.327 19.3174 529.637C21.1637 527.511 23.2991 526.513 26.0405 526.075C27.5045 525.842 29.0151 525.711 30.5351 525.665Z" fill="white"/>
<path d="M301.895 533.134C303.07 534.738 304.021 536.211 304.534 537.321C301.27 541.284 286.583 554.04 286.583 554.04C284.97 555.345 283.273 556.53 281.548 557.676C275.254 561.845 268.074 566.768 260.474 567.896C257.117 568.391 253.667 568.26 250.282 568.269C246.925 568.288 243.568 568.269 240.221 567.952C236.696 567.626 233.115 567.225 229.619 566.628C229.702 565.714 229.74 564.717 229.786 563.672C229.786 563.672 242.766 565.062 253.704 564.437C257.873 564.204 261.752 563.672 264.502 562.665C264.502 562.665 276.858 557.695 286.341 549.144C286.341 549.144 300.729 536.239 301.885 533.134H301.895Z" fill="white"/>
<path d="M243.457 548.025C243.457 548.025 254.171 556.035 253.714 564.437C242.776 565.062 229.796 563.672 229.796 563.672C230.01 559.206 230.309 553.9 234.151 551.364C237.209 549.34 239.932 548.846 243.466 548.025H243.457Z" fill="white"/>
<path d="M288.131 518.056C288.644 518.69 289.493 519.79 290.052 520.284C287.46 522.317 280.905 529.646 280.905 529.646C278.891 532.593 276.867 530.728 276.867 530.728C269.976 527.343 263.785 527.502 261.649 527.688C261.976 522.494 257.975 516.06 255.588 511.547C250.525 501.989 244.977 492.58 239.643 483.172C238.207 480.645 236.752 478.136 235.288 475.637C235.288 475.637 253.089 471.049 262.731 461.417C265.416 469.343 268.232 477.232 271.347 484.962C275.925 496.31 280.364 508.46 288.131 518.056Z" fill="white"/>
<path d="M118.281 477.428C117.805 478.621 117.321 479.805 116.836 480.999C108.919 500.348 99.9579 516.601 93.9434 535.502L93.5611 537.321C89.7752 536.519 81.3456 539.279 81.3456 539.279C74.9768 540.37 74.0444 535.502 74.0444 535.502C72.0675 528.546 68.1325 526.299 66.5939 525.665L67.9833 524.825C70.2585 521.375 71.6386 517.477 73.2238 513.636C79.49 498.464 84.1431 482.416 88.218 466.359C88.218 466.359 104.462 467.804 118.272 477.428H118.281Z" fill="white"/>
<path d="M159.198 284.592L156.578 292.173C155.142 292.191 153.743 292.107 152.391 291.949C144.362 291.035 138.133 287.426 135.597 285.748C134.786 285.216 134.357 284.871 134.357 284.871C134.655 283.65 137.406 277.757 137.546 277.468C143.523 282.354 153.696 284.032 159.198 284.592Z" fill="white"/>
<path d="M152.232 111.403C153.771 115.189 155.515 118.965 156.988 120.923C154.163 124.327 150.638 128.365 147.393 132.029C148.148 126.985 146.787 118.266 146.787 118.266C148.81 115.776 152.232 111.403 152.232 111.403Z" fill="white"/>
<path d="M140.39 111.403C140.409 111.655 140.744 116.597 141.5 118.266C141.5 118.266 137.154 127.805 137.154 130.043C137.117 125.884 137.332 121.875 137.658 118.266V118.238C137.788 116.653 138.926 114.098 140.39 111.403Z" fill="white"/>
<path d="M143.57 94.1707L143.989 97.7514C143.989 97.7514 144.689 99.8495 147.393 100.204C147.393 100.204 143.271 106.069 140.39 111.394C138.926 114.098 137.789 116.653 137.658 118.238C138.507 108.941 140.101 102.255 140.101 102.255C140.176 102.031 140.269 101.77 140.381 101.481H140.39C140.987 99.8868 142.022 97.5556 142.749 95.9611C143.225 94.9074 143.57 94.1707 143.57 94.1707Z" fill="white"/>
<path d="M172.169 90.6647C172.906 91.8489 173.689 93.5833 173.987 95.8865C173.987 95.8865 173.707 96.6978 173.223 98.0872C170.127 104.176 161.473 115.161 161.473 115.161C160.532 116.55 158.928 118.583 156.988 120.924C155.515 118.965 153.771 115.189 152.233 111.403C150.032 105.985 148.232 100.558 148.148 100.269C148.363 100.269 148.577 100.26 148.81 100.241C148.81 100.241 165.828 98.0592 170.919 91.3827C170.919 91.3827 170.789 90.3197 170.621 88.7438C170.724 88.8277 171.423 89.4618 172.169 90.6647Z" fill="white"/>
<path d="M151.953 58.7832C155.422 59.0163 158.163 60.3218 158.07 61.7019C157.986 63.0819 155.095 64.0144 151.626 63.7906C148.158 63.5575 145.425 62.252 145.509 60.872C145.603 59.4919 148.493 58.5594 151.953 58.7832Z" fill="#FFD6C0"/>
<path d="M148.391 50.046C149.593 50.1299 150.451 51.6965 150.311 53.5334C150.172 55.3704 149.09 56.7878 147.887 56.7039C146.684 56.6106 145.817 55.044 145.957 53.2071C146.097 51.3701 147.188 49.9527 148.391 50.046Z" fill="#272525"/>
<path d="M127.084 48.8244C128.016 48.8337 128.762 50.2977 128.734 52.0881C128.715 53.8877 127.951 55.3331 127.018 55.3237C126.086 55.3144 125.34 53.8504 125.358 52.0601C125.386 50.2604 126.151 48.8151 127.084 48.8244Z" fill="#272525"/>
<path d="M128.137 58.0093C127.764 59.2028 127.997 61.9723 128.958 62.7836" stroke="#272525" stroke-width="0.932476" stroke-linecap="round" stroke-linejoin="round"/>
<path d="M130.469 71.409C132.119 72.6492 133.919 73.3765 136.091 73.3858C138.413 73.4045 142.693 72.472 143.989 70.3553" stroke="#272525" stroke-width="0.932476" stroke-linecap="round" stroke-linejoin="round"/>
<path d="M139.439 34.8093C139.439 34.8093 141.528 31.4151 145.593 31.4057C148.185 31.3964 151.589 32.7672 155.757 37.2524" stroke="#272525" stroke-width="0.932476" stroke-linecap="round" stroke-linejoin="round"/>
<path d="M120.789 34.9212C120.789 34.9212 123.018 29.5688 127.969 35.8537" stroke="#272525" stroke-width="0.932476" stroke-linecap="round" stroke-linejoin="round"/>
<path d="M162.676 43.1643C161.138 41.4485 159.571 39.1733 158.191 36.1707C157.277 34.2125 156.447 31.9466 155.757 29.3264" stroke="#272525" stroke-width="0.932476" stroke-linecap="round" stroke-linejoin="round"/>
<path d="M134.301 86.1608C132.865 84.9858 131.531 83.6431 130.273 82.3842C124.053 76.1646 121.89 69.1617 121.153 60.7135C120.901 57.8508 120.761 54.8669 120.705 51.9389C120.687 50.8666 120.677 49.8035 120.677 48.7592C120.696 44.7402 119.81 40.572 120.211 36.6743C121.265 26.5383 135 14.1923 135.019 14.183C135.616 13.6421 139.43 17.1855 139.719 17.4746C143.523 21.2884 144.26 26.4637 145.593 31.4058C145.621 31.499 145.64 31.583 145.668 31.6762C146.815 35.7977 148.475 39.7887 151.16 43.155C152.764 45.1784 154.834 46.8383 157.277 47.7521C157.277 47.7521 162.154 49.3466 167.394 48.8244C168.327 48.7312 169.278 48.5727 170.211 48.3302C170.211 48.3302 166.677 47.5469 162.891 43.3974" stroke="#272525" stroke-width="0.932476" stroke-linecap="round" stroke-linejoin="round"/>
<path d="M170.919 76.0714C170.658 76.4443 170.36 76.8267 170.024 77.1996C165.828 81.9739 156.018 86.7668 148.493 88.8463C146.507 89.3964 144.773 89.816 143.057 89.844C141.397 89.8627 139.737 89.5177 137.844 88.5572C136.585 87.9231 135.411 87.0932 134.301 86.1701" stroke="#272525" stroke-width="0.932476" stroke-linecap="round" stroke-linejoin="round"/>
<path d="M161.473 27.5826C161.473 27.5826 168.122 44.246 176.272 44.8334C176.272 44.8334 168.299 48.9643 162.891 43.3974C162.825 43.3228 162.751 43.2482 162.676 43.1643" stroke="#272525" stroke-width="0.932476" stroke-linecap="round" stroke-linejoin="round"/>
<path d="M170.919 76.0713C172.971 76.9945 175.591 77.4794 177.82 77.0411C179.908 76.6215 182.109 75.344 183.732 74.0013C186.818 71.4369 189.494 67.4926 189.336 63.3337C189.252 61.3196 188.543 59.2308 187.032 57.8321C185.82 56.7131 183.097 55.4916 181.391 55.818C179.899 56.0977 178.043 56.853 176.98 58.0093C173.941 61.273 168.877 65.1148 168.877 65.1148C168.933 60.8067 167.395 48.8244 167.395 48.8244" stroke="#272525" stroke-width="0.932476" stroke-linecap="round" stroke-linejoin="round"/>
<path d="M143.057 89.8348L143.57 94.1708L143.989 97.7515C143.989 97.7515 144.689 99.8495 147.393 100.204C147.626 100.241 147.878 100.26 148.148 100.269C148.363 100.269 148.577 100.26 148.81 100.241C148.81 100.241 165.828 98.0592 170.919 91.3827C170.919 91.3827 170.789 90.3196 170.621 88.7438C170.267 85.4148 169.754 79.8106 170.024 77.1997" stroke="#272525" stroke-width="0.932476" stroke-linecap="round" stroke-linejoin="round"/>
<path d="M163.003 129.232C160.373 139.275 157.454 152.506 156.988 163.183C156.988 163.183 156.14 180.649 156.522 197.741C156.718 206.32 157.231 214.796 158.312 220.941" stroke="#272525" stroke-width="0.932476" stroke-linecap="round" stroke-linejoin="round"/>
<path d="M170.611 88.7344C170.714 88.8277 171.413 89.4618 172.159 90.6647C172.896 91.8489 173.679 93.5833 173.978 95.8865C173.978 95.8865 173.698 96.6978 173.213 98.0872C172.085 101.314 169.838 107.654 167.385 114.07C167.385 114.07 165.296 120.411 162.993 129.223" stroke="#272525" stroke-width="0.932476" stroke-linecap="round" stroke-linejoin="round"/>
<path d="M163.003 129.232C163.515 127.451 180.197 120.756 180.197 120.756C180.468 114.536 180.281 102.684 180.216 99.2993C180.216 98.7119 180.197 98.3762 180.197 98.3762C178.957 95.5788 172.169 90.6646 172.169 90.6646" stroke="#272525" stroke-width="0.932476" stroke-linecap="round" stroke-linejoin="round"/>
<path d="M137.547 277.459C136.828 276.89 136.175 276.265 135.597 275.584" stroke="#272525" stroke-width="0.932476" stroke-linecap="round" stroke-linejoin="round"/>
<path d="M180.216 99.2993C180.216 99.2993 202.269 107.85 205.999 111.897C205.999 111.897 206.475 112.335 207.127 113.314C207.967 114.573 209.114 116.746 209.915 120.019C210.801 123.693 211.258 128.766 210.354 135.517C210.354 135.517 197.653 190.999 195.527 201.564C195.527 201.564 187.023 234.602 173.67 264.198C173.167 265.327 172.654 266.446 172.132 267.555C169.278 273.644 166.229 279.528 163.003 284.871C163.003 284.871 161.511 284.834 159.198 284.592C153.697 284.032 143.523 282.354 137.546 277.467" stroke="#272525" stroke-width="0.932476" stroke-linecap="round" stroke-linejoin="round"/>
<path d="M204.6 113.296C204.6 113.296 185.354 110.498 173.222 142.818C173.222 142.818 171.992 146.865 173.222 152.46C173.073 153.644 172.915 154.819 172.747 156.003C171.637 164.47 170.369 172.918 168.961 181.339C166.639 195.223 163.049 207.923 158.312 220.941C157.799 222.358 157.277 223.766 156.736 225.184C154.228 231.776 151.757 238.443 149.193 245.055C148.913 245.782 148.633 246.509 148.344 247.237C146.097 252.953 143.635 258.604 141.406 264.273C140.092 267.63 137.742 272.87 135.597 275.584" stroke="#272525" stroke-width="0.932476" stroke-linecap="round" stroke-linejoin="round"/>
<path d="M137.546 277.458C137.406 277.757 134.655 283.65 134.357 284.871C134.357 284.871 134.786 285.216 135.597 285.748C138.133 287.426 144.362 291.035 152.391 291.949C153.743 292.107 155.142 292.191 156.578 292.173L159.198 284.592" stroke="#272525" stroke-width="0.932476" stroke-linecap="round" stroke-linejoin="round"/>
<path d="M137.154 130.08C137.182 134.099 137.453 138.258 138.087 142.352C138.087 142.352 142.395 137.652 147.393 132.029C150.638 128.365 154.163 124.327 156.988 120.923C158.928 118.583 160.531 116.55 161.473 115.161C161.473 115.161 170.127 104.176 173.222 98.0871" stroke="#272525" stroke-width="0.932476" stroke-linecap="round" stroke-linejoin="round"/>
<path d="M137.658 118.266C137.332 121.875 137.117 125.884 137.154 130.043" stroke="#272525" stroke-width="0.932476" stroke-linecap="round" stroke-linejoin="round"/>
<path d="M140.381 101.481C140.269 101.77 140.176 102.031 140.101 102.255C140.101 102.255 138.507 108.941 137.658 118.238" stroke="#272525" stroke-width="0.932476" stroke-linecap="round" stroke-linejoin="round"/>
<path d="M143.57 94.1707C143.57 94.1707 143.225 94.9074 142.749 95.9611C142.022 97.5556 140.987 99.8868 140.39 101.472" stroke="#272525" stroke-width="0.932476" stroke-linecap="round" stroke-linejoin="round"/>
<path d="M128.454 125.968C128.315 126.369 124.053 138.258 120.873 153.327C119.447 160.059 118.244 167.426 117.722 174.681C117.722 174.681 116.127 205.975 117.722 217.733" stroke="#272525" stroke-width="0.932476" stroke-linecap="round" stroke-linejoin="round"/>
<path d="M140.39 101.472H140.381C140.129 101.892 131.998 115.161 128.464 125.959" stroke="#272525" stroke-width="0.932476" stroke-linecap="round" stroke-linejoin="round"/>
<path d="M120.873 153.299V153.327C120.911 154.12 121.647 171.156 123.316 179.809C124.137 184.873 125.396 189.283 125.648 194.403C125.918 199.83 125.741 205.369 124.827 210.768C123.969 215.859 121.386 221.09 121.451 226.275C121.47 228.746 122.897 230.797 122.999 233.278C123.065 234.807 122.943 236.541 122.841 238.248C122.776 239.199 122.72 240.15 122.701 241.045C122.701 241.549 122.636 242.136 122.542 242.285C122.542 242.285 123.633 242.49 125.377 242.798C131.457 243.852 145.509 246.118 149.193 245.055" stroke="#272525" stroke-width="0.932476" stroke-linecap="round" stroke-linejoin="round"/>
<path d="M169.595 143.648C170.695 140.813 171.898 138.081 173.222 135.517C173.222 135.517 168.933 128.458 163.003 129.232" stroke="#272525" stroke-width="0.932476" stroke-linecap="round" stroke-linejoin="round"/>
<path d="M158.75 197.685C158.75 197.685 160.513 167.137 169.595 143.667" stroke="#272525" stroke-width="0.932476" stroke-linecap="round" stroke-linejoin="round"/>
<path d="M169.595 143.648V143.667C169.549 144.151 168.859 152.357 172.747 156.003" stroke="#272525" stroke-width="0.932476" stroke-linecap="round" stroke-linejoin="round"/>
<path d="M135.094 101.491C133.527 102.74 131.914 104.111 130.468 105.519C130.468 105.519 124.715 111.431 123.316 112.513C123.316 112.513 121.946 113.911 128.464 125.959H128.454C128.221 126.136 123.522 129.623 119.018 133.624C116.127 136.207 113.311 138.995 111.819 141.27C111.819 141.27 112.751 179.343 112.91 187.269C112.91 187.269 113.936 205.63 116.062 217.77C116.556 220.568 117.106 223.039 117.722 224.876C117.722 224.876 121.423 235.916 122.832 238.248" stroke="#272525" stroke-width="0.932476" stroke-linecap="round" stroke-linejoin="round"/>
<path d="M142.749 95.9611C142.749 95.9611 139.085 98.311 135.122 101.472" stroke="#272525" stroke-width="0.932476" stroke-linecap="round" stroke-linejoin="round"/>
<path d="M135.122 101.472C135.122 101.472 135.112 101.472 135.094 101.491C134.823 101.631 132.828 102.666 130.469 104.027C127.251 105.883 123.363 108.344 122.235 109.948C122.235 109.948 118.346 116.401 119.12 127.432L119.018 133.624" stroke="#272525" stroke-width="0.932476" stroke-linecap="round" stroke-linejoin="round"/>
<path d="M152.233 111.403C153.771 115.189 155.515 118.965 156.988 120.923" stroke="#272525" stroke-width="0.932476" stroke-linecap="round" stroke-linejoin="round"/>
<path d="M148.139 100.26C148.223 100.558 150.023 105.985 152.223 111.394" stroke="#272525" stroke-width="0.932476" stroke-linecap="round" stroke-linejoin="round"/>
<path d="M140.39 111.403C138.926 114.098 137.789 116.653 137.658 118.238V118.266" stroke="#272525" stroke-width="0.932476" stroke-linecap="round" stroke-linejoin="round"/>
<path d="M147.393 100.204C147.393 100.204 143.271 106.069 140.39 111.394" stroke="#272525" stroke-width="0.932476" stroke-linecap="round" stroke-linejoin="round"/>
<path d="M140.39 111.394C140.409 111.655 140.744 116.597 141.5 118.266C141.5 118.266 137.154 127.805 137.154 130.043V130.08" stroke="#272525" stroke-width="0.932476" stroke-linecap="round" stroke-linejoin="round"/>
<path d="M152.232 111.394C152.232 111.394 148.81 115.776 146.787 118.266C146.787 118.266 148.148 126.985 147.393 132.029" stroke="#272525" stroke-width="0.932476" stroke-linecap="round" stroke-linejoin="round"/>
<path d="M134.301 86.1608C134.245 86.6457 132.744 100.25 130.469 104.027" stroke="#272525" stroke-width="0.932476" stroke-linecap="round" stroke-linejoin="round"/>
<path d="M177.82 77.0411C177.82 77.0411 177.717 87.3357 185.643 96.6604" stroke="#272525" stroke-width="0.932476" stroke-linecap="round" stroke-linejoin="round"/>
<path d="M185.177 30.4547C185.587 34.054 186.781 37.7746 187.629 41.2993C189.121 47.5563 190.464 53.8038 192.17 60.0141C194.492 68.481 197.336 76.6775 200.442 84.8926C202.278 89.7601 204.61 94.4878 206.894 99.1501C209.011 103.495 211.818 107.44 213.925 111.739" stroke="#272525" stroke-width="0.932476" stroke-linecap="round" stroke-linejoin="round"/>
<path d="M117.824 48.8151C116.491 46.5679 115.325 42.9219 115.857 37.2524" stroke="#272525" stroke-width="0.932476" stroke-linecap="round" stroke-linejoin="round"/>
<path d="M120.789 51.9855C120.789 51.9855 120.761 51.9668 120.706 51.9389C120.361 51.7337 119.027 50.8479 117.833 48.8244" stroke="#272525" stroke-width="0.932476" stroke-linecap="round" stroke-linejoin="round"/>
<path d="M117.833 48.8244H117.824C115.586 47.7987 114.43 44.9547 113.609 42.8193C111.558 37.4389 111.334 31.4617 113.525 26.0907C116.22 19.5074 119.904 12.2248 126.356 9.31544C127.373 8.84921 128.454 8.50419 129.611 8.2804" stroke="#272525" stroke-width="0.932476" stroke-linecap="round" stroke-linejoin="round"/>
<path d="M225.422 119.972C225.74 120.84 236.827 150.586 230.234 167.09C230.234 167.09 224.938 168.769 218.625 170.168C215.753 170.802 212.676 171.38 209.794 171.715" stroke="#272525" stroke-width="0.932476" stroke-linecap="round" stroke-linejoin="round"/>
<path d="M126.356 9.31544C126.356 9.31544 133.163 0.615436 152.559 0.46624C159.972 0.400967 167.096 1.07235 173.978 4.13087C188.394 10.5277 193.14 24.1884 196.096 38.6791C197.252 44.3672 197.775 50.1952 198.884 55.9113C201.393 68.826 205.346 81.6103 212.415 92.7814C216.573 99.346 221.963 104.838 227.353 110.349C231.549 114.62 235.754 118.9 239.382 123.702C245.368 131.628 250.721 141.494 250.916 151.677L247.494 154.166C246.646 149.243 246.068 144.608 244.081 139.899C242.17 135.349 240.081 130.686 237.237 126.621C233.815 121.735 229.982 116.382 225.6 112.056C224.593 111.058 223.548 110.116 222.476 109.249C222.476 109.249 247.494 145.643 240.193 163.426L236.463 165.356C236.463 165.356 241.592 146.091 225.432 119.991" stroke="#272525" stroke-width="0.932476" stroke-linecap="round" stroke-linejoin="round"/>
<path d="M210.354 135.517C210.354 135.517 209.58 154.287 209.794 171.725C209.934 182.439 210.447 192.659 211.752 197.685C211.752 197.685 218.121 223.328 229.619 240.262C229.619 240.262 222.746 245.735 210.848 251.675C207.435 253.372 203.603 255.116 199.397 256.776C191.919 259.732 183.256 262.427 173.67 264.198" stroke="#272525" stroke-width="0.932476" stroke-linecap="round" stroke-linejoin="round"/>
<path d="M210.848 115.002C210.848 115.002 211.333 116.681 212.06 119.534C214.457 128.971 219.501 151.248 218.429 167.846" stroke="#272525" stroke-width="0.932476" stroke-linecap="round" stroke-linejoin="round"/>
<path d="M135.597 285.748C134.823 286.624 134.133 288.48 133.266 290.103C132.24 292.033 131.382 294.149 130.469 296.164C128.464 300.621 126.813 305.442 125.069 310.011C123.531 314.03 124.678 318.907 125.069 323.047C125.303 325.453 126.823 327.057 128.762 328.203C129.825 328.828 131.009 329.322 132.175 329.742" stroke="#272525" stroke-width="0.932476" stroke-linecap="round" stroke-linejoin="round"/>
<path d="M152.391 291.949C152.391 295.39 152.466 298.886 152.083 302.337C151.757 305.274 150.349 307.866 149.696 310.701C149.183 312.902 149.883 315.251 150.675 317.303C151.384 319.149 152.205 321.723 153.79 323.01C155.123 324.101 158.611 326.301 157.781 328.287C156.942 330.311 153.202 328.101 151.757 327.56C149.416 326.684 148.064 325.555 147.067 323.205C146.013 320.725 143.449 317.275 142.675 314.739" stroke="#272525" stroke-width="0.932476" stroke-linecap="round" stroke-linejoin="round"/>
<path d="M128.762 313.573C129.536 315.587 130.441 320.063 130.823 322.432C131.205 324.865 131.485 327.42 132.175 329.742C133.462 334.041 138.339 337.407 141.658 340.186C142.693 341.053 144.288 342.89 145.705 342.787C147.831 342.629 146.843 340.484 146.945 339.058" stroke="#272525" stroke-width="0.932476" stroke-linecap="round" stroke-linejoin="round"/>
<path d="M134.823 314.888C136.222 320.641 136.819 327.29 140.381 332.232C141.705 334.06 143.365 335.859 144.931 337.472C145.519 338.078 146.265 338.675 146.955 339.048C148.307 339.785 149.454 339.654 148.848 337.034C147.934 333.136 144.95 330.386 143.682 326.786C142.404 323.196 142.451 318.636 142.675 314.739" stroke="#272525" stroke-width="0.932476" stroke-linecap="round" stroke-linejoin="round"/>
<path d="M125.377 242.798C125.377 242.798 125.107 259.769 123.009 268.628C123.009 268.628 107.856 339.729 105.758 349.753C105.758 349.753 107.268 350.443 109.506 351.329C114.02 353.129 121.498 355.74 125.377 355.115" stroke="#272525" stroke-width="0.932476" stroke-linecap="round" stroke-linejoin="round"/>
<path d="M128.762 328.204L125.377 355.115C125.377 355.115 131.951 360.952 147.095 362.481C153.967 363.181 162.62 362.985 173.223 360.943C173.223 360.943 174.817 361.232 177.54 361.512C185.68 362.323 203.892 362.985 219.576 355.208C220.658 354.677 221.73 354.098 222.784 353.483C222.784 353.483 222.625 352.728 222.336 351.329C220.107 340.605 209.85 292.079 199.397 256.785" stroke="#272525" stroke-width="0.932476" stroke-linecap="round" stroke-linejoin="round"/>
<path d="M210.848 251.675C210.848 251.675 235.838 322.711 240.268 341.128C240.268 341.128 239.848 346.154 222.336 351.329" stroke="#272525" stroke-width="0.932476" stroke-linecap="round" stroke-linejoin="round"/>
<path d="M172.131 267.555C172.131 267.555 174.948 350.685 173.222 360.943" stroke="#272525" stroke-width="0.932476" stroke-linecap="round" stroke-linejoin="round"/>
<path d="M109.506 351.329C109.506 351.329 107.157 363.973 105.758 369.568C102.065 381.056 103.594 393.001 101.123 404.667C99.8646 410.588 98.6244 416.472 97.4774 422.384C95.2861 433.667 93.4398 445.08 90.7263 456.288C89.915 459.636 89.0851 463.002 88.2273 466.359C84.1523 482.416 79.4993 498.464 73.2331 513.636C71.6478 517.478 70.2678 521.375 67.9925 524.825L66.6031 525.665" stroke="#272525" stroke-width="0.932476" stroke-linecap="round" stroke-linejoin="round"/>
<path d="M147.095 362.481C144.857 368.123 142.749 373.83 140.912 379.611C137.788 389.458 137.621 398.708 136.586 408.919C134.189 432.557 127.074 455.431 118.29 477.428C117.815 478.621 117.33 479.805 116.845 480.999C108.928 500.348 99.9672 516.601 93.9527 535.502L93.5704 537.321" stroke="#272525" stroke-width="0.932476" stroke-linecap="round" stroke-linejoin="round"/>
<path d="M88.2273 466.359C88.2273 466.359 104.471 467.804 118.281 477.428" stroke="#272525" stroke-width="0.932476" stroke-linecap="round" stroke-linejoin="round"/>
<path d="M59.134 557.667C60.3183 558.022 61.372 558.311 62.2205 558.497" stroke="#272525" stroke-width="0.932476" stroke-linecap="round" stroke-linejoin="round"/>
<path d="M84.4694 566.787C85.3086 566.115 86.0639 565.267 86.7633 564.278C92.8244 555.784 93.9527 537.414 93.9527 537.414C93.8315 537.377 93.7009 537.349 93.5704 537.321C89.7845 536.519 81.3549 539.279 81.3549 539.279C74.9861 540.37 74.0537 535.502 74.0537 535.502C72.0768 528.546 68.1418 526.299 66.6032 525.665C66.2022 525.506 65.9691 525.45 65.9691 525.45C66.109 525.45 58.8077 527.157 55.0871 527.315C50.7231 527.492 46.4617 527.11 42.2376 526.504C38.4517 525.954 34.4421 525.534 30.535 525.665C29.0151 525.711 27.5045 525.842 26.0405 526.075C23.299 526.513 21.1636 527.511 19.3173 529.637C18.7112 530.327 17.9279 531.213 17.2286 532.173C16.2961 533.432 15.5128 534.803 15.4662 536.015C15.4662 536.015 21.835 543.167 42.508 551.867C42.508 551.867 52.6813 555.728 59.1247 557.658" stroke="#272525" stroke-width="0.932476" stroke-linecap="round" stroke-linejoin="round"/>
<path d="M15.4662 536.015C15.634 535.12 20.5016 537.283 20.7626 537.386C34.554 542.571 46.6855 550.73 59.7495 557.35C60.5607 557.761 61.3906 558.143 62.2205 558.497C66.9202 560.493 71.8437 561.649 76.7112 563.318C77.2614 563.505 83.9286 566.768 84.4414 566.796" stroke="#272525" stroke-width="0.932476" stroke-linecap="round" stroke-linejoin="round"/>
<path d="M59.1248 557.658C59.6749 557.984 79.0238 569.053 84.4322 566.796C84.4322 566.796 84.4508 566.796 84.4601 566.796" stroke="#272525" stroke-width="0.932476" stroke-linecap="round" stroke-linejoin="round"/>
<path d="M17.2286 532.173C17.2286 532.173 23.8958 532.481 38.9647 540.622C41.8087 542.16 44.9511 543.978 48.4106 546.123C48.4106 546.123 61.3068 554.506 66.4354 556.063C66.4354 556.063 81.1312 559.588 86.7634 564.278" stroke="#272525" stroke-width="0.932476" stroke-linecap="round" stroke-linejoin="round"/>
<path d="M30.535 525.665C30.535 525.665 39.6173 529.525 38.9646 540.622" stroke="#272525" stroke-width="0.932476" stroke-linecap="round" stroke-linejoin="round"/>
<path d="M177.54 361.512C180.384 375.75 182.081 390.763 187.424 404.294C190.399 411.819 196.721 416.332 201.859 422.225C208.321 429.638 212.62 438.487 217.72 446.805C223.623 456.419 229.581 465.939 235.288 475.637C236.752 478.136 238.207 480.645 239.643 483.172C244.977 492.58 250.525 501.989 255.588 511.547C257.975 516.06 261.976 522.494 261.649 527.688" stroke="#272525" stroke-width="0.932476" stroke-linecap="round" stroke-linejoin="round"/>
<path d="M219.576 355.208C219.054 363.255 218.746 371.396 219.249 379.443C219.594 384.973 220.378 388.833 223.819 393.281C229.339 400.433 235.465 407.082 241.051 414.178C247.988 422.99 252.94 432.193 256.511 442.842C258.581 449.015 260.614 455.225 262.731 461.417C265.416 469.343 268.232 477.232 271.347 484.962C275.925 496.31 280.364 508.46 288.131 518.056C288.644 518.69 289.493 519.79 290.052 520.284" stroke="#272525" stroke-width="0.932476" stroke-linecap="round" stroke-linejoin="round"/>
<path d="M235.288 475.637C235.288 475.637 253.089 471.049 262.731 461.417" stroke="#272525" stroke-width="0.932476" stroke-linecap="round" stroke-linejoin="round"/>
<path d="M304.534 537.321C304.021 536.211 303.07 534.738 301.895 533.134C297.708 527.399 290.696 519.855 290.696 519.855C290.528 519.939 290.313 520.088 290.052 520.284C287.46 522.317 280.905 529.646 280.905 529.646C278.891 532.593 276.867 530.728 276.867 530.728C269.976 527.343 263.784 527.502 261.649 527.688C261.136 527.735 260.856 527.781 260.856 527.781C259.98 528.947 259.448 530.775 258.88 532.127C258.171 533.814 257.229 535.306 256.39 536.948C254.842 539.959 253.173 542.813 250.72 545.153C248.744 547.037 246.021 547.419 243.456 548.025C239.922 548.846 237.2 549.34 234.141 551.364C230.299 553.9 230.001 559.206 229.786 563.672C229.74 564.717 229.702 565.714 229.619 566.628C233.115 567.225 236.696 567.626 240.221 567.952C243.568 568.26 246.925 568.288 250.282 568.269C253.667 568.269 257.117 568.391 260.474 567.896C268.074 566.768 275.254 561.845 281.548 557.677C283.273 556.53 284.97 555.345 286.583 554.04C286.583 554.04 301.27 541.284 304.534 537.321Z" stroke="#272525" stroke-width="0.932476" stroke-linecap="round" stroke-linejoin="round"/>
<path d="M229.796 563.672C229.796 563.672 242.776 565.062 253.714 564.437C257.882 564.204 261.761 563.672 264.512 562.665C264.512 562.665 276.867 557.695 286.351 549.144C286.351 549.144 300.739 536.239 301.895 533.134" stroke="#272525" stroke-width="0.932476" stroke-linecap="round" stroke-linejoin="round"/>
<path d="M243.457 548.025C243.457 548.025 254.171 556.035 253.714 564.437" stroke="#272525" stroke-width="0.932476" stroke-linecap="round" stroke-linejoin="round"/>
</g>
<defs>
<clipPath id="clip0_451_2306">
<rect width="290" height="568.745" fill="white" transform="translate(15)"/>
</clipPath>
</defs>
</svg>
