<svg width="1231" height="1105" viewBox="0 0 1231 1105" fill="none" xmlns="http://www.w3.org/2000/svg">
<path opacity="0.65" d="M497.054 1023.57C497.681 1024.42 498.319 1025.27 498.968 1026.1C570.475 1118.19 851 1164 894 959.251C986.438 957.511 1050.34 901.367 1048.35 803.797C1048.08 790.854 1046.5 778.261 1043.76 766.159C1044.75 765.756 1045.76 765.344 1046.75 764.921C1131.19 728.854 1165.99 627.367 1124.5 538.238C1111.16 509.594 1091.56 485.713 1068.31 467.693C1075.54 446.544 1079.02 423.536 1077.93 399.603C1073.52 302.242 995.278 226.401 903.085 230.005C869.06 165.634 787.512 128.779 702.927 144.966C689.675 147.499 677.012 151.213 665.057 155.945C664.468 155.073 663.868 154.206 663.258 153.344C611.279 80.1145 500.833 65.2336 416.57 120.098C389.487 137.732 368.409 160.422 353.995 185.53C330.981 182.448 306.723 183.231 282.324 188.481C264.147 192.393 247.154 198.509 231.633 206.422C144.092 216.822 79.3245 297.829 85.4271 391.878C86.267 404.8 88.3994 417.315 91.6825 429.297C90.7008 429.741 89.7191 430.19 88.7429 430.655C5.97911 470.117 -24.3048 572.931 21.1073 660.289C35.7011 688.364 56.3377 711.43 80.3717 728.489C74.0837 749.914 71.624 773.043 73.7673 796.908C82.4876 893.997 164.013 966.594 255.967 959.251C292.811 1022.18 375.918 1055.69 459.708 1036.08C472.84 1033.01 485.323 1028.79 497.059 1023.57L497.054 1023.57Z" fill="#EFCBC3"/>
<path opacity="0.65" d="M554.428 978.72C555.086 979.604 555.755 980.489 556.436 981.362C614.315 1055.61 730.767 1066.46 816.531 1005.6C844.095 986.045 865.131 961.456 879.079 934.634C905.617 937.086 934.319 937.448 960.975 936.954C1057.95 935.136 1134.85 851.013 1132.75 749.053C1132.47 735.527 1130.82 722.367 1127.94 709.721C1128.98 709.3 1130.04 708.869 1131.08 708.427C1219.66 670.738 1256.17 564.684 1212.64 471.544C1198.64 441.611 1178.09 416.655 1153.69 397.824C1161.28 375.724 1164.93 351.68 1163.79 326.67C1159.16 224.928 1077.08 145.674 980.369 149.441C944.676 82.1729 859.129 43.6593 770.396 60.5745C756.494 63.2218 743.21 67.1026 730.67 72.0478C730.052 71.1362 729.422 70.2302 728.782 69.3296C674.255 -7.19532 558.392 -22.7459 469.997 34.5877C441.586 53.0148 419.474 76.7255 404.354 102.963C380.211 99.743 354.764 100.562 329.168 106.047C310.1 110.136 292.273 116.527 275.991 124.796C184.157 135.664 116.214 220.316 122.616 318.598C123.497 332.101 125.734 345.179 129.178 357.701C128.148 358.165 127.119 358.634 126.095 359.12C39.2723 400.357 7.50335 507.797 55.1423 599.087C70.4518 628.425 92.1003 652.529 117.313 670.356C110.716 692.745 108.136 716.915 110.385 741.853C119.533 843.312 205.056 919.176 301.518 911.502C340.17 977.263 427.352 1012.28 515.25 991.793C529.026 988.583 542.122 984.168 554.433 978.72L554.428 978.72Z" fill="#DE3E69" fill-opacity="0.75"/>
</svg>
