<svg width="82" height="50" viewBox="0 0 82 50" fill="none" xmlns="http://www.w3.org/2000/svg">
<path d="M60.8781 32.8971C58.5132 38.8335 61.6383 44.6371 66.911 47.7742C74.44 52.2506 74.44 46.7365 77.2152 45.2886C79.6163 44.0459 73.4748 41.126 74.5728 38.375C75.6587 35.6602 82.6327 35.5637 81.7881 33.0298C80.7866 30.0375 82.8619 26.7798 75.4898 26.273C69.3604 25.8507 63.243 26.9608 60.8661 32.8971H60.8781Z" fill="#F58981"/>
<path d="M67.2248 29.6635C67.2248 29.6635 76.6119 26.3213 77.6255 28.65C78.639 30.9786 71.8218 35.7084 72.5458 38.1216C73.2697 40.5347 74.4763 40.7519 74.1264 42.2963C73.7644 43.8407 72.3407 45.1438 71.291 46.7848C70.2533 48.4137 63.5447 41.4517 63.3275 39.4247C63.0983 37.3855 59.7078 31.4854 67.2248 29.6755V29.6635Z" fill="#F4AA89"/>
<path d="M61.8556 33.0296C57.2464 44.5765 44.2154 50.2233 32.753 45.6504C21.2905 41.0774 15.7282 27.9982 20.3373 16.4513C24.9464 4.90434 37.9775 -0.742443 49.4399 3.83048C60.9024 8.40339 66.4647 21.4827 61.8556 33.0296Z" fill="#F58981"/>
<path d="M21.3267 16.5961C23.6916 10.6597 20.5666 4.85611 15.2938 1.71902C7.7648 -2.75737 7.7648 2.75668 4.98967 4.20457C2.58859 5.45941 8.62146 10.0323 5.71362 10.6115C-0.500244 11.8422 -0.439908 13.9416 0.404694 16.4754C1.40615 19.4677 -0.669165 22.7255 6.70301 23.2202C12.8324 23.6425 18.9497 22.5324 21.3267 16.5961Z" fill="#F58981"/>
<path d="M56.6069 30.8216C51.1652 34.5499 47.4128 29.0721 43.1898 22.9186C38.9788 16.765 35.902 12.2645 41.3437 8.53618C46.7853 4.80786 54.616 6.77458 58.827 12.9281C63.0379 19.0816 62.0485 27.0933 56.6069 30.8216Z" fill="#F6BC9F"/>
<path d="M35.1902 3.9751C35.1902 3.9751 26.3339 10.9732 26.6959 19.6123C27.0579 28.2514 40.3302 28.8305 37.9532 32.6071C35.5883 36.3716 50.2482 40.3775 55.1107 39.4605C59.9732 38.5435 44.0826 51.1039 30.2915 42.682C13.8579 32.6554 20.8078 7.4259 35.1781 3.9751H35.1902Z" fill="#E57373"/>
<path d="M59.8405 20.5175C59.8405 20.5175 61.2402 13.1212 54.4713 10.5512C47.7024 7.98119 60.1904 25.2714 59.8405 20.5175Z" fill="#F3EAC7"/>
<path d="M18.4913 6.34018C18.4913 6.34018 21.8214 9.9961 20.3374 16.4513C19.8065 18.78 10.552 22.098 8.15096 21.531C5.76194 20.9639 7.30636 18.0802 8.19922 15.8359C9.09209 13.5917 12.0965 14.5208 12.7963 13.4469C13.484 12.361 8.60946 10.2857 9.84017 10.1288C11.0709 9.97197 16.0299 12.3369 16.1264 10.5632C16.2229 8.78952 16.6814 2.64806 18.4913 6.34018Z" fill="#E57373"/>
<path d="M62.9053 30.4116C62.9053 30.4116 67.997 26.4179 70.6273 28.3001C72.1476 29.386 67.1403 33.778 67.1886 34.6467C67.2248 35.5154 70.7963 36.1428 69.469 38.4112C68.1539 40.6796 65.8252 42.6101 66.7904 43.1289C67.7557 43.6477 68.4917 45.6265 66.887 44.987C65.2701 44.3355 56.5828 36.1911 62.9173 30.4116H62.9053Z" fill="#E57373"/>
</svg>
