<svg width="115" height="79" viewBox="0 0 115 79" fill="none" xmlns="http://www.w3.org/2000/svg">
<path d="M84.4345 27.6897C81.6966 21.4958 85.6028 14.8785 92.0572 10.9156C101.257 5.27386 101.143 11.2532 104.463 12.528C107.334 13.6291 99.8523 17.4376 101.123 20.3129C102.394 23.1882 110.812 22.5176 109.739 25.355C108.466 28.7106 110.903 32.0225 101.971 33.343C94.5499 34.4392 87.1723 33.8836 84.4345 27.6897Z" fill="#70CACD"/>
<path opacity="0.1" d="M85.196 20.0493C85.196 20.0493 90.7355 15.0372 92.44 14.9568C94.1445 14.8765 94.5222 25.4505 96.2803 26.1556C98.0384 26.8607 102.312 31.0867 100.297 31.7915C98.287 32.4937 91.8253 31.8555 91.3187 31.1629C90.8147 30.4763 87.4873 22.4951 85.184 20.0546L85.196 20.0493Z" fill="#0B5258"/>
<path opacity="0.3" d="M88.3009 15.118C88.3009 15.118 97.2607 7.67029 99.7737 10.6339C101.212 12.3325 100.259 15.718 97.6652 17.1225C95.0623 18.5237 84.2093 17.4278 88.3069 15.1153L88.3009 15.118Z" fill="#FDFADB"/>
<path d="M92.3554 12.1732C92.3554 12.1732 101.166 7.62726 100.581 11.3586C100.388 12.5898 87.9754 14.009 92.3554 12.1732Z" fill="#FDFADB"/>
<path d="M30.4985 51.5308C27.7607 45.3369 20.2375 43.7716 12.9623 45.8776C2.59776 48.8836 7.0964 52.8241 5.80428 56.1378C4.68596 59.0023 12.5388 56.0324 13.8098 58.9077C15.0807 61.783 8.91858 67.5572 11.7392 68.6735C15.0781 69.9902 15.8865 74.0223 22.8758 68.305C28.6814 63.5548 33.2364 57.7247 30.4985 51.5308Z" fill="#70CACD"/>
<path opacity="0.1" d="M24.3294 46.9538C24.3294 46.9538 16.894 47.6769 15.6873 48.8834C14.4806 50.0899 22.0405 57.4892 21.3845 59.2614C20.7226 61.0362 20.9711 67.0415 22.8491 66.0252C24.7211 65.0116 28.5985 59.8033 28.4273 58.9624C28.2588 58.1275 24.5959 50.2946 24.3413 46.9485L24.3294 46.9538Z" fill="#0B5258"/>
<path opacity="0.3" d="M18.5987 45.9282C18.5987 45.9282 7.0599 47.5414 7.56015 51.3947C7.84828 53.6017 10.9871 55.1787 13.7781 54.2029C16.5663 53.221 23.061 44.457 18.5927 45.9309L18.5987 45.9282Z" fill="#FDFADB"/>
<path d="M13.6917 46.9444C13.6917 46.9444 4.39951 50.4002 7.55265 52.4793C8.5933 53.165 17.9975 44.9409 13.6917 46.9444Z" fill="#FDFADB"/>
<path d="M33.7928 28.9652L66.3557 14.5717C83.9849 6.77911 101.428 39.6481 78.3409 50.3043C71.2928 53.5558 56.7392 59.996 53.3025 61.3576C29.6306 70.7398 12.6971 40.3523 33.7988 28.9626L33.7928 28.9652Z" fill="#ACDBCF"/>
<path opacity="0.1" d="M25.4082 41.5217C25.4082 41.5217 27.8668 58.537 38.6288 60.9335C49.3847 63.3325 78.6827 51.8071 84.3238 43.5421C89.965 35.2771 85.2539 34.4523 71.0559 41.3082C56.8579 48.164 23.8331 27.5745 25.4109 41.5277L25.4082 41.5217Z" fill="#046969"/>
<path opacity="0.3" d="M40.5609 30.2485C40.5609 30.2485 72.3475 12.009 77.7484 15.3502C83.1433 18.694 88.699 32.2996 75.0265 35.128C61.348 37.9591 31.585 35.1326 40.5668 30.2458L40.5609 30.2485Z" fill="#FDFADB"/>
<path opacity="0.1" d="M32.3328 54.773C32.3328 54.773 36.1804 62.6675 47.8329 60.6961C59.4855 58.7247 68.6768 53.194 75.4483 50.5803C83.3185 47.5526 86.6277 41.5285 86.5755 40.4059C86.5206 39.2774 68.5246 51.8291 57.336 54.8987C42.7188 58.9109 29.879 51.7975 32.3301 54.767L32.3328 54.773Z" fill="#00363C"/>
<path d="M68.69 16.597C68.69 16.597 75.0956 13.1068 76.5619 15.6953C78.0283 18.2837 63.4936 20.0039 68.69 16.597Z" fill="#FDFADB"/>
</svg>
