<svg width="84" height="56" viewBox="0 0 84 56" fill="none" xmlns="http://www.w3.org/2000/svg">
<path d="M62.1887 21.1993C64.233 27.2586 70.3759 29.6454 76.4298 28.6044C85.0636 27.1284 81.4825 22.927 82.6524 20.0293C83.6637 17.5202 77.1025 19.2896 76.1633 16.471C75.2208 13.7004 80.4688 9.09987 78.1897 7.7167C75.4914 6.08832 74.9566 2.26843 69.0206 6.6666C64.0888 10.3206 60.1445 15.1399 62.1887 21.1993Z" fill="#FCB82E"/>
<path d="M64.9306 14.6201C64.9306 14.6201 69.8995 5.98672 72.1847 7.09218C74.4691 8.20968 72.3457 16.2321 74.457 17.5921C76.5683 18.9522 77.6368 18.3332 78.3661 19.7475C79.0961 21.1497 78.8604 23.081 79.1214 24.9966C79.3824 26.9122 69.7712 25.966 68.2794 24.562C66.7877 23.1581 60.384 20.875 64.9185 14.6193L64.9306 14.6201Z" fill="#F6CA10"/>
<path d="M63.0218 20.6612C67 32.4341 60.7564 45.1916 49.0574 49.1505C37.3583 53.1094 24.6561 46.7606 20.6778 34.9877C16.6996 23.2149 22.9432 10.4573 34.6423 6.49841C46.3413 2.53952 59.0436 8.88832 63.0218 20.6612Z" fill="#FCB82E"/>
<path d="M21.5115 34.45C19.4673 28.3907 13.3243 26.0038 7.27048 27.0448C-1.3513 28.5216 2.21777 32.7223 1.03582 35.6192C0.0244716 38.1283 7.58618 37.6943 5.73996 40.0275C1.82227 44.9937 3.21944 46.5486 5.49851 47.9318C8.19677 49.5602 8.73165 53.3801 14.6676 48.9819C19.5994 45.3279 23.5437 40.5086 21.4995 34.4492L21.5115 34.45Z" fill="#FCB82E"/>
<path d="M57.5876 22.3961C55.8631 28.7639 49.4471 27.0363 42.2475 25.0879C35.048 23.1394 29.7848 21.7173 31.5101 15.3374C33.2346 8.96956 40.4707 5.39446 47.6702 7.34289C54.8698 9.29133 59.312 16.0283 57.5876 22.3961Z" fill="#F6CA10"/>
<path d="M23.8826 15.8517C23.8826 15.8517 21.6922 26.9168 27.5627 33.264C33.446 39.5999 43.922 31.4373 44.5634 35.8446C45.2048 40.2519 58.9553 33.7797 62.0618 29.9332C65.1691 26.0746 61.2268 45.9483 45.2678 48.4905C26.2658 51.522 15.1879 27.8194 23.8818 15.8638L23.8826 15.8517Z" fill="#F58A28"/>
<path d="M53.3688 12.4453C53.3688 12.4453 49.6387 5.91234 42.8164 8.34175C36.0062 10.7719 56.7252 15.8339 53.3688 12.4453Z" fill="#F3EAC7"/>
<path d="M12.7133 28.4912C12.7133 28.4912 17.6178 29.1159 20.678 34.9881C21.7843 37.1043 16.8948 45.6341 14.7047 46.7598C12.5147 47.8854 11.8182 44.6837 11.0496 42.3962C10.281 40.1087 13.1684 38.8596 12.9858 37.59C12.8153 36.3213 7.74114 37.9103 8.57578 36.9858C9.41043 36.0612 14.7143 34.6565 13.6343 33.2433C12.5543 31.8301 8.91469 26.863 12.7013 28.4904L12.7133 28.4912Z" fill="#F58A28"/>
<path d="M62.1213 17.9905C62.1213 17.9905 63.3971 11.6415 66.6314 11.3705C68.4916 11.2146 67.5266 17.8017 68.126 18.4336C68.7253 19.0655 71.8441 17.2391 72.3032 19.8206C72.7743 22.4029 72.2522 25.3795 73.3194 25.1473C74.3867 24.9152 76.2416 25.944 74.5968 26.5009C72.952 27.0579 61.0425 26.4927 62.1213 17.9905Z" fill="#F58A28"/>
</svg>
