<svg width="375" height="477" viewBox="0 0 375 477" fill="none" xmlns="http://www.w3.org/2000/svg">
<g clip-path="url(#clip0_694_2497)">
<g opacity="0.3">
<path d="M273.767 111.18C261.972 111.18 252.392 101.6 252.392 89.8045C252.392 78.009 261.972 68.4287 273.767 68.4287C285.563 68.4287 295.143 78.009 295.143 89.8045C295.143 101.6 285.563 111.18 273.767 111.18ZM273.767 69.2343C262.432 69.2343 253.197 78.4693 253.197 89.8045C253.197 101.14 262.432 110.375 273.767 110.375C285.103 110.375 294.338 101.14 294.338 89.8045C294.338 78.4693 285.103 69.2343 273.767 69.2343Z" fill="white"/>
</g>
<g opacity="0.2">
<path d="M18.3272 84.5446C5.57436 84.5446 -4.81201 74.1729 -4.81201 61.4054C-4.81201 48.6379 5.55975 38.2661 18.3272 38.2661C31.0947 38.2661 41.4665 48.6379 41.4665 61.4054C41.4665 74.1729 31.0947 84.5446 18.3272 84.5446ZM18.3272 39.1572C6.05643 39.1572 -3.93552 49.1345 -3.93552 61.42C-3.93552 73.7054 6.05643 83.6827 18.3272 83.6827C30.5981 83.6827 40.59 73.7054 40.59 61.42C40.59 49.1345 30.5981 39.1572 18.3272 39.1572Z" fill="white"/>
</g>
<g opacity="0.2">
<path d="M341.774 315.035L288.966 284.548C287.753 283.846 287.344 282.283 288.031 281.071C288.732 279.858 290.295 279.449 291.508 280.136L344.316 310.623C345.529 311.324 345.938 312.887 345.251 314.1C344.55 315.312 342.987 315.721 341.774 315.035Z" fill="white"/>
</g>
<g opacity="0.3">
<path d="M9.76476 -0.11479L-11.5485 -12.4294C-12.0305 -12.707 -12.2058 -13.3351 -11.9283 -13.8318C-11.6507 -14.3139 -11.0226 -14.4892 -10.5259 -14.2116L10.7873 -1.89697C11.2694 -1.61942 11.4447 -0.991269 11.1671 -0.494593C10.8896 -0.0125253 10.2614 0.162764 9.76476 -0.11479Z" fill="white"/>
</g>
<g opacity="0.3">
<path d="M282.842 49.9997L253.333 32.9666C252.661 32.5722 252.427 31.7103 252.807 31.0237C253.202 30.3517 254.064 30.118 254.75 30.4978L284.259 47.5309C284.931 47.9253 285.164 48.7872 284.784 49.4738C284.39 50.1457 283.528 50.3795 282.842 49.9997Z" fill="white"/>
</g>
<g opacity="0.3">
<path d="M163.286 219.48L109.645 188.511C108.418 187.795 107.995 186.218 108.696 184.99C109.412 183.763 110.989 183.34 112.216 184.041L165.857 215.01C167.085 215.726 167.508 217.304 166.807 218.531C166.091 219.758 164.514 220.181 163.286 219.48Z" fill="white"/>
</g>
<g opacity="0.3">
<path d="M23.9288 201.242L-29.7122 170.273C-30.9393 169.557 -31.3629 167.98 -30.6617 166.753C-29.9459 165.526 -28.3683 165.102 -27.1412 165.803L26.4998 196.772C27.7269 197.488 28.1505 199.066 27.4494 200.293C26.7336 201.52 25.1559 201.944 23.9288 201.242Z" fill="white"/>
</g>
<g opacity="0.3">
<path d="M127.929 26.7776L74.2878 -4.19163C73.0607 -4.90742 72.6371 -6.48511 73.3383 -7.71219C74.0541 -8.93927 75.6317 -9.36292 76.8588 -8.66173L130.5 22.3075C131.727 23.0233 132.151 24.6009 131.449 25.828C130.734 27.0551 129.156 27.4788 127.929 26.7776Z" fill="white"/>
</g>
<g opacity="0.3">
<path d="M42.9288 26.7776L-10.7122 -4.19163C-11.9393 -4.90742 -12.3629 -6.48511 -11.6617 -7.71219C-10.9459 -8.93927 -9.36826 -9.36292 -8.14118 -8.66173L45.4998 22.3075C46.7269 23.0233 47.1505 24.6009 46.4494 25.828C45.7336 27.0551 44.1559 27.4788 42.9288 26.7776Z" fill="white"/>
</g>
</g>
<defs>
<clipPath id="clip0_694_2497">
<rect width="375" height="477" fill="white"/>
</clipPath>
</defs>
</svg>
