<svg width="1440" height="1555" viewBox="0 0 1440 1555" fill="none" xmlns="http://www.w3.org/2000/svg">
<g clip-path="url(#clip0_694_1440)">
<g opacity="0.3">
<path d="M1202.42 518.839C1151.97 518.839 1111 477.866 1111 427.419C1111 376.973 1151.97 336 1202.42 336C1252.87 336 1293.84 376.973 1293.84 427.419C1293.84 477.866 1252.87 518.839 1202.42 518.839ZM1202.42 339.445C1153.94 339.445 1114.45 378.941 1114.45 427.419C1114.45 475.897 1153.94 515.393 1202.42 515.393C1250.9 515.393 1290.39 475.897 1290.39 427.419C1290.39 378.941 1250.9 339.445 1202.42 339.445Z" fill="white"/>
</g>
<g opacity="0.2">
<path d="M109.961 404.922C55.4201 404.922 11 360.565 11 305.961C11 251.358 55.3576 207 109.961 207C164.565 207 208.922 251.358 208.922 305.961C208.922 360.565 164.565 404.922 109.961 404.922ZM109.961 210.811C57.4818 210.811 14.7485 253.482 14.7485 306.024C14.7485 358.566 57.4818 401.236 109.961 401.236C162.441 401.236 205.174 358.566 205.174 306.024C205.174 253.482 162.441 210.811 109.961 210.811Z" fill="white"/>
</g>
<g opacity="0.2">
<path d="M1493.27 1390.68L1267.42 1260.29C1262.23 1257.29 1260.48 1250.61 1263.42 1245.42C1266.42 1240.23 1273.1 1238.48 1278.29 1241.42L1504.14 1371.81C1509.32 1374.81 1511.07 1381.49 1508.14 1386.68C1505.14 1391.86 1498.45 1393.61 1493.27 1390.68Z" fill="white"/>
</g>
<g opacity="0.3">
<path d="M73.3412 42.854L-17.8105 -9.8129C-19.8722 -10.9999 -20.6219 -13.6864 -19.4349 -15.8105C-18.2478 -17.8722 -15.5614 -18.6219 -13.4372 -17.4349L77.7145 35.232C79.7762 36.419 80.5259 39.1055 79.3389 41.2296C78.1519 43.2913 75.4654 44.041 73.3412 42.854Z" fill="white"/>
</g>
<g opacity="0.3">
<path d="M572.713 156.729L457.758 90.3178C455.134 88.8184 454.197 85.3822 455.759 82.7582C457.258 80.1343 460.695 79.1971 463.319 80.759L578.274 147.17C580.897 148.67 581.835 152.106 580.273 154.73C578.773 157.354 575.337 158.291 572.713 156.729Z" fill="#552684"/>
</g>
<g opacity="0.3">
<path d="M1241.23 257.183L1115.03 184.336C1112.15 182.649 1111.15 178.963 1112.78 176.027C1114.46 173.153 1118.15 172.154 1121.09 173.778L1247.29 246.624C1250.16 248.311 1251.16 251.997 1249.54 254.934C1247.85 257.808 1244.16 258.807 1241.23 257.183Z" fill="white"/>
</g>
<g opacity="0.3">
<path d="M729.918 982.012L500.508 849.564C495.26 846.503 493.448 839.756 496.447 834.508C499.508 829.26 506.255 827.448 511.503 830.447L740.913 962.895C746.161 965.956 747.973 972.703 744.974 977.951C741.913 983.199 735.166 985.011 729.918 982.012Z" fill="white"/>
</g>
<g opacity="0.3">
<path d="M133.918 904.012L-95.4924 771.564C-100.74 768.503 -102.552 761.756 -99.5533 756.508C-96.492 751.26 -89.7446 749.448 -84.4967 752.447L144.913 884.895C150.161 887.956 151.973 894.703 148.974 899.951C145.913 905.199 139.166 907.011 133.918 904.012Z" fill="white"/>
</g>
<g opacity="0.2">
<path d="M385.269 229.675L159.42 99.2888C154.234 96.29 152.485 89.6051 155.421 84.4196C158.42 79.2341 165.105 77.4848 170.29 80.4212L396.139 210.808C401.325 213.806 403.074 220.491 400.138 225.677C397.139 230.862 390.454 232.611 385.269 229.675Z" fill="#552684"/>
</g>
<g opacity="0.25">
<path d="M755.5 550C675.833 550 611 485.21 611 405.5C611 325.79 675.833 261 755.5 261C835.167 261 900 325.79 900 405.5C900 485.21 835.167 550 755.5 550ZM755.5 266.494C678.833 266.494 616.452 328.833 616.452 405.542C616.452 482.251 678.833 544.59 755.5 544.59C832.167 544.59 894.548 482.251 894.548 405.542C894.548 328.833 832.167 266.494 755.5 266.494Z" fill="white"/>
</g>
<rect opacity="0.25" width="1422.57" height="48.6562" transform="matrix(0.707107 -0.707107 0.394102 0.919067 956 1243.91)" fill="#FFE1DC"/>
<rect opacity="0.25" width="1422.57" height="48.6562" transform="matrix(0.707107 -0.707107 0.394102 0.919067 -161 1929.91)" fill="#FFE1DC"/>
<path d="M-7.81791 686.205C-33.394 700.984 -33.394 737.932 -7.81791 752.667C17.7582 767.447 49.7505 748.995 49.7505 719.436C49.7505 689.878 17.7582 671.426 -7.81791 686.205Z" fill="white" fill-opacity="0.5"/>
</g>
<defs>
<clipPath id="clip0_694_1440">
<rect width="1440" height="1555" fill="white"/>
</clipPath>
</defs>
</svg>
