<svg width="778" height="266" viewBox="0 0 778 266" fill="none" xmlns="http://www.w3.org/2000/svg">
<path d="M627.769 152.831C627.769 152.831 619.12 140.282 587.874 145.109C556.628 149.935 561.092 175.999 561.092 175.999C561.092 175.999 554.076 167.448 537.337 171.31C520.598 175.171 520.919 190.478 520.919 190.478C520.919 190.478 511.991 175.999 494.695 175.999C477.398 175.999 464.007 185.169 465.68 209.302C465.68 209.302 444.478 203.993 432.761 216.059C421.043 228.126 428.297 262.877 428.297 262.877L627.769 265.29V152.831Z" fill="#9268B0"/>
<path d="M576.308 152.568C576.308 152.568 584.957 140.019 616.203 144.845C647.449 149.672 642.985 175.735 642.985 175.735C642.985 175.735 650.001 167.185 666.74 171.046C683.479 174.908 683.158 190.215 683.158 190.215C683.158 190.215 692.086 175.735 709.383 175.735C726.679 175.735 740.071 184.906 738.397 209.039C738.397 209.039 759.599 203.729 771.317 215.796C783.034 227.862 775.78 262.614 775.78 262.614L576.308 265.027V152.568Z" fill="#9268B0"/>
<path d="M218.303 44.7402L154.096 90.51V263.161H285.379V90.51L218.303 44.7402Z" fill="#EDE7DF"/>
<path d="M154.096 127.302H13.5195V263.161H154.096V127.302Z" fill="#DED5CC"/>
<path d="M425.955 127.302H285.379V263.161H425.955V127.302Z" fill="#DED5CC"/>
<path d="M152.843 250.422H0V263.158H152.843V250.422Z" fill="#BDB4B4"/>
<path d="M436.964 250.422H284.124V263.158H436.964V250.422Z" fill="#BDB4B4"/>
<path d="M175.561 250.422H154.096V263.158H175.561V250.422Z" fill="#FFFFF6"/>
<path d="M175.561 190.985H154.096V250.422H175.561V190.985Z" fill="#E3DDD6"/>
<path d="M175.561 190.985H154.096V193.934H175.561V190.985Z" fill="#BDB4B4"/>
<path d="M285.379 250.422H263.914V263.158H285.379V250.422Z" fill="#FFFFF6"/>
<path d="M285.379 190.985H263.914V250.422H285.379V190.985Z" fill="#E3DDD6"/>
<path d="M285.379 190.985H263.914V193.934H285.379V190.985Z" fill="#BDB4B4"/>
<path d="M285.376 178.247H154.096V190.982H285.376V178.247Z" fill="#FFFFF6"/>
<path d="M270 103H170V110H270V103Z" fill="#FFFFF6"/>
<path d="M185.704 118.81H169.9V178.247H185.704V118.81Z" fill="#E3DDD6"/>
<path d="M185.704 118.81H169.9V121.287H185.704V118.81Z" fill="#C0B9B9"/>
<path d="M269.574 118.81H253.773V178.247H269.574V118.81Z" fill="#E3DDD6"/>
<path d="M269.574 118.81H253.773V121.287H269.574V118.81Z" fill="#C0B9B9"/>
<path d="M13.6169 106.072H154.193V127.302H1.3501L13.6169 106.072Z" fill="#E77592"/>
<path d="M426.05 106.072H285.474V127.302H438.314L426.05 106.072Z" fill="#E77592"/>
<path d="M236.719 79.4205C236.719 88.7998 229.116 96.4021 219.737 96.4021C210.358 96.4021 202.755 88.7998 202.755 79.4205C202.755 70.0411 210.358 62.4388 219.737 62.4388C229.116 62.4388 236.719 70.0411 236.719 79.4205Z" fill="#91A8BA"/>
<path d="M234.836 79.4205C234.836 87.7593 228.076 94.519 219.737 94.519C211.398 94.519 204.639 87.7593 204.639 79.4205C204.639 71.0818 211.398 64.322 219.737 64.322C228.076 64.322 234.836 71.0818 234.836 79.4205Z" fill="#FFFFF6"/>
<path d="M224.736 33.9799L217.07 27.8451L209.406 33.9799L132.204 90.51H152.84L217.07 44.7653L281.303 90.51H301.939L224.736 33.9799Z" fill="#E77592"/>
<path d="M247.142 201.888H192.333V263.161H247.142V201.888Z" fill="#FFFFF6"/>
<path d="M197.494 201.888H192.333V263.161H197.494V201.888Z" fill="#BDB4B4"/>
<path d="M241.98 201.888H197.497V207.052H241.98V201.888Z" fill="#BDB4B4"/>
<path d="M247.141 201.888H241.978V263.161H247.141V201.888Z" fill="#BDB4B4"/>
<path d="M220.373 201.888H219.098V263.161H220.373V201.888Z" fill="#91A8BA"/>
<path d="M224.268 234.972H222.993V245.705H224.268V234.972Z" fill="#91A8BA"/>
<path d="M216.523 234.972H215.249V245.705H216.523V234.972Z" fill="#91A8BA"/>
<path d="M202.912 126.122C196.944 126.122 192.107 130.96 192.107 136.927V171.881H213.714V136.927C213.714 130.96 208.877 126.122 202.909 126.122H202.912Z" fill="#BDB4B4"/>
<path d="M233.912 126.122C227.945 126.122 223.107 130.96 223.107 136.927V171.881H244.715V136.927C244.715 130.96 239.877 126.122 233.91 126.122H233.912Z" fill="#BDB4B4"/>
<path d="M50.5573 145.994H29.3296V186.918H50.5573V145.994Z" fill="#FFFFF6"/>
<path d="M79.5685 145.994H58.3408V186.918H79.5685V145.994Z" fill="#FFFFF6"/>
<path d="M108.582 145.994H87.3545V186.918H108.582V145.994Z" fill="#FFFFF6"/>
<path d="M137.594 145.994H116.366V186.918H137.594V145.994Z" fill="#FFFFF6"/>
<path d="M50.5573 193.401H29.3296V234.322H50.5573V193.401Z" fill="#FFFFF6"/>
<path d="M79.5685 193.401H58.3408V234.322H79.5685V193.401Z" fill="#FFFFF6"/>
<path d="M108.582 193.401H87.3545V234.322H108.582V193.401Z" fill="#FFFFF6"/>
<path d="M137.594 193.401H116.366V234.322H137.594V193.401Z" fill="#FFFFF6"/>
<path d="M322.762 145.994H301.535V186.918H322.762V145.994Z" fill="#FFFFF6"/>
<path d="M351.774 145.994H330.546V186.918H351.774V145.994Z" fill="#FFFFF6"/>
<path d="M380.788 145.994H359.56V186.918H380.788V145.994Z" fill="#FFFFF6"/>
<path d="M409.799 145.994H388.571V186.918H409.799V145.994Z" fill="#FFFFF6"/>
<path d="M322.762 193.401H301.535V234.322H322.762V193.401Z" fill="#FFFFF6"/>
<path d="M351.774 193.401H330.546V234.322H351.774V193.401Z" fill="#FFFFF6"/>
<path d="M380.788 193.401H359.56V234.322H380.788V193.401Z" fill="#FFFFF6"/>
<path d="M409.799 193.401H388.571V234.322H409.799V193.401Z" fill="#FFFFF6"/>
<path d="M218.85 80.9549L217.966 79.4205L218.85 77.8861H220.625L221.509 79.4205L220.625 80.9549H218.85Z" fill="#91A8BA"/>
<path d="M219.933 65.848H219.542V77.8861H219.933V65.848Z" fill="#91A8BA"/>
<path d="M220.022 79.2297L219.807 79.5553L227.215 84.4663L227.431 84.1407L220.022 79.2297Z" fill="#91A8BA"/>
</svg>
