<svg width="412" height="183" viewBox="0 0 412 183" fill="none" xmlns="http://www.w3.org/2000/svg">
<path d="M32.0184 13.8655V76.6887C32.0184 78.2215 31.5646 79.4316 30.6772 80.3291C29.7797 81.2265 28.5696 81.6702 27.0369 81.6702H25.1411C23.9411 81.6702 22.9932 81.3173 22.2974 80.6215C21.6016 79.9257 21.2487 78.9778 21.2487 77.7778V75.4887C21.2487 74.4904 20.7545 73.9963 19.7562 73.9963H16.4688C15.4705 73.9963 14.9764 74.5005 14.9764 75.4887V80.7728C14.9764 82.3055 14.5327 83.5156 13.6352 84.4131C12.7378 85.3105 11.5277 85.7643 9.99492 85.7643H9.19829C7.66552 85.7643 6.45544 85.3105 5.55797 84.4131C4.66049 83.5156 4.2168 82.3055 4.2168 80.7728V13.8655C4.2168 12.3327 4.67058 11.1226 5.55797 10.2251C6.45544 9.32767 7.66552 8.88397 9.19829 8.88397H27.047C28.5797 8.88397 29.7898 9.32767 30.6873 10.2251C31.5848 11.1226 32.0284 12.3327 32.0284 13.8655H32.0184ZM14.9663 20.3495V62.43C14.9663 63.3577 15.2689 64.1241 15.8638 64.719C16.4588 65.314 17.2251 65.6165 18.1529 65.6165C19.0806 65.6165 19.8268 65.314 20.4016 64.719C20.9663 64.1241 21.2487 63.3577 21.2487 62.43V20.3394C21.2487 19.4117 20.9663 18.6654 20.4016 18.1007C19.8369 17.536 19.0907 17.2537 18.1529 17.2537C17.2151 17.2537 16.4588 17.536 15.8638 18.1007C15.2689 18.6654 14.9663 19.4117 14.9663 20.3394V20.3495ZM40.9931 57.9426H85.5644C87.0971 57.9426 88.3072 58.3964 89.2047 59.2939C90.1022 60.1913 90.5459 61.4014 90.5459 62.9342V82.8803C90.5459 83.6164 90.9089 83.9795 91.645 83.9795H92.7442C93.3391 83.9795 93.8433 84.1811 94.2366 84.5744C94.6299 84.9677 94.8316 85.5021 94.8316 86.1677V88.0635C94.8316 89.324 94.4685 90.3223 93.7324 91.0584C92.9963 91.7946 91.9979 92.1576 90.7374 92.1576H35.8906C34.6301 92.1576 33.6318 91.7946 32.8957 91.0584C32.1595 90.3223 31.7965 89.3341 31.7965 88.0635V86.0668C31.7965 84.6652 32.4923 83.9694 33.894 83.9694H34.9931C35.6587 83.9694 35.9915 83.6064 35.9915 82.8702V62.9241C35.9915 61.3913 36.4452 60.1812 37.3427 59.2838C38.2402 58.3863 39.4503 57.9325 40.983 57.9325L40.9931 57.9426ZM70.8115 25.936H90.1526C91.282 25.936 92.2097 26.299 92.9458 27.0352C93.6719 27.7713 94.045 28.699 94.045 29.8284C94.045 30.9578 93.682 31.8856 92.9458 32.6217C92.2097 33.3578 91.282 33.7208 90.1526 33.7208H82.7711C80.4417 33.7208 80.0787 34.5881 81.6719 36.3124C83.598 38.3091 85.4635 40.3561 87.2585 42.4435C89.0534 44.5309 90.8181 46.6788 92.5425 48.8771C93.2685 49.8754 93.571 50.8939 93.44 51.9225C93.3089 52.951 92.7442 53.8384 91.7458 54.5645C90.9492 55.1594 90.0517 55.4619 89.0534 55.4619C87.8534 55.4619 86.7946 54.9678 85.8669 53.9695L83.5677 51.6804C83.3055 51.4183 82.9022 51.2771 82.3677 51.2771C75.7224 51.7409 69.1073 52.2451 62.5224 52.7695C55.9376 53.304 49.3225 53.8989 42.6771 54.5645C41.3461 54.5645 40.1965 54.2619 39.2385 53.667C38.2704 53.072 37.6251 52.0737 37.2923 50.672L36.9898 49.0788C36.7276 47.9494 36.8385 46.8704 37.3427 45.8418C37.8368 44.8132 38.5931 43.9662 39.5914 43.3006C41.1141 42.3023 42.5864 41.1931 43.978 39.9628C45.3797 38.7326 46.7007 37.4519 47.9712 36.1208C48.6973 35.3948 48.9494 34.8099 48.7175 34.3763C48.4855 33.9427 47.8704 33.7309 46.8721 33.7309H37.5948C36.4654 33.7309 35.5377 33.3679 34.8015 32.6318C34.0654 31.9057 33.7024 30.9679 33.7024 29.8385C33.7024 28.7091 34.0654 27.7814 34.8015 27.0452C35.5377 26.3091 36.4654 25.9461 37.5948 25.9461H55.8468C56.8452 25.9461 57.3393 25.452 57.3393 24.4537V19.8654C57.3393 18.8671 56.8452 18.373 55.8468 18.373H42.3847C41.2553 18.373 40.3276 18.01 39.5914 17.2739C38.8553 16.5478 38.4923 15.61 38.4923 14.4806C38.4923 13.3512 38.8553 12.4235 39.5914 11.6873C40.3276 10.9512 41.2553 10.5882 42.3847 10.5882H55.8468C56.8452 10.5882 57.3393 10.0941 57.3393 9.09574V5.60668C57.3393 4.07391 57.793 2.86383 58.6905 1.96635C59.588 1.06888 60.7981 0.625183 62.3308 0.625183H64.3275C65.8602 0.625183 67.0703 1.06888 67.9678 1.96635C68.8653 2.86383 69.319 4.07391 69.319 5.60668V9.09574C69.319 10.0941 69.8132 10.5882 70.8115 10.5882H84.6669C85.7963 10.5882 86.724 10.9512 87.4602 11.6873C88.1862 12.4235 88.5593 13.3512 88.5593 14.4806C88.5593 15.61 88.1963 16.5377 87.4602 17.2739C86.724 18.01 85.7963 18.373 84.6669 18.373H70.8115C69.8132 18.373 69.319 18.8671 69.319 19.8654V24.4537C69.319 25.452 69.8132 25.9461 70.8115 25.9461V25.936ZM46.5797 67.714V81.3778C46.5797 83.1122 47.4469 83.9694 49.1712 83.9694C50.8956 83.9694 51.7628 83.1022 51.7628 81.3778V67.714C51.7628 65.9896 50.8956 65.1224 49.1712 65.1224C47.4469 65.1224 46.5797 65.9896 46.5797 67.714ZM73.8972 33.7108H65.7191C64.3174 33.7108 63.1275 34.2049 62.1292 35.2032C61.393 35.9393 60.6468 36.6654 59.8804 37.4015C59.1141 38.1376 58.3376 38.8637 57.541 39.5897C55.746 41.183 54.9695 42.4334 55.2015 43.3309C55.4334 44.2284 56.7141 44.6821 59.0435 44.6821H59.4367C61.8266 44.6116 64.2065 44.5511 66.5661 44.4805C68.9258 44.42 71.2653 44.3494 73.5947 44.2788C74.8552 44.1477 75.0266 43.6838 74.0888 42.8872C73.756 42.625 73.4737 42.383 73.2417 42.1914C73.0098 41.9897 72.7577 41.788 72.4955 41.5964C71.5678 40.7998 71.1039 39.9326 71.1039 39.0049C71.1039 38.0771 71.5678 37.2402 72.4955 36.5141L74.3913 35.1124C74.9257 34.7192 75.1577 34.3864 75.0871 34.1141C75.0165 33.8519 74.6232 33.7108 73.8871 33.7108H73.8972ZM60.7376 67.714V81.277C60.7376 82.0736 60.9897 82.719 61.4838 83.2232C61.9779 83.7274 62.6334 83.9694 63.43 83.9694C64.1661 83.9694 64.7813 83.7173 65.2754 83.2232C65.7695 82.729 66.0216 82.0736 66.0216 81.277V67.714C66.0216 66.9879 65.7695 66.3627 65.2754 65.8686C64.7813 65.3745 64.1661 65.1224 63.43 65.1224C62.6334 65.1224 61.988 65.3745 61.4838 65.8686C60.9796 66.3627 60.7376 66.9879 60.7376 67.714ZM74.9963 67.6131V81.4786C74.9963 83.1425 75.8232 83.9694 77.4871 83.9694C79.1509 83.9694 79.9778 83.1425 79.9778 81.4786V67.6131C79.9778 65.9493 79.1409 65.1224 77.4871 65.1224C75.8333 65.1224 74.9963 65.9493 74.9963 67.6131Z" fill="#552684"/>
<path d="M127.756 60.1308V88.3458C127.756 89.8786 127.302 91.0887 126.414 91.9862C125.517 92.8836 124.307 93.3374 122.774 93.3374H121.776C120.243 93.3374 119.033 92.8836 118.135 91.9862C117.238 91.0887 116.794 89.8786 116.794 88.3458V69.2972C116.794 67.3005 116.492 66.3022 115.897 66.3022C115.362 66.3022 114.697 67.0686 113.9 68.5913C113.164 69.9224 112.418 71.2031 111.651 72.4333C110.885 73.6636 110.139 74.914 109.403 76.1745C108.667 77.3039 107.91 77.8686 107.114 77.8686C106.317 77.8686 105.621 77.203 105.016 75.8719L104.119 74.1778C103.786 73.4417 103.635 72.6652 103.665 71.8383C103.695 71.0115 103.917 70.2249 104.31 69.4989C106.64 65.314 108.697 60.9779 110.492 56.4905C112.287 52.0031 113.85 47.4653 115.181 42.8771C115.514 41.6166 115.019 40.9813 113.688 40.9813H110.593C109.262 40.9813 108.213 40.5981 107.456 39.8318C106.7 39.0654 106.307 38.0166 106.307 36.6856C106.307 35.3545 106.69 34.3057 107.456 33.5393C108.223 32.773 109.262 32.3898 110.593 32.3898H115.282C116.28 32.3898 116.774 31.8957 116.774 30.8973V5.18316C116.774 3.65039 117.228 2.44031 118.115 1.54284C119.013 0.645362 120.223 0.201667 121.756 0.201667H122.754C124.287 0.201667 125.497 0.645362 126.394 1.54284C127.292 2.44031 127.735 3.65039 127.735 5.18316V30.9074C127.735 31.9057 128.23 32.3999 129.228 32.3999H131.819C133.08 32.3999 134.078 32.8032 134.814 33.5998C135.54 34.3965 135.914 35.4251 135.914 36.6956C135.914 37.9662 135.55 38.9847 134.814 39.7914C134.078 40.5881 133.08 40.9914 131.819 40.9914H129.228C128.23 40.9914 127.735 41.4855 127.735 42.4838V47.2737C127.735 48.0099 127.998 48.3729 128.532 48.3729C128.603 48.3729 128.835 48.3023 129.228 48.1712L130.619 47.4754C131.154 47.2737 131.618 47.1729 132.021 47.1729C133.282 47.1729 134.119 47.8384 134.512 49.1695C135.107 51.1662 135.661 53.1729 136.156 55.1998C136.65 57.2266 137.134 59.2737 137.598 61.3308C137.799 62.3291 137.678 63.2569 137.245 64.1241C136.811 64.9913 136.135 65.6165 135.198 66.0199C134.734 66.2216 134.23 66.3224 133.705 66.3224C132.374 66.3224 131.517 65.6266 131.114 64.2249C130.841 63.4888 130.599 62.7628 130.367 62.0266C130.135 61.2905 129.853 60.5645 129.52 59.8283C129.056 58.5678 128.653 57.9325 128.32 57.9325C127.927 57.9325 127.725 58.6687 127.725 60.1308H127.756ZM107.608 9.77137C108.203 9.56969 108.767 9.46886 109.302 9.46886C111.026 9.46886 112.166 10.4369 112.69 12.363C113.688 16.6184 114.384 20.9041 114.788 25.2301C114.919 26.1579 114.757 26.9747 114.293 27.6705C113.83 28.3663 113.164 28.8805 112.297 29.2133C112.095 29.2839 111.914 29.3343 111.752 29.3646C111.591 29.3948 111.399 29.415 111.208 29.415C110.008 29.415 109.211 28.7192 108.818 27.3175C108.283 25.2604 107.719 23.2335 107.124 21.2369C106.529 19.2402 105.863 17.2436 105.127 15.2571C104.663 14.0571 104.663 12.968 105.127 11.9697C105.591 10.9714 106.428 10.2453 107.618 9.77137H107.608ZM151.09 46.0637C150.828 53.7073 149.961 61.2602 148.498 68.7022C147.036 76.1442 144.777 83.3946 141.722 90.4433C140.986 91.9761 139.927 92.7324 138.535 92.7324C137.94 92.7324 137.275 92.5307 136.539 92.1374C135.409 91.4719 134.663 90.6047 134.29 89.5458C133.927 88.487 133.907 87.3475 134.24 86.1576C136.569 79.1089 138.132 71.8484 138.929 64.3661C139.725 56.8838 140.129 49.462 140.129 42.0805V19.8453C140.129 17.3848 139.967 16.1545 139.635 16.1545C139.302 16.1545 138.838 17.3142 138.233 19.6436C137.567 22.2352 136.771 24.8268 135.843 27.4184C135.308 28.8805 134.28 29.6167 132.747 29.6167C132.354 29.6167 132.011 29.5864 131.749 29.5158C130.821 29.2536 130.156 28.7797 129.752 28.1142C129.359 27.4486 129.258 26.652 129.45 25.7243C130.317 21.731 130.912 17.6772 131.245 13.563C131.376 12.4335 131.759 11.5159 132.394 10.8201C133.019 10.1243 133.907 9.77137 135.036 9.77137C135.167 9.77137 135.298 9.79154 135.44 9.8218C135.571 9.85205 135.702 9.87222 135.833 9.87222L140.119 10.6689V10.1747H162.152C162.878 10.1747 163.382 9.97306 163.644 9.57978C163.907 9.17642 163.876 8.6823 163.544 8.08735C163.342 7.68399 163.15 7.29071 162.949 6.88735C162.747 6.48399 162.555 6.12097 162.354 5.7882C161.618 4.45711 161.476 3.34787 161.91 2.4504C162.344 1.55292 163.292 0.937798 164.754 0.605026L167.144 0.110911C167.406 0.0504068 167.779 0.0100708 168.243 0.0100708C169.372 0.0100708 170.35 0.342843 171.187 1.00839C172.014 1.67393 172.569 2.5714 172.831 3.70081C172.962 4.62854 173.113 5.51593 173.285 6.34282C173.446 7.17979 173.597 8.02685 173.739 8.88398C173.87 9.75121 174.364 10.1848 175.231 10.1848H191.587C192.848 10.1848 193.846 10.5478 194.582 11.284C195.318 12.0201 195.681 13.0083 195.681 14.2789C195.681 15.5495 195.318 16.5377 194.582 17.2739C193.846 18.01 192.858 18.373 191.587 18.373H177.026C176.028 18.373 175.534 18.8671 175.534 19.8655V22.3562C175.534 23.3545 176.028 23.8486 177.026 23.8486H187.1C188.633 23.8486 189.843 24.2923 190.74 25.1898C191.638 26.0873 192.081 27.2974 192.081 28.8301V35.1124C192.081 35.9797 192.515 36.4133 193.382 36.4133H194.683C196.407 36.4133 197.275 37.2805 197.275 39.0049V41.9998C197.275 43.7242 196.407 44.5914 194.683 44.5914H193.382C192.515 44.5914 192.081 45.025 192.081 45.8922V52.1746C192.081 53.7073 191.638 54.9174 190.74 55.8149C189.843 56.7124 188.633 57.1661 187.1 57.1661H177.026C176.028 57.1661 175.534 57.6603 175.534 58.6586V61.2502C175.534 62.2485 176.028 62.7426 177.026 62.7426H188.098C189.631 62.7426 190.841 63.1964 191.739 64.0938C192.636 64.9913 193.08 66.2014 193.08 67.7342V87.9727C193.08 89.4954 192.626 90.7156 191.739 91.6131C190.841 92.5105 189.631 92.9542 188.098 92.9542H185.103C184.236 92.9542 183.56 92.7021 183.056 92.208C182.562 91.7038 182.31 91.0584 182.31 90.2618V88.8702C182.31 87.9425 181.846 87.4685 180.908 87.4685H163.554C162.626 87.4685 162.162 87.9324 162.162 88.8702V90.2618C162.162 91.0584 161.91 91.7038 161.416 92.208C160.922 92.7021 160.266 92.9542 159.47 92.9542H156.374C154.841 92.9542 153.631 92.5105 152.734 91.6131C151.836 90.7156 151.382 89.5055 151.382 87.9727V67.7342C151.382 66.2014 151.836 64.9913 152.734 64.0938C153.631 63.1964 154.841 62.7426 156.374 62.7426H163.655C164.653 62.7426 165.147 62.2485 165.147 61.2502V58.6586C165.147 57.6603 164.653 57.1661 163.655 57.1661H157.171C155.971 57.1661 155.013 56.8031 154.276 56.067C153.54 55.3409 153.177 54.3729 153.177 53.1729C153.177 51.9729 153.54 51.0149 154.276 50.2788C155.013 49.5426 155.971 49.1796 157.171 49.1796H163.655C164.653 49.1796 165.147 48.6855 165.147 47.6872V46.0939C165.147 45.0956 164.653 44.6015 163.655 44.6015H152.582C151.584 44.6015 151.09 45.0956 151.09 46.0939V46.0637ZM162.455 18.3428H156.071C154.539 18.3428 153.329 18.7865 152.431 19.6839C151.534 20.5814 151.09 21.7915 151.09 23.3243V31.4015C151.09 32.9343 151.544 34.1444 152.431 35.0419C153.329 35.9393 154.539 36.3931 156.071 36.3931H162.848C164.381 36.3931 165.147 35.6267 165.147 34.104C165.147 32.5814 164.381 31.815 162.848 31.815H157.362C156.162 31.815 155.204 31.452 154.468 30.7158C153.732 29.9797 153.369 29.0217 153.369 27.8217C153.369 26.6217 153.732 25.6637 154.468 24.9276C155.194 24.2016 156.162 23.8285 157.362 23.8285H162.445C163.241 23.8285 163.887 23.5764 164.391 23.0822C164.895 22.5881 165.137 21.9024 165.137 21.0352C165.137 20.2386 164.885 19.5932 164.391 19.089C163.897 18.5949 163.241 18.3428 162.445 18.3428H162.455ZM166.347 79.2702H178.115C179.376 79.2702 180.394 78.8871 181.16 78.1207C181.927 77.3543 182.31 76.3459 182.31 75.0753C182.31 73.8047 181.927 72.7963 181.16 72.0299C180.394 71.2636 179.376 70.8804 178.115 70.8804H166.347C165.087 70.8804 164.068 71.2636 163.302 72.0299C162.535 72.7963 162.152 73.8047 162.152 75.0753C162.152 76.3459 162.535 77.3543 163.302 78.1207C164.068 78.8871 165.076 79.2702 166.347 79.2702ZM179.809 31.8049H177.813C176.28 31.8049 175.523 32.5713 175.523 34.094C175.523 35.6167 176.29 36.383 177.813 36.383H179.809C181.342 36.383 182.098 35.6167 182.098 34.094C182.098 32.5713 181.332 31.8049 179.809 31.8049ZM179.809 44.5712H177.813C176.28 44.5712 175.523 45.3376 175.523 46.8603C175.523 48.383 176.29 49.1494 177.813 49.1494H179.809C181.342 49.1494 182.098 48.383 182.098 46.8603C182.098 45.3376 181.332 44.5712 179.809 44.5712Z" fill="#552684"/>
<path d="M217.302 68.4098C219.954 68.4098 222.102 69.1963 223.735 70.7493C225.369 72.3123 226.176 74.4602 226.176 77.1829C226.176 79.9055 225.359 82.0534 223.735 83.6165C222.102 85.1795 219.964 85.9559 217.302 85.9559C214.639 85.9559 212.502 85.1694 210.868 83.6165C209.234 82.0534 208.428 79.9156 208.428 77.1829C208.428 74.4501 209.245 72.3123 210.868 70.7493C212.502 69.1863 214.639 68.4098 217.302 68.4098ZM217.302 62.3291C216.172 62.3291 215.224 61.9661 214.458 61.23C213.692 60.5039 213.248 59.5661 213.117 58.4367L209.426 17.1529C209.295 15.5596 209.678 14.2588 210.576 13.2604C211.473 12.2621 212.754 11.768 214.418 11.768H220.196C221.86 11.768 223.14 12.2621 224.038 13.2604C224.935 14.2588 225.318 15.5495 225.187 17.1529L221.497 58.4367C221.366 59.5661 220.912 60.4939 220.155 61.23C219.389 61.9661 218.441 62.3291 217.312 62.3291H217.302Z" fill="#552684"/>
<path d="M1.50398 145.976C4.17624 141.448 6.51573 136.789 8.51236 131.989C10.509 127.189 12.2132 122.268 13.6249 117.196C13.867 116.319 14.2905 115.633 14.9056 115.149C15.5107 114.665 16.2367 114.423 17.0636 114.423C17.4569 114.423 17.7493 114.443 17.9409 114.494L19.5442 114.786C20.8047 115.028 21.6821 115.603 22.1762 116.5C22.6602 117.398 22.6602 118.437 22.1762 119.606C21.5409 121.169 20.8955 122.722 20.24 124.285C19.5846 125.848 18.8888 127.401 18.1627 128.964C18.1627 129.065 18.1527 129.136 18.1224 129.186C18.0922 129.236 18.0821 129.307 18.0821 129.408V178.709C18.0821 179.828 17.7493 180.715 17.0938 181.371C16.4384 182.026 15.551 182.359 14.4317 182.359H12.8283C11.709 182.359 10.8216 182.026 10.1661 181.371C9.51067 180.715 9.1779 179.828 9.1779 178.709V149.203C9.1779 148.134 9.00647 147.599 8.66362 147.599C8.32076 147.599 7.92749 147.962 7.49388 148.699C7.20144 149.132 6.89892 149.586 6.57623 150.05C6.26363 150.514 5.95102 150.967 5.65859 151.401C5.12414 152.228 4.5191 152.641 3.83339 152.641C3.10734 152.641 2.52247 152.107 2.07877 151.038L1.27205 149.354C1.03004 148.82 0.93928 148.245 1.01995 147.64C1.09054 147.035 1.25188 146.48 1.4939 145.996L1.50398 145.976ZM21.1476 165.478C23.6787 159.73 25.7056 153.993 27.2081 148.245C27.7425 146.349 28.9123 145.401 30.7173 145.401C30.9089 145.401 31.0904 145.411 31.2618 145.441C31.4333 145.462 31.635 145.502 31.877 145.552L32.603 145.845H32.7543C33.8232 146.137 34.5795 146.712 35.0131 147.559C35.4467 148.416 35.477 149.374 35.0837 150.443C34.0148 153.458 32.835 156.413 31.5442 159.277C30.2534 162.151 28.8316 164.994 27.2686 167.818C26.6333 168.988 25.6148 169.572 24.2031 169.572C23.7694 169.572 23.3257 169.502 22.8921 169.351C21.9644 169.058 21.3493 168.544 21.0266 167.818C20.7039 167.092 20.7442 166.305 21.1375 165.478H21.1476ZM38.1694 122.752H65.1239C66.102 122.752 66.8684 123.035 67.4231 123.589C67.9878 124.154 68.26 124.921 68.26 125.889V128.077C68.26 128.712 68.1088 129.297 67.8264 129.831C66.8483 131.536 65.8701 133.22 64.8718 134.873C63.8735 136.527 62.8348 138.181 61.7659 139.835C61.0802 140.813 60.1827 141.297 59.0634 141.297C58.4281 141.297 57.8937 141.176 57.4601 140.934C56.6332 140.541 56.0987 139.986 55.8567 139.25C55.6147 138.524 55.6651 137.737 55.9979 136.91C56.4819 135.841 56.9256 134.773 57.3088 133.694C57.7021 132.625 58.0853 131.526 58.4785 130.406C58.6197 130.013 58.5996 129.69 58.408 129.418C58.2164 129.156 57.8937 129.015 57.4601 129.015H34.0148C33.5308 129.015 33.2081 129.206 33.0669 129.6C31.0703 133.199 28.8114 136.81 26.2703 140.41C25.6854 141.236 25.0501 141.65 24.3745 141.65C23.6484 141.65 22.9829 141.216 22.398 140.339L21.8837 139.683C21.4501 139.048 21.2283 138.373 21.2283 137.636C21.2283 136.9 21.4199 136.205 21.8131 135.519C23.5173 132.695 25.0299 129.771 26.3409 126.756C27.6518 123.741 28.8014 120.645 29.7694 117.479C30.0114 116.652 30.4551 115.986 31.0803 115.472C31.7156 114.958 32.4417 114.705 33.2686 114.705C33.3694 114.705 33.4602 114.716 33.561 114.746C33.6618 114.776 33.7526 114.786 33.8534 114.786L35.5375 115.079C36.7072 115.22 37.5139 115.674 37.9475 116.43C38.3811 117.186 38.3811 118.104 37.9475 119.173C37.8467 119.516 37.7257 119.838 37.5845 120.161C37.4433 120.473 37.2921 120.806 37.1509 121.149C36.9089 121.633 36.8786 122.026 37.0803 122.319C37.2719 122.611 37.6349 122.752 38.1795 122.752H38.1694ZM44.1593 134.732H45.7626C46.882 134.732 47.7693 135.065 48.4248 135.72C49.0803 136.376 49.413 137.263 49.413 138.383V174.897C49.413 176.5 49.1307 177.791 48.5761 178.769C48.0114 179.747 47.2651 180.483 46.3072 180.998C45.3593 181.512 44.2601 181.835 43.0198 181.986C41.7795 182.127 40.4988 182.208 39.1879 182.208C38.2097 182.208 37.2517 182.177 36.3038 182.137C35.356 182.087 34.3879 181.996 33.4198 181.845C32.6938 181.744 32.0585 181.441 31.524 180.927C30.9896 180.413 30.6467 179.798 30.5055 179.061L30.2837 177.892C30.0921 176.914 30.2131 176.177 30.6467 175.663C31.0803 175.149 31.7459 174.897 32.6232 174.897H33.0568C33.6417 174.947 34.2265 174.977 34.8114 175.008C35.3963 175.038 35.9812 175.048 36.566 175.048C37.877 175.048 38.8652 174.846 39.5206 174.423C40.1761 174.009 40.5089 173.092 40.5089 171.68V138.373C40.5089 137.253 40.8416 136.366 41.4971 135.71C42.1526 135.055 43.04 134.722 44.1593 134.722V134.732ZM61.9777 167.959C60.0819 162.07 57.7626 156.272 55.0399 150.574C54.5055 149.455 54.4147 148.416 54.7878 147.468C55.1609 146.52 55.9475 145.855 57.1575 145.462L58.0349 145.099C58.4685 144.957 58.9122 144.877 59.3458 144.877C60.0819 144.877 60.7374 145.068 61.3222 145.462C61.9071 145.855 62.3407 146.44 62.6332 147.216C65.0231 153.499 66.9894 159.831 68.5525 166.204C68.7945 167.183 68.6936 168.03 68.26 168.756C67.8264 169.482 67.1104 169.976 66.1424 170.218C65.6583 170.319 65.3155 170.359 65.1239 170.359C63.5609 170.359 62.5222 169.552 61.9878 167.949L61.9777 167.959Z" fill="#552684"/>
<path d="M78.7442 148.386H137.615C138.542 148.386 139.268 148.658 139.803 149.193C140.337 149.727 140.609 150.463 140.609 151.381C140.609 152.299 140.337 153.035 139.803 153.569C139.268 154.104 138.532 154.376 137.615 154.376H114.976C114.25 154.376 113.877 154.739 113.877 155.475V159.862C113.877 160.588 114.24 160.961 114.976 160.961H134.771C135.699 160.961 136.425 161.233 136.959 161.767C137.494 162.302 137.766 163.038 137.766 163.956C137.766 164.873 137.494 165.609 136.959 166.144C136.425 166.678 135.689 166.951 134.771 166.951H114.976C114.25 166.951 113.877 167.314 113.877 168.05V173.677C113.877 174.312 114.22 174.675 114.895 174.776C119.03 174.776 123.134 174.756 127.198 174.705C131.262 174.655 135.366 174.514 139.5 174.272H139.793C140.771 174.272 141.477 174.554 141.91 175.108C142.344 175.663 142.465 176.429 142.273 177.408L142.132 177.993C141.941 178.819 141.527 179.505 140.892 180.04C140.257 180.574 139.531 180.866 138.704 180.917C134.902 181.018 131.131 181.098 127.379 181.169C123.628 181.24 119.857 181.28 116.055 181.28C113.373 181.28 110.842 181.219 108.462 181.098C106.072 180.977 103.783 180.635 101.595 180.08C99.4063 179.515 97.3088 178.668 95.3122 177.529C93.3156 176.379 91.3391 174.766 89.3929 172.668C89.0501 172.325 88.7576 172.154 88.5156 172.154C88.2232 172.154 87.9307 172.345 87.6383 172.739C86.6198 174.151 85.5307 175.552 84.3912 176.934C83.2518 178.325 82.0618 179.646 80.8518 180.917C80.2165 181.603 79.3896 181.935 78.3711 181.935C77.5946 181.935 76.9089 181.744 76.3241 181.35C75.4972 180.816 75.0232 180.171 74.9022 179.414C74.7812 178.658 75.0131 177.942 75.598 177.256C77.7358 174.584 79.6619 171.791 81.3661 168.897C83.0702 166.003 84.5022 162.947 85.6719 159.73C86.0148 158.904 86.4786 158.258 87.0635 157.794C87.6484 157.33 88.3341 157.098 89.1106 157.098C89.5038 157.098 89.9173 157.169 90.3509 157.32L91.7425 157.754C92.8618 158.097 93.6181 158.682 94.0114 159.509C94.4047 160.335 94.3542 161.263 93.8702 162.282C93.6282 162.715 93.3963 163.159 93.1744 163.593C92.9526 164.026 92.7206 164.47 92.4786 164.903C92.2366 165.297 92.287 165.71 92.6299 166.144C94.1828 167.999 95.7862 169.562 97.4097 170.853C99.0433 172.144 101.03 173.082 103.359 173.666C103.46 173.717 103.581 173.737 103.722 173.737C104.358 173.737 104.67 173.374 104.67 172.638V155.475C104.67 154.749 104.307 154.376 103.571 154.376H78.7341C77.8064 154.376 77.0804 154.114 76.5459 153.569C76.0115 153.035 75.7392 152.299 75.7392 151.381C75.7392 150.463 76.0014 149.727 76.5459 149.193C77.0904 148.658 77.8165 148.386 78.7341 148.386H78.7442ZM134.105 121.946V140.127C134.105 141.246 133.773 142.134 133.117 142.789C132.462 143.445 131.574 143.778 130.455 143.778H87.2148C86.0954 143.778 85.208 143.445 84.5526 142.789C83.8971 142.134 83.5644 141.246 83.5644 140.127V121.946C83.5644 120.826 83.8971 119.939 84.5526 119.284C85.208 118.628 86.0954 118.295 87.2148 118.295H130.455C131.574 118.295 132.462 118.628 133.117 119.284C133.773 119.939 134.105 120.826 134.105 121.946ZM94.9593 128.591H122.791C123.517 128.591 124.102 128.369 124.546 127.936C124.979 127.502 125.201 126.887 125.201 126.11C125.201 125.384 124.979 124.799 124.546 124.356C124.112 123.912 123.527 123.7 122.791 123.7H94.9593C94.1828 123.7 93.5677 123.922 93.1341 124.356C92.7005 124.789 92.4786 125.374 92.4786 126.11C92.4786 127.764 93.3055 128.591 94.9593 128.591ZM122.932 133.845H94.7374C93.2248 133.845 92.4685 134.601 92.4685 136.114C92.4685 137.626 93.2248 138.383 94.7374 138.383H122.932C124.445 138.383 125.201 137.626 125.201 136.114C125.201 134.601 124.445 133.845 122.932 133.845Z" fill="#552684"/>
<path d="M170.186 122.168V168.695C170.186 169.814 169.853 170.702 169.198 171.357C168.542 172.013 167.655 172.346 166.535 172.346H165.588C164.71 172.346 164.014 172.093 163.51 171.579C162.996 171.065 162.744 170.369 162.744 169.502V167.818C162.744 167.092 162.381 166.719 161.645 166.719H160.112C159.386 166.719 159.013 167.082 159.013 167.818V172.416C159.013 173.535 158.67 174.423 157.994 175.078C157.309 175.734 156.411 176.067 155.292 176.067C154.172 176.067 153.275 175.734 152.589 175.078C151.904 174.423 151.571 173.535 151.571 172.416V122.168C151.571 121.048 151.904 120.161 152.559 119.505C153.214 118.85 154.102 118.517 155.221 118.517H166.546C167.665 118.517 168.552 118.85 169.208 119.505C169.863 120.161 170.196 121.048 170.196 122.168H170.186ZM159.013 126.473V158.682C159.013 159.952 159.648 160.578 160.909 160.578C162.169 160.578 162.734 159.942 162.734 158.682V126.473C162.734 125.253 162.129 124.648 160.909 124.648C159.688 124.648 159.013 125.253 159.013 126.473ZM194.508 121.361V147.942C194.508 149.838 194.498 151.936 194.468 154.225C194.448 156.514 194.387 158.883 194.287 161.344C194.186 163.804 194.034 166.124 193.813 168.322C193.591 170.51 193.308 172.497 192.976 174.272C192.633 176.046 192.199 177.377 191.665 178.255C190.787 179.717 189.729 180.665 188.488 181.098C187.248 181.532 185.826 181.754 184.213 181.754C183.628 181.754 183.023 181.744 182.387 181.714C181.752 181.683 181.157 181.582 180.603 181.381C180.038 181.189 179.564 180.877 179.181 180.473C178.787 180.06 178.525 179.485 178.374 178.759L178.011 176.419C177.87 175.784 177.94 175.3 178.233 174.957C178.525 174.614 178.939 174.443 179.473 174.443C179.574 174.443 179.645 174.453 179.695 174.483C179.745 174.503 179.816 174.524 179.917 174.524C180.31 174.574 180.703 174.604 181.127 174.635C181.54 174.665 181.944 174.675 182.337 174.675C183.265 174.675 183.95 174.514 184.414 174.201C184.878 173.888 185.302 173.293 185.695 172.416C185.937 171.882 186.119 171.125 186.24 170.157C186.361 169.179 186.461 168.14 186.532 167.011C186.603 165.892 186.663 164.762 186.714 163.613C186.764 162.473 186.784 161.455 186.784 160.578C186.784 159.851 186.421 159.478 185.685 159.478H182.468C181.883 159.478 181.54 159.771 181.45 160.356C180.724 163.956 179.705 167.445 178.414 170.803C177.124 174.161 175.5 177.377 173.554 180.443C173.019 181.27 172.314 181.683 171.436 181.683C170.801 181.683 170.196 181.461 169.611 181.028C168.925 180.493 168.532 179.838 168.401 179.051C168.28 178.275 168.411 177.468 168.804 176.641C170.115 174.06 171.204 171.398 172.051 168.645C172.898 165.892 173.594 163.078 174.129 160.204C174.23 159.72 174.028 159.478 173.544 159.478H172.818C171.799 159.478 171.285 158.964 171.285 157.946V155.394C171.285 154.124 171.92 153.499 173.181 153.499H174.129C174.714 153.499 175.056 153.186 175.147 152.551C175.288 150.897 175.389 149.243 175.44 147.589C175.49 145.936 175.51 144.252 175.51 142.547C175.51 141.962 175.218 141.67 174.633 141.67H173.685C172.465 141.67 171.86 141.065 171.86 139.845V137.505C171.86 136.285 172.465 135.68 173.685 135.68H174.633C175.218 135.68 175.51 135.368 175.51 134.732V124.648C175.51 124.013 175.198 123.7 174.562 123.7H173.614C172.344 123.7 171.719 123.065 171.719 121.805V120.705C171.719 119.778 171.981 119.052 172.525 118.517C173.06 117.983 173.786 117.71 174.714 117.71H190.858C191.977 117.71 192.865 118.043 193.52 118.699C194.176 119.354 194.508 120.242 194.508 121.361ZM186.835 151.31V143.566C186.835 143.031 186.653 142.578 186.29 142.215C185.927 141.852 185.473 141.67 184.939 141.67C184.354 141.67 183.88 141.852 183.517 142.215C183.154 142.578 182.972 143.031 182.972 143.566C182.972 144.877 182.942 146.188 182.902 147.478C182.851 148.769 182.781 150.05 182.68 151.31C182.579 151.996 182.72 152.53 183.083 152.914C183.446 153.307 183.971 153.499 184.656 153.499C185.342 153.499 185.877 153.307 186.26 152.914C186.643 152.52 186.845 151.986 186.845 151.31H186.835ZM186.905 133.704V125.667C186.905 125.082 186.724 124.608 186.361 124.245C185.998 123.882 185.524 123.7 184.939 123.7C184.354 123.7 183.88 123.882 183.517 124.245C183.154 124.608 182.972 125.082 182.972 125.667V133.704C182.972 134.289 183.154 134.762 183.517 135.126C183.88 135.489 184.354 135.67 184.939 135.67C185.524 135.67 185.998 135.489 186.361 135.126C186.724 134.762 186.905 134.289 186.905 133.704ZM196.767 178.698V121.22C196.767 120.1 197.1 119.213 197.755 118.558C198.411 117.902 199.298 117.569 200.418 117.569H214.152C215.08 117.569 215.806 117.842 216.34 118.376C216.875 118.91 217.147 119.647 217.147 120.564V123.559C217.147 123.559 217.036 124.104 216.814 125.052C216.592 125.999 216.31 127.21 215.977 128.672C215.644 130.134 215.261 131.717 214.848 133.421C214.434 135.126 214.031 136.779 213.638 138.383C213.244 139.986 212.912 141.428 212.619 142.689C212.327 143.959 212.105 144.857 211.964 145.391C211.913 145.542 211.934 145.784 212.034 146.127C212.76 147.589 213.466 149.162 214.152 150.836C214.838 152.52 215.453 154.225 216.018 155.949C216.572 157.673 217.026 159.408 217.369 161.132C217.712 162.867 217.883 164.551 217.883 166.204C217.883 168.836 217.339 170.924 216.239 172.487C215.14 174.05 213.154 174.826 210.29 174.826C209.271 174.826 208.303 174.705 207.406 174.463C206.508 174.221 205.903 173.495 205.621 172.275L205.036 169.865C204.794 169.088 205.056 168.695 205.843 168.695H206.135C206.377 168.746 206.619 168.786 206.861 168.806C207.103 168.836 207.345 168.846 207.587 168.846C208.898 168.846 209.735 168.493 210.068 167.788C210.401 167.082 210.582 166.174 210.582 165.045C210.582 163.734 210.441 162.292 210.149 160.739C209.856 159.186 209.493 157.603 209.05 155.989C208.616 154.386 208.122 152.813 207.587 151.28C207.053 149.747 206.569 148.325 206.125 147.004C205.883 146.47 205.813 145.865 205.903 145.179L209.261 124.8C209.413 123.973 209.039 123.559 208.162 123.559H205.318C204.592 123.559 204.219 123.922 204.219 124.658V178.709C204.219 179.828 203.876 180.715 203.201 181.371C202.515 182.026 201.618 182.359 200.498 182.359C199.379 182.359 198.482 182.026 197.796 181.371C197.11 180.715 196.777 179.828 196.777 178.709L196.767 178.698Z" fill="#552684"/>
<path d="M255.708 121.946V142.245C255.708 143.364 255.375 144.251 254.72 144.907C254.064 145.562 253.177 145.895 252.058 145.895H246.501C245.775 145.895 245.402 146.258 245.402 146.994V149.626C245.402 150.352 245.765 150.725 246.501 150.725H253.953C254.881 150.725 255.617 151.008 256.182 151.562C256.737 152.127 257.019 152.863 257.019 153.791C257.019 154.719 256.737 155.465 256.182 156.02C255.627 156.574 254.881 156.856 253.953 156.856H246.501C245.775 156.856 245.402 157.22 245.402 157.956V160.658C245.402 161.092 245.543 161.314 245.836 161.314C245.977 161.314 246.148 161.243 246.35 161.092L247.227 160.436C247.621 160.093 248.105 159.922 248.69 159.922C249.375 159.922 249.98 160.194 250.515 160.729C252.612 162.917 254.528 165.206 256.283 167.596C256.868 168.322 257.09 169.078 256.938 169.865C256.797 170.641 256.333 171.307 255.547 171.841C254.911 172.275 254.256 172.497 253.57 172.497C252.552 172.497 251.674 172.083 250.938 171.256C250.353 170.571 249.748 169.925 249.113 169.32C248.478 168.715 247.843 168.09 247.217 167.455C246.733 167.061 246.37 166.87 246.118 166.87C245.634 166.87 245.392 167.334 245.392 168.261V178.124C245.392 179.243 245.059 180.13 244.404 180.786C243.748 181.441 242.861 181.774 241.742 181.774H240.572C239.453 181.774 238.565 181.441 237.91 180.786C237.254 180.13 236.922 179.243 236.922 178.124V169.431C236.922 168.362 236.7 167.828 236.266 167.828C235.923 167.828 235.49 168.12 234.955 168.705C234.612 169.048 234.068 169.603 233.311 170.389C232.555 171.166 231.748 171.962 230.901 172.759C230.044 173.566 229.207 174.272 228.38 174.877C227.554 175.482 226.918 175.784 226.485 175.784C225.708 175.784 225.002 175.32 224.367 174.393C223.883 173.666 223.701 172.89 223.822 172.093C223.943 171.287 224.317 170.571 224.952 169.935C226.656 168.231 228.229 166.416 229.661 164.49C231.093 162.564 232.424 160.557 233.644 158.46C233.886 157.976 233.927 157.583 233.755 157.29C233.584 156.998 233.231 156.856 232.696 156.856H227.584C226.656 156.856 225.92 156.574 225.355 156.02C224.791 155.465 224.518 154.719 224.518 153.791C224.518 152.863 224.801 152.127 225.355 151.562C225.92 151.008 226.656 150.725 227.584 150.725H235.832C236.559 150.725 236.932 150.362 236.932 149.626V146.994C236.932 146.268 236.569 145.895 235.832 145.895H229.913C228.794 145.895 227.906 145.562 227.251 144.907C226.596 144.251 226.263 143.364 226.263 142.245V121.946C226.263 120.826 226.596 119.939 227.251 119.284C227.906 118.628 228.794 118.295 229.913 118.295H252.048C253.167 118.295 254.054 118.628 254.71 119.284C255.365 119.939 255.698 120.826 255.698 121.946H255.708ZM237.153 127.351V126.04C237.153 125.505 236.992 125.082 236.68 124.759C236.367 124.447 235.933 124.285 235.399 124.285C234.864 124.285 234.421 124.447 234.088 124.759C233.745 125.072 233.574 125.505 233.574 126.04V127.351C233.574 128.571 234.179 129.176 235.399 129.176C235.933 129.176 236.357 129.004 236.68 128.662C236.992 128.319 237.153 127.885 237.153 127.351ZM237.153 138.09V136.779C237.153 136.245 236.992 135.821 236.68 135.499C236.367 135.186 235.933 135.025 235.399 135.025C234.864 135.025 234.421 135.186 234.088 135.499C233.745 135.811 233.574 136.245 233.574 136.779V138.09C233.574 139.31 234.179 139.915 235.399 139.915C235.933 139.915 236.357 139.744 236.68 139.401C236.992 139.058 237.153 138.625 237.153 138.09ZM244.898 126.04V127.431C244.898 127.966 245.059 128.389 245.372 128.712C245.685 129.025 246.118 129.186 246.653 129.186C247.187 129.186 247.611 129.025 247.933 128.712C248.256 128.399 248.407 127.966 248.407 127.431V126.04C248.407 125.505 248.246 125.082 247.933 124.759C247.621 124.447 247.187 124.285 246.653 124.285C246.118 124.285 245.695 124.447 245.372 124.759C245.049 125.072 244.898 125.505 244.898 126.04ZM244.898 136.779V138.171C244.898 138.705 245.059 139.129 245.372 139.452C245.685 139.764 246.118 139.925 246.653 139.925C247.187 139.925 247.611 139.764 247.933 139.452C248.256 139.139 248.407 138.705 248.407 138.171V136.779C248.407 136.245 248.246 135.821 247.933 135.499C247.621 135.186 247.187 135.025 246.653 135.025C246.118 135.025 245.695 135.186 245.372 135.499C245.049 135.811 244.898 136.245 244.898 136.779ZM260.528 118.598H288.501C289.429 118.598 290.155 118.87 290.689 119.405C291.224 119.939 291.496 120.675 291.496 121.593C291.496 122.51 291.224 123.247 290.689 123.781C290.155 124.315 289.419 124.588 288.501 124.588H278.861C278.377 124.588 278.034 124.81 277.842 125.243L276.158 129.186C275.765 130.204 276.108 130.719 277.177 130.719H285.718C286.837 130.719 287.725 131.052 288.38 131.707C289.036 132.362 289.368 133.25 289.368 134.369V164.682C289.368 165.7 289.066 166.517 288.461 167.132C287.856 167.747 287.039 168.05 286.01 168.05H284.326C283.207 168.05 283.056 168.413 283.893 169.149C285.153 170.268 286.414 171.418 287.654 172.577C288.894 173.747 290.125 174.967 291.345 176.228C292.031 176.914 292.343 177.65 292.293 178.456C292.242 179.263 291.879 179.979 291.194 180.614C290.508 181.25 289.711 181.562 288.784 181.562C287.957 181.562 287.2 181.3 286.525 180.756C285.113 179.636 283.681 178.577 282.219 177.579C280.757 176.581 279.274 175.593 277.762 174.624C276.884 174.09 276.4 173.445 276.3 172.688C276.199 171.932 276.521 171.186 277.247 170.46L278.488 169.219C278.881 168.877 279.022 168.594 278.921 168.382C278.821 168.161 278.508 168.05 277.973 168.05H267.678C266.407 168.05 266.286 168.443 267.315 169.219L268.847 170.389C269.826 171.075 270.31 171.851 270.31 172.729C270.31 173.606 269.826 174.382 268.847 175.068C267.284 176.187 265.732 177.246 264.168 178.245C262.605 179.243 261.032 180.231 259.419 181.199C258.834 181.492 258.249 181.633 257.664 181.633C256.595 181.633 255.688 181.27 254.962 180.534C254.276 179.898 253.953 179.203 253.974 178.456C253.994 177.7 254.377 177.055 255.103 176.52C256.616 175.401 258.068 174.231 259.49 173.011C260.901 171.791 262.263 170.48 263.584 169.068C263.926 168.776 264.047 168.534 263.947 168.342C263.846 168.151 263.584 168.05 263.14 168.05H261.678C260.8 168.05 260.095 167.788 259.56 167.243C259.026 166.709 258.753 166.003 258.753 165.125V134.379C258.753 133.26 259.086 132.373 259.742 131.717C260.397 131.062 261.284 130.729 262.404 130.729H267.587C268.172 130.729 268.515 130.436 268.605 129.852L269.412 125.909C269.553 125.031 269.19 124.598 268.313 124.598H260.498C259.57 124.598 258.844 124.336 258.31 123.791C257.775 123.257 257.503 122.531 257.503 121.603C257.503 120.675 257.765 119.949 258.31 119.415C258.854 118.88 259.58 118.608 260.498 118.608L260.528 118.598ZM269.735 141.307H278.498C279.184 141.307 279.728 141.085 280.142 140.651C280.555 140.218 280.767 139.653 280.767 138.967C280.767 138.282 280.555 137.737 280.142 137.324C279.728 136.91 279.184 136.699 278.498 136.699H269.735C269.049 136.699 268.495 136.91 268.051 137.324C267.617 137.737 267.395 138.282 267.395 138.967C267.395 139.653 267.617 140.208 268.051 140.651C268.484 141.085 269.049 141.307 269.735 141.307ZM269.664 151.603H278.579C279.264 151.603 279.799 151.401 280.182 150.978C280.575 150.564 280.767 150.02 280.767 149.334C280.767 148.648 280.575 148.114 280.182 147.73C279.789 147.337 279.254 147.146 278.579 147.146H269.664C268.979 147.146 268.434 147.337 268.021 147.73C267.607 148.124 267.395 148.658 267.395 149.334C267.395 150.846 268.152 151.603 269.664 151.603ZM278.498 157.441H269.735C269.049 157.441 268.495 157.653 268.051 158.067C267.617 158.48 267.395 159.025 267.395 159.71C267.395 160.396 267.617 160.951 268.051 161.394C268.484 161.838 269.049 162.05 269.735 162.05H278.498C279.184 162.05 279.728 161.828 280.142 161.394C280.555 160.961 280.767 160.396 280.767 159.71C280.767 159.025 280.555 158.48 280.142 158.067C279.728 157.653 279.184 157.441 278.498 157.441Z" fill="#552684"/>
<path d="M315.889 158.026V178.698C315.889 179.818 315.556 180.705 314.901 181.361C314.246 182.016 313.358 182.349 312.239 182.349H311.513C310.393 182.349 309.506 182.016 308.851 181.361C308.195 180.705 307.862 179.818 307.862 178.698V164.752C307.862 163.29 307.641 162.564 307.207 162.564C306.814 162.564 306.33 163.129 305.745 164.248C305.21 165.226 304.666 166.164 304.101 167.062C303.536 167.959 302.992 168.877 302.457 169.804C301.923 170.631 301.358 171.045 300.773 171.045C300.188 171.045 299.674 170.561 299.241 169.583L298.585 168.342C298.343 167.808 298.232 167.233 298.252 166.628C298.272 166.023 298.434 165.448 298.726 164.914C300.43 161.848 301.943 158.672 303.254 155.384C304.565 152.097 305.714 148.779 306.683 145.411C306.925 144.483 306.562 144.02 305.583 144.02H303.314C302.336 144.02 301.57 143.737 301.015 143.183C300.451 142.628 300.178 141.852 300.178 140.884C300.178 139.915 300.461 139.139 301.015 138.584C301.57 138.02 302.346 137.747 303.314 137.747H306.743C307.469 137.747 307.842 137.384 307.842 136.648V117.801C307.842 116.682 308.175 115.795 308.83 115.139C309.486 114.484 310.373 114.151 311.493 114.151H312.219C313.338 114.151 314.225 114.484 314.881 115.139C315.536 115.795 315.869 116.682 315.869 117.801V136.648C315.869 137.374 316.232 137.747 316.968 137.747H318.864C319.792 137.747 320.518 138.04 321.052 138.625C321.587 139.21 321.859 139.966 321.859 140.894C321.859 141.821 321.587 142.578 321.052 143.162C320.518 143.747 319.782 144.04 318.864 144.04H316.968C316.242 144.04 315.869 144.403 315.869 145.139V148.648C315.869 149.183 316.061 149.455 316.454 149.455C316.504 149.455 316.676 149.404 316.968 149.314L317.987 148.799C318.38 148.658 318.713 148.578 319.005 148.578C319.933 148.578 320.538 149.062 320.83 150.04C321.264 151.502 321.667 152.974 322.04 154.457C322.414 155.939 322.756 157.441 323.099 158.944C323.24 159.67 323.16 160.356 322.847 160.991C322.535 161.626 322.03 162.09 321.345 162.383C321.002 162.524 320.639 162.604 320.246 162.604C319.267 162.604 318.642 162.09 318.35 161.072C318.158 160.537 317.977 160.003 317.805 159.468C317.634 158.934 317.432 158.399 317.18 157.865C316.837 156.937 316.545 156.473 316.303 156.473C316.01 156.473 315.869 157.008 315.869 158.077L315.889 158.026ZM301.136 121.139C301.57 120.988 301.983 120.917 302.377 120.917C303.647 120.917 304.474 121.623 304.857 123.035C305.583 126.151 306.098 129.297 306.39 132.453C306.491 133.139 306.36 133.734 306.027 134.238C305.684 134.752 305.2 135.126 304.565 135.368C304.424 135.418 304.283 135.458 304.162 135.478C304.041 135.509 303.909 135.519 303.758 135.519C302.881 135.519 302.296 135.005 302.004 133.986C301.61 132.473 301.197 130.991 300.763 129.529C300.33 128.067 299.835 126.605 299.301 125.142C298.958 124.265 298.958 123.458 299.301 122.732C299.644 122.006 300.249 121.462 301.126 121.129L301.136 121.139ZM332.982 147.72C332.79 153.317 332.155 158.843 331.086 164.299C330.017 169.754 328.363 175.058 326.124 180.221C325.59 181.34 324.814 181.905 323.785 181.905C323.351 181.905 322.857 181.764 322.323 181.472C321.496 180.988 320.951 180.352 320.679 179.576C320.407 178.799 320.397 177.972 320.639 177.095C322.343 171.932 323.482 166.618 324.067 161.132C324.652 155.657 324.945 150.211 324.945 144.806V128.521C324.945 126.715 324.824 125.818 324.582 125.818C324.34 125.818 323.997 126.665 323.563 128.369C323.079 130.265 322.494 132.171 321.809 134.067C321.415 135.136 320.669 135.67 319.54 135.67C319.247 135.67 319.005 135.65 318.814 135.6C318.128 135.408 317.644 135.065 317.351 134.581C317.059 134.097 316.988 133.512 317.13 132.826C317.765 129.902 318.198 126.937 318.44 123.912C318.541 123.085 318.814 122.41 319.277 121.905C319.741 121.391 320.387 121.139 321.214 121.139C321.314 121.139 321.405 121.149 321.506 121.179C321.607 121.2 321.698 121.22 321.798 121.22L324.935 121.805V121.442H341.079C341.613 121.442 341.977 121.3 342.178 121.008C342.37 120.716 342.35 120.353 342.108 119.909C341.966 119.616 341.815 119.324 341.674 119.031C341.533 118.739 341.382 118.477 341.24 118.225C340.706 117.257 340.595 116.44 340.908 115.774C341.22 115.119 341.916 114.665 342.985 114.423L344.74 114.06C344.931 114.01 345.203 113.99 345.546 113.99C346.373 113.99 347.089 114.232 347.704 114.716C348.309 115.2 348.713 115.855 348.914 116.692C349.015 117.378 349.116 118.023 349.247 118.628C349.378 119.233 349.479 119.858 349.58 120.494C349.681 121.129 350.044 121.442 350.679 121.442H362.659C363.587 121.442 364.313 121.714 364.847 122.248C365.381 122.783 365.654 123.519 365.654 124.437C365.654 125.354 365.381 126.09 364.847 126.625C364.313 127.159 363.576 127.431 362.659 127.431H352C351.274 127.431 350.901 127.794 350.901 128.531V130.356C350.901 131.082 351.264 131.455 352 131.455H359.371C360.491 131.455 361.378 131.788 362.034 132.443C362.689 133.099 363.022 133.986 363.022 135.105V139.704C363.022 140.339 363.334 140.652 363.97 140.652H364.918C366.188 140.652 366.813 141.287 366.813 142.547V144.736C366.813 146.006 366.178 146.631 364.918 146.631H363.97C363.334 146.631 363.022 146.944 363.022 147.579V152.178C363.022 153.297 362.689 154.184 362.034 154.84C361.378 155.495 360.491 155.828 359.371 155.828H352C351.274 155.828 350.901 156.191 350.901 156.927V158.823C350.901 159.549 351.264 159.922 352 159.922H360.108C361.227 159.922 362.114 160.255 362.77 160.91C363.425 161.566 363.758 162.453 363.758 163.573V178.396C363.758 179.515 363.425 180.403 362.77 181.058C362.114 181.714 361.227 182.046 360.108 182.046H357.919C357.284 182.046 356.79 181.865 356.427 181.502C356.064 181.139 355.882 180.665 355.882 180.08V179.062C355.882 178.376 355.539 178.043 354.864 178.043H342.158C341.472 178.043 341.14 178.386 341.14 179.062V180.08C341.14 180.665 340.958 181.139 340.595 181.502C340.232 181.865 339.758 182.046 339.173 182.046H336.904C335.785 182.046 334.898 181.714 334.242 181.058C333.587 180.403 333.254 179.515 333.254 178.396V163.573C333.254 162.453 333.587 161.566 334.242 160.91C334.898 160.255 335.785 159.922 336.904 159.922H342.239C342.965 159.922 343.338 159.559 343.338 158.823V156.927C343.338 156.191 342.975 155.828 342.239 155.828H337.489C336.612 155.828 335.906 155.566 335.372 155.021C334.837 154.487 334.565 153.781 334.565 152.904C334.565 152.026 334.827 151.32 335.372 150.786C335.906 150.252 336.612 149.979 337.489 149.979H342.239C342.965 149.979 343.338 149.616 343.338 148.88V147.71C343.338 146.984 342.975 146.611 342.239 146.611H334.131C333.405 146.611 333.032 146.974 333.032 147.71L332.982 147.72ZM341.311 127.421H336.632C335.513 127.421 334.625 127.754 333.97 128.41C333.314 129.065 332.982 129.952 332.982 131.072V136.991C332.982 138.11 333.314 138.998 333.97 139.653C334.625 140.309 335.513 140.641 336.632 140.641H341.603C342.723 140.641 343.287 140.087 343.287 138.957C343.287 137.828 342.723 137.273 341.603 137.273H337.59C336.713 137.273 336.007 137.011 335.472 136.467C334.938 135.932 334.666 135.226 334.666 134.349C334.666 133.472 334.928 132.766 335.472 132.231C336.007 131.697 336.713 131.425 337.59 131.425H341.311C341.896 131.425 342.37 131.243 342.733 130.88C343.096 130.517 343.277 130.013 343.277 129.378C343.277 128.793 343.096 128.319 342.733 127.956C342.37 127.593 341.896 127.411 341.311 127.411V127.421ZM344.155 172.043H352.776C353.704 172.043 354.44 171.761 355.005 171.206C355.57 170.651 355.842 169.905 355.842 168.978C355.842 168.05 355.56 167.314 355.005 166.749C354.44 166.194 353.704 165.912 352.776 165.912H344.155C343.227 165.912 342.491 166.194 341.926 166.749C341.361 167.314 341.089 168.05 341.089 168.978C341.089 169.905 341.371 170.641 341.926 171.206C342.491 171.771 343.227 172.043 344.155 172.043ZM354.017 137.284H352.555C351.435 137.284 350.871 137.848 350.871 138.968C350.871 140.087 351.425 140.652 352.555 140.652H354.017C355.136 140.652 355.701 140.097 355.701 138.968C355.701 137.838 355.136 137.284 354.017 137.284ZM354.017 146.631H352.555C351.435 146.631 350.871 147.196 350.871 148.315C350.871 149.435 351.425 149.999 352.555 149.999H354.017C355.136 149.999 355.701 149.435 355.701 148.315C355.701 147.196 355.136 146.631 354.017 146.631Z" fill="#552684"/>
<path d="M392.87 121.583C395.159 121.583 397.438 121.805 399.697 122.238C401.966 122.672 404.003 123.428 405.828 124.507C407.653 125.586 409.136 126.998 410.285 128.783C411.425 130.558 412 132.816 412 135.539C412 137.586 411.465 139.542 410.396 141.418C409.327 143.294 407.976 145.008 406.342 146.571C404.709 148.134 402.924 149.505 400.978 150.695C399.032 151.885 397.156 152.853 395.351 153.579C394.958 153.72 394.716 154.043 394.625 154.527L394.403 158.036C394.302 159.156 393.697 159.72 392.578 159.72C391.458 159.72 390.722 159.186 390.39 158.117L389.371 154.83C389.129 154.003 389.139 153.226 389.411 152.49C389.674 151.764 390.158 151.129 390.833 150.594C392.003 149.667 393.183 148.608 394.373 147.418C395.563 146.228 396.662 144.968 397.66 143.657C398.658 142.346 399.475 140.994 400.111 139.603C400.746 138.211 401.058 136.89 401.058 135.62C401.058 132.796 400.211 130.729 398.507 129.408C396.803 128.087 394.635 127.431 392.003 127.431C388.837 127.431 386.255 128.289 384.259 129.983C382.262 131.687 380.628 133.855 379.368 136.487C379.126 136.88 378.833 137.072 378.49 137.072C378.057 137.072 377.785 136.9 377.684 136.557V136.416L376.151 131.526C375.959 130.991 375.929 130.396 376.08 129.741C376.222 129.085 376.514 128.561 376.958 128.168C379.096 126.07 381.526 124.457 384.228 123.307C386.931 122.168 389.815 121.593 392.88 121.593L392.87 121.583ZM392.285 164.016C394.232 164.016 395.805 164.601 396.995 165.771C398.185 166.941 398.78 168.493 398.78 170.45C398.78 172.406 398.174 173.899 396.954 175.088C395.734 176.278 394.181 176.873 392.275 176.873C390.369 176.873 388.756 176.288 387.566 175.119C386.376 173.949 385.781 172.396 385.781 170.44C385.781 168.483 386.376 166.87 387.566 165.73C388.756 164.591 390.329 164.016 392.275 164.016H392.285Z" fill="#552684"/>
</svg>
